<svg xmlns="http://www.w3.org/2000/svg" viewBox="0 0 1000.15 727"><defs><style>.cls-1{fill:#4ca9d6;}.cls-2{fill:#8dbfd3;}.cls-3{fill:#2c669b;}.cls-4{fill:#b1cfd8;}.cls-5{fill:#2b669b;}.cls-6{fill:#bee6f2;}.cls-13,.cls-7{fill:none;}.cls-8{fill:#eaeab9;}.cls-9{fill:#efea9f;}.cls-10{fill:#f9ef65;}.cls-11{fill:#e0b892;}.cls-12{fill:#e9a255;}.cls-13{stroke:#ad772b;stroke-miterlimit:10;stroke-width:3px;}</style></defs><title>Cityscape</title><g id="OMIZUU"><rect class="cls-1" width="1000" height="727"/></g><g id="rifurekushon"><path class="cls-2" d="M581.07,273.84H643.9"/><path class="cls-3" d="M581.07,283.84H643.9c12.87,0,12.89-20,0-20H581.07c-12.87,0-12.89,20,0,20Z"/><path class="cls-4" d="M466.23,264.5H595.07c9.65,0,9.67-15,0-15H466.23c-9.65,0-9.67,15,0,15Z"/><path class="cls-4" d="M503.11,252.63H632c9.65,0,9.67-15,0-15H503.11c-9.65,0-9.67,15,0,15Z"/><path class="cls-4" d="M494.79,276.37H623.64c9.65,0,9.67-15,0-15H494.79c-9.65,0-9.67,15,0,15Z"/><path class="cls-4" d="M684.39,425.09H834.2c9.65,0,9.67-15,0-15H684.39c-9.65,0-9.67,15,0,15Z"/><path class="cls-4" d="M233.2,487.59H386.26c9.65,0,9.67-15,0-15H233.2c-9.65,0-9.67,15,0,15Z"/><path class="cls-4" d="M197.35,472.58H350.41c9.65,0,9.67-15,0-15H197.35c-9.65,0-9.67,15,0,15Z"/><path class="cls-2" d="M497.85,418.18h106.6"/><path class="cls-5" d="M497.85,428.18h106.6c12.87,0,12.89-20,0-20H497.85c-12.87,0-12.89,20,0,20Z"/><path class="cls-2" d="M595.1,292.49h62.83"/><path class="cls-3" d="M595.1,302.49h62.83c12.87,0,12.89-20,0-20H595.1c-12.87,0-12.89,20,0,20Z"/><path class="cls-2" d="M549.09,436.83h62.83"/><path class="cls-3" d="M549.09,446.83h62.83c12.87,0,12.89-20,0-20H549.09c-12.87,0-12.89,20,0,20Z"/><path class="cls-4" d="M713,439.33H866c9.65,0,9.67-15,0-15H713c-9.65,0-9.67,15,0,15Z"/><path class="cls-4" d="M82.83,315H235.9c9.65,0,9.67-15,0-15H82.83c-9.65,0-9.67,15,0,15Z"/><path class="cls-4" d="M47,300H200c9.65,0,9.67-15,0-15H47c-9.65,0-9.67,15,0,15Z"/><path class="cls-2" d="M97,540.18h106.6"/><path class="cls-5" d="M97,550.18h106.6c12.87,0,12.89-20,0-20H97c-12.87,0-12.89,20,0,20Z"/><path class="cls-2" d="M148.21,558.83H211"/><path class="cls-3" d="M148.21,568.83H211c12.87,0,12.89-20,0-20H148.21c-12.87,0-12.89,20,0,20Z"/></g><g id="sukaiiii"><rect class="cls-6" width="1000" height="185.77"/><path class="cls-7" d="M133.08,39.58a2.82,2.82,0,1,1-3.22-2.36A2.83,2.83,0,0,1,133.08,39.58Z"/><path class="cls-8" d="M883.64,10.44a28.86,28.86,0,0,1,37,17.46,29.15,29.15,0,0,1-17.35,37.26,28.86,28.86,0,0,1-37-17.46A29.15,29.15,0,0,1,883.64,10.44Z"/><path class="cls-9" d="M911.69,34.59a18.45,18.45,0,1,1-21.11-15.42A18.55,18.55,0,0,1,911.69,34.59Z"/><path class="cls-10" d="M902.4,36.37a9,9,0,1,1-10.34-7.56A9.09,9.09,0,0,1,902.4,36.37Z"/></g><g id="niban_obiru" data-name="niban obiru"><rect class="cls-11" x="910.71" y="29.56" width="40.04" height="156.21" transform="translate(1861.46 215.33) rotate(-180)"/><rect class="cls-11" x="845" y="48.13" width="60.57" height="137.64" transform="translate(1750.57 233.9) rotate(-180)"/><rect class="cls-11" x="778.27" y="29.56" width="55.44" height="156.21" transform="translate(1611.97 215.33) rotate(-180)"/><rect class="cls-11" x="707.43" y="63.23" width="63.65" height="122.54" transform="translate(1478.5 249) rotate(-180)"/><rect class="cls-11" x="633.11" y="48.13" width="44.54" height="136.31" transform="translate(1310.76 232.57) rotate(-180)"/><rect class="cls-11" x="577.67" y="29.56" width="55.44" height="156.21" transform="translate(1210.78 215.33) rotate(-180)"/><rect class="cls-11" x="505.68" y="54.76" width="65.19" height="128.35" transform="translate(1076.56 237.88) rotate(-180)"/><rect class="cls-11" x="958.96" y="55" width="40.04" height="130.77" transform="translate(1957.96 240.77) rotate(-180)"/><rect class="cls-11" x="66.5" y="74.66" width="40.04" height="109.12"/><rect class="cls-11" x="103.74" y="29.56" width="68.51" height="154.22"/><rect class="cls-11" x="176.63" y="48.13" width="62.35" height="135.65"/><rect class="cls-11" x="247.47" y="61.24" width="59.27" height="122.54"/><rect class="cls-11" x="309.07" y="29.56" width="52.8" height="152.89"/><rect class="cls-11" x="384.14" y="27.57" width="55.44" height="156.21"/><rect class="cls-11" x="447.91" y="9" width="55.44" height="173.45"/><rect class="cls-11" x="1.07" y="48.13" width="57.22" height="135.65"/><rect class="cls-11" x="672.52" y="91.9" width="40.04" height="93.87" transform="translate(1385.08 277.67) rotate(-180)"/><rect class="cls-11" x="347.06" y="91.9" width="40.04" height="93.87" transform="translate(734.16 277.67) rotate(-180)"/><rect class="cls-11" x="881.96" y="77.31" width="47.23" height="108.46" transform="translate(1811.15 263.08) rotate(-180)"/><rect class="cls-11" x="685.53" y="24.91" width="17.5" height="160.86" transform="translate(1388.55 210.68) rotate(-180)"/><rect class="cls-11" x="691.67" y="12" width="4.16" height="74.39" transform="translate(1387.49 98.39) rotate(-180)"/></g><g id="ichiban_obiru" data-name="ichiban obiru"><rect class="cls-12" x="52.96" y="68" width="38.92" height="117.77"/><rect class="cls-12" x="96.87" y="82" width="58.88" height="103.77"/><rect class="cls-12" x="166.73" y="68" width="53.89" height="117.77"/><rect class="cls-12" x="227.6" y="93.38" width="61.87" height="92.38"/><rect class="cls-12" x="318.41" y="82" width="43.29" height="102.77"/><rect class="cls-12" x="361.71" y="100" width="53.89" height="85.77"/><rect class="cls-12" x="422.2" y="87" width="63.37" height="96.77"/><rect class="cls-12" x="6.06" y="115" width="38.92" height="70.77"/><rect class="cls-12" x="873.53" y="102" width="38.92" height="82.27" transform="translate(1785.98 286.27) rotate(-180)"/><rect class="cls-12" x="809.66" y="68" width="66.6" height="116.27" transform="translate(1685.92 252.27) rotate(-180)"/><rect class="cls-12" x="744.8" y="82" width="60.61" height="102.27" transform="translate(1550.2 266.27) rotate(-180)"/><rect class="cls-12" x="678.93" y="91.88" width="57.61" height="92.38" transform="translate(1415.48 276.15) rotate(-180)"/><rect class="cls-12" x="625.35" y="68" width="51.32" height="115.27" transform="translate(1302.02 251.27) rotate(-180)"/><rect class="cls-12" x="549.82" y="66.5" width="53.89" height="117.77" transform="translate(1153.52 250.77) rotate(-180)"/><rect class="cls-12" x="487.83" y="52.5" width="53.89" height="130.77" transform="translate(1029.55 235.77) rotate(-180)"/><rect class="cls-12" x="920.43" y="82" width="55.62" height="102.27" transform="translate(1896.49 266.27) rotate(-180)"/><rect class="cls-12" x="284.48" y="115" width="38.92" height="70.77"/><rect class="cls-12" x="600.83" y="115" width="38.92" height="70.77"/><rect class="cls-12" x="73.92" y="104" width="45.91" height="81.77"/><rect class="cls-12" x="965.07" y="103" width="34.93" height="81.77"/></g><g id="bailando"><line class="cls-13" y1="185.77" x2="1000.15" y2="185.77"/></g></svg>