<?xml version="1.0" encoding="utf-8"?>
<!-- Generator: Adobe Illustrator 20.0.0, SVG Export Plug-In . SVG Version: 6.00 Build 0)  -->
<svg version="1.1" xmlns="http://www.w3.org/2000/svg" xmlns:xlink="http://www.w3.org/1999/xlink" x="0px" y="0px"
	 viewBox="0 0 1000 713" style="enable-background:new 0 0 1000 713;" xml:space="preserve">
<style type="text/css">
	.st0{fill:#4CA9D6;}
	.st1{fill:#8DBFD3;}
	.st2{fill:#2C669B;}
	.st3{fill:#B1CFD8;}
	.st4{fill:#2B669B;}
	.st5{fill:none;}
	.st6{fill:#BEE6F2;}
	.st7{fill:#B5DBE9;}
	.st8{fill:#9EDDF9;}
	.st9{fill:#9BCFE5;}
	.st10{fill:#80C5E0;}
	.st11{fill:#82D4F7;}
	.st12{fill:#A2D3E4;}
	.st13{fill:#E6E7E8;}
	.st14{fill:#FBB040;}
	.st15{fill:#EAEAB9;}
	.st16{fill:#EFEA9F;}
	.st17{fill:#F9EF65;}
	.st18{display:none;}
	.st19{display:inline;}
	.st20{fill:#E6E6E6;}
	.st21{fill:#BCBEC0;}
	.st22{fill:none;stroke:#000000;stroke-miterlimit:10;}
</style>
<g id="wateria">
	<rect class="st0" width="1000" height="717"/>
</g>
<g id="reflectia">
	<g>
		<path class="st1" d="M547.8,343.3c20.9,0,41.9,0,62.8,0"/>
		<g>
			<path class="st2" d="M547.8,353.3c20.9,0,41.9,0,62.8,0c12.9,0,12.9-20,0-20c-20.9,0-41.9,0-62.8,0
				C534.9,333.3,534.9,353.3,547.8,353.3L547.8,353.3z"/>
		</g>
	</g>
	<g>
		<g>
			<path class="st3" d="M432.9,333.9c42.9,0,85.9,0,128.8,0c9.7,0,9.7-15,0-15c-42.9,0-85.9,0-128.8,0
				C423.3,318.9,423.3,333.9,432.9,333.9L432.9,333.9z"/>
		</g>
	</g>
	<g>
		<g>
			<path class="st3" d="M469.8,322.1c42.9,0,85.9,0,128.8,0c9.7,0,9.7-15,0-15c-42.9,0-85.9,0-128.8,0
				C460.2,307.1,460.1,322.1,469.8,322.1L469.8,322.1z"/>
		</g>
	</g>
	<g>
		<g>
			<path class="st3" d="M461.5,345.8c42.9,0,85.9,0,128.8,0c9.7,0,9.7-15,0-15c-42.9,0-85.9,0-128.8,0
				C451.8,330.8,451.8,345.8,461.5,345.8L461.5,345.8z"/>
		</g>
	</g>
	<g>
		<g>
			<path class="st3" d="M736.4,447.1c49.9,0,99.9,0,149.8,0c9.7,0,9.7-15,0-15c-49.9,0-99.9,0-149.8,0
				C726.7,432.1,726.7,447.1,736.4,447.1L736.4,447.1z"/>
		</g>
	</g>
	<g>
		<g>
			<path class="st3" d="M285.2,509.6c51,0,102,0,153.1,0c9.7,0,9.7-15,0-15c-51,0-102,0-153.1,0
				C275.5,494.6,275.5,509.6,285.2,509.6L285.2,509.6z"/>
		</g>
	</g>
	<g>
		<g>
			<path class="st3" d="M249.3,494.6c51,0,102,0,153.1,0c9.7,0,9.7-15,0-15c-51,0-102,0-153.1,0
				C239.7,479.6,239.7,494.6,249.3,494.6L249.3,494.6z"/>
		</g>
	</g>
	<g>
		<path class="st1" d="M549.8,440.2c35.5,0,71.1,0,106.6,0"/>
		<g>
			<path class="st4" d="M549.8,450.2c35.5,0,71.1,0,106.6,0c12.9,0,12.9-20,0-20c-35.5,0-71.1,0-106.6,0
				C537,430.2,537,450.2,549.8,450.2L549.8,450.2z"/>
		</g>
	</g>
	<g>
		<path class="st1" d="M561.8,361.9c20.9,0,41.9,0,62.8,0"/>
		<g>
			<path class="st2" d="M561.8,371.9c20.9,0,41.9,0,62.8,0c12.9,0,12.9-20,0-20c-20.9,0-41.9,0-62.8,0
				C548.9,351.9,548.9,371.9,561.8,371.9L561.8,371.9z"/>
		</g>
	</g>
	<g>
		<path class="st1" d="M601.1,458.8c20.9,0,41.9,0,62.8,0"/>
		<g>
			<path class="st2" d="M601.1,468.8c20.9,0,41.9,0,62.8,0c12.9,0,12.9-20,0-20c-20.9,0-41.9,0-62.8,0
				C588.2,448.8,588.2,468.8,601.1,468.8L601.1,468.8z"/>
		</g>
	</g>
	<g>
		<g>
			<path class="st3" d="M765,461.3c51,0,102,0,153.1,0c9.7,0,9.7-15,0-15c-51,0-102,0-153.1,0C755.3,446.3,755.3,461.3,765,461.3
				L765,461.3z"/>
		</g>
	</g>
	<g>
		<g>
			<path class="st3" d="M134.8,337c51,0,102,0,153.1,0c9.7,0,9.7-15,0-15c-51,0-102,0-153.1,0C125.2,322,125.2,337,134.8,337
				L134.8,337z"/>
		</g>
	</g>
	<g>
		<g>
			<path class="st3" d="M99,322c51,0,102,0,153.1,0c9.7,0,9.7-15,0-15c-51,0-102,0-153.1,0C89.3,307,89.3,322,99,322L99,322z"/>
		</g>
	</g>
	<g>
		<path class="st1" d="M149,562.2c35.5,0,71.1,0,106.6,0"/>
		<g>
			<path class="st4" d="M149,572.2c35.5,0,71.1,0,106.6,0c12.9,0,12.9-20,0-20c-35.5,0-71.1,0-106.6,0
				C136.1,552.2,136.1,572.2,149,572.2L149,572.2z"/>
		</g>
	</g>
	<g>
		<path class="st1" d="M200.2,580.8c20.9,0,41.9,0,62.8,0"/>
		<g>
			<path class="st2" d="M200.2,590.8c20.9,0,41.9,0,62.8,0c12.9,0,12.9-20,0-20c-20.9,0-41.9,0-62.8,0
				C187.3,570.8,187.3,590.8,200.2,590.8L200.2,590.8z"/>
		</g>
	</g>
</g>
<g id="skyria">
	<line class="st5" x1="704.9" y1="107.7" x2="687.7" y2="198.9"/>
	<line class="st5" x1="724.2" y1="133.7" x2="696.3" y2="199.1"/>
	<rect x="1" y="1" class="st6" width="998" height="184.8"/>
</g>
<g id="ise_shadow">
	<g>
		<polygon class="st7" points="777.2,207.5 820.6,207.5 805.2,169.7 		"/>
		<polygon class="st8" points="898.7,108.7 867.7,136.7 854.2,204.9 867.7,136.7 850.7,143.7 840.7,169.7 838.7,207.5 897.7,207.5 
			926.7,151.7 		"/>
		<polygon class="st9" points="803.7,169.7 819.1,207.5 838.7,207.5 840.7,169.7 		"/>
		<polygon class="st8" points="991.7,188.7 958.7,175.7 930.7,207.5 998.7,207.5 		"/>
		<polygon class="st9" points="943.7,158.1 926.7,151.7 897.7,207.5 930.7,207.5 958.7,175.7 		"/>
	</g>
</g>
<g id="icebergia">
	<g>
		<polygon class="st10" points="743.2,152.9 728,244.2 740.7,244.5 762.5,178.9 		"/>
		<polygon class="st11" points="790.7,173.3 762.1,178 740.3,243.6 827.5,245.6 851.4,182.7 		"/>
		<polygon class="st10" points="851.4,182.7 827.5,245.6 835.5,245.8 865.4,197.3 		"/>
		<polygon class="st11" points="895.4,210.6 865.4,197.3 835.5,245.8 902.7,247.3 		"/>
		<polygon class="st10" points="625.9,212.1 640.6,242.8 687.9,243.9 661.9,198.8 		"/>
		<polygon class="st11" points="743.6,152.9 644.3,124.2 652.9,137.6 662.3,198.2 694.3,243.4 662.3,198.2 688.3,243.3 728.5,244.2 
					"/>
		<polygon class="st12" points="607.2,243.1 639.9,243.1 628.3,211.5 		"/>
	</g>
	<g>
		<polygon class="st12" points="59.3,206.4 102.6,206.4 87.3,168.6 		"/>
		<polygon class="st11" points="180.8,107.6 149.8,135.6 136.3,203.7 149.8,135.6 132.8,142.6 122.8,168.6 120.8,206.4 179.8,206.4 
			208.8,150.6 		"/>
		<polygon class="st10" points="85.8,168.6 101.1,206.4 120.8,206.4 122.8,168.6 		"/>
		<polygon class="st11" points="273.8,187.6 240.8,174.6 212.8,206.4 280.8,206.4 		"/>
		<polygon class="st10" points="225.8,157 208.8,150.6 179.8,206.4 212.8,206.4 240.8,174.6 		"/>
	</g>
	<polygon class="st11" points="380.7,218.4 414.7,194.3 487.2,211.6 516.7,206.4 547.7,218.4 	"/>
</g>
<g id="peguini">
	<g>
		<path d="M435.4,187.1c0-12.2-5.5-22.1-12.2-22.1s-12.2,9.9-12.2,22.1c0,7,1.8,13.2,4.6,17.2l15.1,0.3
			C433.5,200.5,435.4,194.2,435.4,187.1z"/>
		<path class="st13" d="M430.3,194.1c0-7.1-3.2-12.9-7.2-12.9s-7.2,5.8-7.2,12.9c0,4.1,1,7.7,2.7,10.1l8.9,0.2
			C429.2,202,430.3,198.3,430.3,194.1z"/>
		<polygon class="st14" points="423.3,175 426.5,177 423.3,177.9 		"/>
		<path d="M412.7,178.5c-2.1-0.8-10.6,14-8.9,15.4c1,0.8,5.6-2.2,7.9-6.7C413.5,183.7,413.8,178.9,412.7,178.5z"/>
		<path d="M433.5,178.5c2.1-0.8,10.6,13.9,8.9,15.3c-1,0.8-5.6-2.2-7.8-6.6C432.8,183.7,432.5,178.9,433.5,178.5z"/>
	</g>
	<g>
		<path d="M474.7,197.1c0-10.5-4.7-19-10.5-19c-5.8,0-10.5,8.5-10.5,19c0,6,1.5,11.3,3.9,14.8l13,0.2
			C473.1,208.7,474.7,203.2,474.7,197.1z"/>
		<path class="st13" d="M470.4,203.2c0-6.1-2.8-11.1-6.2-11.1c-3.4,0-6.2,5-6.2,11.1c0,3.5,0.9,6.6,2.3,8.7l7.6,0.1
			C469.4,209.9,470.4,206.8,470.4,203.2z"/>
		<polygon class="st14" points="464.3,186.7 467.1,188.4 464.3,189.2 		"/>
		<path d="M455.2,189.7c-1.8-0.7-9.1,12-7.6,13.2c0.8,0.7,4.8-1.9,6.8-5.7C455.9,194.2,456.2,190.1,455.2,189.7z"/>
		<path d="M473.1,189.7c1.8-0.7,9.1,12,7.6,13.2c-0.8,0.7-4.8-1.9-6.7-5.7C472.5,194.2,472.2,190.1,473.1,189.7z"/>
	</g>
	<g>
		<path d="M129.5,155.9c0-13.9-6.2-25.1-13.9-25.1s-13.9,11.3-13.9,25.1c0,7.9,2,15,5.2,19.6l17.2,0.3
			C127.4,171.2,129.5,164,129.5,155.9z"/>
		<path class="st13" d="M123.8,163.9c0-8.1-3.6-14.7-8.1-14.7s-8.1,6.6-8.1,14.7c0,4.6,1.2,8.8,3,11.5l10.1,0.2
			C122.5,172.9,123.8,168.7,123.8,163.9z"/>
		<polygon class="st14" points="115.8,142.2 119.4,144.5 115.8,145.5 		"/>
		<path d="M103.8,146.2c-2.4-0.9-12,15.9-10.1,17.5c1.1,0.9,6.4-2.5,8.9-7.6C104.6,152,105,146.6,103.8,146.2z"/>
		<path d="M127.4,146.2c2.4-0.9,12,15.8,10.1,17.4c-1.1,0.9-6.4-2.5-8.9-7.6C126.6,152,126.2,146.6,127.4,146.2z"/>
	</g>
</g>
<g id="sunnybun">
	<ellipse transform="matrix(0.9876 -0.1568 0.1568 0.9876 2.0003 149.2455)" class="st5" cx="946.9" cy="61.9" rx="2.8" ry="2.8"/>
	<ellipse transform="matrix(0.9403 -0.3403 0.3403 0.9403 33.3466 310.1942)" class="st15" cx="901" cy="60" rx="29.1" ry="29.1"/>
	<ellipse transform="matrix(0.9876 -0.1568 0.1568 0.9876 1.7822 142.0333)" class="st16" cx="901" cy="59.7" rx="18.6" ry="18.6"/>
	<ellipse transform="matrix(0.9876 -0.1568 0.1568 0.9876 1.7347 142.037)" class="st17" cx="901" cy="60" rx="9.1" ry="9.1"/>
</g>
<g id="polar_bearigate">
</g>
<g id="POOPDAH" class="st18">
	<g class="st19">
		<g>
			<polygon class="st13" points="487.5,290.3 500.6,304.4 494.9,322.9 476.2,327.2 463,313.1 468.7,294.6 			"/>
			<path class="st20" d="M499.2,287.4c-3.8-2.5-10.1,0.5-14.2,6.7l13.6,9C502.7,296.9,503,289.9,499.2,287.4z"/>
			<path class="st20" d="M457.3,296.9c-1.9,3.9,1.4,9.3,7.3,12.1l6.7-14.2C465.4,292.1,459.2,293,457.3,296.9z"/>
		</g>
		<circle class="st21" cx="480.1" cy="315" r="9"/>
		<circle cx="479.4" cy="312" r="2.9"/>
		<g>
			<circle cx="484.5" cy="302.2" r="1.2"/>
			<circle cx="474.3" cy="303.4" r="1.2"/>
		</g>
		<g>
			<path class="st20" d="M503.8,354.1L503.8,354.1c-3.4,1.2-7.2-0.6-8.4-4l-4.9-13.6c-1.2-3.4,0.6-7.2,4-8.4l0,0
				c3.4-1.2,7.2,0.6,8.4,4l4.9,13.6C508.9,349.1,507.2,352.9,503.8,354.1z"/>
			<path class="st20" d="M533.3,353.8L533.3,353.8c-3.4-1.3-5-5.1-3.7-8.5l5.2-13.5c1.3-3.4,5.1-5,8.5-3.7l0,0
				c3.4,1.3,5,5.1,3.7,8.5l-5.2,13.5C540.4,353.5,536.6,355.1,533.3,353.8z"/>
			<polygon class="st20" points="535.5,303.1 554.3,320.5 538.4,340.5 503.8,343.1 485.1,325.8 500.9,305.8 			"/>
			
				<ellipse transform="matrix(0.9996 -2.686254e-02 2.686254e-02 0.9996 -8.3103 15.0157)" class="st20" cx="554.7" cy="316.8" rx="5.6" ry="5.6"/>
			<path class="st20" d="M483,350.8L483,350.8c-3.4-1.2-5.2-4.9-4.1-8.3l4.7-13.7c1.2-3.4,4.9-5.2,8.3-4.1l0,0
				c3.4,1.2,5.2,4.9,4.1,8.3l-4.7,13.7C490.1,350.1,486.4,351.9,483,350.8z"/>
			<path class="st20" d="M557.1,348L557.1,348c-3.2,1.6-7.2,0.3-8.8-2.9l-6.5-12.9c-1.6-3.2-0.3-7.2,2.9-8.8v0
				c3.2-1.6,7.2-0.3,8.8,2.9l6.5,12.9C561.6,342.4,560.3,346.4,557.1,348z"/>
		</g>
		<g>
			<line class="st22" x1="479.4" y1="315" x2="479.3" y2="317.2"/>
			<line class="st22" x1="477.5" y1="318.2" x2="479.4" y2="317.1"/>
			<line class="st22" x1="481.1" y1="318.2" x2="479.2" y2="317.1"/>
			<line class="st22" x1="475.8" y1="316.9" x2="477.6" y2="318.3"/>
			<line class="st22" x1="483.1" y1="317.1" x2="481.2" y2="318.2"/>
		</g>
	</g>
</g>
</svg>
