<?xml version="1.0" encoding="utf-8"?>
<!-- Generator: Adobe Illustrator 20.0.0, SVG Export Plug-In . SVG Version: 6.00 Build 0)  -->
<svg version="1.1" xmlns="http://www.w3.org/2000/svg" xmlns:xlink="http://www.w3.org/1999/xlink" x="0px" y="0px"
	 viewBox="0 0 1000 722.4" style="enable-background:new 0 0 1000 722.4;" xml:space="preserve">
<style type="text/css">
	.st0{fill:#4CA9D6;}
	.st1{fill:none;stroke:#AD772B;stroke-width:5;stroke-miterlimit:10;}
	.st2{fill:#BEE6F2;}
	.st3{fill:#ABADB0;}
	.st4{fill:#F5F5F6;}
	.st5{fill:#808285;}
	.st6{fill:#4D4D4D;}
	.st7{fill:#666666;}
	.st8{fill:#F2F2F2;}
	.st9{fill:#C2C2C2;}
	.st10{fill:none;stroke:#8B5E3C;stroke-width:10;stroke-miterlimit:10;}
	.st11{fill:#599B43;}
	.st12{fill:#7CC360;}
	.st13{fill:#2B6E36;}
	.st14{fill:#EAEAB9;}
	.st15{fill:#EFEA9F;}
	.st16{fill:#F9EF65;}
	.st17{fill:#8DBFD3;}
	.st18{fill:#2C669B;}
	.st19{fill:#B1CFD8;}
	.st20{fill:#2B669B;}
	.st21{fill:#333333;}
	.st22{fill:#A3A3A3;}
	.st23{fill:#F0F0F0;}
</style>
<g id="wooder">
	<rect x="-3" class="st0" width="1005" height="722.4"/>
	<line class="st1" x1="-5.5" y1="187.4" x2="994.5" y2="187.4"/>
</g>
<g id="skeeai">
	<rect x="-0.5" class="st2" width="1000" height="184.8"/>
</g>
<g id="behoondmoontain">
	<g>
		<polygon class="st3" points="523.3,187.9 565.4,131.8 568.7,127.3 589.1,100.2 664.2,187.9 		"/>
		<path class="st4" d="M568.1,127.1l21.1-27.5c7.5,8.9,15,17.8,22.6,26.7c-4.3-2.6-8.5-5.1-12.8-7.7c-0.6,4.1-1.3,8.3-1.9,12.4
			c-2.9-4.4-5.8-8.9-8.6-13.3c-1.8,4.9-3.5,9.9-5.3,14.8c-1.6-3.9-3.1-7.7-4.7-11.6C575,123,571.6,125.1,568.1,127.1z"/>
	</g>
	<g>
		<polygon class="st3" points="640.8,186.3 675.8,139.6 678.6,135.8 695.5,113.2 758.1,186.3 		"/>
		<path class="st4" d="M678.1,135.6l17.6-22.9c6.3,7.4,12.5,14.8,18.8,22.2c-3.6-2.1-7.1-4.3-10.7-6.4c-0.5,3.4-1,6.9-1.6,10.3
			c-2.4-3.7-4.8-7.4-7.2-11.1c-1.5,4.1-2.9,8.2-4.4,12.3c-1.3-3.2-2.6-6.4-3.9-9.6C683.8,132.2,680.9,133.9,678.1,135.6z"/>
	</g>
</g>
<g id="mirooo_mootain">
	<path class="st5" d="M717,196"/>
	<g>
		<path class="st6" d="M79.2,97.7c-2.2,6.2-4.4,12.5-6.7,18.7c-2-4.9-3.9-9.7-5.9-14.6c-3.8,2.2-7.6,4.5-11.3,6.7l-0.9,1.2l-4.3,5.7
			L-3,186.3h83.1V99.2C79.8,98.7,79.5,98.2,79.2,97.7z"/>
		<path class="st7" d="M108,108.2c-5.2-3.1-10.3-6.2-15.5-9.4c-0.8,5.2-1.6,10.4-2.4,15.7c-3.3-5.1-6.6-10.2-10-15.3v87.1h94.7
			L108,108.2z"/>
		<path class="st8" d="M80.1,99.2c3.3,5.1,6.6,10.2,10,15.3c0.8-5.2,1.6-10.4,2.4-15.7c5.2,3.1,10.3,6.2,15.5,9.4L80.1,75.7V99.2z"
			/>
		<path class="st9" d="M72.5,116.4c2.2-6.2,4.4-12.5,6.7-18.7c0.3,0.5,0.6,1,0.9,1.5V75.7L80,75.5l-24.7,33
			c3.8-2.2,7.6-4.5,11.3-6.7C68.6,106.7,70.5,111.5,72.5,116.4z"/>
	</g>
	<g>
		<path class="st6" d="M442.2,71.3c-1.4,3.7-2.7,7.5-4.1,11.2c-4-3.1-8-6.2-11.9-9.3c-2.5,4.4-5.1,8.8-7.6,13.3
			c-1.7-2.8-3.5-5.6-5.2-8.5c-7.2,7.2-11.5,11.1-13,11.7l-0.5,0.7l-72.7,97h142.4L449.4,79.1C447,76.5,444.6,73.9,442.2,71.3z"/>
		<path class="st7" d="M490.6,93.6c-10.4-7.1-20.8-14.1-31.2-21.2L454.9,85c-1.8-2-3.6-4-5.5-6l20.1,108.3h101.4L490.6,93.6z"/>
		<path class="st9" d="M418.6,86.3c2.5-4.4,5.1-8.8,7.6-13.3c4,3.1,8,6.2,11.9,9.3c1.4-3.7,2.7-7.5,4.1-11.2
			c2.4,2.6,4.8,5.2,7.2,7.8l-8-42.9l-0.5-0.6l-35.2,47l-5.3,7.1c1.5-0.7,5.8-4.6,13-11.7C415.1,80.7,416.9,83.5,418.6,86.3z"/>
		<path class="st8" d="M449.4,79.1c1.8,2,3.6,4,5.5,6l4.6-12.6c10.4,7.1,20.8,14.1,31.2,21.2l-49.2-57.4L449.4,79.1z"/>
	</g>
	<g>
		<path class="st6" d="M761.6,93.7c-2.4,6.6-4.7,13.2-7.1,19.8c-2.1-5.2-4.2-10.3-6.3-15.5c-4.2,2.5-8.5,5-12.7,7.5l-1,1.3l-4.5,6
			l-56.3,75.1h114.6L770,106.6C767.2,102.3,764.4,98,761.6,93.7z"/>
		<path class="st7" d="M790.2,103.6c-4.8-2.9-9.6-5.8-14.4-8.7c-0.8,5.5-1.7,11.1-2.5,16.6c-1.1-1.6-2.1-3.3-3.2-4.9l18.4,81.5h74.1
			L790.2,103.6z"/>
		<path class="st8" d="M770,106.6c1.1,1.6,2.1,3.3,3.2,4.9c0.8-5.5,1.7-11.1,2.5-16.6c4.8,2.9,9.6,5.8,14.4,8.7l-28.3-33L770,106.6z
			"/>
		<path class="st9" d="M754.6,113.5c2.4-6.6,4.7-13.2,7.1-19.8c2.8,4.3,5.6,8.6,8.4,12.9l-8.1-36l-26.3,35c4.2-2.5,8.5-5,12.7-7.5
			C750.4,103.2,752.5,108.4,754.6,113.5z"/>
	</g>
</g>
<g id="trays">
	<g>
		<line class="st10" x1="209.9" y1="179.5" x2="209.9" y2="185.5"/>
		<polygon class="st11" points="210.5,134.2 194.4,153 205.9,153 192.1,166.8 201.3,170.3 187.9,179.9 232,179.9 215.9,168.7 
			228.2,166.8 216.3,151.8 225.5,151.8 		"/>
	</g>
	<g>
		<polygon class="st12" points="173.3,146.5 161.8,156 167.6,156 155.7,166.3 164.5,166.3 147.7,177.8 195.8,177.8 179,165.6 
			190.8,166 179,155.7 188.5,155.7 		"/>
		<line class="st10" x1="172.1" y1="177.5" x2="172.1" y2="183.5"/>
	</g>
	<g>
		<line class="st10" x1="624.2" y1="180.1" x2="624.2" y2="187.1"/>
		<g>
			<path class="st13" d="M613.1,168.2l-2.4,2h9.9l-15.3,11.2h18.9v-31c-0.9,0-1.7,0.1-2.6,0.3l-8.2,10.9h7.6L613.1,168.2"/>
			<path class="st13" d="M625.5,170.2h9.9l-10.3-8.5h7.6l-8.4-11.2c-0.8,0-1.6,0.1-2.4,0.2v30.8h18.9L625.5,170.2z"/>
		</g>
	</g>
	<g>
		<line class="st10" x1="651.5" y1="183" x2="651.5" y2="187.6"/>
		<polygon class="st11" points="651.9,148.2 639.6,162.6 648.4,162.6 637.8,173.2 644.9,175.9 634.6,183.2 668.4,183.2 656,174.7 
			665.4,173.2 656.3,161.8 663.4,161.8 		"/>
	</g>
	<g>
		<line class="st10" x1="244.3" y1="177.3" x2="244.3" y2="184.3"/>
		<g>
			<path class="st13" d="M233.4,165.6l-2.4,2h9.8l-15.1,11.1h18.6V148c-0.8,0-1.7,0.1-2.6,0.3l-8.1,10.8h7.5L233.4,165.6"/>
			<path class="st13" d="M245.7,167.6h9.8l-10.2-8.4h7.5l-8.3-11.1c-0.8,0-1.5,0.1-2.3,0.2v30.4h18.6L245.7,167.6z"/>
		</g>
	</g>
	<g>
		<line class="st10" x1="270.7" y1="181.8" x2="270.7" y2="187.8"/>
		<polygon class="st11" points="271.3,136.5 255.2,155.3 266.7,155.3 252.9,169.1 262.1,172.5 248.7,182.1 292.8,182.1 276.7,171 
			289,169.1 277.1,154.1 286.3,154.1 		"/>
	</g>
</g>
<g id="soon">
	<g>
		
			<ellipse transform="matrix(0.9403 -0.3403 0.3403 0.9403 41.0375 318.6422)" class="st14" cx="929" cy="42.3" rx="20.8" ry="20.8"/>
		
			<ellipse transform="matrix(0.9876 -0.1568 0.1568 0.9876 4.8902 146.1952)" class="st15" cx="929" cy="42.1" rx="13.3" ry="13.3"/>
		<ellipse transform="matrix(0.9876 -0.1568 0.1568 0.9876 4.8562 146.1979)" class="st16" cx="929" cy="42.3" rx="6.5" ry="6.5"/>
	</g>
</g>
<g id="reflectoo">
	<g>
		<path class="st17" d="M658.1,264.8c20.9,0,41.9,0,62.8,0"/>
		<g>
			<path class="st18" d="M658.1,274.8c20.9,0,41.9,0,62.8,0c12.9,0,12.9-20,0-20c-20.9,0-41.9,0-62.8,0
				C645.2,254.8,645.2,274.8,658.1,274.8L658.1,274.8z"/>
		</g>
	</g>
	<g>
		<g>
			<path class="st19" d="M543.2,255.5c42.9,0,85.9,0,128.8,0c9.7,0,9.7-15,0-15c-42.9,0-85.9,0-128.8,0
				C533.6,240.5,533.6,255.5,543.2,255.5L543.2,255.5z"/>
		</g>
	</g>
	<g>
		<g>
			<path class="st19" d="M580.1,243.6c42.9,0,85.9,0,128.8,0c9.7,0,9.7-15,0-15c-42.9,0-85.9,0-128.8,0
				C570.5,228.6,570.4,243.6,580.1,243.6L580.1,243.6z"/>
		</g>
	</g>
	<g>
		<g>
			<path class="st19" d="M571.8,267.4c42.9,0,85.9,0,128.8,0c9.7,0,9.7-15,0-15c-42.9,0-85.9,0-128.8,0
				C562.1,252.4,562.1,267.4,571.8,267.4L571.8,267.4z"/>
		</g>
	</g>
	<g>
		<g>
			<path class="st19" d="M761.4,416.1c49.9,0,99.9,0,149.8,0c9.7,0,9.7-15,0-15c-49.9,0-99.9,0-149.8,0
				C751.7,401.1,751.7,416.1,761.4,416.1L761.4,416.1z"/>
		</g>
	</g>
	<g>
		<g>
			<path class="st19" d="M310.2,478.6c51,0,102,0,153.1,0c9.7,0,9.7-15,0-15c-51,0-102,0-153.1,0
				C300.5,463.6,300.5,478.6,310.2,478.6L310.2,478.6z"/>
		</g>
	</g>
	<g>
		<g>
			<path class="st19" d="M274.3,463.6c51,0,102,0,153.1,0c9.7,0,9.7-15,0-15c-51,0-102,0-153.1,0
				C264.7,448.6,264.7,463.6,274.3,463.6L274.3,463.6z"/>
		</g>
	</g>
	<g>
		<path class="st17" d="M574.8,409.2c35.5,0,71.1,0,106.6,0"/>
		<g>
			<path class="st20" d="M574.8,419.2c35.5,0,71.1,0,106.6,0c12.9,0,12.9-20,0-20c-35.5,0-71.1,0-106.6,0
				C562,399.2,562,419.2,574.8,419.2L574.8,419.2z"/>
		</g>
	</g>
	<g>
		<path class="st17" d="M672.1,283.5c20.9,0,41.9,0,62.8,0"/>
		<g>
			<path class="st18" d="M672.1,293.5c20.9,0,41.9,0,62.8,0c12.9,0,12.9-20,0-20c-20.9,0-41.9,0-62.8,0
				C659.2,273.5,659.2,293.5,672.1,293.5L672.1,293.5z"/>
		</g>
	</g>
	<g>
		<path class="st17" d="M626.1,427.8c20.9,0,41.9,0,62.8,0"/>
		<g>
			<path class="st18" d="M626.1,437.8c20.9,0,41.9,0,62.8,0c12.9,0,12.9-20,0-20c-20.9,0-41.9,0-62.8,0
				C613.2,417.8,613.2,437.8,626.1,437.8L626.1,437.8z"/>
		</g>
	</g>
	<g>
		<g>
			<path class="st19" d="M790,430.3c51,0,102,0,153.1,0c9.7,0,9.7-15,0-15c-51,0-102,0-153.1,0C780.3,415.3,780.3,430.3,790,430.3
				L790,430.3z"/>
		</g>
	</g>
	<g>
		<g>
			<path class="st19" d="M159.8,306c51,0,102,0,153.1,0c9.7,0,9.7-15,0-15c-51,0-102,0-153.1,0C150.2,291,150.2,306,159.8,306
				L159.8,306z"/>
		</g>
	</g>
	<g>
		<g>
			<path class="st19" d="M124,291c51,0,102,0,153.1,0c9.7,0,9.7-15,0-15c-51,0-102,0-153.1,0C114.3,276,114.3,291,124,291L124,291z"
				/>
		</g>
	</g>
	<g>
		<path class="st17" d="M174,531.2c35.5,0,71.1,0,106.6,0"/>
		<g>
			<path class="st20" d="M174,541.2c35.5,0,71.1,0,106.6,0c12.9,0,12.9-20,0-20c-35.5,0-71.1,0-106.6,0
				C161.1,521.2,161.1,541.2,174,541.2L174,541.2z"/>
		</g>
	</g>
	<g>
		<path class="st17" d="M225.2,549.8c20.9,0,41.9,0,62.8,0"/>
		<g>
			<path class="st18" d="M225.2,559.8c20.9,0,41.9,0,62.8,0c12.9,0,12.9-20,0-20c-20.9,0-41.9,0-62.8,0
				C212.3,539.8,212.3,559.8,225.2,559.8L225.2,559.8z"/>
		</g>
	</g>
</g>
<g id="froont_moontain_1_">
	<g>
		<path class="st21" d="M875.6,93.4c-4.7-7.2-9.4-14.4-14.1-21.7c-2.9,8-5.7,16.1-8.6,24.1c-2.5-6.3-5.1-12.5-7.6-18.8
			c-4.9,2.9-9.8,5.8-14.6,8.7l-1.2,1.6l-5.5,7.4L755.5,186h167.4L877.7,79.1C877,83.8,876.3,88.6,875.6,93.4z"/>
		<path class="st7" d="M898.6,85.2c-6.7-4-13.3-8-20-12.1c-0.3,2-0.6,3.9-0.9,5.9L922.9,186h62L898.6,85.2z"/>
		<path class="st22" d="M852.9,95.8c2.9-8,5.7-16.1,8.6-24.1c4.7,7.2,9.4,14.4,14.1,21.7c0.7-4.8,1.4-9.6,2.2-14.3l-15.2-35.9
			l-31.9,42.6c4.9-2.9,9.8-5.8,14.6-8.7C847.8,83.3,850.4,89.6,852.9,95.8z"/>
		<path class="st23" d="M877.7,79.1c0.3-2,0.6-3.9,0.9-5.9c6.7,4,13.3,8,20,12.1l-36.1-42.1L877.7,79.1z"/>
	</g>
</g>
</svg>
