<svg id="wateryo" xmlns="http://www.w3.org/2000/svg" viewBox="0 0 1000 600"><defs><style>.cls-1{fill:#4ca9d6;}.cls-2{fill:#b1cfd8;}.cls-3{fill:#8dbfd3;}.cls-4{fill:#2b669b;}.cls-5{fill:#2c669b;}.cls-6{fill:#e3d393;}.cls-7{fill:#6fa553;}.cls-8{fill:#7b633c;}.cls-9{fill:#73c26e;}.cls-10{fill:#60b65a;}.cls-11{fill:#61b65b;}</style></defs><title>gosh alex</title><rect class="cls-1" width="1000" height="600"/><path class="cls-2" d="M443.23,307.5H572.07c9.65,0,9.67-15,0-15H443.23c-9.65,0-9.67,15,0,15h0Z"/><path class="cls-2" d="M471.79,319.37H600.64c9.65,0,9.67-15,0-15H471.79c-9.65,0-9.67,15,0,15h0Z"/><path class="cls-2" d="M480.11,295.63H609c9.65,0,9.67-15,0-15H480.11c-9.65,0-9.67,15,0,15h0Z"/><path class="cls-2" d="M661.39,468.09H811.2c9.65,0,9.67-15,0-15H661.39c-9.65,0-9.67,15,0,15h0Z"/><path class="cls-2" d="M210.2,530.59H363.26c9.65,0,9.67-15,0-15H210.2c-9.65,0-9.67,15,0,15h0Z"/><path class="cls-2" d="M174.35,515.58H327.41c9.65,0,9.67-15,0-15H174.35c-9.65,0-9.67,15,0,15h0Z"/><path class="cls-3" d="M474.85,461.18h106.6"/><path class="cls-4" d="M474.85,471.18h106.6c12.87,0,12.89-20,0-20H474.85c-12.87,0-12.89,20,0,20h0Z"/><path class="cls-3" d="M817.38,489.08H880.2"/><path class="cls-5" d="M817.38,499.08H880.2c12.87,0,12.89-20,0-20H817.38c-12.87,0-12.89,20,0,20h0Z"/><path class="cls-3" d="M831.41,507.73h62.83"/><path class="cls-5" d="M831.41,517.73h62.83c12.87,0,12.89-20,0-20H831.41c-12.87,0-12.89,20,0,20h0Z"/><path class="cls-3" d="M526.09,479.83h62.83"/><path class="cls-5" d="M526.09,489.83h62.83c12.87,0,12.89-20,0-20H526.09c-12.87,0-12.89,20,0,20h0Z"/><path class="cls-2" d="M690,482.33H843c9.65,0,9.67-15,0-15H690c-9.65,0-9.67,15,0,15h0Z"/><rect class="cls-6" width="1000" height="184.77"/><path class="cls-6" d="M597.09,216h70.82c18.31,0,35.85-16.1,35-35s-15.38-35-35-35H597.09c-18.31,0-35.85,16.1-35,35s15.38,35,35,35h0Z"/><path class="cls-6" d="M705.09,204.71H775.9c18.31,0,35.85-16.1,35-35s-15.38-35-35-35H705.09c-18.31,0-35.85,16.1-35,35s15.38,35,35,35h0Z"/><path class="cls-6" d="M200,208.85h70.82c18.31,0,35.85-16.1,35-35s-15.38-35-35-35H200c-18.31,0-35.85,16.1-35,35s15.38,35,35,35h0Z"/><path class="cls-7" d="M85,117.51H200c15.69,0,30.73-13.8,30-30s-13.18-30-30-30H85c-15.69,0-30.73,13.8-30,30s13.18,30,30,30h0Z"/><path class="cls-7" d="M762.47,147.28h87.05a46.43,46.43,0,0,0,31.82-13.18c7.8-7.8,13.68-20.61,13.18-31.82-0.52-11.64-4.34-23.71-13.18-31.82s-19.63-13.18-31.82-13.18H762.47a46.43,46.43,0,0,0-31.82,13.18c-7.8,7.8-13.68,20.61-13.18,31.82,0.52,11.64,4.34,23.71,13.18,31.82s19.63,13.18,31.82,13.18h0Z"/><path class="cls-7" d="M364.38,165.59h87.05c15.69,0,30.73-13.8,30-30s-13.18-30-30-30H364.38c-15.69,0-30.73,13.8-30,30s13.18,30,30,30h0Z"/><path class="cls-8" d="M109.62,23.58c-6.62,18.63-6.44,43,.47,61.41l-0.43-1.3"/><path class="cls-8" d="M107.21,22.91a96.09,96.09,0,0,0,.47,62.74c1.09,3,5.85,1.75,4.82-1.33L112.06,83c-1-3-5.85-1.73-4.82,1.33l0.43,1.3,4.82-1.33A91.62,91.62,0,0,1,112,24.24c1-3-3.78-4.36-4.82-1.33h0Z"/><path class="cls-8" d="M109.57,24.33l5.21-4.25c-3.74,15.07-7.54,31.46-4.94,47.14,1.07,6.48,3.19,12.36,5.28,18.16l-4,1.9a4.42,4.42,0,0,0-1.22-2"/><path class="cls-8" d="M111.34,26.09l5.21-4.25-4.18-2.43c-2.77,11.19-5.44,22.54-5.83,34.11S108.87,75.38,112.7,86l1.15-2.82-4,1.9,3.42,0.9a9,9,0,0,0-1.61-2.49c-2.06-2.48-5.58,1.08-3.54,3.54l0.83,1.48c0.59,1.3,2.31,1.42,3.42.9l4-1.9a2.5,2.5,0,0,0,1.15-2.82c-3.68-10.23-6.37-20.21-6-31.19s3-22,5.66-32.78A2.52,2.52,0,0,0,113,18.31l-5.21,4.25c-2.49,2,1.06,5.55,3.54,3.54h0Z"/><path class="cls-8" d="M112.53,80.5q-1.06-5-2.29-10c-0.78-3.14-5.48-1.8-4.82,1.33a79.47,79.47,0,0,0,3.52,12c1,2.55,4.83,2.3,4.91-.66,0.15-5.75-2.46-10.88-3.33-16.47l-4.82,1.33,3.53,12.67c0.86,3.1,5.66,1.79,4.82-1.33q-1.56-5.81-2.89-11.68l-4.82,1.33a31.06,31.06,0,0,1,1.59,5.35l4.82-1.33-1.55-4.23c-0.9-2.47-5.1-2.34-4.91.66a91.9,91.9,0,0,0,2.12,14.76c0.72,3.14,5.54,1.81,4.82-1.33a83.44,83.44,0,0,1-1.94-13.43l-4.91.66,1.55,4.23a2.5,2.5,0,0,0,4.82-1.33,31.07,31.07,0,0,0-1.59-5.35c-1.17-2.93-5.55-1.88-4.82,1.33q1.33,5.87,2.89,11.68L114,79.43l-3.53-12.67c-0.88-3.17-5.3-1.78-4.82,1.33,0.8,5.12,3.29,9.88,3.15,15.14l4.91-.66a79.47,79.47,0,0,1-3.52-12l-4.82,1.33q1.23,5,2.29,10c0.67,3.15,5.49,1.81,4.82-1.33h0Z"/><path class="cls-8" d="M110.38,41.63a29.77,29.77,0,0,0,1.81-13.78c-0.33-3.17-5.33-3.2-5,0a26.5,26.5,0,0,1-1.63,12.45c-1.15,3,3.68,4.31,4.82,1.33h0Z"/><path class="cls-9" d="M106.53,16.09c-15.24-6.31-34.69.7-42.47,15.3a81.41,81.41,0,0,1,40.06-12.57A38.16,38.16,0,0,0,86.34,45.3a56.16,56.16,0,0,1,23.44-20.16c1.24-.57,2.66-1.1,3.93-0.61A5.21,5.21,0,0,1,116,26.74a53,53,0,0,1,8.58,29.09,35.85,35.85,0,0,0,.29-25.46c-1.94-5.22-5.88-10.44-11.41-10.91A35.44,35.44,0,0,1,151.84,21a24.87,24.87,0,0,0-39.36-3.35A23.68,23.68,0,0,0,90.58,4.9a35,35,0,0,1,15.58,11.89"/><path class="cls-9" d="M107.2,13.68c-16.71-6.47-36.55.89-45.29,16.44-1.19,2.12,1.24,4.77,3.42,3.42a81.13,81.13,0,0,1,38.8-12.23l-1.26-4.66a41.42,41.42,0,0,0-18.93,28,2.51,2.51,0,0,0,4.57,1.93,56.23,56.23,0,0,1,9.33-10.71c3.19-2.82,8.5-7.44,12.84-8.36,4.74-1,7.59,8.57,8.79,12.19A53.08,53.08,0,0,1,122,55.83c0,2.94,4,3.24,4.91.66,4.47-12.13,3.85-36.8-12.87-39.45l0.6,4.57a33.36,33.36,0,0,1,35.89,1.57c2,1.41,4.82-1.39,3.42-3.42C143.82,5,123.33,2.92,110.71,15.91l3.93,0.51a26.6,26.6,0,0,0-24.05-14c-3,.06-3.17,3.89-0.66,4.91A33.83,33.83,0,0,1,104,18c1.94,2.51,6.28,0,4.32-2.52a40.17,40.17,0,0,0-17.08-13L90.58,7.4a21.55,21.55,0,0,1,19.73,11.54,2.52,2.52,0,0,0,3.93.51,22.72,22.72,0,0,1,35.44,2.84l3.42-3.42a38.32,38.32,0,0,0-40.93-1.57c-1.71,1-1.61,4.22.6,4.57,13.84,2.2,12.91,23.71,9.37,33.3L127,55.83a57.4,57.4,0,0,0-4.6-22.25c-1.71-4-4.29-11.11-9.39-11.64s-11.47,4.64-15.24,7.5A61,61,0,0,0,84.18,44L88.75,46a36.56,36.56,0,0,1,16.63-25c2-1.25,1.33-4.79-1.26-4.66A86.46,86.46,0,0,0,62.8,29.23l3.42,3.42A32.46,32.46,0,0,1,105.87,18.5c3,1.16,4.3-3.67,1.33-4.82h0Z"/><path class="cls-8" d="M389.86,76.75c1.72,12.68,5.55,24.24,9.49,35.42,3.78,10.72,8.23,22,15.22,26.09,4.71,2.75,10,1.8,14.62,4.91-6.45-4.13-13.17-8.57-17.74-17.3a84.91,84.91,0,0,1-4.8-12.25q-3.7-11.11-7.27-22.33c-2.74-8.6-5.51-17.95-4.82-27.64l-5.27,8.74,1.31,8.78"/><path class="cls-8" d="M387.45,77.41c2.24,15.49,7.19,30.9,13.25,45.31,2.32,5.52,5.08,11.35,9.6,15.44,5.13,4.64,11.93,3.85,17.62,7.17,2.8,1.63,5.22-2.58,2.52-4.32-5.29-3.4-10.5-7-14.24-12.16-4.38-6.06-6.37-13.53-8.68-20.53C402.81,94,396.3,78.94,397.05,63.64c0.13-2.55-3.43-3.3-4.66-1.26-1.63,2.7-4.74,6.23-5.52,9.33-0.72,2.88.88,7.21,1.31,10.11,0.47,3.17,5.29,1.82,4.82-1.33-0.38-2.52-1.49-5.84-.69-8.31s3-5,4.39-7.28l-4.66-1.26c-0.83,17,6.61,33.9,11.88,49.71,2.29,6.87,4.58,13.76,9.1,19.53,4.07,5.19,9.4,8.91,14.89,12.44l2.52-4.32c-5.42-3.16-12.37-2.43-17.09-6.82S406,123,403.82,117.14c-5.07-13.28-9.51-27-11.55-41.05-0.46-3.17-5.28-1.82-4.82,1.33h0Z"/><path class="cls-8" d="M411.9,64.53c-5.55,35.1-20.54,65.61-40,81.36a41.76,41.76,0,0,0,13-1.57,7.5,7.5,0,0,0,3.24-1.6,16.52,16.52,0,0,0,3-4.82c11.57-23.66,23-49.15,26.54-79.24a44.19,44.19,0,0,1-6.31,8"/><path class="cls-8" d="M409.49,63.87c-4.75,29.15-15.83,60.85-39.31,80.25-1.74,1.44-.25,4.24,1.77,4.27,7.79,0.12,16.66-.4,20.73-7.86,4.46-8.19,8.2-16.94,11.83-25.52,7.67-18.1,13.34-36.8,15.73-56.35,0.32-2.65-3.44-3.14-4.66-1.26a49.12,49.12,0,0,1-5.92,7.52c-2.24,2.31,1.29,5.85,3.54,3.54a55.58,55.58,0,0,0,6.71-8.53l-4.66-1.26c-2.07,17-6.83,33.43-13.18,49.29-3,7.49-6.36,14.84-9.84,22.13-1.55,3.23-2.88,7.7-5.47,10.24-3.41,3.35-10.25,3.15-14.8,3.08l1.77,4.27c24.06-19.88,35.72-52.58,40.59-82.46,0.51-3.15-4.3-4.5-4.82-1.33h0Z"/><path class="cls-9" d="M390.11,57.5c-5.77-1.72-11.74-3.11-17.72-2.61S360.36,58,356.71,63a24.29,24.29,0,0,1,18.84-.43C364,69,355.56,81.22,353.24,94.74A84.48,84.48,0,0,1,377.77,75a40.82,40.82,0,0,0-3.87,35.09c2.88-7,5.29-14.19,9.09-20.64s9.27-12.2,16.21-14.33,15.39,0.24,19.06,6.77c-1.5-9-9.25-16.48-17.94-17.26a28.06,28.06,0,0,1,25-8.74c-7.79-7.09-20.8-6.57-28.05,1.12,0.6-8.16,6.44-14.72,12.24-20.18A53,53,0,0,0,389.05,60.2"/><path class="cls-9" d="M390.78,55.09c-12.3-3.57-26.91-5-35.84,6.12-1.34,1.68-.16,5.24,2.43,4.18A23.45,23.45,0,0,1,374.88,65l-0.6-4.57a49.45,49.45,0,0,0-23.46,33.69c-0.42,2.24,2.39,4.48,4.18,2.43a86.44,86.44,0,0,1,24-19.32l-3.42-3.42a44,44,0,0,0-4.12,37c0.84,2.48,3.9,2.25,4.82,0,3.93-9.63,7.14-20.4,14.84-27.81,6.92-6.66,19-9.21,24.95.21a2.51,2.51,0,0,0,4.57-1.93,23.76,23.76,0,0,0-20.35-19.1l1.77,4.27a26.12,26.12,0,0,1,22.58-8.09c2.16,0.3,4.58-2.36,2.43-4.18a23.33,23.33,0,0,0-31.59,1.12L399.78,57c0.87-7.63,6.19-13.34,11.51-18.41,2-1.94-.61-5.45-3-3.93A57.16,57.16,0,0,0,386.9,58.94c-1.36,2.9,2.95,5.44,4.32,2.52A52.47,52.47,0,0,1,410.78,39l-3-3.93c-6.42,6.14-11.94,12.86-13,21.95-0.26,2.25,2.85,3.16,4.27,1.77a18.24,18.24,0,0,1,24.52-1.12L426,53.52a31.38,31.38,0,0,0-27.44,9.38c-1.65,1.7-.29,4,1.77,4.27,8.14,1.06,13.94,7.64,15.52,15.43l4.57-1.93c-6-9.53-18.5-11-27.71-5.25-11.91,7.49-16.2,21.74-21.22,34h4.82a39.06,39.06,0,0,1,3.62-33.17c1.34-2.2-1.28-4.58-3.42-3.42a90.32,90.32,0,0,0-25,20.1l4.18,2.43c2.43-12.86,9.8-24.05,21.16-30.7a2.53,2.53,0,0,0-.6-4.57,27.54,27.54,0,0,0-20.17.43l2.43,4.18c7.81-9.75,20.3-7.94,31-4.84,3.1,0.9,4.42-3.92,1.33-4.82h0Z"/><path class="cls-10" d="M418.32,44.65a26.25,26.25,0,0,1,22.82-7A40.14,40.14,0,0,0,426,49.27a46.83,46.83,0,0,1,29.79,12.59,15.48,15.48,0,0,1,3.34,4.08c1.57,3,1.48,6.88,3.42,9.67-0.44-1.93-2.17-3.18-3.79-4.2a139.46,139.46,0,0,0-33.88-15.55c11.85,10.9,17.13,28.22,16.55,44.76a265.09,265.09,0,0,0-22.67-34.7,6.38,6.38,0,0,0-2.62-2.33,6,6,0,0,0-2.82-.09c-8.08,1-16.2,2.27-23.88,5.09s-15,7.34-20.08,14a16.94,16.94,0,0,1,4.45-12.12,34.3,34.3,0,0,1,10.39-7.56c5.77-3,12.12-5.32,18.51-4.58a29.86,29.86,0,0,0-31.82-8.07,33.7,33.7,0,0,1,35.7-3.43c0.81-2.79-.75-5.67-2.26-8.13l-5.88-9.6A29,29,0,0,1,415.3,48a6.4,6.4,0,0,1,4.42-3.74"/><path class="cls-11" d="M420.09,46.42A24.35,24.35,0,0,1,440.48,40l-0.6-4.57a44.49,44.49,0,0,0-15.61,12A2.54,2.54,0,0,0,426,51.77a45,45,0,0,1,22.65,7.59c2.89,1.95,6.67,4.59,8.32,7.84,1.57,3.08,1.66,6.6,3.42,9.67,1.36,2.38,5.68.76,4.57-1.93-2.6-6.29-10.9-9.43-16.59-12.3a147.83,147.83,0,0,0-22.83-9.2,2.52,2.52,0,0,0-2.43,4.18c11.69,11.14,16.19,27.19,15.82,43l4.66-1.26A274.33,274.33,0,0,0,428.4,74.81c-3.64-5.21-7.69-14.3-15-13.81-16.58,1.1-35,6.42-45.73,19.82l4.27,1.77c-0.21-13.88,18.9-22.64,30.85-21.76C405,61,405.91,58,404.5,56.56a32.8,32.8,0,0,0-34.25-8.72l1.93,4.57A31.79,31.79,0,0,1,405.35,49a2.54,2.54,0,0,0,3.76-2.16c0.9-6.82-5.12-13.51-8.48-19l-3.42,3.42a27.34,27.34,0,0,1,15.67,17.41c0.62,2,3.5,2.56,4.57.6a4.08,4.08,0,0,1,2.93-2.59c3-1,1.74-5.83-1.33-4.82a9.73,9.73,0,0,0-5.92,4.89l4.57,0.6a32.16,32.16,0,0,0-18-20.39c-2.11-.9-4.86,1.07-3.42,3.42,2.77,4.52,8.53,10.93,7.8,16.47l3.76-2.16a36.7,36.7,0,0,0-38.22,3.43c-2.09,1.55-1,5.55,1.93,4.57A27.85,27.85,0,0,1,401,60.09l1.77-4.27c-14.84-1.09-36.1,10-35.85,26.76,0,2,2.84,3.54,4.27,1.77,9.67-12,24.46-15.89,39.13-17.94,3.46-.48,5.27-0.62,7.44,2.2,1.1,1.42,2.16,2.88,3.22,4.33q3.18,4.37,6.19,8.86c4.35,6.51,8.39,13.23,12.17,20.08,1.23,2.23,4.6,1.15,4.66-1.26,0.41-17.06-4.68-34.52-17.28-46.53l-2.43,4.18a140.46,140.46,0,0,1,19.24,7.51q4,1.93,7.9,4.13c2.65,1.49,7.58,3.46,8.78,6.38l4.57-1.93c-2-3.5-2-7.68-4.3-11.06s-5.9-6-9.23-8.24A50.15,50.15,0,0,0,426,46.77L427.8,51a41.29,41.29,0,0,1,14.6-11.25c1.86-.86,1.49-4.25-0.6-4.57a29.74,29.74,0,0,0-25.25,7.66c-2.38,2.18,1.16,5.7,3.54,3.54h0Z"/><path class="cls-8" d="M851.8,40.59a12.81,12.81,0,0,1-4.18,6.57,145.69,145.69,0,0,1-4.73,66.13l5.23-.75c3-11.7,6.08-23.5,7.39-35.81s0.78-25.32-3.1-36.52L851,41.88"/><path class="cls-8" d="M849.39,39.93c-0.89,2.62-3,4-4.06,6.27-1,2.12.51,5.94,0.75,8.14a145.11,145.11,0,0,1,.8,19.12,142,142,0,0,1-6.41,39.16c-0.63,2,1.32,3.33,3.08,3.08l5.23-.75a2.44,2.44,0,0,0,1.75-1.75c6.18-23.88,12.29-49.43,4.29-73.67-0.54-1.62-2.91-2.65-4.18-1.1l-1.37,1.67c-2,2.47,1.49,6,3.54,3.54L854.18,42,850,40.87c7.71,23.39,1.67,48-4.29,71l1.75-1.75-5.23.75L845.3,114A149.82,149.82,0,0,0,850,46.5l-0.64,2.43a17,17,0,0,0,4.82-7.68c1-3.05-3.79-4.36-4.82-1.33h0Z"/><path class="cls-9" d="M845.81,32.54c-9.64-6.33-23.27-7.7-34.31-3.45,9-.62,18.26,3.14,23.5,9.55-18.18-2.26-37.43,7.55-44,22.47a83,83,0,0,1,40.73-11.3,42.69,42.69,0,0,0-12.33,17.92l25.08-18.46a17.34,17.34,0,0,1,6-3.26c3.14-.78,6.5.09,9.48,1.25,8.39,3.25,15.85,9.29,18,17.07,3.47-9-2.64-19.91-12.91-23.07a63.87,63.87,0,0,1,43.18,6.47c0.15-8.69-9.1-15.87-18.93-17.4s-19.86,1.33-28.91,5A37.29,37.29,0,0,1,880.6,22.15C867.07,19.75,852.16,25,844.41,35"/><path class="cls-9" d="M847.07,30.38a42,42,0,0,0-36.24-3.7c-2.51.9-2.32,5,.66,4.91,8.34-.34,16.17,2.46,21.73,8.82L835,36.14c-18.1-1.92-38.2,6.71-46.21,23.71-1,2.17,1.12,4.75,3.42,3.42a82.42,82.42,0,0,1,39.46-11L829.91,48a47.74,47.74,0,0,0-13,19c-0.73,2,1.94,4.1,3.67,2.82l14.1-10.39C839.34,56.1,844.37,51,849.77,49c9.6-3.62,22.89,7.24,25.65,16a2.52,2.52,0,0,0,4.82,0c3.86-11.43-3.93-22.43-14.66-26.15v4.82a62.06,62.06,0,0,1,41.25,6.22,2.52,2.52,0,0,0,3.76-2.16c-0.35-9.39-8-15.94-16.41-18.75-11.38-3.79-23.88-.31-34.6,3.93L862,37.08a36.42,36.42,0,0,1,19.24-12.53c2.21-.62,2.55-4.42,0-4.82-14.15-2.2-29.34,2.16-38.62,13.47-2,2.47,1.49,6,3.54,3.54,8.09-9.86,21.29-14.13,33.76-12.19V19.73a40.94,40.94,0,0,0-21.44,13.81c-1.34,1.69-.18,5.21,2.43,4.18,8.36-3.31,17.4-6.17,26.51-5.12,8,0.92,17.83,6.05,18.16,15.13l3.76-2.16a67.57,67.57,0,0,0-45.1-6.73c-2.61.5-2.13,4.08,0,4.82,8.28,2.86,14.11,11.26,11.17,20h4.82C877,53.31,866.18,45,855.51,43.45c-7-1-11.74,3.21-17.05,7.12l-20.37,15,3.67,2.82a42.45,42.45,0,0,1,11.68-16.82,2.52,2.52,0,0,0-1.77-4.27,87.84,87.84,0,0,0-42,11.64l3.42,3.42c7.33-15.57,25.37-23,41.89-21.23,2.34,0.25,3-2.81,1.77-4.27C830.41,29.61,821,26.2,811.5,26.59l0.66,4.91a37.16,37.16,0,0,1,32.38,3.2c2.74,1.71,5.25-2.62,2.52-4.32h0Z"/><path class="cls-8" d="M748.91,31.18c-6.62,18.63-6.44,43,.47,61.41l-0.43-1.3"/><path class="cls-8" d="M746.5,30.52A96.09,96.09,0,0,0,747,93.26c1.09,3,5.85,1.75,4.82-1.33l-0.43-1.3c-1-3-5.85-1.73-4.82,1.33l0.43,1.3,4.82-1.33a91.62,91.62,0,0,1-.47-60.08c1-3-3.78-4.36-4.82-1.33h0Z"/><path class="cls-8" d="M748.86,31.93l5.21-4.25c-3.74,15.07-7.54,31.46-4.94,47.14,1.07,6.48,3.19,12.36,5.28,18.16l-4,1.9a4.42,4.42,0,0,0-1.22-2"/><path class="cls-8" d="M750.63,33.7l5.21-4.25L751.66,27c-2.77,11.19-5.44,22.54-5.83,34.11S748.16,83,752,93.64l1.15-2.82-4,1.9,3.42,0.9a9,9,0,0,0-1.61-2.49c-2.06-2.48-5.58,1.08-3.54,3.54l0.83,1.48c0.59,1.3,2.31,1.42,3.42.9l4-1.9a2.5,2.5,0,0,0,1.15-2.82c-3.68-10.23-6.37-20.21-6-31.19s3-22,5.66-32.78a2.52,2.52,0,0,0-4.18-2.43l-5.21,4.25c-2.49,2,1.06,5.55,3.54,3.54h0Z"/><path class="cls-8" d="M749.67,49.23a29.77,29.77,0,0,0,1.81-13.78c-0.33-3.17-5.33-3.2-5,0a26.5,26.5,0,0,1-1.63,12.45c-1.15,3,3.68,4.31,4.82,1.33h0Z"/><path class="cls-9" d="M745.82,23.69c-15.24-6.31-34.69.7-42.47,15.3a81.41,81.41,0,0,1,40.06-12.57A38.16,38.16,0,0,0,725.63,52.9a56.16,56.16,0,0,1,23.44-20.16c1.24-.57,2.66-1.1,3.93-0.61a5.21,5.21,0,0,1,2.27,2.21,53,53,0,0,1,8.58,29.09A35.85,35.85,0,0,0,764.13,38c-1.94-5.22-5.88-10.44-11.41-10.91a35.44,35.44,0,0,1,38.41,1.57,24.87,24.87,0,0,0-39.36-3.35A23.68,23.68,0,0,0,729.87,12.5a35,35,0,0,1,15.58,11.89"/><path class="cls-9" d="M746.49,21.28c-16.71-6.47-36.55.89-45.29,16.44-1.19,2.12,1.24,4.77,3.42,3.42a81.13,81.13,0,0,1,38.8-12.23l-1.26-4.66a41.42,41.42,0,0,0-18.93,28,2.51,2.51,0,0,0,4.57,1.93,56.23,56.23,0,0,1,9.33-10.71c3.19-2.82,8.5-7.44,12.84-8.36,4.74-1,7.59,8.57,8.79,12.19a53.08,53.08,0,0,1,2.58,16.14c0,2.94,4,3.24,4.91.66,4.47-12.13,3.85-36.8-12.87-39.45l0.6,4.57a33.36,33.36,0,0,1,35.89,1.57c2,1.41,4.82-1.39,3.42-3.42C783.11,12.56,762.62,10.53,750,23.51L753.92,24a26.6,26.6,0,0,0-24.05-14c-3,.06-3.17,3.89-0.66,4.91A33.83,33.83,0,0,1,743.3,25.65c1.94,2.51,6.28,0,4.32-2.52a40.17,40.17,0,0,0-17.08-13L729.87,15a21.55,21.55,0,0,1,19.73,11.54,2.52,2.52,0,0,0,3.93.51A22.72,22.72,0,0,1,789,29.89l3.42-3.42a38.32,38.32,0,0,0-40.93-1.57c-1.71,1-1.61,4.22.6,4.57,13.84,2.2,12.91,23.71,9.37,33.3l4.91,0.66a57.4,57.4,0,0,0-4.6-22.25c-1.71-4-4.29-11.11-9.39-11.64s-11.47,4.64-15.24,7.5a61,61,0,0,0-13.64,14.61L728,53.57a36.56,36.56,0,0,1,16.63-25c2-1.25,1.33-4.79-1.26-4.66a86.46,86.46,0,0,0-41.32,12.91l3.42,3.42A32.46,32.46,0,0,1,745.16,26.1c3,1.16,4.3-3.67,1.33-4.82h0Z"/></svg>