<svg id="Layer_2" data-name="Layer 2" xmlns="http://www.w3.org/2000/svg" xmlns:xlink="http://www.w3.org/1999/xlink" viewBox="0 0 789.9 477"><defs><style>.cls-1{fill:#bee6f1;}.cls-2{fill:url(#linear-gradient);}.cls-3{fill:#e2f2eb;}.cls-4{fill:#d3c1b6;}.cls-5{fill:#ecf6f2;}.cls-6{fill:#d3af8d;}</style><linearGradient id="linear-gradient" x1="395.2" y1="477" x2="395.2" y2="256.33" gradientUnits="userSpaceOnUse"><stop offset="0.34" stop-color="#32c0cf"/><stop offset="0.5" stop-color="#38c1cf"/><stop offset="0.69" stop-color="#48c4cf"/><stop offset="0.92" stop-color="#63c9d0"/><stop offset="1" stop-color="#6fcbd0"/></linearGradient></defs><title>the actual landing page background</title><path class="cls-1" d="M0.3,0V274H789.7V0H0.3ZM0.74,272.33v0Z" transform="translate(-0.3)"/><polygon class="cls-2" points="1.05 256.33 1.05 273.61 1.05 256.33 0.5 256.33 0.5 477 789.9 477 789.9 256.33 1.05 256.33"/><polygon class="cls-3" points="417.88 241.94 417.88 254.09 408.77 254.09 417.88 241.94"/><polygon class="cls-3" points="418.5 243.29 418.5 254.09 424.06 254.09 418.5 243.29"/><path class="cls-4" d="M422.78,254.58l-12.08.05a3.72,3.72,0,0,0,1.18,1.81,6.91,6.91,0,0,0,2.66.78c1,0,1.94.06,2.91,0h3.94A4.1,4.1,0,0,0,422.78,254.58Z" transform="translate(-0.3)"/><polygon class="cls-3" points="490.81 242.23 490.81 260.98 476.76 260.98 490.81 242.23"/><polygon class="cls-3" points="491.77 244.31 491.77 260.98 500.34 260.98 491.77 244.31"/><path class="cls-4" d="M498.22,261.74l-18.64.08a5.74,5.74,0,0,0,1.81,2.79,10.66,10.66,0,0,0,4.1,1.21c1.58,0,3,.1,4.5,0h6.07A6.33,6.33,0,0,0,498.22,261.74Z" transform="translate(-0.3)"/><polygon class="cls-5" points="176.62 217.68 176.62 252.25 206.08 252.25 176.62 217.68"/><polygon class="cls-5" points="174.61 221.53 174.61 252.25 156.66 252.25 174.61 221.53"/><path class="cls-6" d="M162.18,253.67l39.08,0.15a10.53,10.53,0,0,1-3.79,5.16,12.09,12.09,0,0,1-4.6,1.94,15,15,0,0,1-4,.29c-3.14-.11-6.29.18-9.44,0.14l-12.74-.14a11.83,11.83,0,0,1-3.56-4.32A10.91,10.91,0,0,1,162.18,253.67Z" transform="translate(-0.3)"/></svg>