<svg id="Layer_2" data-name="Layer 2" xmlns="http://www.w3.org/2000/svg" viewBox="0 0 600.63 304.96"><defs><style>.cls-1{fill:#bee6f1;}.cls-2{fill:#2dbfce;}.cls-3{fill:#e8eab8;}.cls-4{fill:#efe99d;}.cls-5{fill:#f7ef67;}.cls-6{fill:#ecf6f2;}.cls-7{fill:#d3af8d;}.cls-8{fill:#e2f2eb;}.cls-9{fill:#d3c2b6;}</style></defs><title>the renewed</title><path class="cls-1" d="M0,0V274H600.2V0H0ZM0.33,272.33v0Z" transform="translate(0.04)"/><path class="cls-2" d="M600.59,303.24L0.07,305,0,267.19a386.65,386.65,0,0,1,56-3.48c24,0.28,29.16,2.63,55.74,2.79,20.93,0.13,20.62-1.26,53.36-2.37,16.18-.55,37.59-1.23,64-0.18,32.39,1.28,32.7,3.6,56.71,3.53,25.73-.07,25.81-2.73,54-3.11,18.62-.25,17,0.93,57.37,2.05,21.44,0.6,32.35.9,48,.6,27.82-.53,26.91-2.14,44-1.6,24.82,0.77,26.15,4.12,48,3.55,14-.36,19.27-3.06,35.34-3.06A176.74,176.74,0,0,1,600,268Z" transform="translate(0.04)"/><path class="cls-3" d="M521,19.71a14.34,14.34,0,0,1,18.55,9,15.25,15.25,0,0,1-8.69,19.3,14.34,14.34,0,0,1-18.55-9A15.25,15.25,0,0,1,521,19.71Z" transform="translate(0.04)"/><path class="cls-4" d="M535.11,32.22a9.58,9.58,0,0,1-7.68,11,9.3,9.3,0,0,1-10.58-8,9.58,9.58,0,0,1,7.68-11A9.3,9.3,0,0,1,535.11,32.22Z" transform="translate(0.04)"/><path class="cls-5" d="M530.45,33.15a4.69,4.69,0,0,1-3.76,5.39,4.55,4.55,0,0,1-5.18-3.91,4.69,4.69,0,0,1,3.76-5.39A4.55,4.55,0,0,1,530.45,33.15Z" transform="translate(0.04)"/><polygon class="cls-6" points="184.07 227.77 184.07 259.83 209.27 259.83 184.07 227.77"/><polygon class="cls-6" points="182.34 231.33 182.34 259.83 166.99 259.83 182.34 231.33"/><path class="cls-7" d="M171.41,261.15l33.44,0.14a9.8,9.8,0,0,1-3.25,4.79c-1.58,1.23-6.61,2.1-7.35,2.07-2.69-.1-5.38.17-8.08,0.13l-10.9-.13A10.7,10.7,0,0,1,171.41,261.15Z" transform="translate(0.04)"/><polygon class="cls-8" points="464.54 252.78 464.54 264.12 455.63 264.12 464.54 252.78"/><polygon class="cls-8" points="465.15 254.04 465.15 264.12 470.58 264.12 465.15 254.04"/><path class="cls-9" d="M469,264.58l-11.82.05a3.46,3.46,0,0,0,1.15,1.69,7,7,0,0,0,2.6.73c1,0,1.9.06,2.85,0l3.85,0A3.78,3.78,0,0,0,469,264.58Z" transform="translate(0.04)"/></svg>