<?xml version="1.0" encoding="UTF-8" standalone="no"?>
<svg width="380px" height="71px" viewBox="0 0 380 71" version="1.1" xmlns="http://www.w3.org/2000/svg" xmlns:xlink="http://www.w3.org/1999/xlink">
    <!-- Generator: Sketch 3.8.2 (29753) - http://www.bohemiancoding.com/sketch -->
    <title>forrealthelogo</title>
    <desc>Created with Sketch.</desc>
    <defs></defs>
    <g id="Page-1" stroke="none" stroke-width="1" fill="none" fill-rule="evenodd">
        <g id="forrealthelogo" fill="#008EBA">
            <g id="final_loogoo_x3F_">
                <path d="M81,70.5 L71.4,70.5 L71.4,53.8 C70.7,54.2 69.9,54.6 69.2,55 C68.4,55.4 67.7,55.7 66.9,56.1 C66.1,56.4 65.3,56.7 64.5,56.8 C63.7,57 62.8,57.1 62,57.1 C59.4,57.1 56.9,56.6 54.6,55.7 C52.3,54.7 50.3,53.4 48.5,51.6 C46.8,49.9 45.4,47.8 44.4,45.4 C43.4,43 42.9,40.3 42.9,37.4 C42.9,34.5 43.4,31.8 44.4,29.4 C45.4,27 46.8,24.9 48.5,23.2 C50.2,21.5 52.2,20.2 54.6,19.2 C56.9,18.3 59.4,17.8 62,17.8 C63.2,17.8 64.4,18 65.6,18.3 C66.8,18.6 67.9,19 69,19.5 C70.1,20 71.2,20.6 72.2,21.4 C73.2,22.1 74.2,22.9 75.1,23.7 L78.8,19.3 L81.1,19.3 L81.1,70.5 L81,70.5 Z M71.4,37.3 C71.4,36 71.2,34.7 70.7,33.5 C70.2,32.3 69.5,31.2 68.7,30.3 C67.8,29.4 66.8,28.6 65.7,28 C64.6,27.4 63.3,27.1 62,27.1 C60.7,27.1 59.5,27.3 58.3,27.8 C57.2,28.3 56.2,29 55.3,29.8 C54.5,30.7 53.8,31.7 53.3,33 C52.8,34.2 52.6,35.6 52.6,37.2 C52.6,38.8 52.8,40.2 53.3,41.5 C53.8,42.8 54.5,43.8 55.3,44.7 C56.1,45.6 57.1,46.2 58.3,46.7 C59.4,47.2 60.7,47.4 62,47.4 C63.3,47.4 64.5,47.1 65.7,46.5 C66.8,45.9 67.8,45.2 68.7,44.2 C69.6,43.3 70.2,42.2 70.7,41 C71.2,39.9 71.4,38.6 71.4,37.3 L71.4,37.3 Z" id="Shape"></path>
                <path d="M115.6,51.9 C114.8,52.6 114,53.2 113.1,53.9 C112.2,54.5 111.3,55 110.4,55.5 C109.4,56 108.5,56.3 107.5,56.6 C106.5,56.9 105.5,57 104.4,57 C102.1,57 99.9,56.6 97.9,55.8 C95.9,55 94.1,53.8 92.6,52.3 C91.1,50.8 89.9,49 89,46.8 C88.1,44.7 87.7,42.3 87.7,39.6 L87.7,19 L97.2,19 L97.2,39.6 C97.2,40.9 97.4,42 97.8,43 C98.2,44 98.7,44.8 99.3,45.5 C99.9,46.2 100.7,46.7 101.6,47 C102.5,47.3 103.4,47.5 104.4,47.5 C105.4,47.5 106.3,47.3 107.2,46.8 C108.1,46.3 108.8,45.8 109.5,45 C110.2,44.3 110.7,43.4 111,42.5 C111.4,41.6 111.6,40.6 111.6,39.6 L111.6,19 L121.1,19 L121.1,56.2 L118.8,56.2 L115.6,51.9 L115.6,51.9 Z" id="Shape"></path>
                <path d="M164.3,56.3 L162,56.3 L158.3,51.2 C157.4,52 156.4,52.8 155.4,53.5 C154.4,54.2 153.3,54.8 152.2,55.3 C151.1,55.8 149.9,56.2 148.8,56.5 C147.6,56.8 146.4,57 145.2,57 C142.6,57 140.1,56.6 137.8,55.7 C135.5,54.8 133.5,53.5 131.8,51.9 C130.1,50.2 128.7,48.2 127.7,45.7 C126.7,43.2 126.2,40.5 126.2,37.4 C126.2,34.5 126.7,31.8 127.7,29.4 C128.7,27 130.1,24.9 131.8,23.2 C133.5,21.5 135.5,20.1 137.8,19.2 C140.1,18.2 142.6,17.8 145.2,17.8 C146.4,17.8 147.6,18 148.8,18.3 C150,18.6 151.1,19 152.2,19.6 C153.3,20.1 154.4,20.8 155.4,21.5 C156.4,22.2 157.4,23 158.2,23.8 L161.9,19.4 L164.2,19.4 L164.2,56.3 L164.3,56.3 Z M154.7,37.3 C154.7,36 154.5,34.7 154,33.5 C153.5,32.3 152.8,31.2 152,30.3 C151.1,29.4 150.1,28.6 149,28 C147.9,27.4 146.6,27.1 145.3,27.1 C144,27.1 142.8,27.3 141.6,27.8 C140.4,28.3 139.5,28.9 138.6,29.7 C137.8,30.6 137.1,31.6 136.6,32.9 C136.1,34.2 135.9,35.6 135.9,37.2 C135.9,38.8 136.1,40.3 136.6,41.5 C137.1,42.8 137.8,43.8 138.6,44.7 C139.4,45.6 140.4,46.2 141.6,46.6 C142.7,47 144,47.3 145.3,47.3 C146.6,47.3 147.8,47 149,46.4 C150.1,45.8 151.2,45.1 152,44.1 C152.9,43.2 153.5,42.1 154,40.9 C154.5,39.9 154.7,38.6 154.7,37.3 L154.7,37.3 Z" id="Shape"></path>
                <path d="M183.6,56.3 L174.1,56.3 L174.1,28.5 L169.5,28.5 L169.5,19 L174.1,19 L174.1,17.2 C174.1,14.9 174.5,12.7 175.4,10.7 C176.3,8.7 177.5,6.9 179,5.4 C180.5,3.9 182.3,2.7 184.3,1.9 C186.3,1 188.5,0.6 190.8,0.6 L197.9,0.6 L197.9,10.1 L190.8,10.1 C189.8,10.1 188.8,10.3 188,10.6 C187.1,11 186.4,11.5 185.7,12.1 C185.1,12.7 184.6,13.5 184.2,14.4 C183.8,15.3 183.6,16.2 183.6,17.2 L183.6,19 L195.2,19 L195.2,28.5 L183.6,28.5 L183.6,56.3 L183.6,56.3 Z" id="Shape"></path>
                <path d="M235,37.3 C235,40.1 234.5,42.7 233.5,45.1 C232.5,47.5 231.1,49.6 229.4,51.3 C227.7,53.1 225.7,54.4 223.4,55.4 C221.1,56.4 218.6,56.9 216,56.9 C213.4,56.9 210.9,56.4 208.6,55.4 C206.3,54.4 204.3,53 202.5,51.3 C200.8,49.5 199.4,47.5 198.4,45.1 C197.4,42.7 196.9,40.1 196.9,37.3 C196.9,34.5 197.4,31.9 198.4,29.4 C199.4,26.9 200.8,24.9 202.5,23.2 C204.2,21.4 206.2,20.1 208.6,19.1 C210.9,18.1 213.4,17.6 216,17.6 C218.6,17.6 221.1,18.1 223.4,19 C225.7,19.9 227.7,21.3 229.4,23 C231.1,24.7 232.5,26.8 233.5,29.2 C234.5,31.7 235,34.4 235,37.3 L235,37.3 Z M225.4,37.3 C225.4,35.8 225.2,34.4 224.7,33.1 C224.2,31.9 223.5,30.8 222.7,29.9 C221.8,29 220.8,28.3 219.7,27.8 C218.6,27.3 217.3,27.1 216,27.1 C214.7,27.1 213.5,27.3 212.3,27.8 C211.2,28.3 210.2,29 209.3,29.9 C208.5,30.8 207.8,31.9 207.3,33.1 C206.8,34.3 206.6,35.7 206.6,37.3 C206.6,38.7 206.8,40.1 207.3,41.3 C207.8,42.5 208.5,43.6 209.3,44.5 C210.1,45.4 211.1,46.1 212.3,46.6 C213.4,47.1 214.7,47.4 216,47.4 C217.3,47.4 218.5,47.2 219.7,46.7 C220.8,46.2 221.8,45.5 222.7,44.6 C223.6,43.7 224.2,42.7 224.7,41.4 C225.2,40.2 225.4,38.8 225.4,37.3 L225.4,37.3 Z" id="Shape"></path>
                <path d="M249.8,56.3 L240.3,56.3 L240.3,19.1 L242.6,19.1 L245.7,23.5 C247.2,22.1 249,21 250.9,20.3 C252.8,19.5 254.9,19.2 256.9,19.2 L265.3,19.2 L265.3,28.7 L256.9,28.7 C255.9,28.7 255,28.9 254.1,29.3 C253.2,29.7 252.5,30.2 251.8,30.8 C251.2,31.4 250.6,32.2 250.3,33.1 C249.9,34 249.7,34.9 249.7,35.9 L249.7,56.3 L249.8,56.3 Z" id="Shape"></path>
                <path d="M301.6,26.5 L294.6,33.5 C294.3,32.5 293.8,31.7 293.2,30.9 C292.6,30.1 291.9,29.5 291.2,28.9 C290.4,28.4 289.6,28 288.7,27.7 C287.8,27.4 286.9,27.3 286,27.3 C284.7,27.3 283.5,27.6 282.3,28.1 C281.2,28.6 280.2,29.4 279.3,30.3 C278.5,31.3 277.8,32.4 277.3,33.7 C276.8,35 276.6,36.5 276.6,38.1 C276.6,39.4 276.8,40.6 277.3,41.8 C277.8,42.9 278.5,43.9 279.3,44.8 C280.1,45.7 281.1,46.3 282.3,46.8 C283.4,47.3 284.7,47.5 286,47.5 C286.9,47.5 287.8,47.4 288.7,47.1 C289.6,46.8 290.4,46.5 291.1,46 C291.9,45.5 292.5,44.9 293.1,44.3 C293.7,43.6 294.2,42.9 294.5,42 L301.5,49 C300.6,50.3 299.6,51.4 298.5,52.4 C297.4,53.4 296.1,54.2 294.8,54.9 C293.5,55.6 292.1,56.1 290.6,56.5 C289.1,56.9 287.6,57 286.1,57 C283.5,57 281,56.5 278.7,55.5 C276.4,54.5 274.4,53.2 272.7,51.5 C271,49.8 269.6,47.8 268.6,45.5 C267.6,43.2 267.1,40.7 267.1,38.1 C267.1,35.2 267.6,32.6 268.6,30.1 C269.6,27.6 271,25.5 272.7,23.6 C274.4,21.8 276.4,20.3 278.7,19.2 C281,18.1 283.5,17.6 286.1,17.6 C287.7,17.6 289.2,17.8 290.7,18.2 C292.2,18.6 293.6,19.2 295,19.9 C296.4,20.7 297.6,21.6 298.8,22.7 C299.8,23.8 300.8,25 301.6,26.5 L301.6,26.5 Z" id="Shape"></path>
                <path d="M367.9,57.2 L346.2,57.2 C346.1,54 346,50.7 346,47.5 C353.3,47.6 360.6,47.7 367.9,47.8 C368.5,47.8 369.1,47.6 369.6,47.1 C370.1,46.6 370.3,46.1 370.3,45.4 C370.3,44.7 370.1,44.3 369.6,44.1 C369.1,43.9 368.6,43.8 367.9,43.8 L358,43.8 C356.4,43.8 354.8,43.5 353.4,42.9 C352,42.3 350.7,41.4 349.6,40.3 C348.5,39.2 347.7,38 347.1,36.5 C346.5,35.1 346.2,33.5 346.2,31.9 C346.2,30.3 346.5,28.7 347.1,27.3 C347.7,25.9 348.6,24.6 349.6,23.5 C350.7,22.4 351.9,21.6 353.4,21 C354.8,20.4 356.4,20.1 358,20.1 C364.3,20.3 370.5,20.5 376.8,20.7 C377,23.6 377.1,26.6 377.3,29.5 L358,29.5 C357.3,29.5 356.8,29.7 356.3,30.2 C355.8,30.7 355.6,31.2 355.6,31.9 C355.6,32.6 355.8,33.1 356.3,33.6 C356.8,34.1 357.3,34.3 358,34.3 L367.9,34.3 C369.5,34.3 371.1,34.6 372.5,35.1 C373.9,35.6 375.2,36.4 376.3,37.4 C377.4,38.4 378.2,39.5 378.8,40.9 C379.4,42.3 379.7,43.8 379.7,45.4 C379.7,47 379.4,48.6 378.8,50 C378.2,51.4 377.3,52.7 376.3,53.8 C375.2,54.9 374,55.7 372.5,56.3 C371,56.8 369.5,57.2 367.9,57.2 L367.9,57.2 Z" id="Shape"></path>
                <path d="M324.1,40.1 L335.7,40.1 L341.1,40.1 C342.3,30 339,26.4 339,26.4 C338.2,25 337.2,23.7 336,22.6 C334.9,21.5 333.6,20.6 332.2,19.8 C330.8,19 329.4,18.5 327.9,18.1 C326.4,17.7 324.9,17.5 323.3,17.5 C320.7,17.5 318.2,18 315.9,19.1 C313.6,20.2 311.6,21.6 309.9,23.5 C308.2,25.3 306.8,27.5 305.8,30 C304.8,32.5 304.3,35.1 304.3,38 C304.3,40.6 304.8,43.1 305.8,45.4 C306.8,47.7 308.2,49.7 309.9,51.4 C311.6,53.1 313.6,54.5 315.9,55.4 C318.2,56.4 320.7,56.9 323.3,56.9 C324.9,56.9 326.4,56.7 327.8,56.4 C329.3,56 330.7,55.5 332,54.8 C333.3,54.1 334.6,53.3 335.7,52.3 C336.8,51.3 337.9,50.2 338.7,48.9 L331.7,41.9 C331.3,42.7 330.8,43.5 330.3,44.2 C329.7,44.9 329,45.5 328.3,45.9 C328.2,46 327.8,46.2 327.3,46.4 C327,46.5 326.4,46.8 325.8,47 C324.7,47.3 323.7,47.3 323.2,47.3 C321.3,47.3 319.9,46.7 319.5,46.6 C318.4,46.1 317.4,45.4 316.5,44.6 C315.7,43.7 315,42.7 314.5,41.6 C314.3,41.1 314.1,40.6 314,40 L314.3,40 L324.1,40 L324.1,40.1 Z M319.8,28 C320.3,27.8 320.7,27.6 321.1,27.5 C321.9,27.3 322.7,27.2 323.5,27.2 C324.4,27.2 325.3,27.3 326.2,27.6 C326.7,27.7 327.1,27.9 327.5,28.1 C327.5,28.1 328.1,28.4 328.6,28.8 C330,29.8 331,32.1 331.1,32.3 L323.6,32.3 C321.1,32.4 318.6,32.4 316.1,32.5 C316.2,31.8 316.6,30.3 317.9,29.2 C318.6,28.5 319.5,28.1 319.8,28 L319.8,28 Z" id="Shape"></path>
                <g id="Group" transform="translate(0.000000, 17.000000)">
                    <path d="M39,39.2 L36.7,39.2 L33,34.1 C32.1,34.9 31.1,35.7 30.1,36.4 C29.1,37.1 28,37.7 26.9,38.2 C25.8,38.7 24.6,39.1 23.5,39.4 C22.3,39.7 21.1,39.9 19.9,39.9 C17.3,39.9 14.8,39.5 12.5,38.6 C10.2,37.7 8.2,36.4 6.5,34.8 C4.8,33.1 3.4,31.1 2.4,28.6 C1.4,26.1 0.9,23.4 0.9,20.3 C0.9,17.4 1.4,14.7 2.4,12.3 C3.4,9.9 4.8,7.8 6.5,6.1 C8.2,4.4 10.2,3 12.5,2.1 C14.8,1.1 17.3,0.7 19.9,0.7 C21.1,0.7 22.3,0.9 23.5,1.2 C24.7,1.5 25.8,1.9 26.9,2.5 C28,3 29.1,3.7 30.1,4.4 C31.1,5.1 32.1,5.9 32.9,6.7 L36.6,2.3 L38.9,2.3 L38.9,39.2 L39,39.2 Z M29.5,20.3 C29.5,19 29.3,17.7 28.8,16.5 C28.3,15.3 27.6,14.2 26.8,13.3 C25.9,12.4 24.9,11.6 23.8,11 C22.7,10.4 21.4,10.1 20.1,10.1 C18.8,10.1 17.6,10.3 16.4,10.8 C15.3,11.2 14.3,11.9 13.4,12.7 C12.6,13.6 11.9,14.6 11.4,15.9 C10.9,17.2 10.7,18.6 10.7,20.2 C10.7,21.8 10.9,23.3 11.4,24.5 C11.9,25.8 12.6,26.8 13.4,27.7 C14.2,28.6 15.2,29.2 16.4,29.6 C17.5,30 18.8,30.3 20.1,30.3 C21.4,30.3 22.6,30 23.8,29.4 C24.9,28.8 26,28.1 26.8,27.1 C27.7,26.2 28.3,25.1 28.8,23.9 C29.2,22.8 29.5,21.6 29.5,20.3 L29.5,20.3 Z" id="Shape"></path>
                    <circle id="Oval" cx="17.9" cy="18.3" r="4.9"></circle>
                </g>
            </g>
        </g>
    </g>
</svg>