<svg id="Layer_2" data-name="Layer 2" xmlns="http://www.w3.org/2000/svg" viewBox="0 0 600.41 300.1"><defs><style>.cls-1{fill:#bee6f1;}.cls-2{fill:#2dbfce;}.cls-3{fill:#e8eab8;}.cls-4{fill:#efe99d;}.cls-5{fill:#f7ef67;}.cls-6{fill:#ecf6f2;}.cls-7{fill:#d3af8d;}</style></defs><title>boat open page</title><path class="cls-1" d="M0,0V274H600.2V0H0ZM0.33,272.33v0Z"/><polygon class="cls-2" points="0.41 256.33 0.41 259.76 0.41 256.33 0 256.33 0 300.1 600.41 300.1 600.41 256.33 0.41 256.33"/><path class="cls-3" d="M521,19.71a14.34,14.34,0,0,1,18.55,9,15.25,15.25,0,0,1-8.69,19.3,14.34,14.34,0,0,1-18.55-9A15.25,15.25,0,0,1,521,19.71Z"/><path class="cls-4" d="M535.11,32.22a9.58,9.58,0,0,1-7.68,11,9.3,9.3,0,0,1-10.58-8,9.58,9.58,0,0,1,7.68-11A9.3,9.3,0,0,1,535.11,32.22Z"/><path class="cls-5" d="M530.45,33.15a4.69,4.69,0,0,1-3.76,5.39,4.55,4.55,0,0,1-5.18-3.91,4.69,4.69,0,0,1,3.76-5.39A4.55,4.55,0,0,1,530.45,33.15Z"/><polygon class="cls-6" points="178.64 228.28 178.64 258.28 202.63 258.28 178.64 228.28"/><polygon class="cls-6" points="177 231.61 177 258.28 162.38 258.28 177 231.61"/><path class="cls-7" d="M166.63,259.51l31.83,0.13a9.16,9.16,0,0,1-3.09,4.48,9.52,9.52,0,0,1-3.75,1.69,11.47,11.47,0,0,1-3.25.25c-2.56-.1-5.12.16-7.69,0.13l-10.37-.12a10.13,10.13,0,0,1-2.9-3.75A10,10,0,0,1,166.63,259.51Z"/></svg>