<?xml version="1.0" encoding="utf-8"?>
<!-- Generator: Adobe Illustrator 20.0.0, SVG Export Plug-In . SVG Version: 6.00 Build 0)  -->
<svg version="1.1" xmlns="http://www.w3.org/2000/svg" xmlns:xlink="http://www.w3.org/1999/xlink" x="0px" y="0px"
	 viewBox="0 0 1000 722.4" style="enable-background:new 0 0 1000 722.4;" xml:space="preserve">
<style type="text/css">
	.st0{fill:#BEE6F2;}
	.st1{fill:#4CA9D6;}
	.st2{fill:none;stroke:#AD772B;stroke-width:3;stroke-miterlimit:10;}
	.st3{fill:#ABADB0;}
	.st4{fill:#F5F5F6;}
	.st5{fill:#808285;}
	.st6{fill:#4D4D4D;}
	.st7{fill:#666666;}
	.st8{fill:#F2F2F2;}
	.st9{fill:#C2C2C2;}
	.st10{fill:none;stroke:#8B5E3C;stroke-width:10;stroke-miterlimit:10;}
	.st11{fill:#599B43;}
	.st12{fill:#7CC360;}
	.st13{fill:#2B6E36;}
	.st14{display:none;}
	.st15{display:inline;}
	.st16{fill:#EAEAB9;}
	.st17{fill:#EFEA9F;}
	.st18{fill:#F9EF65;}
	.st19{fill:#333333;}
	.st20{fill:#A3A3A3;}
	.st21{fill:#F0F0F0;}
</style>
<g id="skeeai">
	<rect x="-0.5" class="st0" width="1000" height="609.6"/>
</g>
<g id="wooder">
	<rect x="-0.5" y="608.4" class="st1" width="1001.3" height="114"/>
</g>
<g id="land">
	<line class="st2" x1="0.8" y1="609.6" x2="1000.8" y2="609.6"/>
</g>
<g id="behoondmoontain">
	<g>
		<polygon class="st3" points="532,608.8 572.6,559.3 575.9,555.3 595.5,531.4 668,608.8 		"/>
		<path class="st4" d="M575.2,555.2l20.3-24.2c7.3,7.8,14.5,15.7,21.8,23.5c-4.1-2.3-8.2-4.5-12.3-6.8c-0.6,3.7-1.2,7.3-1.8,11
			c-2.8-3.9-5.6-7.8-8.3-11.7c-1.7,4.4-3.4,8.7-5.1,13.1c-1.5-3.4-3-6.8-4.5-10.2C581.9,551.6,578.6,553.4,575.2,555.2z"/>
	</g>
	<g>
		<polygon class="st3" points="645.4,607.4 679.2,566.1 681.9,562.8 698.2,542.9 758.7,607.4 		"/>
		<path class="st4" d="M681.4,562.7l16.9-20.2c6,6.5,12.1,13.1,18.1,19.6c-3.4-1.9-6.9-3.8-10.3-5.7c-0.5,3-1,6.1-1.5,9.1
			c-2.3-3.3-4.6-6.5-6.9-9.8c-1.4,3.6-2.8,7.3-4.2,10.9c-1.3-2.8-2.5-5.7-3.8-8.5C686.9,559.7,684.2,561.2,681.4,562.7z"/>
	</g>
</g>
<g id="mirooo_mootain">
	<path class="st5" d="M719,615"/>
	<g>
		<path class="st6" d="M103.3,529.2c-2.1,5.5-4.3,11-6.4,16.5c-1.9-4.3-3.8-8.6-5.7-12.9c-3.7,2-7.3,4-11,5.9l-0.9,1.1l-4.1,5
			L24,607.4h80.2v-76.9C103.9,530.1,103.6,529.7,103.3,529.2z"/>
		<path class="st7" d="M131.1,538.5c-5-2.8-10-5.5-15-8.3c-0.8,4.6-1.5,9.2-2.3,13.8c-3.2-4.5-6.4-9-9.6-13.5v76.9h91.4L131.1,538.5
			z"/>
		<path class="st8" d="M104.2,530.5c3.2,4.5,6.4,9,9.6,13.5c0.8-4.6,1.5-9.2,2.3-13.8c5,2.8,10,5.5,15,8.3l-26.9-28.7V530.5z"/>
		<path class="st9" d="M96.9,545.7c2.1-5.5,4.3-11,6.4-16.5c0.3,0.4,0.6,0.9,0.9,1.3v-20.7l-0.1-0.1l-23.9,29.1c3.7-2,7.3-4,11-5.9
			C93.1,537.1,95,541.4,96.9,545.7z"/>
	</g>
	<g>
		<path class="st6" d="M453.7,505.9c-1.3,3.3-2.6,6.6-4,9.9c-3.8-2.7-7.7-5.5-11.5-8.2c-2.4,3.9-4.9,7.8-7.3,11.7
			c-1.7-2.5-3.4-5-5-7.5c-6.9,6.3-11.1,9.8-12.5,10.4l-0.5,0.6l-70.2,85.6h137.4l-19.4-95.6C458.4,510.5,456,508.2,453.7,505.9z"/>
		<path class="st7" d="M500.4,525.6c-10-6.2-20.1-12.5-30.1-18.7l-4.4,11.1c-1.8-1.8-3.5-3.5-5.3-5.3l19.4,95.6h97.8L500.4,525.6z"
			/>
		<path class="st9" d="M430.9,519.2c2.4-3.9,4.9-7.8,7.3-11.7c3.8,2.7,7.7,5.5,11.5,8.2c1.3-3.3,2.6-6.6,4-9.9
			c2.3,2.3,4.6,4.6,6.9,6.9l-7.7-37.9l-0.5-0.5l-34,41.4l-5.1,6.3c1.5-0.6,5.6-4,12.5-10.4C427.6,514.2,429.3,516.7,430.9,519.2z"/>
		<path class="st8" d="M460.7,512.8c1.8,1.8,3.5,3.5,5.3,5.3l4.4-11.1c10,6.2,20.1,12.5,30.1,18.7L453,474.9L460.7,512.8z"/>
	</g>
	<g>
		<path class="st6" d="M762,525.7c-2.3,5.8-4.6,11.7-6.8,17.5c-2-4.6-4-9.1-6-13.7c-4.1,2.2-8.2,4.4-12.3,6.7l-0.9,1.2l-4.4,5.3
			L677.2,609h110.6l-17.8-71.9C767.4,533.3,764.7,529.5,762,525.7z"/>
		<path class="st7" d="M789.6,534.4c-4.6-2.6-9.3-5.1-13.9-7.7c-0.8,4.9-1.6,9.8-2.4,14.7c-1-1.4-2.1-2.9-3.1-4.3l17.8,71.9h71.5
			L789.6,534.4z"/>
		<path class="st8" d="M770.1,537.1c1,1.4,2.1,2.9,3.1,4.3c0.8-4.9,1.6-9.8,2.4-14.7c4.6,2.6,9.3,5.1,13.9,7.7l-27.3-29.2
			L770.1,537.1z"/>
		<path class="st9" d="M755.2,543.2c2.3-5.8,4.6-11.7,6.8-17.5c2.7,3.8,5.4,7.6,8.1,11.4l-7.9-31.8l-25.3,30.9
			c4.1-2.2,8.2-4.4,12.3-6.7C751.2,534.1,753.2,538.6,755.2,543.2z"/>
	</g>
</g>
<g id="trays">
	<g>
		<line class="st10" x1="215.4" y1="599.6" x2="215.4" y2="606.6"/>
		<polygon class="st11" points="216,546.2 199.9,568.3 211.4,568.3 197.6,584.6 206.8,588.6 193.4,599.9 237.5,599.9 221.4,586.8 
			233.7,584.6 221.8,567 231,567 		"/>
	</g>
	<g>
		<polygon class="st12" points="178.8,560.7 167.4,572 173.1,572 161.3,584.1 170,584.1 153.2,597.5 201.3,597.5 184.5,583.2 
			196.3,583.6 184.5,571.5 194.1,571.5 		"/>
		<line class="st10" x1="177.7" y1="597.2" x2="177.7" y2="604.2"/>
	</g>
	<g>
		<line class="st10" x1="629.7" y1="600.2" x2="629.7" y2="608.4"/>
		<g>
			<path class="st13" d="M618.6,586.2l-2.4,2.3h9.9l-15.3,13.2h18.9v-36.5c-0.9,0-1.7,0.1-2.6,0.4l-8.2,12.8h7.6L618.6,586.2"/>
			<path class="st13" d="M631,588.5h9.9l-10.3-10h7.6l-8.4-13.2c-0.8,0-1.6,0.1-2.4,0.3v36.2h18.9L631,588.5z"/>
		</g>
	</g>
	<g>
		<line class="st10" x1="657" y1="603.6" x2="657" y2="609"/>
		<polygon class="st11" points="657.4,562.8 645.1,579.7 653.9,579.7 643.3,592.1 650.4,595.2 640.1,603.9 673.9,603.9 661.5,593.8 
			670.9,592.1 661.8,578.7 668.9,578.7 		"/>
	</g>
	<g>
		<line class="st10" x1="249.9" y1="596.9" x2="249.9" y2="605.1"/>
		<g>
			<path class="st13" d="M238.9,583.2l-2.4,2.3h9.8l-15.1,13h18.6v-36c-0.8,0-1.7,0.1-2.6,0.4l-8.1,12.7h7.5L238.9,583.2"/>
			<path class="st13" d="M251.2,585.5h9.8l-10.2-9.9h7.5l-8.3-13c-0.8,0-1.5,0.1-2.3,0.3v35.7h18.6L251.2,585.5z"/>
		</g>
	</g>
	<g>
		<line class="st10" x1="276.3" y1="602.3" x2="276.3" y2="609.3"/>
		<polygon class="st11" points="276.8,548.9 260.7,571 272.2,571 258.4,587.3 267.6,591.3 254.2,602.6 298.3,602.6 282.2,589.5 
			294.5,587.3 282.6,569.7 291.8,569.7 		"/>
	</g>
</g>
<g id="soon" class="st14">
	<g class="st15">
		
			<ellipse transform="matrix(0.9403 -0.3403 0.3403 0.9403 -102.0525 345.6728)" class="st16" cx="934.5" cy="463.8" rx="20.8" ry="20.8"/>
		
			<ellipse transform="matrix(0.9876 -0.1568 0.1568 0.9876 -61.1327 152.275)" class="st17" cx="934.5" cy="463.6" rx="13.3" ry="13.3"/>
		
			<ellipse transform="matrix(0.9876 -0.1568 0.1568 0.9876 -61.1667 152.2777)" class="st18" cx="934.5" cy="463.8" rx="6.5" ry="6.5"/>
	</g>
</g>
<g id="reflectoo">
</g>
<g id="froont_moontain_1_">
	<g>
		<path class="st19" d="M872,525.4c-4.5-6.4-9.1-12.7-13.6-19.1c-2.8,7.1-5.5,14.2-8.3,21.3c-2.4-5.5-4.9-11.1-7.3-16.6
			c-4.7,2.6-9.4,5.1-14.1,7.7l-1.2,1.4l-5.3,6.5l-66,80.6h161.6l-43.6-94.4C873.4,517,872.7,521.2,872,525.4z"/>
		<path class="st7" d="M894.2,518.2c-6.4-3.5-12.9-7.1-19.3-10.6c-0.3,1.7-0.6,3.5-0.9,5.2l43.6,94.4h59.8L894.2,518.2z"/>
		<path class="st20" d="M850.1,527.6c2.8-7.1,5.5-14.2,8.3-21.3c4.5,6.4,9.1,12.7,13.6,19.1c0.7-4.2,1.4-8.4,2.1-12.6l-14.6-31.7
			l-30.8,37.6c4.7-2.6,9.4-5.1,14.1-7.7C845.2,516.5,847.7,522.1,850.1,527.6z"/>
		<path class="st21" d="M874.1,512.8c0.3-1.7,0.6-3.5,0.9-5.2c6.4,3.5,12.9,7.1,19.3,10.6l-34.8-37.2L874.1,512.8z"/>
	</g>
</g>
</svg>
