<svg xmlns="http://www.w3.org/2000/svg" viewBox="100 0 300 300">
	<polygon fill="#2bc" points="0.41 256.33 0.41 259.76 0.41 256.33 0 256.33 0 300.1 600.41 300.1 600.41 256.33 0.41 256.33" />
	<polygon fill="#efe" points="178.64 228.28 178.64 258.28 202.63 258.28 178.64 228.28" />
	<polygon fill="#efe" points="177 231.61 177 258.28 162.38 258.28 177 231.61" />
	<path fill="#da8" d="M166.63,259.51l31.83,0.13a9.16,9.16,0,0,1-3.09,4.48,9.52,9.52,0,0,1-3.75,1.69,11.47,11.47,0,0,1-3.25.25c-2.56-.1-5.12.16-7.69,0.13l-10.37-.12a10.13,10.13,0,0,1-2.9-3.75A10,10,0,0,1,166.63,259.51Z" />
</svg>