<svg xmlns="http://www.w3.org/2000/svg" viewBox="0 0 600 300">
	<path fill="#2bc" d="M600.59,303.24L0.07,305,0,267.19a386.65,386.65,0,0,1,56-3.48c24,0.28,29.16,2.63,55.74,2.79,20.93,0.13,20.62-1.26,53.36-2.37,16.18-.55,37.59-1.23,64-0.18,32.39,1.28,32.7,3.6,56.71,3.53,25.73-.07,25.81-2.73,54-3.11,18.62-.25,17,0.93,57.37,2.05,21.44,0.6,32.35.9,48,.6,27.82-.53,26.91-2.14,44-1.6,24.82,0.77,26.15,4.12,48,3.55,14-.36,19.27-3.06,35.34-3.06A176.74,176.74,0,0,1,600,268Z" transform="translate(0, -3)" />
	<polygon fill="#efe" points="178.64 228.28 178.64 258.28 202.63 258.28 178.64 228.28" />
	<polygon fill="#efe" points="177 231.61 177 258.28 162.38 258.28 177 231.61" />
	<path fill="#da8" d="M166.63,259.51l31.83,0.13a9.16,9.16,0,0,1-3.09,4.48,9.52,9.52,0,0,1-3.75,1.69,11.47,11.47,0,0,1-3.25.25c-2.56-.1-5.12.16-7.69,0.13l-10.37-.12a10.13,10.13,0,0,1-2.9-3.75A10,10,0,0,1,166.63,259.51Z" />
	<polygon fill="#efe" points="464.54 252.78 464.54 264.12 455.63 264.12 464.54 252.78" />
	<polygon fill="#efe" points="465.15 254.04 465.15 264.12 470.58 264.12 465.15 254.04" />
	<path fill="#da8" d="M469,264.58l-11.82.05a3.46,3.46,0,0,0,1.15,1.69,7,7,0,0,0,2.6.73c1,0,1.9.06,2.85,0l3.85,0A3.78,3.78,0,0,0,469,264.58Z" />
</svg>