<svg xmlns="http://www.w3.org/2000/svg" xmlns:xlink="http://www.w3.org/1999/xlink" width="318.62" height="179.63" viewBox="0 0 318.62 179.63"><defs><style>.cls-2{fill:#2b669b;}.cls-3{fill:#161b0e;}.cls-4{stroke:#472b14;stroke-miterlimit:10;fill:url(#linear-gradient);}.cls-5{fill:#c49a6c;}</style><linearGradient id="linear-gradient" x1="247.98" y1="227.62" x2="565.6" y2="227.62" gradientUnits="userSpaceOnUse"><stop offset="0.16" stop-color="#754c29"/><stop offset="0.23" stop-color="#754c29"/><stop offset="0.85" stop-color="#754c29"/></linearGradient></defs><ellipse class="cls-3" cx="168.13" cy="71.99" rx="20.56" ry="36.84"/><rect class="cls-3" x="404.95" y="170.78" width="29.92" height="11.65" rx="2.73" ry="2.73" transform="translate(20.87 -372) rotate(47.76)"/><rect class="cls-3" x="422.01" y="175.51" width="29.92" height="11.65" rx="2.73" ry="2.73" transform="translate(-280.99 12.63) rotate(-16.51)"/><ellipse class="cls-3" cx="249.14" cy="71.75" rx="20.56" ry="36.84"/><rect class="cls-3" x="485.96" y="170.54" width="29.92" height="11.65" rx="2.73" ry="2.73" transform="translate(47.24 -432.05) rotate(47.76)"/><rect class="cls-3" x="503.02" y="175.27" width="29.92" height="11.65" rx="2.73" ry="2.73" transform="translate(-277.58 35.64) rotate(-16.51)"/><ellipse class="cls-3" cx="88.54" cy="22.16" rx="23.17" ry="21.85"/><ellipse class="cls-3" cx="88.54" cy="72.06" rx="20.56" ry="36.84"/><rect class="cls-3" x="325.37" y="170.85" width="29.92" height="11.65" rx="2.73" ry="2.73" transform="translate(-5.16 -313.06) rotate(47.76)"/><rect class="cls-3" x="342.42" y="175.58" width="29.92" height="11.65" rx="2.73" ry="2.73" transform="translate(-284.29 -9.98) rotate(-16.51)"/><path class="cls-4" d="M248,197c0,.29,0,.58,0,.87,0,33.34,71.1,60.37,158.81,60.37s158.81-27,158.81-60.37c0-.29,0-.58,0-.87Z" transform="translate(-247.48 -119.03)"/><rect class="cls-5" x="284.04" y="213" width="132.05" height="3.52" rx="0.82" ry="0.82" transform="translate(470.72 -86.33) rotate(122.16)"/><rect class="cls-5" x="291.3" y="270.22" width="35.25" height="19.96" rx="4.67" ry="4.67" transform="translate(463.09 48.77) rotate(122.16)"/><rect class="cls-5" x="363.63" y="212.93" width="132.05" height="3.52" rx="0.82" ry="0.82" transform="translate(592.61 -153.82) rotate(122.16)"/><rect class="cls-5" x="370.89" y="270.14" width="35.25" height="19.96" rx="4.67" ry="4.67" transform="translate(584.97 -18.72) rotate(122.16)"/><rect class="cls-5" x="444.64" y="212.69" width="132.05" height="3.52" rx="0.82" ry="0.82" transform="matrix(-0.53, 0.85, -0.85, -0.53, 716.54, -222.77)"/><rect class="cls-5" x="451.9" y="269.9" width="35.25" height="19.96" rx="4.67" ry="4.67" transform="translate(708.9 -87.67) rotate(122.16)"/><ellipse class="cls-3" cx="249.14" cy="21.85" rx="23.17" ry="21.85"/><ellipse class="cls-3" cx="168.13" cy="22.09" rx="23.17" ry="21.85"/></svg>