<svg xmlns="http://www.w3.org/2000/svg" xmlns:xlink="http://www.w3.org/1999/xlink" viewBox="0 0 163.45 261.23"><defs><style>.cls-1{fill:url(#linear-gradient);}.cls-2{fill:url(#linear-gradient-2);}.cls-3{fill:url(#linear-gradient-3);}.cls-5{fill:#e6e7e8;}.cls-6{fill:#231f20;}.cls-7{fill:#c49a6c;}.cls-8{fill:#161b0e;}</style><linearGradient id="linear-gradient" x1="470" y1="23.39" x2="470" y2="23.39" gradientUnits="userSpaceOnUse"><stop offset="0.16" stop-color="#754c29"/><stop offset="0.22" stop-color="#6d4420"/><stop offset="0.33" stop-color="#633c16"/><stop offset="0.47" stop-color="#603913"/><stop offset="0.7" stop-color="#623b15"/><stop offset="0.79" stop-color="#68411c"/><stop offset="0.85" stop-color="#744b28"/><stop offset="0.85" stop-color="#754c29"/></linearGradient><linearGradient id="linear-gradient-2" x1="267" y1="163" x2="267" y2="163" gradientTransform="matrix(-1, -0.07, 0.07, -1, 460.01, 323.71)" xlink:href="#linear-gradient"/><linearGradient id="linear-gradient-3" x1="39.1" y1="130.62" x2="125.16" y2="130.62" xlink:href="#linear-gradient"/><linearGradient id="linear-gradient-4" x1="113.2" y1="150" x2="174.53" y2="150" gradientUnits="userSpaceOnUse"><stop offset="0" stop-color="#27aae1"/><stop offset="0.04" stop-color="#209ed8"/><stop offset="0.15" stop-color="#1286c4"/><stop offset="0.27" stop-color="#0874b6"/><stop offset="0.39" stop-color="#0269ae"/><stop offset="0.54" stop-color="#0066ab"/><stop offset="0.65" stop-color="#006eb1"/><stop offset="0.82" stop-color="#0084c0"/><stop offset="1" stop-color="#00a2d4"/></linearGradient></defs><g id="Boat"><path class="cls-1" d="M470,23.39" transform="translate(-62.5 -19.77)"/><circle class="cls-2" cx="204.5" cy="143.23"/><ellipse class="cls-3" cx="82.13" cy="130.62" rx="43.03" ry="130.62"/></g><g id="Sweat"><path class="cls-5" d="M134.58,43.25a5.48,5.48,0,0,1-2-.94,1.87,1.87,0,0,1-.66-1.95c.39-1.08,2-1.2,2.9-.5a5.51,5.51,0,0,1,1.58,3" transform="translate(-62.5 -19.77)"/><path class="cls-6" d="M134.58,42c-1.22-.4-2.58-.94-2.69-2.42v2.5a1.69,1.69,0,0,1,2.45-1.26c1.31.49,1.76,2.06,2.11,3.27-.22-.76.22-1.73,0-2.5-.33-1.15-.75-2.61-1.92-3.19A1.87,1.87,0,0,0,132,39a3.72,3.72,0,0,0-.13,1.47c0,.52,0,1.06,0,1.58.11,1.46,1.47,2,2.69,2.42-.23-.07.26-2.41,0-2.5Z" transform="translate(-62.5 -19.77)"/><line class="cls-5" x1="72.07" y1="23.48" x2="73.89" y2="22.43"/><path class="cls-5" d="M150.71,41a5.48,5.48,0,0,1,.6-2.08,1.87,1.87,0,0,1,1.81-1c1.13.2,1.51,1.77,1,2.78a5.51,5.51,0,0,1-2.68,2" transform="translate(-62.5 -19.77)"/><path class="cls-6" d="M150.71,42.22c.17-1.15.45-2.63,1.75-3,1.11-.32,1.77.62,1.87,1.61V38.56c-.16,1.57-1.64,2.32-2.92,2.94a5.6,5.6,0,0,0,0,1.25,6.25,6.25,0,0,1,0,1.25c1.1-.53,2.5-1.19,2.85-2.48a10.47,10.47,0,0,0,.08-3c0-.87-.46-1.86-1.48-1.85-1.56,0-2,1.88-2.15,3.07-.12.82.12,1.69,0,2.5Z" transform="translate(-62.5 -19.77)"/><line class="cls-5" x1="88.21" y1="21.2" x2="89.54" y2="22.83"/><path class="cls-5" d="M142,38a5.48,5.48,0,0,1-.13-2.16,1.87,1.87,0,0,1,1.39-1.52c1.13-.18,2,1.17,1.84,2.3a5.51,5.51,0,0,1-1.84,2.83" transform="translate(-62.5 -19.77)"/><path class="cls-6" d="M142,36.72q-.06-.27-.1-.54-.12-.79,0,.87c.12-.13.15-.48.25-.64a1.67,1.67,0,0,1,1.14-.88c1.12-.18,1.81,1,1.86,2V35.07a5.19,5.19,0,0,1-1.86,3.09c-.14.14,0,1.05,0,1.25s.15,1.11,0,1.25A5.06,5.06,0,0,0,145.09,37c0-1.14.25-2.7-.72-3.54-1.24-1.08-2.47.3-2.59,1.55a15.4,15.4,0,0,0,.18,4.26c-.15-.8.15-1.69,0-2.5Z" transform="translate(-62.5 -19.77)"/><line class="cls-5" x1="79.46" y1="18.2" x2="81.26" y2="19.29"/><path class="cls-5" d="M140.94,150.27a5.48,5.48,0,0,1-1.54-1.53,1.87,1.87,0,0,1,0-2.05c.72-.89,2.28-.48,2.9.48a5.51,5.51,0,0,1,.52,3.33" transform="translate(-62.5 -19.77)"/><path class="cls-6" d="M140.94,149a5.53,5.53,0,0,1-1.72-1.93q-.29-1.11-.07,1.42l.06-.2a1.71,1.71,0,0,1,.33-.5,1.39,1.39,0,0,1,.84-.36,2.19,2.19,0,0,1,1.77.75,2.8,2.8,0,0,1,.55,1.1,6.15,6.15,0,0,0,.13.72l0-1.21q0,.25,0,.49c0,.75,0,1.82,0,2.41a24.16,24.16,0,0,0,0-4.31c-.16-1.26-1-2.57-2.44-2.44s-1.3,2-1.29,3.07a4.24,4.24,0,0,0,.21,1.77,4.87,4.87,0,0,0,1.64,1.72,5.37,5.37,0,0,1,0-1.25c0-.18.13-1.14,0-1.25Z" transform="translate(-62.5 -19.77)"/><line class="cls-5" x1="78.44" y1="130.5" x2="80.5" y2="130.11"/><path class="cls-5" d="M156.93,153.41a5.48,5.48,0,0,1,1.25-1.77,1.87,1.87,0,0,1,2-.32c1,.56.85,2.17,0,2.94a5.51,5.51,0,0,1-3.2,1.06" transform="translate(-62.5 -19.77)"/><path class="cls-6" d="M156.93,154.66c.47-.9,1-2,2.12-2.21a1.43,1.43,0,0,1,1.85,1.33v-2.31c-.15,2-2.23,2.42-3.89,2.61-.11,0,.07,2.49,0,2.5,1.19-.13,2.68-.3,3.46-1.34.64-.87.45-2.14.44-3.14s0-2-1.15-2.17c-1.43-.26-2.28,1.2-2.83,2.25a3.75,3.75,0,0,0,0,1.25c0,.3.15,1,0,1.25Z" transform="translate(-62.5 -19.77)"/><line class="cls-5" x1="94.42" y1="133.64" x2="95.15" y2="135.61"/><path class="cls-5" d="M149.64,147.71a5.48,5.48,0,0,1,.59-2.09,1.87,1.87,0,0,1,1.81-1c1.13.2,1.53,1.76,1,2.77a5.51,5.51,0,0,1-2.67,2.07" transform="translate(-62.5 -19.77)"/><path class="cls-6" d="M149.64,149c.17-1.15.44-2.63,1.73-3,1.11-.33,1.78.61,1.88,1.6v-2.27c-.15,1.57-1.63,2.34-2.9,3a5.54,5.54,0,0,0,0,1.25,6.16,6.16,0,0,1,0,1.25c1.1-.53,2.49-1.21,2.83-2.5a10.59,10.59,0,0,0,.07-3c0-.87-.47-1.86-1.5-1.84-1.56,0-2,1.89-2.13,3.09-.12.82.12,1.69,0,2.5Z" transform="translate(-62.5 -19.77)"/><line class="cls-5" x1="87.14" y1="127.94" x2="88.49" y2="129.55"/><path class="cls-5" d="M132.55,101.89a5.48,5.48,0,0,1-2.16-.2,1.87,1.87,0,0,1-1.29-1.6c0-1.14,1.46-1.82,2.55-1.47a5.51,5.51,0,0,1,2.51,2.25" transform="translate(-62.5 -19.77)"/><path class="cls-6" d="M132.55,100.64c-1.37,0-3.26-.07-3.45-1.8v2.5a1.86,1.86,0,0,1,2.19-1.54c1.29.16,2.17,1.36,2.88,2.32-.13-.17,0-1,0-1.25s.15-1,0-1.25c-.73-1-1.65-2.25-3-2.34a1.84,1.84,0,0,0-2.06,1.58,9.55,9.55,0,0,0,0,2.74c.34,1.52,2.19,1.58,3.42,1.53,0,0,0-2.5,0-2.5Z" transform="translate(-62.5 -19.77)"/><line class="cls-5" x1="70.05" y1="82.12" x2="71.39" y2="80.51"/><path class="cls-5" d="M150,98.16a5.48,5.48,0,0,1-.16-2.16,1.87,1.87,0,0,1,1.37-1.53c1.13-.2,2,1.14,1.87,2.27a5.51,5.51,0,0,1-1.8,2.85" transform="translate(-62.5 -19.77)"/><path class="cls-6" d="M150,96.91q-.08-.36-.14-.72-.16,1.7.05.79a3,3,0,0,1,.59-.92,1.39,1.39,0,0,1,1.86,0,3.06,3.06,0,0,1,.59.86q.29,1.06.07-1.14a3.24,3.24,0,0,1-.21.57,7.5,7.5,0,0,1-1.53,2c-.14.14,0,1,0,1.25s.15,1.11,0,1.25a5.13,5.13,0,0,0,1.83-3.73c0-1.15.24-2.69-.75-3.53-1.25-1.07-2.46.34-2.57,1.58a15.17,15.17,0,0,0,.21,4.26c-.16-.8.16-1.7,0-2.5Z" transform="translate(-62.5 -19.77)"/><line class="cls-5" x1="87.51" y1="78.39" x2="89.32" y2="79.45"/><path class="cls-5" d="M141.88,96.15a5.48,5.48,0,0,1-.87-2,1.87,1.87,0,0,1,.77-1.9c1-.56,2.3.39,2.52,1.52a5.51,5.51,0,0,1-.75,3.29" transform="translate(-62.5 -19.77)"/><path class="cls-6" d="M141.88,94.9a5.24,5.24,0,0,1-.89-2.23V95a1.53,1.53,0,0,1,1.69-1.63,2.2,2.2,0,0,1,1.67,2.16V93.2a7.7,7.7,0,0,1-.8,2.62,3.92,3.92,0,0,0,0,1.25,3.93,3.93,0,0,1,0,1.25,7.51,7.51,0,0,0,.8-2.62c0-.62,0-1.26,0-1.88,0-1.21-.22-2.7-1.69-3s-1.7,1.35-1.7,2.42c0,.62,0,1.26,0,1.88a5.21,5.21,0,0,0,.89,2.23c-.13-.22,0-1,0-1.25s.14-1,0-1.25Z" transform="translate(-62.5 -19.77)"/><line class="cls-5" x1="79.37" y1="76.39" x2="81.44" y2="76.78"/><path class="cls-5" d="M135.33,204.91a5.48,5.48,0,0,1-2-.94,1.87,1.87,0,0,1-.66-1.95c.39-1.08,2-1.2,2.9-.5a5.51,5.51,0,0,1,1.58,3" transform="translate(-62.5 -19.77)"/><path class="cls-6" d="M135.33,203.66c-1.22-.4-2.58-.94-2.69-2.42v2.5a1.69,1.69,0,0,1,2.45-1.26c1.31.49,1.76,2.06,2.11,3.27-.22-.76.22-1.73,0-2.5-.33-1.15-.75-2.61-1.92-3.19a1.87,1.87,0,0,0-2.51.62,3.72,3.72,0,0,0-.13,1.47c0,.52,0,1.06,0,1.58.11,1.46,1.47,2,2.69,2.42-.23-.07.26-2.41,0-2.5Z" transform="translate(-62.5 -19.77)"/><line class="cls-5" x1="72.83" y1="185.14" x2="74.64" y2="184.09"/><path class="cls-5" d="M151.46,202.64a5.48,5.48,0,0,1,.6-2.08,1.87,1.87,0,0,1,1.81-1c1.13.2,1.51,1.77,1,2.78a5.51,5.51,0,0,1-2.68,2" transform="translate(-62.5 -19.77)"/><path class="cls-6" d="M151.46,203.89c.17-1.15.45-2.63,1.75-3,1.11-.32,1.77.62,1.87,1.61v-2.27c-.16,1.57-1.64,2.32-2.92,2.94a5.6,5.6,0,0,0,0,1.25,6.25,6.25,0,0,1,0,1.25c1.1-.53,2.5-1.19,2.85-2.48a10.47,10.47,0,0,0,.08-3c0-.87-.46-1.86-1.48-1.85-1.56,0-2,1.88-2.15,3.07-.12.82.12,1.69,0,2.5Z" transform="translate(-62.5 -19.77)"/><line class="cls-5" x1="88.96" y1="182.87" x2="90.29" y2="184.49"/><path class="cls-5" d="M142.71,199.64a5.48,5.48,0,0,1-.13-2.16A1.87,1.87,0,0,1,144,196c1.13-.18,2,1.17,1.84,2.3a5.51,5.51,0,0,1-1.84,2.83" transform="translate(-62.5 -19.77)"/><path class="cls-6" d="M142.71,198.39q-.06-.27-.1-.54-.12-.79,0,.87c.12-.13.15-.48.25-.64a1.67,1.67,0,0,1,1.14-.88c1.12-.18,1.81,1,1.86,2v-2.46a5.19,5.19,0,0,1-1.86,3.09c-.14.14,0,1.05,0,1.25s.15,1.11,0,1.25a5.06,5.06,0,0,0,1.87-3.71c0-1.14.25-2.7-.72-3.54-1.24-1.08-2.47.3-2.59,1.55a15.4,15.4,0,0,0,.18,4.26c-.15-.8.15-1.69,0-2.5Z" transform="translate(-62.5 -19.77)"/><line class="cls-5" x1="80.21" y1="179.87" x2="82.01" y2="180.95"/></g><g id="Oars"><rect class="cls-7" x="26.13" y="64.31" width="112.18" height="2.99" rx="1.49" ry="1.49"/><rect class="cls-7" x="132.91" y="57.33" width="29.95" height="16.96" rx="8.48" ry="8.48"/><rect class="cls-7" x="0.13" y="57.33" width="29.95" height="16.96" rx="8.48" ry="8.48"/><rect class="cls-7" x="26.72" y="120.26" width="112.18" height="2.99" rx="1.49" ry="1.49"/><rect class="cls-7" x="133.5" y="113.27" width="29.95" height="16.96" rx="8.48" ry="8.48"/><rect class="cls-7" x="0.73" y="113.27" width="29.95" height="16.96" rx="8.48" ry="8.48"/><rect class="cls-7" x="25.99" y="171.53" width="112.18" height="2.99" rx="1.49" ry="1.49"/><rect class="cls-7" x="132.78" y="164.55" width="29.95" height="16.96" rx="8.48" ry="8.48"/><rect class="cls-7" y="164.55" width="29.95" height="16.96" rx="8.48" ry="8.48"/><rect class="cls-7" x="25.99" y="224.31" width="112.18" height="2.99" rx="1.49" ry="1.49"/><rect class="cls-7" x="132.78" y="217.32" width="29.95" height="16.96" rx="8.48" ry="8.48"/><rect class="cls-7" y="217.32" width="29.95" height="16.96" rx="8.48" ry="8.48"/></g><g id="Kidlings"><ellipse class="cls-8" cx="81.36" cy="39.79" rx="15.6" ry="14.71"/><rect class="cls-8" x="113.37" y="58.73" width="20.17" height="9" rx="4.5" ry="4.5" transform="translate(-77.53 35.54) rotate(-23.85)"/><rect class="cls-8" x="103.24" y="69.77" width="23.11" height="9" rx="4.5" ry="4.5" transform="translate(-42.6 152.95) rotate(-78.96)"/><rect class="cls-8" x="154.46" y="58.47" width="20.17" height="9" rx="4.5" ry="4.5" transform="translate(227.08 167.31) rotate(-156.15)"/><rect class="cls-8" x="160.91" y="68.9" width="24.05" height="9.37" rx="4.5" ry="4.5" transform="translate(71.34 237.64) rotate(-101.04)"/><ellipse class="cls-8" cx="81.49" cy="147.76" rx="15.6" ry="14.71"/><rect class="cls-8" x="113.5" y="166.69" width="20.17" height="9" rx="4.5" ry="4.5" transform="translate(-121.17 44.81) rotate(-23.85)"/><rect class="cls-8" x="103.17" y="177.13" width="24.05" height="9.37" rx="4.5" ry="4.5" transform="translate(-147.82 240.28) rotate(-78.96)"/><rect class="cls-8" x="154.59" y="166.43" width="20.17" height="9" rx="4.5" ry="4.5" transform="translate(183.68 374.08) rotate(-156.15)"/><rect class="cls-8" x="161.04" y="176.86" width="24.05" height="9.37" rx="4.5" ry="4.5" transform="translate(-34.47 366.41) rotate(-101.04)"/><ellipse class="cls-8" cx="81.96" cy="199.91" rx="15.6" ry="14.71"/><rect class="cls-8" x="113.96" y="218.85" width="20.17" height="9" rx="4.5" ry="4.5" transform="translate(-142.21 49.45) rotate(-23.85)"/><rect class="cls-8" x="103.83" y="229.89" width="23.11" height="9" rx="4.5" ry="4.5" transform="translate(-199.27 282.97) rotate(-78.96)"/><rect class="cls-8" x="155.05" y="218.58" width="20.17" height="9" rx="4.5" ry="4.5" transform="translate(163.48 474.11) rotate(-156.15)"/><rect class="cls-8" x="161.5" y="229.01" width="24.05" height="9.37" rx="4.5" ry="4.5" transform="translate(-85.11 429.01) rotate(-101.04)"/><ellipse class="cls-8" cx="81.36" cy="96.38" rx="15.6" ry="14.71"/><rect class="cls-8" x="113.37" y="115.31" width="20.17" height="9" rx="4.5" ry="4.5" transform="translate(-100.41 40.37) rotate(-23.85)"/><rect class="cls-8" x="103.04" y="125.75" width="24.05" height="9.37" rx="4.5" ry="4.5" transform="translate(-97.5 198.61) rotate(-78.96)"/><rect class="cls-8" x="154.46" y="115.05" width="20.17" height="9" rx="4.5" ry="4.5" transform="translate(204.2 275.65) rotate(-156.15)"/><rect class="cls-8" x="160.91" y="125.48" width="24.05" height="9.37" rx="4.5" ry="4.5" transform="translate(15.8 305.06) rotate(-101.04)"/></g></svg>