<?xml version="1.0" encoding="UTF-8" standalone="no"?>
<svg width="91px" height="239px" viewBox="0 0 91 239" version="1.1" xmlns="http://www.w3.org/2000/svg" xmlns:xlink="http://www.w3.org/1999/xlink">
    <!-- Generator: Sketch 3.8.2 (29753) - http://www.bohemiancoding.com/sketch -->
    <title>canoetop</title>
    <desc>Created with Sketch.</desc>
    <defs></defs>
    <g id="Page-1" stroke="none" stroke-width="1" fill="none" fill-rule="evenodd">
        <g id="canoetop">
            <g id="anotherbootah_x3F_" transform="translate(14.000000, 0.000000)">
                <path d="M53.5,24 C47.9,9.2 41,0.4 33.5,0.4 C26,0.4 19.1,9.2 13.5,24 C5.3,45.7 0,80.4 0,119.5 L0,226.3 C0,233 4.7,238.5 10.5,238.5 L33.5,238.5 L56.5,238.5 C62.3,238.5 67,233 67,226.3 L67,119.5 C67.1,80.4 61.7,45.7 53.5,24 L53.5,24 Z" id="Shape" fill="#6D6E71"></path>
                <path d="M50.2,33.2 C45.5,20 39.6,12.1 33.3,12.1 C27,12.1 21.1,19.9 16.4,33.2 C9.5,52.6 5,83.7 5,118.6 L5,214.2 C5,220.2 9,225.1 13.9,225.1 L33.3,225.1 L52.7,225.1 C57.6,225.1 61.6,220.2 61.6,214.2 L61.6,118.6 C61.6,83.7 57.1,52.6 50.2,33.2 L50.2,33.2 Z" id="Shape" fill="#414042"></path>
                <rect id="Rectangle-path" fill="#939598" x="5.2" y="68" width="56.2" height="17.5"></rect>
                <rect id="Rectangle-path" fill="#939598" x="3" y="200.5" width="60.6" height="24.6"></rect>
                <rect id="Rectangle-path" fill="#939598" x="3" y="111.7" width="60.6" height="17.5"></rect>
                <rect id="Rectangle-path" fill="#939598" x="3" y="156.4" width="60.6" height="17.5"></rect>
            </g>
            <g id="why_do_we_have_legs." transform="translate(34.000000, 54.000000)">
                <path d="M20.6,0.5 C23.1,0.8 24.9,3.3 24.8,6.1 L15.5,4.8 C16,2.1 18.2,0.2 20.6,0.5 L20.6,0.5 Z" id="Shape" fill="#FDCC9A"></path>
                <path d="M15.5,5.3 C15.5,5.1 15.5,5 15.6,4.8 L24.9,6.1 L24.9,6.3 L23.6,21.7 C23.3,24.6 21,26.8 18.5,26.5 C15.9,26.2 14,23.6 14.3,20.6 L15.5,5.3 L15.5,5.3 Z" id="Shape" fill="#000000"></path>
                <path d="M4.3,0.5 C1.8,0.8 -9.76996262e-15,3.3 0.1,6.1 L9.4,4.8 C8.9,2.1 6.8,0.2 4.3,0.5 L4.3,0.5 Z" id="Shape" fill="#FDCC9A"></path>
                <path d="M9.5,5.3 C9.5,5.1 9.5,5 9.4,4.8 L0.1,6.1 L0.1,6.3 L1.4,21.7 C1.7,24.6 4,26.8 6.5,26.5 C9.1,26.2 11,23.6 10.7,20.6 L9.5,5.3 L9.5,5.3 Z" id="Shape" fill="#000000"></path>
                <path d="M21.1,42.2 C23.6,42.5 25.4,45 25.3,47.8 L16,46.5 C16.5,43.9 18.7,42 21.1,42.2 L21.1,42.2 Z" id="Shape" fill="#FDCC9A"></path>
                <path d="M16,47.1 C16,46.9 16,46.8 16.1,46.6 L25.4,47.9 L25.4,48.1 L24.1,63.5 C23.8,66.4 21.5,68.6 19,68.3 C16.4,68 14.5,65.4 14.8,62.4 L16,47.1 L16,47.1 Z" id="Shape" fill="#000000"></path>
                <path d="M4.8,42.2 C2.3,42.5 0.5,45 0.6,47.8 L9.9,46.5 C9.4,43.9 7.2,42 4.8,42.2 L4.8,42.2 Z" id="Shape" fill="#FDCC9A"></path>
                <path d="M9.9,47.1 C9.9,46.9 9.9,46.8 9.8,46.6 L0.5,47.9 L0.5,48.1 L1.8,63.5 C2.1,66.4 4.4,68.6 6.9,68.3 C9.5,68 11.4,65.4 11.1,62.4 L9.9,47.1 L9.9,47.1 Z" id="Shape" fill="#000000"></path>
                <path d="M21.5,87 C24,87.3 25.8,89.8 25.7,92.6 L16.4,91.3 C16.9,88.7 19.1,86.8 21.5,87 L21.5,87 Z" id="Shape" fill="#FDCC9A"></path>
                <path d="M16.4,91.9 C16.4,91.7 16.4,91.6 16.5,91.4 L25.8,92.7 L25.8,92.9 L24.5,108.3 C24.2,111.2 21.9,113.4 19.4,113.1 C16.8,112.8 14.9,110.2 15.2,107.2 L16.4,91.9 L16.4,91.9 Z" id="Shape" fill="#000000"></path>
                <path d="M5.2,87 C2.7,87.3 0.9,89.8 1,92.6 L10.3,91.3 C9.8,88.7 7.6,86.8 5.2,87 L5.2,87 Z" id="Shape" fill="#FDCC9A"></path>
                <path d="M10.3,91.9 C10.3,91.7 10.3,91.6 10.2,91.4 L0.9,92.7 L0.9,92.9 L2.2,108.3 C2.5,111.2 4.8,113.4 7.3,113.1 C9.9,112.8 11.8,110.2 11.5,107.2 L10.3,91.9 L10.3,91.9 Z" id="Shape" fill="#000000"></path>
                <path d="M20.9,131.8 C23.4,132.1 25.2,134.6 25.1,137.4 L15.8,136.1 C16.3,133.5 18.5,131.6 20.9,131.8 L20.9,131.8 Z" id="Shape" fill="#FDCC9A"></path>
                <path d="M15.8,136.6 C15.8,136.4 15.8,136.3 15.9,136.1 L25.2,137.4 L25.2,137.6 L23.9,153 C23.6,155.9 21.3,158.1 18.8,157.8 C16.2,157.5 14.3,154.9 14.6,151.9 L15.8,136.6 L15.8,136.6 Z" id="Shape" fill="#000000"></path>
                <path d="M4.7,131.8 C2.2,132.1 0.4,134.6 0.5,137.4 L9.8,136.1 C9.3,133.5 7.1,131.6 4.7,131.8 L4.7,131.8 Z" id="Shape" fill="#FDCC9A"></path>
                <path d="M9.8,136.6 C9.8,136.4 9.8,136.3 9.7,136.1 L0.4,137.4 L0.4,137.6 L1.7,153 C2,155.9 4.3,158.1 6.8,157.8 C9.4,157.5 11.3,154.9 11,151.9 L9.8,136.6 L9.8,136.6 Z" id="Shape" fill="#000000"></path>
            </g>
            <g id="oooarss" transform="translate(0.000000, 58.000000)" fill="#C49A6C">
                <g id="Group">
                    <path d="M75,6.3 L15.6,6.4 C15.2,6.4 14.8,6 14.8,5.6 L14.8,5.6 C14.8,5.2 15.2,4.8 15.6,4.8 L75,4.7 C75.4,4.7 75.8,5.1 75.8,5.5 L75.8,5.5 C75.8,5.9 75.5,6.3 75,6.3 L75,6.3 Z" id="Shape"></path>
                    <path d="M84.6,10.1 L77.5,10.1 C75,10.1 72.9,8 72.9,5.5 L72.9,5.5 C72.9,3 75,0.9 77.5,0.9 L84.6,0.9 C87.1,0.9 89.2,3 89.2,5.5 L89.2,5.5 C89.2,8 87.1,10.1 84.6,10.1 L84.6,10.1 Z" id="Shape"></path>
                    <path d="M12.3,10.2 L5.2,10.2 C2.7,10.2 0.6,8.1 0.6,5.6 L0.6,5.6 C0.6,3.1 2.7,1 5.2,1 L12.3,1 C14.8,1 16.9,3.1 16.9,5.6 L16.9,5.6 C17,8.1 14.9,10.2 12.3,10.2 L12.3,10.2 Z" id="Shape"></path>
                </g>
                <g id="Group" transform="translate(1.000000, 42.000000)">
                    <path d="M74.5,6.1 L15.1,6.2 C14.7,6.2 14.3,5.8 14.3,5.4 L14.3,5.4 C14.3,5 14.7,4.6 15.1,4.6 L74.5,4.5 C74.9,4.5 75.3,4.9 75.3,5.3 L75.3,5.3 C75.3,5.7 75,6.1 74.5,6.1 L74.5,6.1 Z" id="Shape"></path>
                    <path d="M84.1,9.8 L77,9.8 C74.5,9.8 72.4,7.7 72.4,5.2 L72.4,5.2 C72.4,2.7 74.5,0.6 77,0.6 L84.1,0.6 C86.6,0.6 88.7,2.7 88.7,5.2 L88.7,5.2 C88.7,7.8 86.6,9.8 84.1,9.8 L84.1,9.8 Z" id="Shape"></path>
                    <path d="M11.8,10 L4.7,10 C2.2,10 0.1,7.9 0.1,5.4 L0.1,5.4 C0.1,2.9 2.2,0.8 4.7,0.8 L11.8,0.8 C14.3,0.8 16.4,2.9 16.4,5.4 L16.4,5.4 C16.4,7.9 14.4,10 11.8,10 L11.8,10 Z" id="Shape"></path>
                </g>
                <g id="Group" transform="translate(1.000000, 87.000000)">
                    <path d="M74.9,5.8 L15.5,5.9 C15.1,5.9 14.7,5.5 14.7,5.1 L14.7,5.1 C14.7,4.7 15.1,4.3 15.5,4.3 L74.9,4.2 C75.3,4.2 75.7,4.6 75.7,5 L75.7,5 C75.7,5.5 75.3,5.8 74.9,5.8 L74.9,5.8 Z" id="Shape"></path>
                    <path d="M84.5,9.6 L77.4,9.6 C74.9,9.6 72.8,7.5 72.8,5 L72.8,5 C72.8,2.5 74.9,0.4 77.4,0.4 L84.5,0.4 C87,0.4 89.1,2.5 89.1,5 L89.1,5 C89.1,7.5 87,9.6 84.5,9.6 L84.5,9.6 Z" id="Shape"></path>
                    <path d="M12.2,9.8 L5.1,9.8 C2.6,9.8 0.5,7.7 0.5,5.2 L0.5,5.2 C0.5,2.7 2.6,0.6 5.1,0.6 L12.2,0.6 C14.7,0.6 16.8,2.7 16.8,5.2 L16.8,5.2 C16.8,7.7 14.7,9.8 12.2,9.8 L12.2,9.8 Z" id="Shape"></path>
                </g>
                <g id="Group" transform="translate(1.000000, 132.000000)">
                    <path d="M74.4,5.6 L15,5.7 C14.6,5.7 14.2,5.3 14.2,4.9 L14.2,4.9 C14.2,4.5 14.6,4.1 15,4.1 L74.4,4 C74.8,4 75.2,4.4 75.2,4.8 L75.2,4.8 C75.2,5.3 74.8,5.6 74.4,5.6 L74.4,5.6 Z" id="Shape"></path>
                    <path d="M83.9,9.4 L76.8,9.4 C74.3,9.4 72.2,7.3 72.2,4.8 L72.2,4.8 C72.2,2.3 74.3,0.2 76.8,0.2 L83.9,0.2 C86.4,0.2 88.5,2.3 88.5,4.8 L88.5,4.8 C88.5,7.3 86.5,9.4 83.9,9.4 L83.9,9.4 Z" id="Shape"></path>
                    <path d="M11.7,9.5 L4.6,9.5 C2.1,9.5 1.42108547e-14,7.4 1.42108547e-14,4.9 L1.42108547e-14,4.9 C1.42108547e-14,2.4 2.1,0.3 4.6,0.3 L11.7,0.3 C14.2,0.3 16.3,2.4 16.3,4.9 L16.3,4.9 C16.3,7.5 14.2,9.5 11.7,9.5 L11.7,9.5 Z" id="Shape"></path>
                </g>
            </g>
            <g id="peeps_1_" transform="translate(23.000000, 58.000000)">
                <g id="Group">
                    <path d="M41.1,17.6 C41.1,15.9 41.2,14 41.5,11.8 C42,8.2 42.9,0.9 44.5,0.9 C45.8,0.9 47.3,7.2 47.5,11.8 C47.6,15.2 47.1,19.6 47.1,21.1 C47.1,21.1 47.1,21.5 47,21.9 C46.9,22.5 46.8,22.8 46.5,23.1 C46.1,23.5 45.5,23.4 45.3,23.4 C44.5,23.7 43.4,24.1 42,24.5 C39.1,25.3 37.5,25.8 36.8,25 C36.1,24.2 37.3,23 36.7,20.5 C36.5,19.5 36.2,19.2 36.3,18.8 C36.8,17.8 39.1,17.6 41.1,17.6 L41.1,17.6 Z" id="Shape" fill="#FDCC9A"></path>
                    <path d="M6.8,17.6 C6.8,15.9 6.7,14 6.4,11.8 C5.9,8.2 5,0.9 3.4,0.9 C2.1,0.9 0.6,7.2 0.4,11.8 C0.3,15.2 0.8,19.6 0.8,21.1 C0.8,21.1 0.8,21.5 0.9,21.9 C1,22.5 1.1,22.8 1.4,23.1 C1.8,23.5 2.4,23.4 2.6,23.4 C3.4,23.7 4.5,24.1 5.9,24.5 C8.8,25.3 10.4,25.8 11.1,25 C11.8,24.2 10.6,23 11.2,20.5 C11.4,19.5 11.7,19.2 11.6,18.8 C11.1,17.8 8.9,17.6 6.8,17.6 L6.8,17.6 Z" id="Shape" fill="#FDCC9A"></path>
                    <path d="M37.4,18.4 C32.6,10.4 16,10.1 10.7,18.1 C9.7,19.7 9.2,21.3 9,22.5 L9,23.9 C9,27.3 11.5,30.1 14.6,30.1 L33,30.1 C36.1,30.1 38.6,27.3 38.6,23.9 L38.6,22.5 C38.6,21.5 38.3,19.9 37.4,18.4 L37.4,18.4 Z" id="Shape" fill="#814E9F"></path>
                    <g transform="translate(15.000000, 10.000000)" id="Shape">
                        <path d="M9,1.4 C13.6,1.4 17.4,6.1 17.4,11.9 L17.4,12.4 C17.5,11.8 17.6,11.2 17.6,10.5 C17.6,4.8 13.8,0.3 9,0.3 C4.2,0.3 0.4,4.9 0.4,10.5 C0.4,11.2 0.5,11.9 0.6,12.5 C0.6,12.4 0.6,12.3 0.7,12.2 L0.7,11.8 C0.6,6.1 4.4,1.4 9,1.4 L9,1.4 Z" fill="#FDCC9A"></path>
                        <path d="M17.2,8.2 C16.2,4.3 13,1.4 9,1.4 C5.1,1.4 1.8,4.3 0.8,8.2 C0.6,8.9 0.5,9.7 0.5,10.5 C0.5,15.5 4.3,19.6 9,19.6 C13.7,19.6 17.5,15.5 17.5,10.5 C17.5,9.7 17.4,8.9 17.2,8.2 L17.2,8.2 Z" fill="#7F4E20"></path>
                    </g>
                </g>
                <g id="Group" transform="translate(0.000000, 42.000000)">
                    <path d="M41.6,17.4 C41.6,15.7 41.7,13.8 42,11.6 C42.5,8 43.4,0.7 45,0.7 C46.3,0.7 47.8,7 48,11.6 C48.1,15 47.6,19.4 47.6,20.9 C47.6,20.9 47.6,21.3 47.5,21.7 C47.4,22.3 47.3,22.6 47,22.9 C46.6,23.3 46,23.2 45.8,23.2 C45,23.5 43.9,23.9 42.5,24.3 C39.6,25.1 38,25.6 37.3,24.8 C36.6,24 37.8,22.8 37.2,20.3 C37,19.3 36.7,19 36.8,18.6 C37.3,17.5 39.6,17.3 41.6,17.4 L41.6,17.4 Z" id="Shape" fill="#FDCC9A"></path>
                    <path d="M7.3,17.4 C7.3,15.7 7.2,13.8 6.9,11.6 C6.4,8 5.5,0.7 3.9,0.7 C2.6,0.7 1.1,7 0.9,11.6 C0.8,15 1.3,19.4 1.3,20.9 C1.3,20.9 1.3,21.3 1.4,21.7 C1.5,22.3 1.6,22.6 1.9,22.9 C2.3,23.3 2.9,23.2 3.1,23.2 C3.9,23.5 5,23.9 6.4,24.3 C9.3,25.1 10.9,25.6 11.6,24.8 C12.3,24 11.1,22.8 11.7,20.3 C11.9,19.3 12.2,19 12.1,18.6 C11.6,17.5 9.4,17.3 7.3,17.4 L7.3,17.4 Z" id="Shape" fill="#FDCC9A"></path>
                    <path d="M37.8,18.2 C33,10.2 16.4,9.9 11.1,17.9 C10.1,19.5 9.6,21.1 9.4,22.3 L9.4,23.7 C9.4,27.1 11.9,29.9 15,29.9 L33.4,29.9 C36.5,29.9 39,27.1 39,23.7 L39,22.3 C39.1,21.2 38.8,19.7 37.8,18.2 L37.8,18.2 Z" id="Shape" fill="#814E9F"></path>
                    <g transform="translate(15.000000, 10.000000)" id="Shape">
                        <path d="M9.5,1.2 C14.1,1.2 17.9,5.9 17.9,11.7 L17.9,12.2 C18,11.6 18.1,11 18.1,10.3 C18.1,4.6 14.3,0.1 9.5,0.1 C4.7,0.1 0.9,4.7 0.9,10.3 C0.9,11 1,11.7 1.1,12.3 C1.1,12.2 1.1,12.1 1.2,12 L1.2,11.6 C1.1,5.9 4.9,1.2 9.5,1.2 L9.5,1.2 Z" fill="#FDCC9A"></path>
                        <path d="M17.7,8 C16.7,4.1 13.5,1.2 9.5,1.2 C5.6,1.2 2.3,4.1 1.3,8 C1.1,8.7 1,9.5 1,10.3 C1,15.3 4.8,19.4 9.5,19.4 C14.2,19.4 18,15.3 18,10.3 C18,9.5 17.8,8.7 17.7,8 L17.7,8 Z" fill="#7F4E20"></path>
                    </g>
                </g>
                <g id="Group" transform="translate(1.000000, 87.000000)">
                    <path d="M40.9,17.2 C40.9,15.5 41,13.6 41.3,11.4 C41.8,7.8 42.7,0.5 44.3,0.5 C45.6,0.5 47.1,6.8 47.3,11.4 C47.4,14.8 46.9,19.2 46.9,20.7 C46.9,20.7 46.9,21.1 46.8,21.5 C46.7,22.1 46.6,22.4 46.3,22.7 C45.9,23.1 45.3,23 45.1,23 C44.3,23.3 43.2,23.7 41.8,24.1 C38.9,24.9 37.3,25.4 36.6,24.6 C35.9,23.8 37.1,22.6 36.5,20.1 C36.3,19.1 36,18.8 36.1,18.4 C36.7,17.3 38.9,17.1 40.9,17.2 L40.9,17.2 Z" id="Shape" fill="#FDCC9A"></path>
                    <path d="M6.7,17.2 C6.7,15.5 6.6,13.6 6.3,11.4 C5.8,7.8 4.9,0.5 3.3,0.5 C2,0.5 0.5,6.8 0.3,11.4 C0.2,14.8 0.7,19.2 0.7,20.7 C0.7,20.7 0.7,21.1 0.8,21.5 C0.9,22.1 1,22.4 1.3,22.7 C1.7,23.1 2.3,23 2.5,23 C3.3,23.3 4.4,23.7 5.8,24.1 C8.7,24.9 10.3,25.4 11,24.6 C11.7,23.8 10.5,22.6 11.1,20.1 C11.3,19.1 11.6,18.8 11.5,18.4 C11,17.3 8.7,17.1 6.7,17.2 L6.7,17.2 Z" id="Shape" fill="#FDCC9A"></path>
                    <path d="M37.2,17.9 C32.4,9.9 15.8,9.6 10.5,17.6 C9.5,19.2 9,20.8 8.8,22 L8.8,23.4 C8.8,26.8 11.3,29.6 14.4,29.6 L33,29.6 C36.1,29.6 38.6,26.8 38.6,23.4 L38.6,22 C38.5,21 38.1,19.5 37.2,17.9 L37.2,17.9 Z" id="Shape" fill="#814E9F"></path>
                    <g transform="translate(15.000000, 9.000000)" id="Shape">
                        <path d="M8.9,2 C13.5,2 17.3,6.7 17.3,12.5 L17.3,13 C17.4,12.4 17.5,11.8 17.5,11.1 C17.5,5.4 13.7,0.9 8.9,0.9 C4.1,0.9 0.3,5.5 0.3,11.1 C0.3,11.8 0.4,12.5 0.5,13.1 C0.5,13 0.5,12.9 0.6,12.8 L0.6,12.4 C0.5,6.7 4.2,2 8.9,2 L8.9,2 Z" fill="#FDCC9A"></path>
                        <path d="M17,8.7 C16,4.8 12.8,1.9 8.8,1.9 C4.9,1.9 1.6,4.8 0.6,8.7 C0.4,9.4 0.3,10.2 0.3,11 C0.3,16 4.1,20.1 8.8,20.1 C13.5,20.1 17.3,16 17.3,11 C17.3,10.3 17.2,9.5 17,8.7 L17,8.7 Z" fill="#7F4E20"></path>
                    </g>
                </g>
                <g id="Group" transform="translate(0.000000, 132.000000)">
                    <path d="M41.4,17 C41.4,15.3 41.5,13.4 41.8,11.2 C42.3,7.6 43.2,0.3 44.8,0.3 C46.1,0.3 47.6,6.6 47.8,11.2 C47.9,14.6 47.4,19 47.4,20.5 C47.4,20.5 47.4,20.9 47.3,21.3 C47.2,21.9 47.1,22.2 46.8,22.5 C46.4,22.9 45.8,22.8 45.6,22.8 C44.8,23.1 43.7,23.5 42.3,23.9 C39.4,24.7 37.8,25.2 37.1,24.4 C36.4,23.6 37.6,22.4 37,19.9 C36.8,18.9 36.5,18.6 36.6,18.2 C37.2,17.1 39.4,16.9 41.4,17 L41.4,17 Z" id="Shape" fill="#FDCC9A"></path>
                    <path d="M7.2,17 C7.2,15.3 7.1,13.4 6.8,11.2 C6.3,7.6 5.4,0.3 3.8,0.3 C2.5,0.3 1,6.6 0.8,11.2 C0.7,14.6 1.2,19 1.2,20.5 C1.2,20.5 1.2,20.9 1.3,21.3 C1.4,21.9 1.5,22.2 1.8,22.5 C2.2,22.9 2.8,22.8 3,22.8 C3.8,23.1 4.9,23.5 6.3,23.9 C9.2,24.7 10.8,25.2 11.5,24.4 C12.2,23.6 11,22.4 11.6,19.9 C11.8,18.9 12.1,18.6 12,18.2 C11.4,17.1 9.2,16.9 7.2,17 L7.2,17 Z" id="Shape" fill="#FDCC9A"></path>
                    <path d="M37.7,17.7 C32.9,9.7 16.3,9.4 11,17.4 C10,19 9.5,20.6 9.3,21.8 L9.3,23.2 C9.3,26.6 11.8,29.4 14.9,29.4 L33.3,29.4 C36.4,29.4 38.9,26.6 38.9,23.2 L38.9,21.8 C38.9,20.8 38.6,19.3 37.7,17.7 L37.7,17.7 Z" id="Shape" fill="#814E9F"></path>
                    <g transform="translate(15.000000, 9.000000)" id="Shape">
                        <path d="M9.3,1.8 C13.9,1.8 17.7,6.5 17.7,12.3 L17.7,12.8 C17.8,12.2 17.9,11.6 17.9,10.9 C17.9,5.2 14.1,0.7 9.3,0.7 C4.6,0.7 0.7,5.3 0.7,10.9 C0.7,11.6 0.8,12.3 0.9,12.9 C0.9,12.8 0.9,12.7 1,12.6 L1,12.2 C0.9,6.5 4.7,1.8 9.3,1.8 L9.3,1.8 Z" fill="#FDCC9A"></path>
                        <path d="M17.5,8.5 C16.5,4.6 13.3,1.7 9.3,1.7 C5.4,1.7 2.1,4.6 1.1,8.5 C0.9,9.2 0.8,10 0.8,10.8 C0.8,15.8 4.6,19.9 9.3,19.9 C14,19.9 17.8,15.8 17.8,10.8 C17.8,10 17.7,9.3 17.5,8.5 L17.5,8.5 Z" fill="#7F4E20"></path>
                    </g>
                </g>
            </g>
        </g>
    </g>
</svg>