<?xml version="1.0" encoding="utf-8"?>
<!-- Generator: Adobe Illustrator 19.2.1, SVG Export Plug-In . SVG Version: 6.00 Build 0)  -->
<svg version="1.1" xmlns="http://www.w3.org/2000/svg" xmlns:xlink="http://www.w3.org/1999/xlink" x="0px" y="0px"
	 viewBox="0 0 300 300" style="enable-background:new 0 0 300 300;" xml:space="preserve">
<style type="text/css">
	.st0{fill:#EA3B3B;}
	.st1{fill:#388938;}
	.st2{fill:#E2B0B0;}
	.st3{display:none;}
	.st4{display:inline;fill:#EA3B3B;}
	.st5{display:inline;fill:#388938;}
	.st6{display:inline;fill:#E2B0B0;}
	.st7{display:inline;fill:#328E32;}
</style>
<g id="Layer_1">
	<path class="st0" d="M189.8,66.3c-7,13.3-23.3,22.5-23.3,22.5c-3.7,1.6-6.9,2.1-9.2,2.4c-5,0.5-9.1,0.9-12.7-1.4
		c-3.1-2-5.4-4.2-6.5-3.5c-0.6,0.4-0.6,1.5-0.4,2.4c0.2,0.6,0.6,1.5,1.2,2.6c5.5,9.5,20.6,9.8,25.3,10c8.1,0.3,14.1-1.7,15.8-2.3
		c8.6-3,14.1-8,16.8-10.8c3-2.6,7.9-7.5,10.8-15c1.1-2.9,1.7-5.6,2-7.9c-3.2-2.8-6.3-5.5-9.5-8.3C196.8,57.8,193,60.1,189.8,66.3z"
		/>
	<path class="st1" d="M206.3,36.5c1,0.3,2.9,1,4.2,2.8c2.1,2.8,2,7.1-0.3,10.7c-1.4,2.3-2.8,4.5-4.3,6.8c-0.6-0.1-1.4-0.2-2.3-0.3
		c-1.6,0-2.8,0.3-3.7,0.6c3.2,2.8,6.3,5.5,9.5,8.3c0.2-1.1,0.4-2.4,0.5-3.9c0-1,0-1.9,0-2.8c1.9-2.5,3.8-5,5.8-7.5
		c0.3-0.4,2.7-4.5,1-8.8C215.1,38.6,210.9,36.1,206.3,36.5z"/>
	<path class="st2" d="M179.5,83.5c0.8,1.1,17.6-13.4,19.1-16.8c0.1-0.3,0.5-1.1,0.1-1.5c-0.5-0.5-1.9,0.1-2.4,0.2
		c-3.5,1.4-6.2,6.4-8.4,9.6C183.5,81.3,179.2,82.9,179.5,83.5z"/>
</g>
<g id="Layer_2" class="st3">
	<path class="st4" d="M142.3,140.3c-7,13.3-23.3,22.5-23.3,22.5s-14.3,6.8-30.5-1.3c0,0,8.3,12,23.8,10.5s28-8.3,28-8.3
		s13-7.3,18.8-16.5c2-3.2,2.8-5.8,3-7.9c-3.2-2.8-6.3-5.5-9.5-8.3C149.3,131.9,145.5,134.2,142.3,140.3z"/>
	<path class="st5" d="M158.8,110.5c0,0,8.6,4,7.8,10.3l-7.5,10.8c0,0-2.8-1.3-6.6-0.4c3.2,2.8,6.3,5.5,9.5,8.3
		c0.4-3.9-1.5-5.9-1.5-5.9l6.5-8.3C167,125.3,176.5,113.5,158.8,110.5z"/>
	<path class="st6" d="M132,157.5c0.8,1.1,17.6-13.4,19.1-16.8c0.1-0.3,0.5-1.1,0.1-1.5c-0.5-0.5-1.9,0.1-2.4,0.2
		c-3.5,1.4-6.2,6.4-8.4,9.6C136,155.3,131.6,157,132,157.5z"/>
	<path class="st4" d="M236.3,132.7c-2.5,2.4-4,5.1-4.8,6.5c-0.3,0.7-1.1,2.8-2.8,6.9c-1.3,3.4-1.6,4.3-2.5,5.6
		c-1.1,1.7-2.1,2.7-3.4,4c-1.2,1.2-2.7,2.7-5,4.3c-1.6,1-4,2.4-7.3,3.3c-1.2,0-2.7-0.1-4.5-0.3c-0.8-0.1-2.4-0.3-4.7-0.8
		c-5.6-1.3-8.1-3-8.5-2.5c-0.3,0.4,0.8,2.1,7.2,7.9c2,1.3,5,2.9,8.8,3.6c9.3,1.9,17.2-2.2,21.8-4.5c4.1-2,7.1-4.4,9.2-6.2
		c4-3.6,9.1-9.2,12.8-17.2c1.3-2.8,2.3-5.4,3-7.9c-3.2-2.8-6.3-5.5-9.5-8.3C243.6,127.7,239.7,129.3,236.3,132.7z"/>
	<path class="st7" d="M253.4,108.7c0.8,0.5,3.5,2.3,4.7,5.8c0.6,2,0.5,3.8,0.3,4.8c-0.6,1.1-1.4,2.5-2.5,3.9
		c-1.3,1.6-2.6,2.9-3.7,3.8c-0.5-0.2-1.1-0.4-1.8-0.5c-1.8-0.3-3.4,0.1-4.2,0.4c3.2,2.8,6.3,5.5,9.5,8.3c0.3-0.6,0.7-1.9,0.5-3.4
		c-0.1-0.8-0.3-1.4-0.5-1.8c1.2-1.2,2.4-2.4,3.7-3.7c4.2-4.5,4.6-10.7,1.7-14.3C258.5,108.8,254.2,108.7,253.4,108.7z"/>
	<path class="st6" d="M228,154c0.9,1,16.1-15.1,17.2-18.7c0.1-0.3,0.4-1.2,0-1.5c-0.5-0.5-1.9,0.3-2.3,0.5
		c-3.3,1.8-5.5,7.1-7.4,10.4C231.8,151.4,227.6,153.5,228,154z"/>
</g>
</svg>
