<svg id="Layer_1" data-name="Layer 1" xmlns="http://www.w3.org/2000/svg" viewBox="0 0 79.58 64.82"><defs><style>.cls-1{fill:#ea3b3b;}.cls-2{fill:#388938;}.cls-3{fill:#e2b0b0;}</style></defs><title>chilly</title><path class="cls-1" d="M73.14,52.62c-7,13.25-23.25,22.5-23.25,22.5a31.38,31.38,0,0,1-9.16,2.38c-5,.51-9.07.92-12.65-1.37-3.14-2-5.41-4.21-6.5-3.5C21,73,21,74.12,21.17,75a14.24,14.24,0,0,0,1.17,2.58c5.48,9.47,20.62,9.85,25.25,10a44.56,44.56,0,0,0,15.75-2.25A42.5,42.5,0,0,0,80.08,74.62a37.31,37.31,0,0,0,10.75-15,35.85,35.85,0,0,0,2-7.89l-9.52-8.29C80.17,44.18,76.37,46.51,73.14,52.62Z" transform="translate(-21.08 -22.82)"/><path class="cls-2" d="M89.64,22.87a8.05,8.05,0,0,1,4.2,2.78c2.11,2.8,2,7.08-.26,10.72l-4.25,6.75a11.6,11.6,0,0,0-6,.32l9.52,8.29a27.19,27.19,0,0,0,.47-6.61l5.75-7.5c0.27-.44,2.71-4.47,1-8.81A10.12,10.12,0,0,0,89.64,22.87Z" transform="translate(-21.08 -22.82)"/><path class="cls-3" d="M62.85,69.82C63.63,70.95,80.48,56.46,81.93,53a1.69,1.69,0,0,0,.13-1.5c-0.46-.53-1.91.06-2.38,0.24-3.5,1.4-6.22,6.44-8.42,9.59C66.87,67.66,62.5,69.31,62.85,69.82Z" transform="translate(-21.08 -22.82)"/><path class="cls-1" d="M73.14,52.62c-7,13.25-23.25,22.5-23.25,22.5a31.38,31.38,0,0,1-9.16,2.38c-5,.51-9.07.92-12.65-1.37-3.14-2-5.41-4.21-6.5-3.5C21,73,21,74.12,21.17,75a14.24,14.24,0,0,0,1.17,2.58c5.48,9.47,20.62,9.85,25.25,10a44.56,44.56,0,0,0,15.75-2.25A42.5,42.5,0,0,0,80.08,74.62a37.31,37.31,0,0,0,10.75-15,35.85,35.85,0,0,0,2-7.89l-9.52-8.29C80.17,44.18,76.37,46.51,73.14,52.62Z" transform="translate(-21.08 -22.82)"/><path class="cls-2" d="M89.64,22.87a8.05,8.05,0,0,1,4.2,2.78c2.11,2.8,2,7.08-.26,10.72l-4.25,6.75a11.6,11.6,0,0,0-6,.32l9.52,8.29a27.19,27.19,0,0,0,.47-6.61l5.75-7.5c0.27-.44,2.71-4.47,1-8.81A10.12,10.12,0,0,0,89.64,22.87Z" transform="translate(-21.08 -22.82)"/><path class="cls-3" d="M62.85,69.82C63.63,70.95,80.48,56.46,81.93,53a1.69,1.69,0,0,0,.13-1.5c-0.46-.53-1.91.06-2.38,0.24-3.5,1.4-6.22,6.44-8.42,9.59C66.87,67.66,62.5,69.31,62.85,69.82Z" transform="translate(-21.08 -22.82)"/></svg>