<svg xmlns="http://www.w3.org/2000/svg" viewBox="0 0 300 300">
	<style>
		.cls-1{fill:#4aa9d4;}.cls-2{fill:#bbe2f8;}.cls-3{fill:#e8eab8;}.cls-4{fill:#efe99d;}.cls-5{fill:#f7ef67;}.cls-6{fill:#fdcc9a;}.cls-7{fill:#7f4e20;}.cls-8{fill:#fcee22;}.cls-9{fill:#fff;}.cls-10{fill:#ef3f3f;}.cls-11{fill:#2b669b;}.cls-12{fill:#939598;}.cls-13{fill:#6f7070;}.cls-14{fill:#515251;}.cls-15{fill:#cae1e8;}
	</style>
	<rect class="cls-1" y="87.38" width="300" height="212.62" />
	<rect class="cls-2" width="300" height="87.38" />
	<path class="cls-3" d="M23.07,16.39c5.81-2.24,12.23,1,14.33,7.15s-0.9,13-6.72,15.25-12.23-1-14.33-7.15S17.26,18.63,23.07,16.39Z" />
	<path class="cls-4" d="M33.93,26.27A7.55,7.55,0,0,1,28,35a7.21,7.21,0,0,1-8.17-6.31A7.55,7.55,0,0,1,25.76,20,7.21,7.21,0,0,1,33.93,26.27Z" />
	<path class="cls-5" d="M30.34,27a3.7,3.7,0,0,1-2.91,4.26,3.53,3.53,0,0,1-4-3.09,3.7,3.7,0,0,1,2.91-4.26A3.53,3.53,0,0,1,30.34,27Z" />
	<ellipse class="cls-6" cx="66.28" cy="98.92" rx="6.36" ry="7.33" />
	<ellipse class="cls-7" cx="66.28" cy="97.99" rx="6.36" ry="6.39" />
	<path class="cls-7" d="M246.9,82.64a3.18,3.18,0,0,0-2.72,2.21c-0.51,1.3-1,2.28-2.59,2.27a1.25,1.25,0,0,0,0,2.5,5.05,5.05,0,0,0,3.48-1.31,4.43,4.43,0,0,0,1.06-1.54c0.13-.3.4-1.6,0.77-1.64,1.58-.19,1.6-2.69,0-2.5h0Z" />
	<ellipse class="cls-6" cx="251.36" cy="85.8" rx="3.97" ry="3.67" />
	<path class="cls-7" d="M250.19,85.71a0.76,0.76,0,0,1,.59-0.58,1.05,1.05,0,0,1,.36,0c-0.11,0,.39.24,0.17,0.06l1.1-4.18-4.9,2a2.58,2.58,0,0,0-1.75,3.08,2.52,2.52,0,0,0,3.08,1.75l4.9-2c1.55-.62,2.72-2.86,1.1-4.18a6.05,6.05,0,0,0-5.1-1.42,5.54,5.54,0,0,0-3.88,2.93,2.57,2.57,0,0,0,.9,3.42,2.52,2.52,0,0,0,3.42-.9h0Z" />
	<rect class="cls-6" x="250.21" y="88.56" width="2.18" height="1.67" rx="0.67" ry="0.67" />
	<rect class="cls-8" x="247.79" y="89.77" width="6.79" height="6.15" rx="2.5" ry="2.5" />
	<rect class="cls-9" x="247.79" y="91.86" width="1.54" height="0.29" rx="0.07" ry="0.07" />
	<rect class="cls-9" x="247.79" y="92.55" width="1.54" height="0.29" rx="0.07" ry="0.07" />
	<rect class="cls-9" x="247.79" y="93.24" width="1.54" height="0.29" rx="0.07" ry="0.07" />
	<rect class="cls-6" x="64.66" y="105.04" width="3.58" height="2.77" rx="1.11" ry="1.11" />
	<rect class="cls-10" x="60.62" y="106.38" width="11.31" height="13.13" rx="3.96" ry="3.96" />
	<ellipse class="cls-6" cx="155.72" cy="96.29" rx="5.61" ry="5.18" />
	<path class="cls-7" d="M162.57,93.12c-2.11-4.32-7.6-4.76-11.07-1.93-1.62,1.32-.44,3.56,1.1,4.18l6.91,2.77a2.52,2.52,0,0,0,3.08-1.75,2.56,2.56,0,0,0-1.75-3.08l-6.91-2.77,1.1,4.18a2.1,2.1,0,0,1,3.21.91c1.41,2.89,5.72.36,4.32-2.52h0Z" />
	<rect class="cls-6" x="154.26" y="100.19" width="3.08" height="2.35" rx="0.95" ry="0.95" transform="translate(311.61 202.73) rotate(180)" />
	<rect class="cls-8" x="151.18" y="101.89" width="9.58" height="8.68" rx="3.53" ry="3.53" transform="translate(311.93 212.47) rotate(-180)" />
	<g><ellipse class="cls-6" cx="176.94" cy="149.5" rx="8.85" ry="9.43" />
	<rect class="cls-6" x="174.03" y="156.78" width="6.39" height="4.28" rx="1.62" ry="1.62" />
	<rect class="cls-10" x="169.22" y="159.55" width="16.89" height="16.56" rx="5.43" ry="5.43" />
	<path class="cls-7" d="M177.72,141.49a14.1,14.1,0,0,1-4.48,2.67c-1.6.61-.54,2.13,0.88,1.74,2.53-.71,5.13-2.28,5.79-5a0.71,0.71,0,0,0-.34-0.68c-2-1.34-4.52.35-6.42,1.16-2.27,1-4.3,2.08-5.28,4.45-0.6,1.45,2,1.31,2.58.52a11.57,11.57,0,0,1,7.43-4.79c0.87-.17,1.86-1.47.6-1.87-6.09-2-10.45,2.83-13.21,7.65-0.76,1.33,2,1.32,2.58.52,2-2.75,4.87-3.92,8-5.06,1.41-.52,4.55-2.68,2.48.34a17.47,17.47,0,0,1-2.88,3c-1.26,1.12,1.13,1.46,1.83,1.19a9.89,9.89,0,0,0,6.07-7l-2.91.51a30,30,0,0,1,2.14,6.52c0.25,1.2,2.86.57,2.91-.51,0.23-5.07-2-9.21-7.52-9.48-5.28-.26-9.2,3.81-11.88,7.88-0.85,1.29,2.1,1.27,2.76.27,2-3.07,5.07-6.82,9.21-6,3.9,0.79,4.66,4.1,4.5,7.57l2.91-.51a30,30,0,0,0-2.14-6.52c-0.54-1.18-2.62-.58-2.91.51a7.21,7.21,0,0,1-4.4,5.14l1.83,1.19c1.29-1.15,7.37-7.88,1.76-7.46-2.45.18-5.63,1.82-7.87,2.82a15.06,15.06,0,0,0-6.26,4.77l2.58,0.52c1.78-3.11,4.43-7.44,8.76-6.05l0.6-1.87a14.92,14.92,0,0,0-9.33,5.89l2.58,0.52c0.71-1.71,2.19-2.44,3.78-3.13l2.25-.91a5.3,5.3,0,0,1-3,1.95l0.88,1.74a17.91,17.91,0,0,0,5.63-3.49c1.32-1.17-1.5-1.57-2.4-.77h0Z" />
	<path class="cls-7" d="M179.64,141.32c1.42-.17,2.84,1.38,3.49,2.44a13.42,13.42,0,0,1,1.39,3.63c0.19,0.73,3.09,0,2.9-.78-1-3.69-3-7-7.27-6.5-0.35,0-1.67.35-1.69,0.84s0.83,0.41,1.18.36h0Z" />
	<path class="cls-7" d="M184.37,146.7a2.19,2.19,0,0,1,.48,1.9c-0.13.71,0.8,1,1.35,1a1.68,1.68,0,0,0,1.59-1.18,3.65,3.65,0,0,0-.77-3,1.67,1.67,0,0,0-2-.23c-0.49.24-1.15,0.95-.68,1.52h0Z" />
	</g><path class="cls-11" d="M241.42,95.92c2.65-1.55,6.88.35,9.63,0.55,2,0.15,3.69-.39,5.63-0.5s3.71,0.27,5.6.3a0.63,0.63,0,0,0,0-1.25c-1.91,0-3.79-.67-5.68-0.56-2.58.14-4.82,1.12-7.49,0.47s-5.58-1.69-8.31-.09a0.63,0.63,0,0,0,.63,1.08h0Z" />
	<path class="cls-11" d="M51.43,123.13c1.83-1.21,7.75-.43,9.59-0.08a30.77,30.77,0,0,0,6.35.95c3.12-.06,5.76-1.52,8.95-0.95a33.34,33.34,0,0,0,5.48.56,0.63,0.63,0,0,0,0-1.25,66,66,0,0,1-6.6-.83c-4.13-.48-7.61,1.75-12,0.78-4.06-.91-8.57-2.83-12.44-0.27-0.67.44,0,1.53,0.63,1.08h0Z" />
	<polygon class="cls-12" points="157.31 172.04 220.57 172.04 211.43 177.12 142.45 177.12 157.31 172.04" />
	<rect class="cls-13" x="142.45" y="177.12" width="68.98" height="3.05" />
	<polygon class="cls-14" points="220.57 174.58 220.57 172.04 211.43 177.12 211.43 180.17 220.57 174.58" />
	<path class="cls-15" d="M140.09,173.62a9.87,9.87,0,0,1-6.7,2.56,0.63,0.63,0,0,0,0,1.25,11.22,11.22,0,0,0,7.58-2.92c0.6-.53-0.28-1.42-0.88-0.88h0Z" />
	<path class="cls-15" d="M129.07,177.77l-1.43.61a0.63,0.63,0,0,0-.22.86,0.64,0.64,0,0,0,.86.22l1.43-.61a0.63,0.63,0,0,0,.22-0.86,0.64,0.64,0,0,0-.86-0.22h0Z" />
	<path class="cls-15" d="M124.25,180.18a0.63,0.63,0,0,0,0-1.25,0.63,0.63,0,0,0,0,1.25h0Z" />
	<path class="cls-15" d="M124,180.93c0.89,2.46,2.69,3.29,5.21,3.64,5.19,0.72,10.66.58,15.9,0.86,0.8,0,.8-1.21,0-1.25l-8.93-.47c-3.13-.16-9.63.6-11-3.11-0.27-.75-1.48-0.43-1.21.33h0Z" />
	<path class="cls-15" d="M150.11,186.21a5.3,5.3,0,0,0,3.47.07,0.63,0.63,0,0,0-.33-1.21,4.17,4.17,0,0,1-2.8-.07c-0.76-.28-1.08.93-0.33,1.21h0Z" />
	<path class="cls-15" d="M158.83,185.67a0.63,0.63,0,0,0,0-1.25,0.63,0.63,0,0,0,0,1.25h0Z" />
	<path class="cls-15" d="M224.57,173.78a0.63,0.63,0,0,0,0-1.25,0.63,0.63,0,0,0,0,1.25h0Z" />
	<path class="cls-15" d="M225.79,175.09a3.25,3.25,0,0,1,1.59.94,0.94,0.94,0,0,1-.07,1.31c-0.63.5,0.26,1.38,0.88,0.88a2.11,2.11,0,0,0,.43-2.53,4,4,0,0,0-2.5-1.81c-0.76-.28-1.08.93-0.33,1.21h0Z" />
	<path class="cls-15" d="M221,182.12a22.64,22.64,0,0,1-11.38.59c-0.79-.16-1.12,1-0.33,1.21a24,24,0,0,0,12-.59,0.63,0.63,0,0,0-.33-1.21h0Z" />
	<path class="cls-15" d="M205.71,184.75a0.63,0.63,0,0,0,0-1.25,0.63,0.63,0,0,0,0,1.25h0Z" />
	<path class="cls-15" d="M196.05,185.29c-6.34.07-12.64,1.49-18.89-.19a0.63,0.63,0,0,0-.33,1.21c6.37,1.7,12.76.3,19.23,0.23a0.63,0.63,0,0,0,0-1.25h0Z" />
	<path class="cls-15" d="M142.07,190c3.68,2.4,7.69,2.07,11.92,1.81l18.28-1.15c0.8-.05.8-1.3,0-1.25l-14.63.92c-4.94.31-10.55,1.46-14.95-1.41a0.63,0.63,0,0,0-.63,1.08h0Z" />
	<path class="cls-15" d="M190.56,193.7a184.56,184.56,0,0,0,22.3-.71c0.79-.07.8-1.32,0-1.25a184.56,184.56,0,0,1-22.3.71,0.63,0.63,0,0,0,0,1.25h0Z" />
	<path class="cls-15" d="M233.42,184.58a6.82,6.82,0,0,1-2.18,3.33c-0.62.52,0.27,1.4,0.88,0.88a8,8,0,0,0,2.5-3.88,0.63,0.63,0,0,0-1.21-.33h0Z" />
	<path class="cls-15" d="M219.1,169.36c3.65,0.3,7.25.7,10.39,2.75,0.67,0.44,1.3-.64.63-1.08-3.31-2.17-7.16-2.61-11-2.92-0.8-.07-0.8,1.18,0,1.25h0Z" />
	<path class="cls-15" d="M203.3,169.5l2-.61a0.63,0.63,0,0,0-.33-1.21l-2,.61a0.63,0.63,0,0,0,.33,1.21h0Z" />
	<path class="cls-15" d="M151.27,168.66a27.91,27.91,0,0,0-14.94.72,0.63,0.63,0,0,0,.33,1.21,26.62,26.62,0,0,1,14.27-.72c0.78,0.17,1.12-1,.33-1.21h0Z" />
	<path class="cls-15" d="M130.25,173.48a0.63,0.63,0,0,0,0-1.25,0.63,0.63,0,0,0,0,1.25h0Z" />
	<path class="cls-11" d="M145.45,110.48c2.65-1.55,6.88.35,9.63,0.55,2,0.15,3.69-.39,5.63-0.5s3.71,0.27,5.6.3a0.63,0.63,0,0,0,0-1.25c-1.91,0-3.79-.67-5.68-0.56-2.58.14-4.82,1.12-7.49,0.47s-5.58-1.69-8.31-.09a0.63,0.63,0,0,0,.63,1.08h0Z" />
	<path class="cls-11" d="M226.18,129.93c9-2.75,18.66-.9,27.82,0,0.8,0.08.79-1.17,0-1.25-9.31-.91-19-2.74-28.15.05a0.63,0.63,0,0,0,.33,1.21h0Z" />
	<path class="cls-11" d="M6.59,104.57a4.3,4.3,0,0,0,3.29-.12c3.62-1.35,4.08-3.5,9.22-1.26,4.51,2,6.75,2.18,11.52.3,0.74-.29.42-1.5-0.33-1.21-3.37,1.33-6.59,1.91-9.93.19-1.29-.66-2.51-1.61-4-1.82-3.41-.49-6.2,3.76-9.44,2.71a0.63,0.63,0,0,0-.33,1.21h0Z" />
	<path class="cls-11" d="M87.61,96c5.35-1.46,9.14-1.85,14.44.45,2,0.88,3.61,1.66,5.92,1.32,4.12-.61,6-2.89,10.54-1.34,2.47,0.84,4,1.6,6.57,1.2,0.79-.12.46-1.33-0.33-1.21-3.62.57-6.2-2.12-9.64-2.09-4.12,0-6.76,3.07-11.19,1.58-2.41-.81-4.17-2.17-6.75-2.49-3.37-.42-6.68.5-9.89,1.37A0.63,0.63,0,0,0,87.61,96h0Z" />
	<path class="cls-15" d="M25.6,156.68a25.19,25.19,0,0,1,12.34-.93c0.79,0.14,1.12-1.07.33-1.21a26.53,26.53,0,0,0-13,.93c-0.76.25-.43,1.46,0.33,1.21h0Z" />
	<path class="cls-15" d="M57.1,157.28a3.83,3.83,0,0,1,4-.17,0.63,0.63,0,0,0,.63-1.08,5.1,5.1,0,0,0-5.3.17c-0.67.44,0,1.52,0.63,1.08h0Z" />
	<path class="cls-15" d="M123.69,137.4c4-6.45,14.22.28,20.16-2.78,0.72-.37.08-1.45-0.63-1.08-6.19,3.19-16-4.17-20.6,3.23a0.63,0.63,0,0,0,1.08.63h0Z" />
	<path class="cls-15" d="M176.93,106c3.43-1,7.31-3,10.86-1.54,1.88,0.76,2.65,1.71,4.81,1.94,4.75,0.5,9.18-1.84,14-.63a0.63,0.63,0,0,0,.33-1.21c-5.76-1.45-12.26,2.47-17.57-.51-1.63-.91-2.32-1.86-4.29-1.74-2.74.16-5.85,1.7-8.44,2.49a0.63,0.63,0,0,0,.33,1.21h0Z" />
	<text/><rect class="cls-6" x="251.63" y="92.12" width="1.62" height="4.7" rx="0.81" ry="0.81" transform="translate(-16.48 76.18) rotate(-16.63)" />
	<path class="cls-10" d="M251.08,90.38a1.26,1.26,0,0,0-.7.65,2.69,2.69,0,0,0,0,1.66,5.7,5.7,0,0,0,.29.93l2.42-.75-0.44-1.43a1.6,1.6,0,0,0-.52-0.89A1.07,1.07,0,0,0,251.08,90.38Z" />
	<rect class="cls-6" x="73.6" y="98.41" width="2.67" height="10.19" rx="1.33" ry="1.33" transform="translate(83.3 -24.01) rotate(39.66)" />
	<path class="cls-10" d="M69.93,109.7a1.77,1.77,0,0,0,1.41.26,4.91,4.91,0,0,0,2.19-1.63,10.74,10.74,0,0,0,1-1.25l-2.84-2.32-1.56,1.92a3,3,0,0,0-.79,1.5A1.47,1.47,0,0,0,69.93,109.7Z" />
	<rect class="cls-6" x="55.78" y="98.68" width="2.64" height="9.35" rx="1.27" ry="1.27" transform="translate(-52.23 58.75) rotate(-38.89)" />
	<path class="cls-10" d="M62.27,109.77a1.77,1.77,0,0,0,.43-1.37A5.07,5.07,0,0,0,61.33,106a11.13,11.13,0,0,0-1.13-1.19l-2.66,2.52,1.73,1.82a3.05,3.05,0,0,0,1.41,1A1.47,1.47,0,0,0,62.27,109.77Z" />
	<path class="cls-10" d="M64.26,106.44a8.16,8.16,0,0,0-2.28.31,7.86,7.86,0,0,0-2.23,1l4,0.34Z" />
	<path class="cls-10" d="M68.68,106.5a8.16,8.16,0,0,1,2.28.31,7.86,7.86,0,0,1,2.23,1l-4,.34Z" />
	<rect class="cls-8" x="54.49" y="115.12" width="23.92" height="7" rx="3.5" ry="3.5" />
	<rect class="cls-9" x="54.49" y="118.14" width="23.92" height="0.96" rx="0.11" ry="0.11" />
	<path class="cls-6" d="M168.21,164h0a1.88,1.88,0,0,1-.42,2.5L161,171.51a1.62,1.62,0,0,1-2.34-.45h0a1.88,1.88,0,0,1,.42-2.5l6.82-5.05A1.62,1.62,0,0,1,168.21,164Z" />
	<path class="cls-10" d="M171.14,161.76a1.92,1.92,0,0,0-1.6-.63,7.31,7.31,0,0,0-3.3,1.62,17.08,17.08,0,0,0-1.73,1.38L167,167.7l2.66-2.12a4.74,4.74,0,0,0,1.56-1.75A1.81,1.81,0,0,0,171.14,161.76Z" />
	<path class="cls-10" d="M173.25,160a8.76,8.76,0,0,0-5.16,1.64l4.55,0.41Z" />
	<path class="cls-6" d="M193.56,172.54h0a1.62,1.62,0,0,1-2.37-.27L186,165.39a1.88,1.88,0,0,1,.25-2.52h0a1.62,1.62,0,0,1,2.37.27l5.22,6.88A1.88,1.88,0,0,1,193.56,172.54Z" />
	<path class="cls-10" d="M184.65,161a1.89,1.89,0,0,1,1.7-.11,7.69,7.69,0,0,1,2.71,2.57,18.06,18.06,0,0,1,1.28,1.86L187,168l-2-2.85a5,5,0,0,1-1-2.16A1.76,1.76,0,0,1,184.65,161Z" />
	<path class="cls-10" d="M181.87,159.66A8.76,8.76,0,0,1,187,161.3l-4.55.41Z" />
	<path class="cls-6" d="M170.32,173.87h0a1.26,1.26,0,0,1-1.55,1l-10-2.82a1.36,1.36,0,0,1-.9-1.65h0a1.26,1.26,0,0,1,1.55-1l10,2.82A1.36,1.36,0,0,1,170.32,173.87Z" />
	<path class="cls-6" d="M193.91,170.42h0a1.41,1.41,0,0,1-.32,1.88l-8.6,6.37a1.22,1.22,0,0,1-1.76-.34h0a1.41,1.41,0,0,1,.32-1.88l8.6-6.37A1.22,1.22,0,0,1,193.91,170.42Z" />
	<rect class="cls-6" x="153.27" y="105.24" width="2.29" height="6.63" rx="1.14" ry="1.14" transform="translate(271.32 256.76) rotate(-163.37)" />
	<path class="cls-10" d="M156.33,102.79a1.78,1.78,0,0,1,1,.92,3.8,3.8,0,0,1,0,2.35,8,8,0,0,1-.41,1.31l-3.41-1.05,0.62-2a2.25,2.25,0,0,1,.73-1.26A1.51,1.51,0,0,1,156.33,102.79Z" />
</svg>