<svg xmlns="http://www.w3.org/2000/svg" xmlns:xlink="http://www.w3.org/1999/xlink" viewBox="0 0 251 78.25"><defs><style>.cls-1{fill:#8ec640;}.cls-2{fill:#8dc63f;}.cls-3{fill:url(#linear-gradient);}</style><linearGradient id="linear-gradient" x1="69.74" y1="119" x2="207.13" y2="119" gradientUnits="userSpaceOnUse"><stop offset="0.03" stop-color="#2db34a"/><stop offset="0.2" stop-color="#2ea246"/><stop offset="0.45" stop-color="#2e8f42"/><stop offset="0.71" stop-color="#2f843f"/><stop offset="0.99" stop-color="#2f803e"/></linearGradient></defs><g id="vomit_after_excessive_veggies"><path class="cls-1" d="M28.94,105c18.47,1.63,31.87,17.41,46.48,28.84,22.22,17.38,50.64,25.89,78.85,26.45s56.2-6.51,82.08-17.74c10.33-4.48,20.63-9.7,31.83-10.92-17-6.72-31.65-18.31-47.84-26.86-42.08-22.21-93.63-22.52-138.64-7.05-10.85,3.73-21.57,8.36-33,9.53s-24-1.83-31.15-10.84" transform="translate(-17.31 -84.47)"/><path class="cls-2" d="M28.94,107.49c15.14,1.66,26.63,11.95,37.69,21.51,12.42,10.72,25.7,19.49,41.17,25.2,33.32,12.3,69.92,10.37,103.49.11a253.37,253.37,0,0,0,28.31-10.7c9.25-4.09,18.44-8.19,28.57-9.48,0,0,.22-4.91,0-5-17.07-6.92-31.64-18.32-47.84-26.86a154.47,154.47,0,0,0-49-15.86,183.18,183.18,0,0,0-51.94-.16C101.48,88.68,85,94.3,68,100.08c-16.5,5.62-37.78,9-50.44-6.18.8,1-.84,4,0,5,10.74,12.85,28.71,12.54,43.52,8.36,8.88-2.51,17.4-6.14,26.2-8.88a199.27,199.27,0,0,1,25.39-6.11c34.07-5.86,70.15-2.78,101.65,12C233,113,249,126.36,268.17,134.12v-5c-17.52,2.24-33.31,12.26-49.86,17.91a193.61,193.61,0,0,1-53,10.58c-33.82,1.65-67.79-7.73-94-29.63-12.67-10.59-25.07-23.6-42.36-25.49.14,0-.22,5,0,5Z" transform="translate(-17.31 -84.47)"/></g><g id="slicey"><path class="cls-1" d="M69.82,113.54a223.15,223.15,0,0,1,50.48-2.93c25.52,1.46,48.8,7.34,74,13.72,5.31,1.34,9.68,2.52,12.67,3.33" transform="translate(-17.31 -84.47)"/><path class="cls-3" d="M69.62,114.33a226.38,226.38,0,0,1,67.65-1.2c23.26,3.15,46.22,9.14,68.83,15.31.9.25,3.4-1.11,1.78-1.55-23.8-6.49-48-12.84-72.55-15.79A230.17,230.17,0,0,0,70,112.76c-1.36.23-2.41,1.9-.41,1.57Z" transform="translate(-17.31 -84.47)"/></g></svg>