<svg xmlns="http://www.w3.org/2000/svg" xmlns:xlink="http://www.w3.org/1999/xlink" viewBox="0 0 241.85 72.1"><defs><style>.cls-1{fill:#c38f3f;}.cls-2{fill:#c28f3d;}.cls-3{fill:url(#linear-gradient);}</style><linearGradient id="linear-gradient" x1="48.06" y1="226.98" x2="185.29" y2="226.98" gradientUnits="userSpaceOnUse"><stop offset="0.06" stop-color="#555625"/><stop offset="0.98" stop-color="#935c25"/></linearGradient></defs><title>leaf2</title><g id="poop"><path class="cls-1" d="M18.67,250.34C33.43,247,44.73,235.6,56.55,226.16a173.22,173.22,0,0,1,63-31.86l-2.77,7.35c26-12.78,58.32,1.51,85.61-8.17a38.85,38.85,0,0,0-6.43,11.79,98.83,98.83,0,0,1,63.24,27.11A70.43,70.43,0,0,0,207.65,240c-7.51,4.41-14.21,10.24-22.2,13.72-17.59,7.67-37.87,2.71-56.23-2.85l6,9.58c-17.41.76-34.81-2.3-51.6-7-10.87-3-21.59-6.77-32.74-8.56s-23-1.52-33.21,3.21" transform="translate(-17.46 -190.99)"/><path class="cls-2" d="M18.67,252.84c18.63-4.63,31.67-20.31,46.91-30.92a175.45,175.45,0,0,1,53.95-25.12v-5l-2.77,7.35c-.26.68.46,4.78,0,5,27.06-12.75,57.79,1.22,85.61-8.17v-5a43.57,43.57,0,0,0-6.43,11.79c-.16.44,0,5,0,5a100.1,100.1,0,0,1,63.24,27.11v-5a71.61,71.61,0,0,0-33,.18c-11.37,2.8-20.52,8.77-30.13,15.18s-19.74,10.05-31.45,10c-12.07-.1-23.86-3.32-35.34-6.77.4.12-.33,4.46,0,5l6,9.58v-5c-20.8.74-40.82-3.75-60.64-9.62-18.46-5.47-38.36-10.81-56.91-2.72-.64.28.58,4.75,0,5,18.55-8.1,38.45-2.75,56.91,2.72,19.81,5.87,39.84,10.36,60.64,9.62-.07,0,.23-4.64,0-5l-6-9.58v5c11.2,3.37,22.7,6.52,34.47,6.76,12,.25,22.38-3.33,32.31-9.94,9.37-6.24,18.28-12.11,29.32-15a71.57,71.57,0,0,1,33.85-.39c-.41-.09.45-4.58,0-5a100.1,100.1,0,0,0-63.24-27.11v5A43.57,43.57,0,0,1,202.37,196c.44-.58-.49-4.83,0-5-27.82,9.39-58.54-4.58-85.61,8.17v5l2.77-7.35c.21-.56-.3-4.92,0-5a175.45,175.45,0,0,0-53.95,25.12c-15.24,10.62-28.28,26.29-46.91,30.92-.42.11.35,4.91,0,5Z" transform="translate(-17.46 -190.99)"/></g><g id="slicey"><path class="cls-2" d="M48.29,238.69a204.11,204.11,0,0,1,115.12-22.22c7.57.78,15.4,2.11,21.59,6.52" transform="translate(-17.46 -190.99)"/><path class="cls-3" d="M49.14,238.92A200.55,200.55,0,0,1,150.09,216.2c11.29.45,23.86.84,33.55,7.29.7.47,3.2-.7,2.72-1-9.48-6.31-21.59-6.9-32.64-7.44a206.5,206.5,0,0,0-36.1,1.42,209.42,209.42,0,0,0-70.18,22c-1.7.89,1,.85,1.69.47Z" transform="translate(-17.46 -190.99)"/></g></svg>