<svg xmlns="http://www.w3.org/2000/svg" xmlns:xlink="http://www.w3.org/1999/xlink" viewBox="0 0 177.44 65.23"><defs><style>.cls-1{fill:#9f5425}.cls-2{fill:#964}.cls-3{fill:#642}.cls-4{fill:#69bd45}</style></defs><path class="cls-1" d="M65.61,122.43c-4.11-3.93-4.11-8.93-1.11-13.93a86.36,86.36,0,0,0,10-16c5-8,14-8,23-10,43-6,84-3,126-1,7,1,9,7,9,13-1,6-2,11-2,17-1,5-5,9-9,11a18.54,18.54,0,0,1-7,2c-44,4-87,5-131,5-5,0-10,0-15.12-3.79" transform="translate(-60.57 -65.19)"/><path class="cls-1" d="M66.95,121.83c-5.29-5.76-2.4-11.2,1.5-16.67,3.4-4.77,5.61-11.63,9.89-15.58,4-3.67,9.66-4.39,14.75-5.34C99,83.12,105,82.37,110.95,81.78c25.23-2.49,50.62-2.17,75.92-1.11q8.53.36,17.06.79l9.5.48c3.34.17,7.38-.19,10.63.71,5.18,1.43,7.2,7.1,7,12-.12,2.81-1,5.7-1.37,8.5-.41,3-.18,6.29-.82,9.23-1.64,7.52-9.37,10.69-16.15,11.39-6.53.67-13.09,1.1-19.63,1.56q-18.52,1.3-37.08,2c-14.82.59-29.65.92-44.48,1.09q-10.78.12-21.56.14c-7.23,0-14.14.59-20.43-3.63-.88-.59-3.52.67-2.28,1.5,4.94,3.31,9.89,3.92,15.72,3.95,7.85,0,15.71,0,23.56-.11,15.08-.15,30.16-.45,45.23-1q23.45-.86,46.86-2.59c10.63-.8,23.85.16,30.81-9.67,3.33-4.7,2.59-10.38,3.41-15.84S235,90.52,232,85.53c-2.18-3.63-5.79-4.8-9.83-5-7.6-.44-15.21-.77-22.82-1.13-30-1.44-60.06-2.31-90,.81a205.08,205.08,0,0,0-20.47,3.11C83.78,84.34,78.65,86,75,89.92c-2.11,2.3-3.26,5.26-4.79,8-1.82,3.21-3.94,6.15-6,9.18-3.7,5.35-4.59,10.89.06,16,.76.82,3.52-.27,2.68-1.19Z" transform="translate(-60.57 -65.19)"/><path class="cls-2" d="M207.46,86.38c-4.21,5.14-6.1,11.72-6.77,18.24a26.26,26.26,0,0,0,.92,11.53,13.35,13.35,0,0,0,7.89,8.31c3.41.24,11,.29,17.55-4.38,11.68-8.35,14.8-28.1,5.53-36-5.18-4.41-12.8-3.91-16.61-3.34A19.92,19.92,0,0,0,207.46,86.38Z" transform="translate(-60.57 -65.19)"/><path class="cls-1" d="M62.08,117.26C59,119.62,67,125.6,68.7,127l1.51-1.49c-1.4.1-3.68-2.93-4.38-4a7.76,7.76,0,0,1-1.38-6.4c.29-1.27-2.58-.68-2.91.31l-1,2.86,2.91-.31A11.38,11.38,0,0,1,65,112.74l-2.73-.16c-1.22,2.5-2.44,5.29-1.05,8,1.24,2.41,3.91,3.63,6.44,4.13L67,124l-.16.67c-.72,1.27,2.19,1.09,2.73.16a1.77,1.77,0,0,0,.35-1.14.67.67,0,0,0-.59-.7,7.63,7.63,0,0,1-5.14-3c-1.51-2.35-.36-5,.74-7.25.66-1.36-2.22-1.07-2.73-.16a12.4,12.4,0,0,0-1.66,5.74c-.06,1.41,2.6.63,2.91-.31l1-2.86-2.91.31a9.25,9.25,0,0,0,2.12,8c1.59,2,3.51,4.08,6.2,3.88.4,0,2.32-.82,1.51-1.49-2.27-1.89-6.81-5-7.2-8.2l-.53.9.28-.21c1.56-1.2-.85-1.79-1.84-1Z" transform="translate(-60.57 -65.19)"/><path class="cls-1" d="M104.88,86c-2.54-7.19-8.09-12.21-13.74-17l-2.23,1.7a24.65,24.65,0,0,1,9,10.22l2.77-1L92.12,69.67c-.7-.83-3.27-.28-2.77,1,2,5.24,5.16,9.68,8.54,14.1.81,1.06,3.42.06,2.65-1.29A110.27,110.27,0,0,0,90.32,67.93c-.84-1-3.38-.1-2.65,1.29l8.62,16.3c.62,1.18,3.32.09,2.65-1.29L92.26,70.56c-.52-1.07-3.2-.18-2.77,1,1.2,3.44,2.7,12.71,7.75,12.92,5.26.22,1.34-7.47.63-9.76l-2.77,1a27.74,27.74,0,0,0,6.3,7c.69.54,2.61.11,2.58-1-.07-3.08-2.78-7.44-.86-10.25l-2.61-.63a22.39,22.39,0,0,0-1.89,3.88c-.46,1.23,1.25,1.46,2,1.06a10.51,10.51,0,0,0,3.56-2.79l-2.61-.63-2.11,5.22c-.66,1.63,2.17,1.42,2.78.36a27.1,27.1,0,0,0,2.59-6.26c.31-1.09-1.59-1.07-2.12-.78a9.05,9.05,0,0,0-4.68,5.49c-.52,1.65,2.22,1.51,2.78.36L104.68,69c.74-1.52-2-1.37-2.61-.63A40.29,40.29,0,0,0,97,75.71l2.78.36a32.48,32.48,0,0,1,6.74-9.12l-2.36-.87L99.36,78.23c-.62,1.57,2.29,1.6,2.78.36l4.79-12.15c.54-1.36-1.64-1.54-2.36-.87A36.25,36.25,0,0,0,97,75.71c-.76,1.5,2.16,1.49,2.78.36a37.43,37.43,0,0,1,4.74-6.79l-2.61-.63-3.81,7.83,2.78.36a6.24,6.24,0,0,1,3.2-4.09L102,72a24.57,24.57,0,0,1-2.43,5.69l2.78.36,2.11-5.22c.63-1.56-1.94-1.41-2.61-.63l-2.43,1.92,2,1.06a22.39,22.39,0,0,1,1.89-3.88c.8-1.32-2-1.56-2.61-.63C98,74.53,100.94,77.8,101,82l2.58-1a25.91,25.91,0,0,1-5.88-6.55c-.63-1-3.16-.22-2.77,1a38.83,38.83,0,0,0,1.61,5.25c.56,1.18,1.23,2.38-.53-.21-1.86-2.75-2.59-6.67-3.67-9.76l-2.77,1,6.68,13.67,2.65-1.29-8.62-16.3-2.65,1.29A110.28,110.28,0,0,1,97.89,84.81l2.65-1.29c-3.26-4.27-6.39-8.52-8.29-13.58l-2.77,1,8.59,10.17c.69.82,3.37.21,2.77-1a26.57,26.57,0,0,0-9.71-11.15c-1.06-.69-3.55.57-2.23,1.7,5.35,4.57,10.67,9.29,13.07,16.11.48,1.35,3.36.55,2.9-.78Z" transform="translate(-60.57 -65.19)"/><path class="cls-3" d="M127.79,90.33c.07,0,0-.1,0-.12S127.8,90.36,127.79,90.33Z" transform="translate(-60.57 -65.19)"/><polygon class="cls-3" points="66.08 25.5 66.1 25.46 65.94 25.58 66.08 25.5"/><path class="cls-3" d="M125.55,90.82c.12.17.39-.07.6,0l0,0,.07-.15A2.64,2.64,0,0,1,125.55,90.82Z" transform="translate(-60.57 -65.19)"/><path class="cls-3" d="M124.92,90.51c0,.06-.12.07.14,0h-.14Z" transform="translate(-60.57 -65.19)"/><path class="cls-3" d="M125,90.5c.11,0-.08,0,0,0Z" transform="translate(-60.57 -65.19)"/><path class="cls-3" d="M124.51,90.6l.14-.08s-.17,0-.13-.07C124.37,90.5,124.41,90.54,124.51,90.6Z" transform="translate(-60.57 -65.19)"/><path class="cls-3" d="M124.38,90.74l.08,0S124.41,90.69,124.38,90.74Z" transform="translate(-60.57 -65.19)"/><path class="cls-3" d="M124.61,90.63l-.16.07s0,.08.07,0C124.52,90.73,124.55,90.68,124.61,90.63Z" transform="translate(-60.57 -65.19)"/><path class="cls-3" d="M124.71,90.65c.09,0,.2,0,.06.12C125.05,90.71,125,90.59,124.71,90.65Z" transform="translate(-60.57 -65.19)"/><path class="cls-3" d="M125.51,91l.12,0,.09-.07S125.5,91,125.51,91Z" transform="translate(-60.57 -65.19)"/><path class="cls-3" d="M123.55,90.61s.06.09.08.14l.11-.06C123.67,90.68,123.56,90.67,123.55,90.61Z" transform="translate(-60.57 -65.19)"/><path class="cls-3" d="M123.63,90.76l-.16.08C123.62,90.83,123.64,90.8,123.63,90.76Z" transform="translate(-60.57 -65.19)"/><polygon class="cls-3" points="63.81 25.75 64.07 25.58 63.75 25.76 63.81 25.75"/><polygon class="cls-3" points="62.34 25.49 62.43 25.39 62.27 25.54 62.34 25.49"/><path class="cls-3" d="M122.48,90.75c.06-.08-.11-.11,0-.16a.74.74,0,0,0-.29.17A.43.43,0,0,1,122.48,90.75Z" transform="translate(-60.57 -65.19)"/><path class="cls-3" d="M122,90.85l.14-.1A.46.46,0,0,0,122,90.85Z" transform="translate(-60.57 -65.19)"/><path class="cls-3" d="M123.18,90.85a.19.19,0,0,0-.14-.09l.08.1Z" transform="translate(-60.57 -65.19)"/><path class="cls-3" d="M123.11,90.86h0Z" transform="translate(-60.57 -65.19)"/><path class="cls-3" d="M123.2,90.85h0S123.19,90.87,123.2,90.85Z" transform="translate(-60.57 -65.19)"/><path class="cls-3" d="M123.92,90.9c-.09.07-.29.16-.08.23S123.78,91,123.92,90.9Z" transform="translate(-60.57 -65.19)"/><path class="cls-3" d="M123.29,91h.18s0-.06,0-.1Z" transform="translate(-60.57 -65.19)"/><polygon class="cls-3" points="62.64 25.82 62.73 25.78 62.66 25.78 62.64 25.82"/><path class="cls-3" d="M122.33,90.91a.56.56,0,0,1-.25.09,1.55,1.55,0,0,0,.31,0S122.44,90.89,122.33,90.91Z" transform="translate(-60.57 -65.19)"/><path class="cls-3" d="M122.71,90.9h0S122.72,90.91,122.71,90.9Z" transform="translate(-60.57 -65.19)"/><polygon class="cls-3" points="60.58 25.91 60.59 25.93 60.59 25.91 60.58 25.91"/><path class="cls-3" d="M122.41,91a.17.17,0,0,0,.16-.06l-.18,0S122.39,91,122.41,91Z" transform="translate(-60.57 -65.19)"/><path class="cls-3" d="M121.76,90.92l.14,0S121.77,90.9,121.76,90.92Z" transform="translate(-60.57 -65.19)"/><path class="cls-3" d="M122.67,90.88h0S122.65,90.86,122.67,90.88Z" transform="translate(-60.57 -65.19)"/><path class="cls-3" d="M122.67,90.88a.44.44,0,0,0-.09.08l.12,0Z" transform="translate(-60.57 -65.19)"/><path class="cls-3" d="M120.94,91.82c0-.1.19-.21.38-.13.16-.09,0-.4-.16-.57,0,0,0,.08-.17.16.07,0,.41.08.27.19s-.2,0-.31-.05c.11.11-.28.21-.21.39l.2-.09S120.88,91.8,120.94,91.82Z" transform="translate(-60.57 -65.19)"/><path class="cls-3" d="M121.5,91.09l.07,0a.67.67,0,0,1-.27-.1c-.12.06-.14.1-.14.13l.36,0Z" transform="translate(-60.57 -65.19)"/><path class="cls-3" d="M121.89,91c0,.11-.21.18-.09.28s.14-.11.26-.17c-.34.07.09-.07-.16-.1l.18,0-.18,0h0s0,0,0,0h0a.12.12,0,0,1,0,0c-.1,0,0,0,0,0v0h0l-.34.1A1.27,1.27,0,0,0,121.89,91Z" transform="translate(-60.57 -65.19)"/><path class="cls-3" d="M123.68,91.37a0,0,0,0,1,0,0S123.64,91.38,123.68,91.37Z" transform="translate(-60.57 -65.19)"/><path class="cls-3" d="M123.53,91.33s0-.06.12-.06,0,.05,0,.09.16-.1,0-.13l0,0c-.14,0-.34-.13-.31-.15A.73.73,0,0,0,123.53,91.33Z" transform="translate(-60.57 -65.19)"/><path class="cls-3" d="M122.71,91.21l-.28.09.16.08v-.05C122.73,91.32,122.69,91.25,122.71,91.21Z" transform="translate(-60.57 -65.19)"/><polygon class="cls-3" points="60.54 25.86 60.56 25.74 60.42 25.92 60.54 25.86"/><polygon class="cls-3" points="60.17 25.92 60.17 25.82 60.08 25.89 60.17 25.92"/><path class="cls-3" d="M99.86,94.73l-.08,0Z" transform="translate(-60.57 -65.19)"/><path class="cls-3" d="M100.47,94.66v-.05S100.44,94.66,100.47,94.66Z" transform="translate(-60.57 -65.19)"/><path class="cls-3" d="M111.59,92.16c-.13-.08-.29-.2-.26-.1l0,.1A.33.33,0,0,1,111.59,92.16Z" transform="translate(-60.57 -65.19)"/><path class="cls-3" d="M105.4,93.52l0,0,.07-.11Z" transform="translate(-60.57 -65.19)"/><path class="cls-3" d="M105.36,94l-.17-.05Z" transform="translate(-60.57 -65.19)"/><path class="cls-3" d="M96.54,95.22l-.09.12C96.61,95.32,96.53,95.28,96.54,95.22Z" transform="translate(-60.57 -65.19)"/><path class="cls-3" d="M116.92,91.58a.88.88,0,0,0-.27,0C116.79,91.6,116.9,91.68,116.92,91.58Z" transform="translate(-60.57 -65.19)"/><path class="cls-3" d="M100,93.56s-.07,0-.06.07S100,93.58,100,93.56Z" transform="translate(-60.57 -65.19)"/><path class="cls-3" d="M116.35,91.58l.06,0a.8.8,0,0,1,.25-.05A.28.28,0,0,0,116.35,91.58Z" transform="translate(-60.57 -65.19)"/><path class="cls-3" d="M84.66,97h0S84.64,97,84.66,97Z" transform="translate(-60.57 -65.19)"/><path class="cls-3" d="M81,97.36l.13-.08A.36.36,0,0,0,81,97.36Z" transform="translate(-60.57 -65.19)"/><path class="cls-3" d="M119.23,91.23c.08,0,0,0,0,0Z" transform="translate(-60.57 -65.19)"/><path class="cls-3" d="M119.66,91.62a.07.07,0,0,0,0,.06A.09.09,0,0,1,119.66,91.62Z" transform="translate(-60.57 -65.19)"/><path class="cls-3" d="M115.64,92.35h0S115.65,92.36,115.64,92.35Z" transform="translate(-60.57 -65.19)"/><path class="cls-3" d="M119.35,91.27l-.1,0Z" transform="translate(-60.57 -65.19)"/><path class="cls-3" d="M119.33,91.22h.07S119.4,91.19,119.33,91.22Z" transform="translate(-60.57 -65.19)"/><path class="cls-3" d="M119.12,91.25h.11Z" transform="translate(-60.57 -65.19)"/><path class="cls-3" d="M90.89,95.49h0C90.8,95.54,90.84,95.52,90.89,95.49Z" transform="translate(-60.57 -65.19)"/><polygon class="cls-3" points="49.09 28.32 49.1 28.32 49.09 28.32 49.09 28.32"/><path class="cls-3" d="M109.38,93.63c.11-.15.18-.14.27-.12l-.13-.3Z" transform="translate(-60.57 -65.19)"/><path class="cls-3" d="M98.4,94.92l.21.07c-.22.19-.4.15-.2.27,0-.34.77-.12.76-.46l.14.06-.08,0c.27.13.16-.27.5-.26.12,0,.2.05.13.1l.25-.11c.08,0,.06.06,0,.06l.39-.07h0a1.62,1.62,0,0,1,.22-.2c.1,0,0,0,0,.08l.21-.11c.1.08-.07.18-.22.19.24.31.17-.11.63,0l-.2.07c.15.18.3.09.55.18-.06-.06-.5-.25-.27-.36a.31.31,0,0,0,.28-.06c0,.12.13.08.29.05v.16c.16-.06.14-.14.23-.23s.24.11.3.21c.3,0-.23-.17.12-.24a1.22,1.22,0,0,0,.71-.18c.18,0,0,.1,0,.14l.14-.14s0,0,0,.06,0-.16.19-.23c0-.18.45.21.68,0,.07,0,0,.1,0,.16a2.06,2.06,0,0,0,.55-.34l.25.08c-.19-.1,0-.27.21-.4l-.17-.11.31-.12s0,.08,0,.15l.05,0c.12,0,.07.14,0,.24l-.13-.08a.43.43,0,0,0-.1.31.24.24,0,0,1,.1-.05s0,.05,0,.07,0,0,.09-.07l.09.17V93.9L106,94a2.59,2.59,0,0,1,1-.63c-.1.14,0,.21,0,.37-.15-.15-.36.11-.61.11.13,0,.11.08.08.11l.42-.2c0,.13.1.08.22.12-.11-.24.31-.2.47-.3,0,.08,0,.17-.23.18.26.16.28-.33.53-.2-.05,0-.08,0-.1,0s.42-.06.36,0h-.05c.35,0,1.07-.12,1.1-.34a1.51,1.51,0,0,1,0,.31l.54-.78c0,.19.23.6-.05.73a.5.5,0,0,0,.36,0c-.06,0-.17-.25-.1-.27.24.18.16.09.44.23-.09,0,0-.32.11-.33,0,0,0,.28,0,.31l.3-.32c-.08.06,0,.24.1.31s.29,0,.38-.07l-.15,0c.38,0,.33-.44.71-.46,0,.06-.07.37.12.38.07-.15.31-.73.63-.88l.07.07.24-.12a5.52,5.52,0,0,1-.75.94c.15,0,.05.09.26.06s-.1.13-.16.14h.5c0-.16.36-.21.32-.35l-.52.23c0-.16.26-.51.61-.52.1.06,0,.3,0,.36s.32-.15.36-.11l-.14.11c.2,0,.29-.26.55-.13.08,0,.27.19.27.09a1.37,1.37,0,0,1-.18-.92,2.75,2.75,0,0,1,.55.22c.15.13-.16.38,0,.49,0,0,.07-.11.1-.13s0,.15.16.1c0-.17.38,0,.07-.15.18-.07.2,0,.41,0-.08-.1.15-.39.32-.46,0,0,0,.1.06.12.37,0,.58,0,.93,0,0,0,.21.07.15.15a.35.35,0,0,1,.19-.11c.22.12-.23,0-.06.21,0-.1.26-.17.4-.25-.06-.15-.35,0-.5.09,0-.21.21-.46.56-.6s.14.12.19.09c.54,0,.42-.42.88-.32.19.11,0,.26.09.36-.23.08-.37,0-.53,0l.2,0a.42.42,0,0,1-.31.08c.16.1.91-.08,1.34,0,.07-.05.19-.11.12-.16l-.13,0c-.13-.09.23-.18.06-.21a.94.94,0,0,1,.61-.2l.06.15s-.17-.07-.24,0c.1-.08.4.16.5,0l-.19-.09c.17-.1.37-.28.59-.26-.12-.14,0,0-.23-.14.16.2-.56.06-.32.26-.18-.19-.29-.05-.52-.21,0,0,.09.09-.1.08l0,0h0s0,0,0,0a.21.21,0,0,1,.1.07c-.08.13-.37.16-.47.23s0-.06,0-.11l-.14.11c0-.11-.31-.15-.06-.25l-.23,0a.63.63,0,0,0-.45,0c-.11,0-.26.16-.18.06l-.36.11v0c-.36,0-.72.27-1.15.11a1,1,0,0,1-.45.08l-.05-.09c-.15.05-.48,0-.53.06-.2-.24-.76,0-1,0v.13a2.41,2.41,0,0,0-.59.15l0,.11c-.19.11-.53,0-.84,0,0,0,.1,0,.16,0-.41-.21-.78.27-1.15.13a.22.22,0,0,1-.21,0h0l-.13,0,.11,0a1.21,1.21,0,0,0-.26.07l-.06-.11h0c-.1,0-.07.07,0,.15a.5.5,0,0,0-.12.09c-.1-.18-.25.09-.38-.1-.06.11-.49.13-.52.35,0,0,0,0,0,0a.42.42,0,0,0-.32,0l-.06-.15-.22.23c-.16-.08-.22-.12-.09-.26-.33.22-.28.1-.55.31v-.1c-.11,0-.26.17-.33.09-.26-.16-1.18.11-1.81,0,.15.28-.3-.1-.3.13,0-.06-.13-.09,0-.16-.3.1-.48-.06-.67.16,0-.06.06-.11,0-.15s-.09.07-.13,0,0-.06.09-.1c-.32,0-.33.26-.33.46-.17-.08-.25-.05-.35.09-.06-.06-.17-.12,0-.16-.11,0-.69,0-.68.14,0,0-.16,0-.18,0a3.68,3.68,0,0,0-.52.05l.07,0c-.07.2-.2.07-.39.11v0c-.47-.09-.19.09-.65,0l0,.12c0,.26-.41-.11-.66,0l.1.06c-.13.1-.44-.3-.58-.32s0,0,.09-.06c-.39-.11,0,.16-.3.23-.06-.08,0-.22-.15-.22s-.51.34-.78.2c.06.06.13.12,0,.18s-.56-.18-.72,0a.07.07,0,0,1,0,0c-.15.07-.48.14-.56.26-.19-.4-.92.31-1-.07l-.46.07v0a.57.57,0,0,0-.49.21c-.07,0,0-.06,0-.08a.94.94,0,0,0-.83.22l-.05-.12c-.09.08-.65-.12-1.06.07a.09.09,0,0,1,0-.06c-.46.2-1.19-.21-1.31.26l-.3.15c.41,0,0,.2.14.26-.16,0-.43-.09-.24-.13l0,0c0-.24-.52,0-.52-.19-.8.1-1.6.06-2.36.14l.11.17-.26,0c-.07,0-.11-.13.08-.15-.11-.09-.31.13-.31.17-.38,0,.12-.23,0-.22l-.15,0,0,0c-.12.09-.12.17-.34.19s-.09-.1-.15-.1,0,0-.09,0l-.34,0,.15.12c-.14.09-.31,0-.14.18-.26-.22-1.25.09-1.4,0a1.3,1.3,0,0,1-.64.21c.07,0,.13.17-.08.19,0-.34-.42-.07-.65-.27.19.12-.61.17-.31.34-.19,0,0-.12-.19-.17-.4.22-1,.14-1.48.34,0,0,.11.08,0,.18l-.34-.13c-.1.05,0,.27-.25.19,0,0,.09.07,0,.1-1.1.13-2,.9-3.13,1.06.17,0,.09.06,0,.12.07,0,.05.1.09.14l-.48.08c0,.19-.42.27-.37.43l.11-.1c-.06.26.44.21.54.44.07-.3.63,0,.77-.42.09,0,0,.1,0,.13,0-.13.11-.2.3-.24v0a5.08,5.08,0,0,1,1.31-.42l-.08-.09a.48.48,0,0,1,.23,0c.08-.22-.35.12-.29-.11.25.16.86-.32,1.07-.08.19-.06-.1-.11.09-.17l.07.05,0-.11a.21.21,0,0,1,.24.1s-.08,0-.11.06c.18,0,.45-.16.51-.15H85c.5-.22,1.17-.29,1.66-.55l-.05,0c.38-.19.33,0,.76-.14v0a.58.58,0,0,1,.31-.14c-.1.09.23.08.1.18.41-.19.2-.12.45-.38l.08.08a.42.42,0,0,1,.3-.21c-.17.11.16.12,0,.25.49.13.66-.31.92,0,.18-.29-.42-.08-.31-.15-.11-.07.15-.22.3-.21s.3.29.67.23l-.07,0c.15,0,.26-.12.45,0,.08-.17.22,0,.23-.22l-.34.09c.19-.08.34-.33.68-.26a.54.54,0,0,1-.17.14c.1,0,.18-.06.28,0,0,.2-.41.09-.6.27.11.07.38-.19.3,0,.12-.29.37,0,.6-.25v.12a.47.47,0,0,1,.19-.09l-.12.17c.19-.16.41.07.6,0-.41.05-.11-.13-.3-.2.49-.22.33.27.9.15-.08,0-.3,0-.18-.11a.8.8,0,0,1,.34.09c.38-.07-.07-.11.08-.21.15.13.18-.08.34-.14v.12c.44,0,.09-.26.49-.21l-.15.19.2-.07,0,.14a.65.65,0,0,1,.5-.09c-.06-.08,0-.22.2-.25s-.06.12.21.07c-.05.08-.11.18-.24.09s-.05.08-.06.12c.15.07.36,0,.46,0a.26.26,0,0,1-.11,0l.38-.21c.07,0,0,.08,0,.12s.13-.08.24-.11,0,.2-.16.27l.36-.15s.21.09.16.14c.22,0,.49-.25.78-.2a.17.17,0,0,1,.1-.06,1.4,1.4,0,0,0,.8-.08l.19.15c.24-.07-.26-.19.13-.3s.12.14.23.17.36-.31.63-.2A1,1,0,0,1,98.4,94.92Zm3-.42c-.05,0-.16.12-.21.06S101.27,94.48,101.37,94.51Zm4.49-.81s-.11,0-.19,0A.31.31,0,0,1,105.86,93.7Zm12.51-2.27h0C118.23,91.4,118.28,91.42,118.37,91.43Zm.27,0s0,0,0-.05-.07,0-.14,0S118.57,91.49,118.65,91.45Zm-28.7,3.34.06,0C89.89,94.87,89.92,94.83,89.95,94.79Z" transform="translate(-60.57 -65.19)"/><path class="cls-3" d="M105.37,93.93a.13.13,0,0,1,0-.06S105.32,93.91,105.37,93.93Z" transform="translate(-60.57 -65.19)"/><path class="cls-3" d="M96.56,95.2h0v0Z" transform="translate(-60.57 -65.19)"/><path class="cls-3" d="M114.62,92.94a.23.23,0,0,1-.11,0S114.54,92.94,114.62,92.94Z" transform="translate(-60.57 -65.19)"/><path class="cls-3" d="M120,91.09l-.17.05a.25.25,0,0,1,.16,0S120,91.09,120,91.09Z" transform="translate(-60.57 -65.19)"/><path class="cls-3" d="M121.61,91.66s.05,0,.08,0v-.05C121.57,91.59,121.5,91.65,121.61,91.66Z" transform="translate(-60.57 -65.19)"/><path class="cls-3" d="M120.24,91.47c0,.1.13.05.25,0h0C120.49,91.34,120.37,91.4,120.24,91.47Z" transform="translate(-60.57 -65.19)"/><path class="cls-3" d="M120.52,91.48l.11,0C120.64,91.41,120.58,91.46,120.52,91.48Z" transform="translate(-60.57 -65.19)"/><path class="cls-3" d="M119,91.35c.06,0,0-.13.06-.1C119.09,91.11,118.67,91.45,119,91.35Z" transform="translate(-60.57 -65.19)"/><polygon class="cls-3" points="59.81 26.59 59.76 26.47 59.7 26.58 59.81 26.59"/><path class="cls-3" d="M119.42,91.8h.2s0,0,0,0S119.41,91.77,119.42,91.8Z" transform="translate(-60.57 -65.19)"/><path class="cls-3" d="M119.66,91.77a.31.31,0,0,0,.15,0Z" transform="translate(-60.57 -65.19)"/><polygon class="cls-3" points="59.56 26.66 59.5 26.64 59.36 26.65 59.56 26.66"/><path class="cls-3" d="M117.36,92l-.21.06s0,.06.12,0S117.4,92.05,117.36,92Z" transform="translate(-60.57 -65.19)"/><path class="cls-3" d="M118,92.28c-.06,0-.07,0-.1-.08v.15Z" transform="translate(-60.57 -65.19)"/><path class="cls-3" d="M117.42,92.39s-.29.16,0,.12C117.42,92.46,117.62,92.4,117.42,92.39Z" transform="translate(-60.57 -65.19)"/><polygon class="cls-3" points="53.69 27.36 53.74 27.35 53.7 27.1 53.69 27.36"/><path class="cls-3" d="M111.54,93.48c.25,0,0-.16.27-.11.05-.07-.19,0-.14-.1C111.54,93.34,111.46,93.32,111.54,93.48Z" transform="translate(-60.57 -65.19)"/><path class="cls-3" d="M111.68,93.26l.07,0Z" transform="translate(-60.57 -65.19)"/><polygon class="cls-3" points="19.82 32.36 19.65 32.4 19.79 32.42 19.82 32.36"/><path class="cls-3" d="M80.22,97.88l-.12-.12v.18S80.17,97.86,80.22,97.88Z" transform="translate(-60.57 -65.19)"/><path class="cls-3" d="M101.85,94.78v0s-.07,0-.14,0Z" transform="translate(-60.57 -65.19)"/><polygon class="cls-3" points="39.11 29.71 39.15 29.71 39.06 29.57 39.11 29.71"/><path class="cls-3" d="M97.88,95.3c.07,0,.16,0,.23,0C98,95.3,97.84,95.12,97.88,95.3Z" transform="translate(-60.57 -65.19)"/><path class="cls-3" d="M159.31,95.59c.11,0,.06-.11.07-.13C159.19,95.51,159.32,95.61,159.31,95.59Z" transform="translate(-60.57 -65.19)"/><polygon class="cls-3" points="96.92 30.97 96.94 30.93 96.68 31.08 96.92 30.97"/><path class="cls-3" d="M155.73,96.49c.2.14.63-.15,1-.14l.06,0,.11-.17A6.78,6.78,0,0,1,155.73,96.49Z" transform="translate(-60.57 -65.19)"/><path class="cls-3" d="M154.73,96.29c.07.06-.19.1.22,0h0Z" transform="translate(-60.57 -65.19)"/><path class="cls-3" d="M154.91,96.26c.18,0-.13,0,0,0Z" transform="translate(-60.57 -65.19)"/><path class="cls-3" d="M154.07,96.46l.23-.11c-.06,0-.28,0-.2,0C153.85,96.38,153.91,96.42,154.07,96.46Z" transform="translate(-60.57 -65.19)"/><path class="cls-3" d="M153.86,96.63l.12,0S153.92,96.56,153.86,96.63Z" transform="translate(-60.57 -65.19)"/><path class="cls-3" d="M154.24,96.47l-.26.1s.05.08.12,0C154.09,96.59,154.13,96.53,154.24,96.47Z" transform="translate(-60.57 -65.19)"/><path class="cls-3" d="M154.39,96.47c.14,0,.32,0,.09.11C154.94,96.47,154.85,96.36,154.39,96.47Z" transform="translate(-60.57 -65.19)"/><path class="cls-3" d="M155.68,96.69l.19,0,.15-.09C155.94,96.66,155.66,96.64,155.68,96.69Z" transform="translate(-60.57 -65.19)"/><path class="cls-3" d="M152.54,96.65s.1.08.13.13l.17-.08C152.74,96.69,152.56,96.7,152.54,96.65Z" transform="translate(-60.57 -65.19)"/><path class="cls-3" d="M152.67,96.77l-.26.11C152.65,96.85,152.69,96.81,152.67,96.77Z" transform="translate(-60.57 -65.19)"/><polygon class="cls-3" points="93.29 31.64 93.7 31.42 93.2 31.65 93.29 31.64"/><polygon class="cls-3" points="90.95 31.64 91.08 31.52 90.84 31.7 90.95 31.64"/><path class="cls-3" d="M150.84,97c.1-.09-.18-.09-.07-.16a1.64,1.64,0,0,0-.46.22A1.08,1.08,0,0,1,150.84,97Z" transform="translate(-60.57 -65.19)"/><path class="cls-3" d="M150.09,97.16l.22-.12A1,1,0,0,0,150.09,97.16Z" transform="translate(-60.57 -65.19)"/><path class="cls-3" d="M151.95,97a.3.3,0,0,0-.23-.07l.12.09Z" transform="translate(-60.57 -65.19)"/><path class="cls-3" d="M151.85,97h0l-.23,0Z" transform="translate(-60.57 -65.19)"/><path class="cls-3" d="M152,97h0S152,97,152,97Z" transform="translate(-60.57 -65.19)"/><path class="cls-3" d="M153.13,96.86c-.15.09-.46.21-.13.24C153.1,97,152.91,97,153.13,96.86Z" transform="translate(-60.57 -65.19)"/><path class="cls-3" d="M152.13,97.06l.29,0s-.07-.06,0-.1Z" transform="translate(-60.57 -65.19)"/><polygon class="cls-3" points="91.43 31.92 91.57 31.86 91.46 31.88 91.43 31.92"/><path class="cls-3" d="M150.6,97.17a1.38,1.38,0,0,1-.4.13,4,4,0,0,0,.5-.06S150.77,97.13,150.6,97.17Z" transform="translate(-60.57 -65.19)"/><path class="cls-3" d="M151.21,97.08h0S151.21,97.1,151.21,97.08Z" transform="translate(-60.57 -65.19)"/><polygon class="cls-3" points="88.14 32.38 88.16 32.4 88.17 32.38 88.14 32.38"/><path class="cls-3" d="M150.72,97.26a.41.41,0,0,0,.26-.09l-.29.07S150.69,97.27,150.72,97.26Z" transform="translate(-60.57 -65.19)"/><path class="cls-3" d="M149.68,97.29l.22,0C149.84,97.28,149.7,97.26,149.68,97.29Z" transform="translate(-60.57 -65.19)"/><path class="cls-3" d="M151.13,97.07h0S151.11,97.06,151.13,97.07Z" transform="translate(-60.57 -65.19)"/><path class="cls-3" d="M151.13,97.07a.84.84,0,0,0-.15.09l.2-.07Z" transform="translate(-60.57 -65.19)"/><path class="cls-3" d="M148.37,98.34c0-.1.31-.25.61-.2.26-.12,0-.41-.25-.55,0,0,0,.08-.26.19.11,0,.65,0,.43.14s-.31,0-.5,0c.18.09-.44.26-.33.43l.31-.12S148.28,98.33,148.37,98.34Z" transform="translate(-60.57 -65.19)"/><path class="cls-3" d="M149.27,97.5l.11,0a1.39,1.39,0,0,1-.42-.06c-.18.08-.22.13-.22.16l.57-.09Z" transform="translate(-60.57 -65.19)"/><path class="cls-3" d="M149.9,97.37c-.07.12-.34.22-.15.3.34-.07.22-.13.42-.22-.54.13.15-.09-.26-.07l.29-.08h-.28s0,0,0,0h0a.1.1,0,0,1,0,0c-.16,0,0,0,0,0v0h0l-.54.16A3.3,3.3,0,0,0,149.9,97.37Z" transform="translate(-60.57 -65.19)"/><path class="cls-3" d="M152.75,97.39s0,0,0,0S152.69,97.4,152.75,97.39Z" transform="translate(-60.57 -65.19)"/><path class="cls-3" d="M152.52,97.37a.31.31,0,0,1,.19-.08c.12,0,0,.05,0,.08s.26-.13,0-.13l0,0c-.23,0-.54-.07-.5-.1A.8.8,0,0,0,152.52,97.37Z" transform="translate(-60.57 -65.19)"/><path class="cls-3" d="M151.2,97.4l-.45.14.25,0,0-.05C151.24,97.51,151.17,97.45,151.2,97.4Z" transform="translate(-60.57 -65.19)"/><polygon class="cls-3" points="88.07 32.34 88.11 32.22 87.88 32.43 88.07 32.34"/><polygon class="cls-3" points="87.48 32.47 87.48 32.37 87.34 32.45 87.48 32.47"/><path class="cls-3" d="M114.41,103.32l-.14,0Z" transform="translate(-60.57 -65.19)"/><path class="cls-3" d="M115.4,103.38l0,0S115.36,103.38,115.4,103.38Z" transform="translate(-60.57 -65.19)"/><path class="cls-3" d="M133.46,100.39c-.21-.05-.46-.16-.41-.05l.08.1A.84.84,0,0,1,133.46,100.39Z" transform="translate(-60.57 -65.19)"/><path class="cls-3" d="M123.53,102.59l.06,0,.12-.12Z" transform="translate(-60.57 -65.19)"/><path class="cls-3" d="M123.44,103l-.27,0A1.24,1.24,0,0,0,123.44,103Z" transform="translate(-60.57 -65.19)"/><path class="cls-3" d="M109,103l-.17.1C109.09,103.15,109,103.08,109,103Z" transform="translate(-60.57 -65.19)"/><path class="cls-3" d="M142,98.83a2.15,2.15,0,0,0-.43,0C141.75,98.87,141.93,98.93,142,98.83Z" transform="translate(-60.57 -65.19)"/><path class="cls-3" d="M114.87,102.19c-.08,0-.12,0-.12.06S114.88,102.22,114.87,102.19Z" transform="translate(-60.57 -65.19)"/><path class="cls-3" d="M141,98.94h.09a2,2,0,0,1,.39-.1A.7.7,0,0,0,141,98.94Z" transform="translate(-60.57 -65.19)"/><path class="cls-3" d="M89.77,104.5h0S89.74,104.51,89.77,104.5Z" transform="translate(-60.57 -65.19)"/><path class="cls-3" d="M84,105.6a1.58,1.58,0,0,1,.19-.2A.84.84,0,0,0,84,105.6Z" transform="translate(-60.57 -65.19)"/><path class="cls-3" d="M145.65,98.06c.12,0,0,0,0,0Z" transform="translate(-60.57 -65.19)"/><path class="cls-3" d="M146.34,98.37s0,0,0,.06A.09.09,0,0,1,146.34,98.37Z" transform="translate(-60.57 -65.19)"/><path class="cls-3" d="M139.92,99.84h0S139.94,99.85,139.92,99.84Z" transform="translate(-60.57 -65.19)"/><path class="cls-3" d="M145.85,98.07h0Z" transform="translate(-60.57 -65.19)"/><path class="cls-3" d="M145.81,98h.11S145.92,98,145.81,98Z" transform="translate(-60.57 -65.19)"/><path class="cls-3" d="M145.47,98.1l.21,0h0Z" transform="translate(-60.57 -65.19)"/><path class="cls-3" d="M100,102.57h0C99.84,102.62,99.9,102.61,100,102.57Z" transform="translate(-60.57 -65.19)"/><polygon class="cls-3" points="69.81 36.9 69.82 36.89 69.8 36.89 69.81 36.9"/><path class="cls-3" d="M129.93,102.25a.5.5,0,0,1,.44-.17l-.2-.28Z" transform="translate(-60.57 -65.19)"/><path class="cls-3" d="M112,103.18l.32.12c-.4.13-.68.05-.39.21.07-.33,1.26.06,1.33-.27l.21.09h-.13c.4.19.33-.22.86-.14.19,0,.31.09.18.13l.42-.06c.12,0,.09.07,0,.06h.63a3.19,3.19,0,0,1,.4-.15c.16.05-.08,0,0,.08l.36-.07c.14.09-.16.17-.4.15.32.35.3-.07,1,.15l-.34,0c.21.2.47.14.85.27-.09-.06-.75-.32-.36-.4a.8.8,0,0,0,.46,0c0,.12.2.09.46.09l0,.16c.28,0,.25-.12.42-.2a.46.46,0,0,1,.44.24c.49,0-.34-.19.24-.23a3,3,0,0,0,1.17-.13c.29,0,0,.1.06.14l.25-.14c.06,0,0,0,0,.06.21-.06,0-.16.34-.22.08-.18.7.22,1.1,0,.1,0,0,.1,0,.16a4,4,0,0,0,.92-.35l.4.07c-.3-.1.06-.26.37-.42l-.26-.11.5-.14c.06,0,0,.08-.06.15l.09,0c.19,0,.1.14,0,.24l-.19-.08c-.12.11-.23.23-.19.32a.55.55,0,0,1,.16-.06s0,.06,0,.07.07,0,.15-.08l.14.16,0-.07.69,0a5.91,5.91,0,0,1,1.6-.72c-.17.15,0,.22,0,.37-.23-.14-.58.15-1,.16.21,0,.17.07.12.1l.69-.24c0,.13.16.07.35.1-.17-.23.5-.24.78-.36,0,.08,0,.18-.38.21.41.13.46-.36.86-.26-.08,0-.13,0-.16.06.19-.1.68-.12.58,0h-.08c.57-.06,1.72-.27,1.76-.5a1,1,0,0,1-.06.31l.88-.88c-.06.2.36.56-.09.75A1.27,1.27,0,0,0,131,102c-.1,0-.27-.22-.15-.26a3,3,0,0,0,.71.16c-.14,0,0-.32.17-.35,0,0,.07.27,0,.32l.49-.37c-.12.07,0,.24.15.3-.07,0,.47-.08.6-.13l-.24,0c.61-.07.53-.5,1.13-.6-.06.07-.11.38.2.36a2.64,2.64,0,0,1,1-1l.12.06.39-.17a8.27,8.27,0,0,1-1.2,1.09c.24,0,.08.08.42,0,.13.05-.16.15-.26.17l.8-.1c-.07-.16.57-.28.52-.41l-.83.33c-.07-.16.41-.56,1-.64.15,0-.05.31,0,.37a1.25,1.25,0,0,1,.57-.18l-.22.13c.32,0,.47-.31.87-.23.13,0,.43.14.43,0a.9.9,0,0,1-.28-.89,5.74,5.74,0,0,1,.88.12c.24.11-.25.41,0,.51,0,0,.11-.12.15-.15s0,.15.26.07c0-.18.6-.1.11-.17.28-.1.31,0,.65-.09-.13-.09.24-.43.52-.53,0,0,.07.09.1.11.59-.1.93-.08,1.48-.18.06,0,.33,0,.23.12a.76.76,0,0,1,.31-.15c.36.08-.37.09-.09.22,0-.1.41-.22.65-.32-.1-.14-.56.08-.8.18,0-.21.34-.5.9-.71s.22.1.3.05c.87-.12.66-.5,1.41-.48.31.08.06.26.14.34a4.13,4.13,0,0,1-.84.08h.32a1.05,1.05,0,0,1-.5.13c.26.07,1.46-.25,2.14-.26.11-.07.3-.15.2-.19l-.21.06c-.21-.07.37-.22.09-.22a2.3,2.3,0,0,1,1-.32l.1.14s-.28,0-.38,0c.15-.1.65.09.79-.14l-.3-.05a2.56,2.56,0,0,1,.95-.37c-.19-.12-.08,0-.36-.1.26.18-.9.16-.51.32-.29-.15-.46,0-.83-.11,0,0,.14.07-.16.1l-.06.06h0s0,0,0,0a.36.36,0,0,1,.16,0c-.13.14-.59.23-.74.31s.06-.07,0-.11l-.22.13c0-.11-.5-.1-.1-.24l-.37.06a1.6,1.6,0,0,0-.71.09c-.18,0-.42.2-.28.09l-.57.18v0a6.24,6.24,0,0,1-1.84.33,2.66,2.66,0,0,1-.71.16l-.08-.08c-.24.08-.76,0-.85.16-.32-.21-1.21.17-1.66.2v.13a6.17,6.17,0,0,0-.95.26l0,.11a8.61,8.61,0,0,1-1.35.18s.16-.06.25-.05c-.65-.14-1.25.42-1.83.34a.56.56,0,0,1-.33.06h0l-.2,0,.17,0a3.11,3.11,0,0,0-.42.12l-.09-.11h0c-.16,0-.11.08,0,.15a1,1,0,0,0-.19.11c-.16-.17-.4.14-.61,0-.09.12-.78.22-.82.44,0,0-.06,0,0,0a1.08,1.08,0,0,0-.51.1l-.1-.14-.35.27c-.25-.05-.35-.09-.14-.24-.53.27-.44.14-.89.4v-.1c-.17,0-.42.21-.53.14-.41-.12-1.89.28-2.89.24.23.26-.47-.07-.48.16-.07-.06-.21-.08-.06-.16-.49.13-.76,0-1.08.22-.06-.06.1-.11,0-.15s-.15.08-.21,0,.07-.07.14-.11c-.51.07-.54.28-.55.49a.53.53,0,0,0-.57.11c-.1-.06-.25-.11.06-.16-.18,0-1.1,0-1.1.17a.52.52,0,0,0-.3,0c-.4,0-.44,0-.83,0l.11,0c-.14.2-.33.06-.64.1v0c-.74-.1-.31.08-1,0l0,.12c-.06.26-.64-.13-1.06,0l.15.07c-.23.09-.64-.34-.87-.38,0,0,.08,0,.15-.05-.6-.16-.08.16-.52.19-.08-.09.11-.21-.19-.23-.15-.07-.88.25-1.28.07.09.07.18.14,0,.18s-.85-.29-1.15-.1c0,0-.05,0-.05-.05a4.2,4.2,0,0,0-1,.14c-.2-.43-1.53.09-1.5-.29l-.75,0,0,0a1.29,1.29,0,0,0-.83.09c-.11,0,0-.06,0-.08a2.3,2.3,0,0,0-1.37,0l-.05-.13a9.67,9.67,0,0,0-1.71-.16.11.11,0,0,1,.08-.05c-.79.1-1.86-.44-2.16,0l-.52.1c.67,0-.1.19.17.27-.26,0-.67-.15-.35-.17l0,0c.12-.24-.83-.1-.81-.25-1.31,0-2.6-.08-3.84,0l.15.17-.43,0c-.12,0-.16-.13.15-.15-.17-.09-.51.12-.51.16-.6,0,.22-.23,0-.22l-.25,0,.06,0a1,1,0,0,1-.58.2c-.24,0-.13-.1-.22-.1s0,0-.14,0l-.54,0,.23.12c-.23.09-.51,0-.24.18-.39-.22-2,.15-2.25.11a3.28,3.28,0,0,1-1.05.25c.11,0,.19.16-.16.2.07-.36-.66,0-1-.22.28.11-1,.22-.55.37-.29,0,0-.12-.28-.15-.67.26-1.54.23-2.38.48,0,0,.15.08,0,.18l-.5-.1c-.16.06-.09.28-.43.21.05,0,.13.06,0,.1a14,14,0,0,0-2.51.67c-.42.14-.82.27-1.26.4a7.24,7.24,0,0,0-1.36.59c.27-.1.13,0,0,.15.11-.08.07.08.13.11a2.89,2.89,0,0,0-.34.23,2.35,2.35,0,0,0-.32.31,3.5,3.5,0,0,1-.12.6c0,.27,0,.55.14.56a1.33,1.33,0,0,1-.1-.31c.13.2.18,0,.31-.12s.28-.23.38-.17c-.06-.16.12-.3.31-.41a1.14,1.14,0,0,0,.53-.49c.12,0,0,.12,0,.13,0-.15.17-.26.45-.34l0,0a4.37,4.37,0,0,1,1-.31l1.14-.24-.1-.09a1.1,1.1,0,0,1,.37,0c.18-.24-.58.16-.42-.09.34.14,1.45-.41,1.7-.19.32-.08-.13-.11.19-.19l.1,0,.06-.11c.21,0,.34,0,.36.09a1.13,1.13,0,0,0-.19.07,4.24,4.24,0,0,0,.85-.21l-.32,0c.85-.28,1.93-.41,2.75-.73l-.07,0c.63-.23.53,0,1.23-.21l0,0a1.31,1.31,0,0,1,.52-.16c-.17.09.36.07.13.18.69-.22.33-.14.77-.42l.12.08a.89.89,0,0,1,.51-.22c-.28.12.25.11-.07.26.78.1,1.09-.34,1.47-.09.32-.29-.67-.07-.48-.15-.17-.07.26-.22.51-.22s.44.28,1,.22l-.12,0c.23,0,.44-.13.72,0,.14-.17.36,0,.39-.22l-.55.09a2.19,2.19,0,0,1,1.12-.25,1,1,0,0,1-.29.14c.16,0,.29-.06.45,0,0,.2-.68.09-1,.26.17.07.63-.19.47,0,.23-.29.6,0,1-.24l0,.12a1.07,1.07,0,0,1,.32-.09l-.21.16c.33-.15.65.09,1,0-.67,0-.16-.14-.44-.21.82-.2.49.29,1.4.21-.12,0-.47-.06-.28-.12a1.75,1.75,0,0,1,.52.12c.61,0-.1-.12.16-.2.21.14.3-.06.57-.11v.12c.7.08.19-.26.82-.15l-.27.16.33,0-.07.14a1.61,1.61,0,0,1,.82,0c-.08-.09.05-.22.36-.21s-.12.11.32.11a.31.31,0,0,1-.4,0s-.1.07-.12.11a2.18,2.18,0,0,0,.73,0,.61.61,0,0,1-.17,0l.64-.14c.1.05,0,.08-.06.11a4,4,0,0,1,.41-.06c-.05.1,0,.2-.32.23l.61-.08s.3.14.22.17c.33.08.84-.14,1.28,0a.35.35,0,0,1,.17,0,3.63,3.63,0,0,0,1.29.11l.27.2c.39,0-.37-.25.29-.27.46,0,.16.16.32.22a1.52,1.52,0,0,1,1.06,0A2.51,2.51,0,0,1,112,103.18Zm4.86.2c-.1,0-.29.1-.35,0C116.65,103.27,116.73,103.34,116.89,103.38Zm7.37-.64a.38.38,0,0,1-.3,0A.78.78,0,0,1,124.27,102.74Zm20-4.33h0C144.06,98.41,144.14,98.42,144.28,98.41Zm.44,0s0,0,0-.05-.12.06-.23.07S144.6,98.44,144.72,98.39Zm-46.16,3.49.09,0C98.46,101.95,98.51,101.91,98.56,101.87Z" transform="translate(-60.57 -65.19)"/><path class="cls-3" d="M123.45,103a.11.11,0,0,1,0-.06S123.37,103,123.45,103Z" transform="translate(-60.57 -65.19)"/><path class="cls-3" d="M109,103h0l0,0Z" transform="translate(-60.57 -65.19)"/><path class="cls-3" d="M138.3,100.62a.45.45,0,0,1-.18,0S138.17,100.64,138.3,100.62Z" transform="translate(-60.57 -65.19)"/><path class="cls-3" d="M146.94,97.76l-.27.08a.59.59,0,0,1,.25,0S146.86,97.78,146.94,97.76Z" transform="translate(-60.57 -65.19)"/><path class="cls-3" d="M149.45,98.05s.08,0,.12,0l0-.05C149.38,98,149.27,98.06,149.45,98.05Z" transform="translate(-60.57 -65.19)"/><path class="cls-3" d="M147.27,98.11c0,.1.21,0,.39,0h0C147.66,97.94,147.46,98,147.27,98.11Z" transform="translate(-60.57 -65.19)"/><path class="cls-3" d="M147.71,98.07l.18,0C147.89,98,147.81,98,147.71,98.07Z" transform="translate(-60.57 -65.19)"/><path class="cls-3" d="M145.25,98.22c.1,0,0-.14.09-.11C145.42,98,144.77,98.38,145.25,98.22Z" transform="translate(-60.57 -65.19)"/><polygon class="cls-3" points="86.92 33.22 86.83 33.1 86.74 33.23 86.92 33.22"/><path class="cls-3" d="M146,98.6l.31,0s0,0,.07-.06C146.15,98.55,145.94,98.57,146,98.6Z" transform="translate(-60.57 -65.19)"/><path class="cls-3" d="M146.34,98.52a.79.79,0,0,0,.24-.07Z" transform="translate(-60.57 -65.19)"/><polygon class="cls-3" points="86.51 33.33 86.41 33.32 86.2 33.35 86.51 33.33"/><path class="cls-3" d="M142.67,99.19l-.33.1s.07.06.19,0S142.73,99.22,142.67,99.19Z" transform="translate(-60.57 -65.19)"/><path class="cls-3" d="M143.74,99.34a.31.31,0,0,1-.16-.07l0,.15Z" transform="translate(-60.57 -65.19)"/><path class="cls-3" d="M142.77,99.56s-.46.21,0,.12C142.76,99.63,143.09,99.53,142.77,99.56Z" transform="translate(-60.57 -65.19)"/><polygon class="cls-3" points="77.14 35.11 77.23 35.09 77.17 34.84 77.14 35.11"/><path class="cls-3" d="M133.39,101.73c.41,0,.07-.17.44-.16.08-.08-.3,0-.22-.08C133.38,101.59,133.25,101.58,133.39,101.73Z" transform="translate(-60.57 -65.19)"/><path class="cls-3" d="M133.61,101.49l.11-.06Z" transform="translate(-60.57 -65.19)"/><path class="cls-3" d="M83.3,106.69a1.63,1.63,0,0,0,0,.47,1.27,1.27,0,0,1,0-.31Z" transform="translate(-60.57 -65.19)"/><path class="cls-3" d="M83.65,107.44l-.09.16.26.1C83.77,107.64,83.65,107.52,83.65,107.44Z" transform="translate(-60.57 -65.19)"/><path class="cls-3" d="M117.62,103.72l0,0s-.1,0-.22-.05Z" transform="translate(-60.57 -65.19)"/><polygon class="cls-3" points="53.51 38.26 53.57 38.27 53.46 38.12 53.51 38.26"/><path class="cls-3" d="M111.11,103.42c.12,0,.26,0,.38,0C111.23,103.44,111.09,103.24,111.11,103.42Z" transform="translate(-60.57 -65.19)"/><path class="cls-3" d="M163.5,119.68c.08,0,.06-.09.07-.11C163.44,119.59,163.51,119.71,163.5,119.68Z" transform="translate(-60.57 -65.19)"/><polygon class="cls-3" points="101.58 54.61 101.61 54.57 101.4 54.66 101.58 54.61"/><path class="cls-3" d="M160.89,119.7c.1.19.46,0,.68.09l0,0,.11-.13A3.43,3.43,0,0,1,160.89,119.7Z" transform="translate(-60.57 -65.19)"/><path class="cls-3" d="M160.26,119.26c0,.07-.15,0,.15,0l0,0Z" transform="translate(-60.57 -65.19)"/><path class="cls-3" d="M160.38,119.27c.13,0-.08-.07,0,0Z" transform="translate(-60.57 -65.19)"/><path class="cls-3" d="M159.77,119.26l.18,0s-.19-.07-.13-.09C159.64,119.13,159.68,119.18,159.77,119.26Z" transform="translate(-60.57 -65.19)"/><path class="cls-3" d="M159.59,119.37l.09,0S159.65,119.32,159.59,119.37Z" transform="translate(-60.57 -65.19)"/><path class="cls-3" d="M159.88,119.32l-.2,0s0,.09.09,0C159.75,119.39,159.8,119.34,159.88,119.32Z" transform="translate(-60.57 -65.19)"/><path class="cls-3" d="M160,119.35c.09,0,.22.09,0,.13C160.36,119.49,160.32,119.36,160,119.35Z" transform="translate(-60.57 -65.19)"/><path class="cls-3" d="M160.81,119.88l.13.06.12,0C161,119.92,160.81,119.82,160.81,119.88Z" transform="translate(-60.57 -65.19)"/><path class="cls-3" d="M158.7,119.05s0,.11.06.16l.13,0C158.82,119.15,158.7,119.11,158.7,119.05Z" transform="translate(-60.57 -65.19)"/><path class="cls-3" d="M158.75,119.21l-.2,0C158.73,119.28,158.76,119.25,158.75,119.21Z" transform="translate(-60.57 -65.19)"/><polygon class="cls-3" points="98.98 54.37 99.31 54.26 98.92 54.36 98.98 54.37"/><polygon class="cls-3" points="97.4 53.78 97.52 53.7 97.31 53.82 97.4 53.78"/><path class="cls-3" d="M157.48,118.94c.09-.06-.1-.13,0-.17a.92.92,0,0,0-.36.1A.55.55,0,0,1,157.48,118.94Z" transform="translate(-60.57 -65.19)"/><path class="cls-3" d="M156.93,118.93l.18-.06A.56.56,0,0,0,156.93,118.93Z" transform="translate(-60.57 -65.19)"/><path class="cls-3" d="M158.23,119.2a.21.21,0,0,0-.14-.12l.06.11Z" transform="translate(-60.57 -65.19)"/><path class="cls-3" d="M158.16,119.2h0l-.16,0Z" transform="translate(-60.57 -65.19)"/><path class="cls-3" d="M158.25,119.21h0S158.24,119.22,158.25,119.21Z" transform="translate(-60.57 -65.19)"/><path class="cls-3" d="M159,119.41c-.12,0-.36.09-.14.2C159,119.55,158.87,119.49,159,119.41Z" transform="translate(-60.57 -65.19)"/><path class="cls-3" d="M158.33,119.35l.2,0s0-.07,0-.1Z" transform="translate(-60.57 -65.19)"/><polygon class="cls-3" points="97.66 54.18 97.76 54.15 97.69 54.14 97.66 54.18"/><path class="cls-3" d="M157.27,119.07a.72.72,0,0,1-.3,0,2,2,0,0,0,.35.07S157.39,119.07,157.27,119.07Z" transform="translate(-60.57 -65.19)"/><path class="cls-3" d="M157.7,119.14h0S157.7,119.16,157.7,119.14Z" transform="translate(-60.57 -65.19)"/><polygon class="cls-3" points="95.33 53.78 95.35 53.8 95.35 53.78 95.33 53.78"/><path class="cls-3" d="M157.34,119.18a.22.22,0,0,0,.19,0h-.21S157.31,119.19,157.34,119.18Z" transform="translate(-60.57 -65.19)"/><path class="cls-3" d="M156.63,118.95l.15.07S156.64,118.92,156.63,118.95Z" transform="translate(-60.57 -65.19)"/><path class="cls-3" d="M157.65,119.11h0S157.64,119.09,157.65,119.11Z" transform="translate(-60.57 -65.19)"/><path class="cls-3" d="M157.65,119.11l-.12.05.15,0Z" transform="translate(-60.57 -65.19)"/><path class="cls-3" d="M155.5,119.62c0-.1.27-.16.46,0,.2-.05.11-.39,0-.59,0,0,0,.08-.22.12.06.06.43.18.25.25s-.22-.06-.34-.13c.1.14-.36.14-.32.33l.24,0S155.43,119.59,155.5,119.62Z" transform="translate(-60.57 -65.19)"/><path class="cls-3" d="M156.3,119h.08a.81.81,0,0,1-.27-.17c-.14,0-.18.07-.19.1l.41.06Z" transform="translate(-60.57 -65.19)"/><path class="cls-3" d="M156.75,119.09c-.08.1-.28.12-.17.25s.18-.07.33-.1c-.4,0,.12,0-.16-.14H157l-.2-.07h0s0,0,0,0h0l0,0c-.11,0,0,0,0,0v0h0l-.4,0A1.59,1.59,0,0,0,156.75,119.09Z" transform="translate(-60.57 -65.19)"/><path class="cls-3" d="M158.67,119.83a0,0,0,0,1,0,0S158.63,119.82,158.67,119.83Z" transform="translate(-60.57 -65.19)"/><path class="cls-3" d="M158.52,119.74a.17.17,0,0,1,.15,0c.08,0,0,.05,0,.09s.2-.06,0-.13h0c-.16-.05-.35-.21-.32-.22A.72.72,0,0,0,158.52,119.74Z" transform="translate(-60.57 -65.19)"/><path class="cls-3" d="M157.62,119.44l-.33,0,.16.11v-.06C157.63,119.56,157.59,119.48,157.62,119.44Z" transform="translate(-60.57 -65.19)"/><polygon class="cls-3" points="95.3 53.72 95.36 53.62 95.15 53.75 95.3 53.72"/><polygon class="cls-3" points="94.87 53.69 94.9 53.59 94.78 53.64 94.87 53.69"/><path class="cls-3" d="M131.25,117.59l-.1,0Z" transform="translate(-60.57 -65.19)"/><path class="cls-3" d="M132,117.64l0,0S131.92,117.63,132,117.64Z" transform="translate(-60.57 -65.19)"/><path class="cls-3" d="M145,117.66c-.13-.11-.27-.27-.27-.16l0,.11A.43.43,0,0,1,145,117.66Z" transform="translate(-60.57 -65.19)"/><path class="cls-3" d="M137.72,117.53l0,0,.1-.09Z" transform="translate(-60.57 -65.19)"/><path class="cls-3" d="M137.58,118l-.18-.09Z" transform="translate(-60.57 -65.19)"/><path class="cls-3" d="M127.44,117.55l-.12.11C127.5,117.66,127.42,117.61,127.44,117.55Z" transform="translate(-60.57 -65.19)"/><path class="cls-3" d="M151.07,118.42a1.12,1.12,0,0,0-.29-.1C150.92,118.39,151,118.5,151.07,118.42Z" transform="translate(-60.57 -65.19)"/><path class="cls-3" d="M131.6,116.46c-.06,0-.09,0-.09.06S131.61,116.49,131.6,116.46Z" transform="translate(-60.57 -65.19)"/><path class="cls-3" d="M150.43,118.27l.06,0a1,1,0,0,1,.29,0A.36.36,0,0,0,150.43,118.27Z" transform="translate(-60.57 -65.19)"/><path class="cls-3" d="M113.67,118.19h0S113.65,118.2,113.67,118.19Z" transform="translate(-60.57 -65.19)"/><path class="cls-3" d="M109.49,117.83l.16,0A.45.45,0,0,0,109.49,117.83Z" transform="translate(-60.57 -65.19)"/><path class="cls-3" d="M153.73,118.64c.09,0,0,0,0,0Z" transform="translate(-60.57 -65.19)"/><path class="cls-3" d="M154.12,119.12a.07.07,0,0,0,0,0A.09.09,0,0,1,154.12,119.12Z" transform="translate(-60.57 -65.19)"/><path class="cls-3" d="M149.45,118.84h0S149.46,118.86,149.45,118.84Z" transform="translate(-60.57 -65.19)"/><path class="cls-3" d="M153.86,118.71l-.11,0Z" transform="translate(-60.57 -65.19)"/><path class="cls-3" d="M153.85,118.65l.08,0S153.93,118.64,153.85,118.65Z" transform="translate(-60.57 -65.19)"/><path class="cls-3" d="M153.6,118.63l.14,0,0,0Z" transform="translate(-60.57 -65.19)"/><path class="cls-3" d="M121,117.22h0C120.9,117.26,120.94,117.25,121,117.22Z" transform="translate(-60.57 -65.19)"/><polygon class="cls-3" points="81.93 53.31 81.94 53.3 81.92 53.3 81.93 53.31"/><path class="cls-3" d="M142.16,118.55a.28.28,0,0,1,.33-.05l-.07-.32Z" transform="translate(-60.57 -65.19)"/><path class="cls-3" d="M129.58,117.54l.22.11c-.28.15-.48.08-.27.23,0-.34.89,0,.94-.33l.15.08h-.09c.28.18.23-.23.6-.17.13,0,.22.09.13.12l.3-.07c.08,0,.06.07,0,.06H132a1.88,1.88,0,0,1,.29-.16c.11.05-.06,0,0,.08l.25-.07c.09.1-.12.16-.29.14.21.35.21-.07.7.16l-.24,0c.14.2.32.15.58.29-.06-.07-.51-.34-.23-.41a.4.4,0,0,0,.32,0c0,.12.14.1.31.11l0,.16c.19,0,.19-.11.3-.18a.33.33,0,0,1,.29.27c.34.05-.22-.22.19-.22a1.57,1.57,0,0,0,.83,0c.19.07,0,.09,0,.15l.19-.11s0,0,0,.06c.15,0,0-.16.26-.18.08-.17.46.3.76.13.07.05,0,.09,0,.16a2.52,2.52,0,0,0,.69-.21l.27.13c-.19-.14.08-.26.32-.35l-.16-.15.37-.05s0,.08-.07.14l.07,0c.12.07,0,.16-.05.24l-.12-.11c-.1.09-.19.19-.18.28l.12,0s0,0,0,.06.05,0,.12,0l.07.19,0-.07.46.16a3.05,3.05,0,0,1,1.23-.4c-.15.12-.05.21-.07.36-.13-.18-.43,0-.7,0,.14,0,.1.1.07.12l.51-.1c0,.12.1.11.22.17-.07-.26.39-.13.6-.18,0,.09-.05.17-.3.12.25.22.38-.25.64-.07-.06,0-.09,0-.12,0,.15-.06.49,0,.4.1h-.06c.4.07,1.22.13,1.3-.07a1.35,1.35,0,0,1-.11.29l.8-.63c-.08.17.11.63-.24.7a.66.66,0,0,0,.42,0c-.06,0-.13-.28,0-.29.22.23.16.13.44.34-.09-.05,0-.32.2-.29,0,0,0,.28-.08.31l.42-.23c-.1,0,0,.23,0,.32s.33,0,.44,0l-.16-.08c.43.09.47-.34.9-.28-.06.05-.17.34,0,.4.12-.13.53-.64.92-.7l.06.09.3-.06a6.08,6.08,0,0,1-1.07.73c.15.08,0,.1.28.12.08.09-.15.1-.22.1l.56.12c0-.17.45-.12.45-.26l-.64.1c0-.17.41-.43.81-.35.09.08-.11.29-.11.34a.65.65,0,0,1,.43,0l-.18.07c.22.09.39-.18.64,0,.09,0,.25.25.28.15a1.21,1.21,0,0,1,0-.93,3.32,3.32,0,0,1,.56.35c.13.17-.27.33-.16.47,0,0,.1-.09.14-.1s-.06.14.16.14c.06-.16.43.07.12-.13.21,0,.22.06.46.08-.06-.12.26-.35.48-.37,0,0,0,.1,0,.13.42.07.64.17,1,.22,0,0,.22.12.13.18a.43.43,0,0,1,.24-.06c.22.17-.27,0-.12.19,0-.1.33-.1.51-.14,0-.16-.4-.08-.58,0,0-.21.35-.39.78-.44s.13.15.19.13c.61.11.57-.3,1.06-.09.19.16,0,.27,0,.37-.27,0-.4-.13-.58-.15l.22.09a.54.54,0,0,1-.37,0c.16.14,1,.15,1.5.31.09,0,.24-.07.18-.13h-.15c-.13-.12.3-.12.12-.19a1.21,1.21,0,0,1,.73-.05l0,.16s-.18-.11-.26-.07c.13-.05.41.26.57.07l-.19-.13a1.37,1.37,0,0,1,.73-.11c-.1-.16-.06,0-.22-.19.13.24-.64-.08-.42.18-.16-.22-.31-.12-.53-.32,0,.05.07.11-.13.06l-.05,0h0s0,0,0,0a.24.24,0,0,1,.1.09c-.12.1-.45.06-.57.11s.06-.05,0-.11l-.18.07c0-.11-.31-.22,0-.25l-.27,0a.82.82,0,0,0-.5-.1c-.12,0-.33.09-.21,0l-.43,0v0c-.41-.06-.87.08-1.32-.17a1.35,1.35,0,0,1-.52,0l0-.1c-.18,0-.52-.16-.61-.07-.16-.28-.86-.16-1.16-.24l0,.12a3.14,3.14,0,0,0-.7,0v.11c-.24.06-.58-.15-.95-.18,0,0,.12,0,.18,0-.41-.3-.94.07-1.32-.16a.29.29,0,0,1-.24,0h0l-.13-.08.11.07a1.57,1.57,0,0,0-.31,0l0-.13h0c-.11-.06-.1,0,0,.14l-.16.05c-.07-.2-.3,0-.4-.19-.09.09-.58,0-.66.21,0,0,0,0,0,0a.55.55,0,0,0-.37,0l0-.16-.3.17c-.16-.11-.22-.17,0-.27-.42.14-.33,0-.69.17l0-.1c-.12,0-.33.1-.4,0-.25-.22-1.35-.17-2-.42.11.3-.31-.17-.36.06,0-.07-.13-.12,0-.17-.37,0-.53-.16-.79,0,0-.07.09-.09.05-.14s-.12,0-.15,0,.06-.05.12-.08c-.37,0-.43.18-.47.38a.29.29,0,0,0-.42,0c-.06-.07-.16-.15.07-.15-.13,0-.77-.17-.8,0,0,0-.18,0-.21,0a4.84,4.84,0,0,0-.59-.07l.08,0c-.13.18-.24,0-.47,0v0c-.51-.18-.23,0-.73-.15l0,.12c-.07.25-.44-.19-.75-.11l.1.08c-.17.08-.43-.38-.59-.43s.06,0,.11,0c-.42-.18-.07.15-.39.16-.05-.09.09-.21-.12-.24s-.64.23-.93,0c.06.07.12.14,0,.18s-.6-.28-.82-.08c0,0,0,0,0-.05-.18,0-.57.06-.68.16-.14-.42-1.09.14-1.07-.24h-.54l0,0a.69.69,0,0,0-.59.14c-.08,0,0-.06,0-.08a1.22,1.22,0,0,0-1,.11l0-.12c-.12.07-.72-.21-1.22-.08a.09.09,0,0,1,.06-.05c-.55.13-1.33-.37-1.53.09l-.37.12c.47,0-.07.2.12.27-.19,0-.48-.13-.25-.16l0,0c.08-.24-.59-.08-.58-.24-.93,0-1.84-.11-2.72-.06l.11.18H121c-.08,0-.11-.14.1-.14-.12-.1-.36.11-.36.15-.43-.05.16-.22,0-.22l-.18,0,0,0c-.14.08-.15.16-.41.17s-.09-.11-.16-.11,0,0-.1,0h-.38l.16.14c-.17.08-.36,0-.17.17-.28-.25-1.43,0-1.6-.06a1.63,1.63,0,0,1-.75.16c.07,0,.13.18-.12.18.06-.34-.47-.1-.7-.32.2.14-.71.11-.4.31-.21,0,0-.12-.19-.19-.48.17-1.1,0-1.71.18,0,0,.11.1,0,.18l-.35-.17c-.12,0-.07.27-.32.15,0,0,.09.08,0,.11a7.91,7.91,0,0,0-1.83.24,5.31,5.31,0,0,1-1.86.19c.18.05.07.08-.05.11.09,0,0,.11,0,.16l-.54-.06c-.06.18-.54.12-.56.29l.15-.06c-.17.23.39.34.41.58.19-.26.68.18,1-.19.09,0-.06.09,0,.14.08-.12.19-.17.42-.16l0,0a8,8,0,0,1,1.59-.16l-.07-.11a.62.62,0,0,1,.26,0c.14-.2-.42.05-.3-.17.24.21,1.06-.15,1.23.1.23,0-.09-.13.14-.16l.07.06,0-.1a.24.24,0,0,1,.26.14.58.58,0,0,0-.14,0c.21.06.55-.11.62-.09h-.23c.62-.16,1.39-.18,2-.38l-.05-.05c.46-.15.38,0,.89-.07l0,0a.75.75,0,0,1,.37-.11c-.12.08.25.1.09.19.5-.16.24-.11.56-.35l.08.08a.53.53,0,0,1,.37-.19c-.2.1.17.13-.05.25.55.14.79-.25,1.05,0,.23-.27-.48-.12-.34-.18-.12-.08.19-.2.36-.18s.31.31.75.29l-.09,0c.17.06.31-.1.52,0,.1-.16.26,0,.28-.2l-.4.07c.22-.06.42-.31.8-.21a.64.64,0,0,1-.21.13c.11.05.21,0,.32,0s-.48.07-.72.23c.12.08.45-.17.34.05.16-.28.43,0,.71-.21l0,.12a.6.6,0,0,1,.23-.08l-.15.16c.23-.15.46.09.69,0-.48,0-.11-.14-.32-.23.58-.17.35.31,1,.24-.09,0-.34-.07-.2-.12a1,1,0,0,1,.37.13c.44,0-.07-.12.12-.2.15.14.21-.06.4-.11v.12c.5.07.13-.25.58-.16l-.19.17.23,0,0,.14a.84.84,0,0,1,.58,0c-.06-.08,0-.22.25-.23s-.08.12.23.09c-.07.08-.15.17-.28.06s-.07.08-.08.12c.16.08.41,0,.52,0a.33.33,0,0,1-.12,0l.45-.16c.07,0,0,.08,0,.12a2.12,2.12,0,0,1,.29-.07c0,.1,0,.2-.22.24l.43-.1s.22.12.16.16c.24.06.59-.18.9-.09a.21.21,0,0,1,.12,0,1.8,1.8,0,0,0,.91,0l.19.18c.28,0-.26-.23.2-.28s.12.16.23.21a.79.79,0,0,1,.75-.09A1.25,1.25,0,0,1,129.58,117.54Zm3.41.12c-.07,0-.2.09-.25,0S132.88,117.61,133,117.65Zm5.21.15c-.05,0-.13,0-.21,0A.4.4,0,0,1,138.2,117.8Zm14.53.82h0C152.58,118.57,152.63,118.59,152.73,118.63Zm.3.09s0,0,0,0-.09,0-.17,0S152.93,118.73,153,118.71Zm-33-2.25.06,0C119.93,116.53,120,116.5,120,116.46Z" transform="translate(-60.57 -65.19)"/><path class="cls-3" d="M137.6,117.91a.12.12,0,0,1,0-.07S137.55,117.89,137.6,117.91Z" transform="translate(-60.57 -65.19)"/><path class="cls-3" d="M127.46,117.53h0v0Z" transform="translate(-60.57 -65.19)"/><path class="cls-3" d="M148.17,119.16a.27.27,0,0,1-.11-.08S148.08,119.14,148.17,119.16Z" transform="translate(-60.57 -65.19)"/><path class="cls-3" d="M154.67,118.69h-.2a.31.31,0,0,1,.17.06S154.61,118.69,154.67,118.69Z" transform="translate(-60.57 -65.19)"/><path class="cls-3" d="M156.29,119.63h.09v-.06C156.26,119.55,156.17,119.59,156.29,119.63Z" transform="translate(-60.57 -65.19)"/><path class="cls-3" d="M154.81,119.11c0,.1.13.08.27.08h0C155.11,119.05,155,119.08,154.81,119.11Z" transform="translate(-60.57 -65.19)"/><path class="cls-3" d="M155.11,119.19h.13C155.26,119.15,155.19,119.19,155.11,119.19Z" transform="translate(-60.57 -65.19)"/><path class="cls-3" d="M153.42,118.69c.06,0,.06-.12.09-.08C153.6,118.49,153.06,118.72,153.42,118.69Z" transform="translate(-60.57 -65.19)"/><polygon class="cls-3" points="94.32 54.26 94.28 54.13 94.19 54.23 94.32 54.26"/><path class="cls-3" d="M153.81,119.24l.22.06s0,0,.06,0C154,119.25,153.81,119.21,153.81,119.24Z" transform="translate(-60.57 -65.19)"/><path class="cls-3" d="M154.09,119.27a.4.4,0,0,0,.18,0Z" transform="translate(-60.57 -65.19)"/><polygon class="cls-3" points="94.01 54.27 93.95 54.23 93.8 54.21 94.01 54.27"/><path class="cls-3" d="M151.45,118.94h-.24s0,.07.12.07S151.49,119,151.45,118.94Z" transform="translate(-60.57 -65.19)"/><path class="cls-3" d="M152.14,119.37c-.06,0-.06-.06-.09-.11l0,.15Z" transform="translate(-60.57 -65.19)"/><path class="cls-3" d="M151.43,119.32s-.36.08-.06.11C151.41,119.39,151.65,119.38,151.43,119.32Z" transform="translate(-60.57 -65.19)"/><polygon class="cls-3" points="87.29 53.5 87.35 53.51 87.37 53.25 87.29 53.5"/><path class="cls-3" d="M144.61,118.92c.28.09.09-.15.33,0,.07-.05-.2-.09-.13-.13C144.63,118.79,144.55,118.75,144.61,118.92Z" transform="translate(-60.57 -65.19)"/><path class="cls-3" d="M144.81,118.75l.09,0Z" transform="translate(-60.57 -65.19)"/><polygon class="cls-3" points="48.23 52.64 48.04 52.62 48.17 52.68 48.23 52.64"/><path class="cls-3" d="M108.49,118.09l-.08-.15-.08.17S108.45,118.06,108.49,118.09Z" transform="translate(-60.57 -65.19)"/><path class="cls-3" d="M133.48,118l0,0s-.07-.05-.15-.06Z" transform="translate(-60.57 -65.19)"/><polygon class="cls-3" points="70.45 52.55 70.49 52.55 70.42 52.4 70.45 52.55"/><path class="cls-3" d="M128.93,117.82c.08,0,.19,0,.27,0C129,117.83,128.92,117.64,128.93,117.82Z" transform="translate(-60.57 -65.19)"/><path class="cls-3" d="M191,90.7c.06,0,.09-.05.11-.06S191,90.72,191,90.7Z" transform="translate(-60.57 -65.19)"/><polygon class="cls-3" points="129.25 25.22 129.28 25.18 129.09 25.23 129.25 25.22"/><path class="cls-3" d="M188.76,90.19c.08.19.39,0,.57.13l0,0,.12-.12A4,4,0,0,1,188.76,90.19Z" transform="translate(-60.57 -65.19)"/><path class="cls-3" d="M188.22,89.76c0,.07-.13.05.13,0l0,0Z" transform="translate(-60.57 -65.19)"/><path class="cls-3" d="M188.33,89.77c.12,0-.07-.06,0,0Z" transform="translate(-60.57 -65.19)"/><path class="cls-3" d="M187.8,89.78l.15-.06s-.16-.06-.11-.08C187.69,89.67,187.72,89.71,187.8,89.78Z" transform="translate(-60.57 -65.19)"/><path class="cls-3" d="M187.66,89.91l.08,0S187.7,89.86,187.66,89.91Z" transform="translate(-60.57 -65.19)"/><path class="cls-3" d="M187.9,89.83l-.16,0s0,.09.07,0C187.8,89.92,187.83,89.87,187.9,89.83Z" transform="translate(-60.57 -65.19)"/><path class="cls-3" d="M188,89.86c.08,0,.19.07,0,.13C188.31,90,188.28,89.85,188,89.86Z" transform="translate(-60.57 -65.19)"/><path class="cls-3" d="M188.68,90.37l.1.06.1,0C188.83,90.41,188.68,90.31,188.68,90.37Z" transform="translate(-60.57 -65.19)"/><path class="cls-3" d="M186.9,89.68s0,.1.06.15l.11,0C187,89.76,186.91,89.73,186.9,89.68Z" transform="translate(-60.57 -65.19)"/><path class="cls-3" d="M187,89.83l-.16.07C186.94,89.9,187,89.87,187,89.83Z" transform="translate(-60.57 -65.19)"/><polygon class="cls-3" points="127.06 24.91 127.33 24.78 127.01 24.91 127.06 24.91"/><polygon class="cls-3" points="125.74 24.48 125.83 24.39 125.67 24.52 125.74 24.48"/><path class="cls-3" d="M185.91,89.69c.07-.07-.09-.12,0-.17a.65.65,0,0,0-.28.13A.37.37,0,0,1,185.91,89.69Z" transform="translate(-60.57 -65.19)"/><path class="cls-3" d="M185.47,89.73l.14-.08A.41.41,0,0,0,185.47,89.73Z" transform="translate(-60.57 -65.19)"/><path class="cls-3" d="M186.54,89.87a.18.18,0,0,0-.12-.11l.06.11Z" transform="translate(-60.57 -65.19)"/><path class="cls-3" d="M186.48,89.88h0Z" transform="translate(-60.57 -65.19)"/><path class="cls-3" d="M186.55,89.87h0S186.55,89.89,186.55,89.87Z" transform="translate(-60.57 -65.19)"/><path class="cls-3" d="M187.21,90c-.09.06-.29.12-.1.21C187.18,90.14,187.08,90.09,187.21,90Z" transform="translate(-60.57 -65.19)"/><path class="cls-3" d="M186.63,90l.17,0s0-.07,0-.1Z" transform="translate(-60.57 -65.19)"/><polygon class="cls-3" points="125.98 24.85 126.06 24.81 126 24.8 125.98 24.85"/><path class="cls-3" d="M185.75,89.83a.48.48,0,0,1-.24.06,1.31,1.31,0,0,0,.28,0S185.86,89.83,185.75,89.83Z" transform="translate(-60.57 -65.19)"/><path class="cls-3" d="M186.11,89.86h0S186.11,89.88,186.11,89.86Z" transform="translate(-60.57 -65.19)"/><polygon class="cls-3" points="124.08 24.69 124.1 24.71 124.1 24.69 124.08 24.69"/><path class="cls-3" d="M185.82,89.94a.15.15,0,0,0,.15,0l-.17,0S185.8,89.95,185.82,89.94Z" transform="translate(-60.57 -65.19)"/><path class="cls-3" d="M185.23,89.78l.12.06S185.24,89.75,185.23,89.78Z" transform="translate(-60.57 -65.19)"/><path class="cls-3" d="M186.07,89.84h0S186.06,89.82,186.07,89.84Z" transform="translate(-60.57 -65.19)"/><path class="cls-3" d="M186.07,89.84l-.09.07.12,0Z" transform="translate(-60.57 -65.19)"/><path class="cls-3" d="M184.38,90.57c0-.1.2-.19.36-.08.16-.07.06-.4-.08-.58,0,0,0,.08-.17.14.06.05.36.13.22.22s-.18,0-.28-.09c.09.12-.28.18-.23.36l.19-.06S184.33,90.54,184.38,90.57Z" transform="translate(-60.57 -65.19)"/><path class="cls-3" d="M185,89.92H185a.58.58,0,0,1-.23-.14c-.11,0-.14.08-.14.12l.33,0Z" transform="translate(-60.57 -65.19)"/><path class="cls-3" d="M185.34,89.91c-.05.11-.21.15-.12.27s.14-.09.26-.14c-.32,0,.09-.06-.14-.12l.17,0-.16,0h0s0,0,0,0h0v0c-.09,0,0,0,0,0v0h0l-.32.06A1.08,1.08,0,0,0,185.34,89.91Z" transform="translate(-60.57 -65.19)"/><path class="cls-3" d="M186.94,90.45a0,0,0,0,1,0,0S186.91,90.44,186.94,90.45Z" transform="translate(-60.57 -65.19)"/><path class="cls-3" d="M186.81,90.38s0-.06.12,0,0,.05,0,.09.16-.08,0-.13h0c-.13,0-.3-.17-.27-.19A.73.73,0,0,0,186.81,90.38Z" transform="translate(-60.57 -65.19)"/><path class="cls-3" d="M186.07,90.17l-.27.05.14.09v-.06C186.08,90.28,186,90.22,186.07,90.17Z" transform="translate(-60.57 -65.19)"/><polygon class="cls-3" points="124.06 24.64 124.09 24.53 123.94 24.68 124.06 24.64"/><polygon class="cls-3" points="123.71 24.65 123.72 24.55 123.63 24.61 123.71 24.65"/><path class="cls-3" d="M164.74,89.73l-.08,0Z" transform="translate(-60.57 -65.19)"/><path class="cls-3" d="M165.3,89.81l0,0S165.28,89.81,165.3,89.81Z" transform="translate(-60.57 -65.19)"/><path class="cls-3" d="M175.82,89.56c-.11-.1-.22-.25-.22-.14l0,.11A.28.28,0,0,1,175.82,89.56Z" transform="translate(-60.57 -65.19)"/><path class="cls-3" d="M170,89.75l0,0,.09-.1Z" transform="translate(-60.57 -65.19)"/><path class="cls-3" d="M169.86,90.18l-.14-.08A.55.55,0,0,0,169.86,90.18Z" transform="translate(-60.57 -65.19)"/><path class="cls-3" d="M161.65,89.43l-.11.1C161.69,89.54,161.63,89.48,161.65,89.43Z" transform="translate(-60.57 -65.19)"/><path class="cls-3" d="M180.75,89.81a.75.75,0,0,0-.24-.07C180.62,89.8,180.71,89.9,180.75,89.81Z" transform="translate(-60.57 -65.19)"/><path class="cls-3" d="M165.11,88.62s-.07,0-.07.06S165.11,88.65,165.11,88.62Z" transform="translate(-60.57 -65.19)"/><path class="cls-3" d="M180.22,89.73l.05,0a.68.68,0,0,1,.23,0A.24.24,0,0,0,180.22,89.73Z" transform="translate(-60.57 -65.19)"/><path class="cls-3" d="M150.63,87.73h0S150.61,87.73,150.63,87.73Z" transform="translate(-60.57 -65.19)"/><path class="cls-3" d="M147.36,86.69l.14,0A.3.3,0,0,0,147.36,86.69Z" transform="translate(-60.57 -65.19)"/><path class="cls-3" d="M182.89,89.78c.07,0,0,0,0,0Z" transform="translate(-60.57 -65.19)"/><path class="cls-3" d="M183.24,90.21a.07.07,0,0,0,0,.05A.09.09,0,0,1,183.24,90.21Z" transform="translate(-60.57 -65.19)"/><path class="cls-3" d="M179.47,90.38h0S179.48,90.39,179.47,90.38Z" transform="translate(-60.57 -65.19)"/><path class="cls-3" d="M183,89.83l-.09,0Z" transform="translate(-60.57 -65.19)"/><path class="cls-3" d="M183,89.78H183S183.05,89.76,183,89.78Z" transform="translate(-60.57 -65.19)"/><path class="cls-3" d="M182.79,89.78h.12l0,0Z" transform="translate(-60.57 -65.19)"/><path class="cls-3" d="M156.56,88.22h0C156.47,88.24,156.5,88.24,156.56,88.22Z" transform="translate(-60.57 -65.19)"/><polygon class="cls-3" points="113.28 25.36 113.29 25.35 113.28 25.35 113.28 25.36"/><path class="cls-3" d="M173.57,90.61c.12-.13.18-.1.27-.07l-.06-.32Z" transform="translate(-60.57 -65.19)"/><path class="cls-3" d="M163.39,89.59l.17.12c-.24.13-.4.05-.24.21.07-.33.72.06.79-.27l.11.09h-.08c.22.19.21-.22.5-.13.1,0,.17.1.09.13l.25-.05c.07,0,0,.07,0,.06l.36,0h0a1.51,1.51,0,0,1,.25-.14c.09.06-.05,0,0,.08l.21-.06c.07.1-.1.16-.24.13.15.36.18-.06.55.18l-.19,0c.1.21.25.15.45.3,0-.07-.39-.35-.16-.41a.27.27,0,0,0,.26,0c0,.12.1.1.25.11l0,.16c.16,0,.16-.11.26-.17s.19.16.22.27c.27.06-.17-.22.16-.21a1,1,0,0,0,.68,0c.15.07,0,.09,0,.15l.16-.11s0,0,0,.06,0-.16.22-.18.36.3.61.12c.05.05,0,.09,0,.16a1.84,1.84,0,0,0,.56-.22l.21.13c-.15-.14.07-.26.27-.35l-.13-.15.3-.06s0,.08-.06.14l.06,0c.1.07,0,.16,0,.24l-.1-.11a.45.45,0,0,0-.15.28l.1,0s0,0,0,.06,0,0,.09-.05l0,.18,0-.07.37.15a2.35,2.35,0,0,1,1-.43c-.12.12,0,.21-.06.36-.1-.17-.34,0-.57,0,.12,0,.08.1.05.12l.42-.11c0,.13.08.1.18.16-.06-.26.32-.14.49-.2,0,.08,0,.17-.24.13.21.21.31-.27.51-.09,0,0-.07,0-.1,0s.4,0,.32.08h0c.32.05,1,.08,1.06-.13a1.6,1.6,0,0,1-.08.29l.63-.67c-.06.18.1.63-.18.71a.42.42,0,0,0,.34,0c-.05,0-.11-.27,0-.28.18.22.13.12.36.31-.08,0,0-.32.16-.31s0,.28-.06.31l.33-.26c-.08,0,0,.24,0,.32s.27,0,.35,0l-.13-.07c.35.07.37-.37.72-.33,0,.06-.13.35,0,.4.09-.14.4-.67.71-.77l.05.09.24-.08a5.22,5.22,0,0,1-.84.81c.13.07,0,.1.23.1s-.11.11-.17.11l.46.08c0-.17.36-.15.35-.29l-.51.15c0-.17.32-.46.64-.41.08.07-.08.3-.07.35s.32-.09.34-.05l-.14.08c.18.07.31-.2.52,0,.07,0,.21.23.23.13a1.47,1.47,0,0,1,0-.93,2.48,2.48,0,0,1,.47.3c.12.16-.2.35-.1.48,0,0,.08-.1.11-.12s0,.14.13.13c0-.17.35,0,.09-.14.17,0,.18,0,.37,0-.06-.11.19-.37.36-.41a.19.19,0,0,0,0,.13c.34,0,.52.11.85.12,0,0,.18.1.11.17a.32.32,0,0,1,.19-.09c.19.15-.22,0-.08.2,0-.1.26-.13.4-.19,0-.15-.32,0-.47,0,0-.21.26-.42.6-.51s.11.14.16.11c.5,0,.44-.36.85-.2.16.14,0,.27,0,.37-.22,0-.33-.09-.48-.09l.18.07a.36.36,0,0,1-.29,0c.14.12.84,0,1.23.16.07,0,.19-.09.13-.14l-.12,0c-.11-.11.23-.14.08-.2a.83.83,0,0,1,.58-.13l0,.15s-.15-.09-.21,0c.1-.07.35.21.46,0l-.16-.11c.17-.08.37-.24.57-.18-.09-.15,0,0-.19-.16.12.22-.52,0-.32.22-.15-.21-.26-.09-.45-.27,0,.05.07.1-.1.07l0,0h0s0,0,0,0a.2.2,0,0,1,.09.08c-.09.11-.36.1-.45.16s0-.06,0-.11l-.14.09c0-.11-.27-.19,0-.25h-.21a.54.54,0,0,0-.41,0c-.1,0-.26.12-.17,0l-.34.06v0c-.33,0-.69.16-1.06-.05a.88.88,0,0,1-.42,0l0-.1c-.15,0-.43-.11-.49,0-.14-.27-.69-.09-.95-.15l0,.13a2.05,2.05,0,0,0-.56.06v.11c-.19.08-.48-.11-.77-.11,0,0,.1,0,.15,0-.34-.27-.75.14-1.06-.06a.19.19,0,0,1-.19,0h0l-.11-.07.09.07a1.05,1.05,0,0,0-.25,0l0-.12h0c-.09-.05-.08.05,0,.15l-.13.06c-.06-.2-.24,0-.33-.16-.07.1-.46,0-.53.25,0,0,0,0,0,0a.36.36,0,0,0-.3,0l0-.16-.24.19c-.13-.1-.18-.16,0-.27-.34.16-.27,0-.56.21l0-.1c-.1,0-.27.12-.32,0-.21-.2-1.09-.11-1.63-.34.08.3-.25-.15-.29.07,0-.07-.1-.12,0-.17-.29,0-.42-.15-.64,0,0-.07.07-.1,0-.14s-.1.05-.12,0,0-.05.1-.08c-.29,0-.34.19-.38.39-.14-.11-.22-.1-.34,0,0-.07-.13-.15.06-.15-.1,0-.62-.16-.64,0,0,0-.14,0-.17,0a3.13,3.13,0,0,0-.48-.06l.06,0c-.11.18-.19,0-.38,0v0c-.4-.18-.19,0-.58-.16v.12c-.07.25-.35-.19-.6-.12l.08.08c-.14.07-.33-.39-.45-.44s0,0,.09,0c-.32-.19-.06.15-.32.16,0-.09.09-.21-.08-.24s-.53.21-.75,0c0,.07.09.14,0,.18s-.46-.3-.65-.12a.07.07,0,0,1,0-.06c-.15,0-.46,0-.56.13-.07-.43-.89.09-.84-.29l-.43,0,0,0a.5.5,0,0,0-.49.09c-.06,0,0-.06,0-.08a.81.81,0,0,0-.79,0l0-.13c-.1.06-.55-.27-1-.19a.08.08,0,0,1,.05,0c-.46.08-1-.5-1.23-.08l-.31.06c.37.1-.09.18.06.28-.15,0-.36-.2-.17-.19l0,0c.1-.22-.45-.16-.42-.32-.74-.11-1.43-.36-2.12-.49l0,.19-.24-.05c-.06-.05-.06-.16.11-.12-.07-.12-.3,0-.31.07-.32-.13.17-.19.07-.21h-.14l0,0c-.13.05-.15.13-.36.09s0-.12-.1-.14,0,0-.08,0l-.3-.07.1.16c-.15,0-.29-.05-.17.13-.16-.28-1.12-.27-1.24-.37a1.08,1.08,0,0,1-.62,0c.05,0,.07.2-.13.16.12-.32-.35-.19-.48-.45.13.17-.58,0-.38.22-.17,0,0-.13-.11-.22-.42.08-.88-.18-1.39-.17,0,0,.07.12,0,.17l-.25-.24c-.1,0-.11.25-.28.09,0,0,.06.1,0,.11-1-.27-2,.13-3-.19.14.07.05.09-.05.1.07,0,0,.11,0,.17l-.44-.13c-.06.17-.45.07-.47.23l.13,0c-.15.21.3.38.3.62.17-.24.53.26.81-.07.07,0-.05.08,0,.13.07-.11.17-.13.35-.1l0,0a4.8,4.8,0,0,1,1.27.11l0-.12a.42.42,0,0,1,.2.09c.14-.18-.34,0-.21-.21.16.24.85,0,.95.3.18,0,0-.14.14-.13l0,.08.05-.09a.2.2,0,0,1,.18.18s-.08,0-.12,0c.15.09.44,0,.5,0L151,87.7c.51,0,1.11.12,1.62,0l0-.06c.39-.06.29.1.71.1h0a.51.51,0,0,1,.31,0c-.11.05.18.15,0,.21.42-.05.21-.06.51-.22l0,.1a.38.38,0,0,1,.33-.1c-.18.05.11.16-.1.23.4.27.67-.1.82.22.24-.22-.35-.2-.23-.24-.08-.1.19-.16.32-.11s.18.36.53.42h-.07c.12.09.27,0,.41.09.12-.14.2,0,.26-.15h-.32c.19,0,.4-.22.67-.06a.5.5,0,0,1-.19.09c.08.07.17,0,.25.07s-.39,0-.61.09c.08.1.39-.08.26.12.19-.24.33.09.6-.07l0,.11a.42.42,0,0,1,.19,0l-.15.13c.21-.1.35.18.54.14-.38-.06-.06-.16-.21-.27.5-.08.22.35.76.38-.07,0-.26-.11-.14-.15a.71.71,0,0,1,.27.18c.35,0,0-.13.13-.18.1.16.18,0,.34-.05l0,.12c.39.14.15-.23.49-.08l-.18.14h.19l-.06.13a.57.57,0,0,1,.47,0c0-.09.06-.21.24-.19s-.09.1.17.12c-.07.07-.15.15-.24,0,0,0-.07.07-.09.1s.32.07.42.08a.23.23,0,0,1-.09,0l.39-.11c.05.05,0,.08-.05.11s.14,0,.24,0c0,.09-.05.19-.21.22l.36-.05s.16.14.11.17c.18.09.5-.12.74,0a.16.16,0,0,1,.1,0c.24.06.43.21.74.11l.14.2c.23,0-.19-.25.19-.26s.08.16.16.22.39-.22.62,0C163.52,89.62,163.46,89.58,163.39,89.59Zm2.76.27c-.06,0-.17.08-.2,0S166.06,89.81,166.15,89.86Zm4.22.16s-.1,0-.17,0A.27.27,0,0,1,170.37,90Zm11.72-.16h0C182,89.81,182,89.83,182.09,89.86Zm.25.06s0,0,0-.05-.07,0-.14,0S182.26,89.94,182.33,89.91Zm-26.41-2.63,0,0C155.85,87.34,155.89,87.32,155.92,87.29Z" transform="translate(-60.57 -65.19)"/><path class="cls-3" d="M169.88,90.13a.14.14,0,0,1,0-.07S169.84,90.11,169.88,90.13Z" transform="translate(-60.57 -65.19)"/><path class="cls-3" d="M161.67,89.41h0v0Z" transform="translate(-60.57 -65.19)"/><path class="cls-3" d="M178.46,90.81a.21.21,0,0,1-.1-.07S178.38,90.8,178.46,90.81Z" transform="translate(-60.57 -65.19)"/><path class="cls-3" d="M183.65,89.73l-.16,0a.21.21,0,0,1,.14,0S183.6,89.73,183.65,89.73Z" transform="translate(-60.57 -65.19)"/><path class="cls-3" d="M185,90.49l.07,0v-.06C185,90.43,184.91,90.47,185,90.49Z" transform="translate(-60.57 -65.19)"/><path class="cls-3" d="M183.79,90.14c0,.1.11.07.22.05h0C184,90,183.91,90.09,183.79,90.14Z" transform="translate(-60.57 -65.19)"/><path class="cls-3" d="M184,90.18h.1C184.15,90.13,184.1,90.17,184,90.18Z" transform="translate(-60.57 -65.19)"/><path class="cls-3" d="M182.65,89.85c.05,0,0-.13.06-.09C182.78,89.64,182.36,89.92,182.65,89.85Z" transform="translate(-60.57 -65.19)"/><polygon class="cls-3" points="123.31 25.28 123.27 25.15 123.21 25.25 123.31 25.28"/><path class="cls-3" d="M183,90.37l.18,0s0,0,0,0S183,90.33,183,90.37Z" transform="translate(-60.57 -65.19)"/><path class="cls-3" d="M183.22,90.36a.27.27,0,0,0,.14,0Z" transform="translate(-60.57 -65.19)"/><polygon class="cls-3" points="123.07 25.31 123.01 25.29 122.89 25.27 123.07 25.31"/><path class="cls-3" d="M181.09,90.3l-.19,0s0,.07.1.06S181.12,90.34,181.09,90.3Z" transform="translate(-60.57 -65.19)"/><path class="cls-3" d="M181.67,90.66c-.05,0-.05-.06-.08-.1v.16Z" transform="translate(-60.57 -65.19)"/><path class="cls-3" d="M181.1,90.68s-.29.11,0,.11C181.08,90.75,181.28,90.72,181.1,90.68Z" transform="translate(-60.57 -65.19)"/><polygon class="cls-3" points="117.61 25.18 117.66 25.18 117.67 24.92 117.61 25.18"/><path class="cls-3" d="M175.57,90.84c.23.08.06-.15.27-.06s-.17-.07-.11-.12C175.58,90.71,175.51,90.67,175.57,90.84Z" transform="translate(-60.57 -65.19)"/><path class="cls-3" d="M175.73,90.65l.07,0Z" transform="translate(-60.57 -65.19)"/><polygon class="cls-3" points="86.22 21.42 86.06 21.39 86.17 21.46 86.22 21.42"/><path class="cls-3" d="M146.52,86.84l-.06-.16-.07.16S146.49,86.81,146.52,86.84Z" transform="translate(-60.57 -65.19)"/><path class="cls-3" d="M166.52,90.23l0,0s-.05-.05-.12-.07Z" transform="translate(-60.57 -65.19)"/><polygon class="cls-3" points="103.97 24.67 104 24.68 103.96 24.53 103.97 24.67"/><path class="cls-3" d="M162.83,89.83c.07,0,.15,0,.22,0C162.9,89.84,162.84,89.64,162.83,89.83Z" transform="translate(-60.57 -65.19)"/><path class="cls-3" d="M193.61,113.16c.06,0,.06-.09.07-.1S193.61,113.19,193.61,113.16Z" transform="translate(-60.57 -65.19)"/><polygon class="cls-3" points="131.93 48 131.95 47.96 131.78 48.03 131.93 48"/><path class="cls-3" d="M191.49,113c.06.19.37,0,.54.14l0,0,.11-.13A2.28,2.28,0,0,1,191.49,113Z" transform="translate(-60.57 -65.19)"/><path class="cls-3" d="M191,112.51c0,.07-.13,0,.12,0l0,0Z" transform="translate(-60.57 -65.19)"/><path class="cls-3" d="M191.12,112.54c.11,0-.06-.07,0,0Z" transform="translate(-60.57 -65.19)"/><path class="cls-3" d="M190.63,112.49l.15,0s-.14-.08-.09-.1C190.53,112.36,190.56,112.4,190.63,112.49Z" transform="translate(-60.57 -65.19)"/><path class="cls-3" d="M190.47,112.59h.08S190.52,112.55,190.47,112.59Z" transform="translate(-60.57 -65.19)"/><path class="cls-3" d="M190.71,112.55l-.16,0s0,.09.07,0S190.64,112.58,190.71,112.55Z" transform="translate(-60.57 -65.19)"/><path class="cls-3" d="M190.79,112.59c.07.05.17.09,0,.13C191.08,112.75,191.06,112.62,190.79,112.59Z" transform="translate(-60.57 -65.19)"/><path class="cls-3" d="M191.4,113.17l.09.07.1,0C191.55,113.22,191.41,113.11,191.4,113.17Z" transform="translate(-60.57 -65.19)"/><path class="cls-3" d="M189.77,112.24s0,.11,0,.16l.11,0S189.77,112.3,189.77,112.24Z" transform="translate(-60.57 -65.19)"/><path class="cls-3" d="M189.8,112.4l-.17,0C189.77,112.47,189.8,112.44,189.8,112.4Z" transform="translate(-60.57 -65.19)"/><polygon class="cls-3" points="129.84 47.59 130.12 47.5 129.79 47.58 129.84 47.59"/><polygon class="cls-3" points="128.62 46.94 128.72 46.86 128.54 46.97 128.62 46.94"/><path class="cls-3" d="M188.79,112.07c.08-.06-.07-.14,0-.17a.66.66,0,0,0-.3.08A.38.38,0,0,1,188.79,112.07Z" transform="translate(-60.57 -65.19)"/><path class="cls-3" d="M188.34,112l.15-.06A.42.42,0,0,0,188.34,112Z" transform="translate(-60.57 -65.19)"/><path class="cls-3" d="M189.38,112.37a.18.18,0,0,0-.1-.13l0,.12Z" transform="translate(-60.57 -65.19)"/><path class="cls-3" d="M189.32,112.36h0l-.13,0Z" transform="translate(-60.57 -65.19)"/><path class="cls-3" d="M189.39,112.37h0S189.38,112.38,189.39,112.37Z" transform="translate(-60.57 -65.19)"/><path class="cls-3" d="M190,112.61c-.1,0-.3.07-.14.19C190,112.75,189.87,112.68,190,112.61Z" transform="translate(-60.57 -65.19)"/><path class="cls-3" d="M189.44,112.52l.16.05s0-.07,0-.1Z" transform="translate(-60.57 -65.19)"/><polygon class="cls-3" points="128.79 47.34 128.88 47.32 128.82 47.3 128.79 47.34"/><path class="cls-3" d="M188.6,112.19a.49.49,0,0,1-.25,0,1.34,1.34,0,0,0,.28.08S188.71,112.2,188.6,112.19Z" transform="translate(-60.57 -65.19)"/><path class="cls-3" d="M188.95,112.28h0S188.95,112.3,188.95,112.28Z" transform="translate(-60.57 -65.19)"/><polygon class="cls-3" points="126.93 46.87 126.94 46.89 126.95 46.87 126.93 46.87"/><path class="cls-3" d="M188.65,112.31a.15.15,0,0,0,.16,0h-.17S188.63,112.31,188.65,112.31Z" transform="translate(-60.57 -65.19)"/><path class="cls-3" d="M188.09,112l.11.08S188.11,112,188.09,112Z" transform="translate(-60.57 -65.19)"/><path class="cls-3" d="M188.91,112.25h0S188.91,112.23,188.91,112.25Z" transform="translate(-60.57 -65.19)"/><path class="cls-3" d="M188.91,112.25l-.1,0h.12Z" transform="translate(-60.57 -65.19)"/><path class="cls-3" d="M187.12,112.69c0-.1.23-.16.37,0,.17,0,.12-.39,0-.59,0,0,0,.08-.19.11,0,.06.34.18.19.25s-.17-.06-.27-.13c.07.14-.3.13-.29.32l.2,0S187.07,112.66,187.12,112.69Z" transform="translate(-60.57 -65.19)"/><path class="cls-3" d="M187.81,112.14h.07a.6.6,0,0,1-.21-.17c-.12,0-.15.06-.16.09l.33.07Z" transform="translate(-60.57 -65.19)"/><path class="cls-3" d="M188.18,112.19c-.07.1-.24.12-.16.25s.15-.06.28-.09c-.32,0,.1,0-.12-.14h.18l-.16-.08h0s0,0,0,0h0l0,0c-.09,0,0,0,0,0v0h-.33A1.13,1.13,0,0,0,188.18,112.19Z" transform="translate(-60.57 -65.19)"/><path class="cls-3" d="M189.68,113a0,0,0,0,1,0,0S189.64,113,189.68,113Z" transform="translate(-60.57 -65.19)"/><path class="cls-3" d="M189.56,112.92a.13.13,0,0,1,.13,0c.06,0,0,.05,0,.09s.17,0,0-.12h0c-.12-.06-.26-.22-.24-.23A.74.74,0,0,0,189.56,112.92Z" transform="translate(-60.57 -65.19)"/><path class="cls-3" d="M188.86,112.58h-.27l.12.12v-.06C188.85,112.69,188.83,112.62,188.86,112.58Z" transform="translate(-60.57 -65.19)"/><polygon class="cls-3" points="126.91 46.81 126.96 46.7 126.78 46.83 126.91 46.81"/><polygon class="cls-3" points="126.56 46.76 126.59 46.67 126.49 46.71 126.56 46.76"/><path class="cls-3" d="M167.53,110.81l-.08,0Z" transform="translate(-60.57 -65.19)"/><path class="cls-3" d="M168.1,110.86l0,0S168.07,110.86,168.1,110.86Z" transform="translate(-60.57 -65.19)"/><path class="cls-3" d="M178.66,110.72c-.1-.11-.21-.26-.21-.15l0,.11A.29.29,0,0,1,178.66,110.72Z" transform="translate(-60.57 -65.19)"/><path class="cls-3" d="M172.78,110.71l0,0,.09-.1Z" transform="translate(-60.57 -65.19)"/><path class="cls-3" d="M172.66,111.15l-.14-.08A.55.55,0,0,0,172.66,111.15Z" transform="translate(-60.57 -65.19)"/><path class="cls-3" d="M164.44,110.72l-.1.1C164.48,110.83,164.42,110.77,164.44,110.72Z" transform="translate(-60.57 -65.19)"/><path class="cls-3" d="M183.6,111.44a.77.77,0,0,0-.23-.1C183.47,111.42,183.55,111.52,183.6,111.44Z" transform="translate(-60.57 -65.19)"/><path class="cls-3" d="M167.84,109.68s-.07,0-.07.06S167.85,109.71,167.84,109.68Z" transform="translate(-60.57 -65.19)"/><path class="cls-3" d="M183.08,111.29l0,0a.69.69,0,0,1,.23,0A.25.25,0,0,0,183.08,111.29Z" transform="translate(-60.57 -65.19)"/><path class="cls-3" d="M153.22,110.22h0S153.21,110.22,153.22,110.22Z" transform="translate(-60.57 -65.19)"/><path class="cls-3" d="M149.95,109.11h.13A.29.29,0,0,0,149.95,109.11Z" transform="translate(-60.57 -65.19)"/><path class="cls-3" d="M185.75,111.68c.07,0,0,0,0,0Z" transform="translate(-60.57 -65.19)"/><path class="cls-3" d="M186,112.16a.07.07,0,0,0,0,0A.09.09,0,0,1,186,112.16Z" transform="translate(-60.57 -65.19)"/><path class="cls-3" d="M182.26,111.85h0S182.27,111.87,182.26,111.85Z" transform="translate(-60.57 -65.19)"/><path class="cls-3" d="M185.85,111.75l-.09,0Z" transform="translate(-60.57 -65.19)"/><path class="cls-3" d="M185.85,111.7l.06,0S185.92,111.69,185.85,111.7Z" transform="translate(-60.57 -65.19)"/><path class="cls-3" d="M185.65,111.67l.12,0v0Z" transform="translate(-60.57 -65.19)"/><path class="cls-3" d="M159.25,110.08h0C159.16,110.11,159.19,110.1,159.25,110.08Z" transform="translate(-60.57 -65.19)"/><polygon class="cls-3" points="116.06 46.41 116.07 46.41 116.06 46.4 116.06 46.41"/><path class="cls-3" d="M176.35,111.66c.13-.12.19-.1.27-.06l-.05-.32Z" transform="translate(-60.57 -65.19)"/><path class="cls-3" d="M166.18,110.74l.18.11c-.23.14-.39.08-.23.23,0-.34.72,0,.77-.32l.12.08h-.08c.22.18.19-.23.5-.16.1,0,.17.09.1.12l.24-.07c.07,0,0,.07,0,.06h.36a1.5,1.5,0,0,1,.24-.15c.09.06,0,0,0,.08l.21-.07c.07.09-.1.17-.24.14.16.35.17-.07.56.16l-.19,0c.11.2.26.15.46.28,0-.07-.4-.34-.18-.4a.27.27,0,0,0,.26,0c0,.12.11.1.25.11l0,.16c.16,0,.15-.11.25-.18s.2.16.23.26c.27,0-.17-.21.16-.22a1,1,0,0,0,.67,0c.16.07,0,.09,0,.15l.15-.11s0,0,0,.06,0-.16.22-.19.36.29.62.12c.05.05,0,.09,0,.16a1.84,1.84,0,0,0,.56-.22l.21.13c-.15-.14.07-.26.27-.35l-.13-.15.3-.06s0,.08-.06.14l.06,0c.1.07,0,.16,0,.24l-.1-.11a.45.45,0,0,0-.16.28l.1,0s0,0,0,.06,0,0,.09-.05l0,.18,0-.07.37.15a2.31,2.31,0,0,1,1-.42c-.12.12,0,.21-.07.36-.1-.18-.35,0-.57,0,.12,0,.08.1,0,.12l.42-.11c0,.12.08.1.18.17-.05-.26.32-.13.49-.19,0,.08,0,.17-.25.12.2.21.32-.26.52-.08,0,0-.07,0-.1,0s.4,0,.32.09h0c.32.07,1,.11,1.06-.09a1.62,1.62,0,0,1-.1.29l.66-.65c-.07.18.07.63-.21.7a.44.44,0,0,0,.34,0s-.1-.28,0-.29c.17.23.12.13.35.33-.07,0,0-.32.17-.3s0,.28-.07.31l.34-.24c-.08,0,0,.23,0,.32s.27,0,.35,0l-.12-.08c.34.09.4-.35.74-.29,0,.05-.15.34,0,.4.1-.13.45-.64.77-.71l0,.09.25-.06a5.49,5.49,0,0,1-.9.74c.12.08,0,.1.22.12s-.12.1-.18.1l.45.11c0-.17.37-.12.37-.26l-.52.11c0-.17.35-.44.67-.36.07.08-.1.29-.1.34s.32-.07.35,0l-.15.07c.17.09.32-.18.52,0,.07,0,.19.25.22.15a1.47,1.47,0,0,1,.06-.93,2.48,2.48,0,0,1,.44.34c.1.17-.23.33-.15.47,0,0,.09-.09.12-.11s-.05.14.12.14c.05-.16.34.06.1-.13.17,0,.17.06.37.08,0-.12.23-.35.4-.37a.19.19,0,0,0,0,.13c.34.06.51.17.83.22,0,0,.17.12.09.18a.32.32,0,0,1,.2-.06c.17.17-.22,0-.1.19,0-.1.27-.1.42-.14,0-.16-.32-.08-.47,0,0-.21.31-.39.65-.44s.09.15.14.13c.49.11.48-.3.87-.09.14.16,0,.27,0,.37-.22,0-.32-.13-.46-.15l.17.09a.36.36,0,0,1-.3,0c.12.14.84.15,1.2.32.08,0,.2-.06.15-.12h-.12c-.09-.13.25-.11.11-.19a.82.82,0,0,1,.6,0l0,.16s-.13-.11-.21-.08c.11-.05.32.26.45.08l-.14-.13c.18,0,.4-.18.6-.09-.07-.16,0,0-.17-.19.09.24-.52-.1-.35.17-.11-.23-.24-.13-.41-.33,0,.05.05.11-.11.05l0,0h0s0,0,0,0a.2.2,0,0,1,.07.09c-.1.1-.37.05-.47.1s.05-.05,0-.11l-.15.07c0-.11-.24-.23,0-.25l-.21,0a.55.55,0,0,0-.4-.1c-.1,0-.28.08-.17,0l-.35,0v0c-.33-.06-.71.08-1.06-.18a.9.9,0,0,1-.42,0l0-.1c-.15,0-.42-.16-.5-.07-.12-.28-.69-.15-.94-.23l0,.12a2.09,2.09,0,0,0-.57,0v.11c-.2.07-.47-.15-.77-.18,0,0,.1,0,.15,0-.32-.3-.77.09-1.07-.14a.2.2,0,0,1-.19,0h0l-.1-.07.09.07a1.05,1.05,0,0,0-.25,0l0-.12h0c-.08-.06-.08,0,0,.14l-.13.06c0-.2-.25,0-.32-.18-.07.09-.47,0-.54.22,0,0,0,0,0,0a.37.37,0,0,0-.3,0l0-.16-.25.18c-.12-.11-.17-.17,0-.27-.35.14-.27,0-.57.19l0-.1c-.1,0-.27.11-.32,0s-1.09-.15-1.64-.39c.08.3-.25-.16-.3.06,0-.07-.1-.12,0-.17-.3,0-.42-.15-.64,0,0-.07.07-.09,0-.14s-.1.05-.12,0,0-.05.1-.08c-.3,0-.35.19-.39.39-.14-.11-.22-.1-.34,0,0-.07-.13-.15.06-.15-.1,0-.62-.16-.65,0,0,0-.14,0-.17,0a3.17,3.17,0,0,0-.48-.06l.06,0c-.11.18-.19,0-.38,0v0c-.41-.18-.19.05-.59-.14v.12c-.06.25-.35-.18-.61-.11l.08.08c-.14.08-.34-.38-.47-.43s0,0,.09,0c-.33-.18-.06.15-.32.17,0-.09.08-.21-.09-.24s-.53.23-.75,0c0,.07.09.14,0,.18s-.48-.28-.66-.09a.07.07,0,0,1,0-.05c-.14,0-.46.05-.56.16-.1-.42-.89.14-.86-.25h-.43v0a.51.51,0,0,0-.48.13c-.06,0,0-.06,0-.08a.82.82,0,0,0-.79.08l0-.13c-.1.07-.57-.23-1-.11a.08.08,0,0,1,0-.05c-.45.12-1.05-.41-1.24,0l-.3.1c.38.05-.07.19.09.28-.15,0-.38-.15-.2-.17l0,0c.08-.23-.47-.11-.45-.27-.75,0-1.48-.19-2.18-.23l.07.19-.25,0c-.06,0-.08-.15.09-.13-.09-.11-.3.08-.3.12-.34-.09.14-.21,0-.22h-.14l0,0c-.12.07-.13.15-.34.13s-.06-.12-.12-.12,0,0-.08,0l-.31,0,.12.15c-.14.07-.29,0-.15.15-.2-.26-1.15-.13-1.28-.21a1.08,1.08,0,0,1-.62.08c.06,0,.09.19-.11.17.08-.33-.37-.15-.53-.4.14.16-.58,0-.35.26-.17,0,0-.13-.13-.21-.4.12-.89-.1-1.38-.06,0,0,.07.11,0,.18l-.26-.22c-.1,0-.09.25-.27.1,0,0,.06.09,0,.11-1-.23-2,.16-3-.24.13.08,0,.09-.06.1.07,0,0,.11,0,.17l-.42-.16c-.07.17-.44,0-.49.17l.13,0c-.17.19.25.41.22.65.19-.21.51.31.83,0,.07,0-.06.08,0,.13.08-.1.18-.12.36-.08l0,0a6.41,6.41,0,0,1,1.3.14l0-.12a.44.44,0,0,1,.21.08c.14-.18-.35,0-.22-.21.16.24.87,0,1,.29.19,0-.05-.14.13-.13l0,.07,0-.09a.21.21,0,0,1,.19.17s-.09,0-.12,0c.16.09.45,0,.51,0l-.18,0a12.49,12.49,0,0,0,1.65-.1l0-.06c.38-.09.3.07.72,0h0a.51.51,0,0,1,.31-.07c-.11.06.2.13.06.2.42-.1.21-.08.48-.28l.06.09a.39.39,0,0,1,.31-.14c-.17.08.13.14-.07.25.43.21.66-.19.85.12.21-.25-.37-.16-.26-.21-.09-.09.17-.19.31-.15s.23.34.58.34h-.07c.13.07.26-.08.42,0,.1-.15.21,0,.24-.18l-.32,0c.18,0,.37-.27.66-.15a.5.5,0,0,1-.18.12c.09.06.17,0,.26,0s-.39,0-.6.17c.09.09.38-.13.27.08.15-.27.34,0,.59-.15l0,.12a.42.42,0,0,1,.19-.06l-.13.15c.2-.12.37.13.55.07-.39,0-.08-.15-.24-.24.48-.14.26.32.8.29-.07,0-.27-.08-.15-.13a.71.71,0,0,1,.29.15c.35,0,0-.12.11-.19.11.15.18-.05.33-.09v.12c.4.1.12-.25.48-.13l-.16.16.19,0,0,.14a.56.56,0,0,1,.47,0c0-.09,0-.22.22-.21s-.07.11.18.11c-.06.07-.13.16-.23,0,0,0-.06.07-.07.11s.33,0,.42,0a.22.22,0,0,1-.1,0l.38-.15c.06,0,0,.08,0,.12s.13-.06.24-.06,0,.2-.19.23l.36-.09s.17.13.12.16c.19.07.49-.16.74-.07a.16.16,0,0,1,.1,0c.24,0,.45.17.74.05l.15.19c.23,0-.21-.23.17-.28s.09.16.18.21.38-.24.61-.08C166.31,110.77,166.25,110.74,166.18,110.74Zm2.77.13c-.06,0-.17.09-.2,0S168.86,110.83,168.94,110.88Zm4.22.1s-.1,0-.17,0A.27.27,0,0,1,173.16,111Zm11.77.67h0C184.82,111.59,184.86,111.62,184.94,111.65Zm.24.09s0,0,0,0-.08,0-.14,0S185.1,111.76,185.18,111.74Zm-26.69-2.51,0,0C158.43,109.3,158.46,109.27,158.49,109.24Z" transform="translate(-60.57 -65.19)"/><path class="cls-3" d="M172.67,111.09a.14.14,0,0,1,0-.07S172.63,111.07,172.67,111.09Z" transform="translate(-60.57 -65.19)"/><path class="cls-3" d="M164.45,110.7h0v0Z" transform="translate(-60.57 -65.19)"/><path class="cls-3" d="M181.21,112.19a.21.21,0,0,1-.09-.08S181.13,112.17,181.21,112.19Z" transform="translate(-60.57 -65.19)"/><path class="cls-3" d="M186.52,111.75h-.16a.22.22,0,0,1,.14.06S186.47,111.75,186.52,111.75Z" transform="translate(-60.57 -65.19)"/><path class="cls-3" d="M187.76,112.72h.07v-.06C187.74,112.64,187.66,112.68,187.76,112.72Z" transform="translate(-60.57 -65.19)"/><path class="cls-3" d="M186.6,112.17c0,.1.1.08.21.08h0C186.85,112.12,186.72,112.15,186.6,112.17Z" transform="translate(-60.57 -65.19)"/><path class="cls-3" d="M186.84,112.26h.1C187,112.22,186.9,112.25,186.84,112.26Z" transform="translate(-60.57 -65.19)"/><path class="cls-3" d="M185.5,111.72s.05-.12.08-.08C185.66,111.53,185.2,111.74,185.5,111.72Z" transform="translate(-60.57 -65.19)"/><polygon class="cls-3" points="126.07 47.32 126.05 47.19 125.97 47.28 126.07 47.32"/><path class="cls-3" d="M185.78,112.28l.17.06s0,0,.05,0S185.78,112.25,185.78,112.28Z" transform="translate(-60.57 -65.19)"/><path class="cls-3" d="M186,112.31a.27.27,0,0,0,.15,0Z" transform="translate(-60.57 -65.19)"/><polygon class="cls-3" points="125.82 47.32 125.77 47.29 125.65 47.26 125.82 47.32"/><path class="cls-3" d="M183.88,112h-.2s0,.07.1.07S183.9,112,183.88,112Z" transform="translate(-60.57 -65.19)"/><path class="cls-3" d="M184.41,112.39s0-.06-.07-.11l0,.15Z" transform="translate(-60.57 -65.19)"/><path class="cls-3" d="M183.84,112.34s-.3.08-.05.11C183.82,112.41,184,112.4,183.84,112.34Z" transform="translate(-60.57 -65.19)"/><polygon class="cls-3" points="120.4 46.53 120.45 46.54 120.48 46.28 120.4 46.53"/><path class="cls-3" d="M178.33,112c.22.09.07-.15.27,0,.06-.05-.16-.08-.1-.13C178.35,111.86,178.28,111.82,178.33,112Z" transform="translate(-60.57 -65.19)"/><path class="cls-3" d="M178.5,111.81l.08,0Z" transform="translate(-60.57 -65.19)"/><polygon class="cls-3" points="88.84 43.79 88.69 43.73 88.78 43.82 88.84 43.79"/><path class="cls-3" d="M149.12,109.17l0-.16-.09.15S149.09,109.13,149.12,109.17Z" transform="translate(-60.57 -65.19)"/><path class="cls-3" d="M169.33,111.24v0s-.05-.05-.12-.06Z" transform="translate(-60.57 -65.19)"/><polygon class="cls-3" points="106.77 45.77 106.8 45.77 106.75 45.62 106.77 45.77"/><path class="cls-3" d="M165.64,111c.07,0,.15,0,.22,0C165.71,111,165.63,110.84,165.64,111Z" transform="translate(-60.57 -65.19)"/><path class="cls-4" d="M105.35,80.88l4.93-7.82a17.41,17.41,0,0,1,2.43-3.56c1.8-1.66,4.18-1.27,6.31-1.05l-.82-1a22.77,22.77,0,0,1-12.58,10.79l1.4,1.14,4.68-5.57c1.45-1.73,2.91-4,5.06-4.9l-1.78-1a24.73,24.73,0,0,0-6.2,7.76c-.71,1.38,2,1,2.55.4l6.24-6.57c1.2-1.27-1.61-1.42-2.36-.63L109,75.43l2.55.4a23.27,23.27,0,0,1,5.84-7.3c1.25-1-1.15-1.28-1.78-1-4.6,1.94-7.79,7.54-10.91,11.25-.82,1,.59,1.42,1.4,1.14a26.36,26.36,0,0,0,14.86-12.29c.34-.62-.29-.94-.82-1-3.27-.33-6.82-.4-9.42,2a22.23,22.23,0,0,0-3.46,4.84l-4.6,7.3c-.77,1.23,2.15,1.08,2.73.17Z" transform="translate(-60.57 -65.19)"/></svg>