<svg id="Layer_1" data-name="Layer 1" xmlns="http://www.w3.org/2000/svg" viewBox="0 0 186.85 34.48">
    <defs>
        <style>
            .cls-1 {
                fill: #2c3e50;
            }
        </style>
    </defs>
    <title>logo</title><path
        class="cls-1"
        d="M45.12,39.49H40.39V31.25l-1.09.59-1.13.54a5.37,5.37,0,0,1-1.18.35,5.27,5.27,0,0,1-1.23.15,10,10,0,0,1-3.65-.69,9.3,9.3,0,0,1-5-5.08,10.22,10.22,0,0,1-.74-3.95,10.22,10.22,0,0,1,.74-3.95,9.45,9.45,0,0,1,2-3.06,9.11,9.11,0,0,1,3-2,10,10,0,0,1,3.65-.69,7.34,7.34,0,0,1,1.78.25,9.65,9.65,0,0,1,1.68.59,7.4,7.4,0,0,1,1.58.94,16,16,0,0,1,1.43,1.13L44,14.23h1.13V39.49h0ZM40.39,23.11A4.86,4.86,0,0,0,40,21.24a5.7,5.7,0,0,0-1-1.58,6.56,6.56,0,0,0-1.48-1.13,3.84,3.84,0,0,0-1.83-.44,4.62,4.62,0,0,0-1.83.35,6,6,0,0,0-1.48,1,5.06,5.06,0,0,0-1,1.58,5.37,5.37,0,0,0-.35,2.07,5.8,5.8,0,0,0,.35,2.12,5.06,5.06,0,0,0,1,1.58,3.9,3.9,0,0,0,1.48,1,4.46,4.46,0,0,0,1.83.35,4,4,0,0,0,1.83-.44,5.39,5.39,0,0,0,1.48-1.13,4.75,4.75,0,0,0,1-1.58A4.46,4.46,0,0,0,40.39,23.11Z"
        transform="translate(-5.61 -5.01)"/><path
        class="cls-1"
        d="M62.19,30.31c-0.39.35-.79,0.64-1.23,1s-0.89.54-1.33,0.79a8.47,8.47,0,0,1-1.43.54,5.2,5.2,0,0,1-1.53.2,8.62,8.62,0,0,1-3.21-.59,7.79,7.79,0,0,1-2.61-1.73,8.1,8.1,0,0,1-1.78-2.71,8.94,8.94,0,0,1-.64-3.55V14.09h4.69V24.25a4.42,4.42,0,0,0,.3,1.68,4.31,4.31,0,0,0,.74,1.23,2.53,2.53,0,0,0,1.13.74,4.28,4.28,0,0,0,1.38.25A2.74,2.74,0,0,0,58,27.8a3.93,3.93,0,0,0,1.13-.89,3.18,3.18,0,0,0,.74-1.23,3.54,3.54,0,0,0,.3-1.43V14.09H64.9V32.44H63.77Z"
        transform="translate(-5.61 -5.01)"/><path
        class="cls-1"
        d="M86.21,32.49H85.08L83.25,30a16,16,0,0,1-1.43,1.13,9.94,9.94,0,0,1-1.58.89,11.35,11.35,0,0,1-1.68.59,7.34,7.34,0,0,1-1.78.25,10,10,0,0,1-3.65-.64,9.17,9.17,0,0,1-3-1.87,9,9,0,0,1-2-3.06,10.81,10.81,0,0,1-.74-4.09,10.22,10.22,0,0,1,.74-3.95,9.45,9.45,0,0,1,2-3.06,8.65,8.65,0,0,1,3-2,9.08,9.08,0,0,1,3.65-.69,7.34,7.34,0,0,1,1.78.25,6.93,6.93,0,0,1,1.68.64,10.23,10.23,0,0,1,1.58.94,10.59,10.59,0,0,1,1.38,1.13L85,14.28h1.13v18.2h0Zm-4.74-9.37a4.86,4.86,0,0,0-.35-1.87,5.7,5.7,0,0,0-1-1.58,6.56,6.56,0,0,0-1.48-1.13,3.84,3.84,0,0,0-1.83-.44,4.62,4.62,0,0,0-1.83.35,5,5,0,0,0-1.48.94,5.06,5.06,0,0,0-1,1.58,5.8,5.8,0,0,0-.35,2.12,5.63,5.63,0,0,0,.35,2.12,5.06,5.06,0,0,0,1,1.58A3.32,3.32,0,0,0,75,27.7a5.46,5.46,0,0,0,1.83.35,4,4,0,0,0,1.83-.44,5.23,5.23,0,0,0,2.47-2.71A4.08,4.08,0,0,0,81.48,23.11Z"
        transform="translate(-5.61 -5.01)"/><path
        class="cls-1"
        d="M95.73,32.49H91V18.77H88.78V14.09H91V13.2A7.76,7.76,0,0,1,91.69,10a8.75,8.75,0,0,1,1.78-2.61A8.34,8.34,0,0,1,99.28,5h3.5V9.7h-3.5a4,4,0,0,0-1.38.25,4.5,4.5,0,0,0-1.13.74A3.77,3.77,0,0,0,96,11.82a3.31,3.31,0,0,0-.3,1.38v0.89h5.72v4.69H95.73V32.49Z"
        transform="translate(-5.61 -5.01)"/><path
        class="cls-1"
        d="M121.09,23.11a9.9,9.9,0,0,1-.74,3.85,9.45,9.45,0,0,1-2,3.06,8.78,8.78,0,0,1-3,2,9.37,9.37,0,0,1-7.3,0,10.41,10.41,0,0,1-3-2A10,10,0,0,1,103,27a9.9,9.9,0,0,1-.74-3.85,10.33,10.33,0,0,1,.74-3.9,9,9,0,0,1,2-3.06,8.52,8.52,0,0,1,3-2,9.11,9.11,0,0,1,3.65-.74,10,10,0,0,1,3.65.69,8.66,8.66,0,0,1,3,2,9.45,9.45,0,0,1,2,3.06A10.66,10.66,0,0,1,121.09,23.11Zm-4.74,0A5.71,5.71,0,0,0,116,21a5.7,5.7,0,0,0-1-1.58,5,5,0,0,0-1.48-1,4.46,4.46,0,0,0-1.83-.35,4.62,4.62,0,0,0-1.83.35,5,5,0,0,0-1.48,1,5.7,5.7,0,0,0-1,1.58,5.37,5.37,0,0,0-.35,2.07,5.19,5.19,0,0,0,.35,2,5.7,5.7,0,0,0,1,1.58,4,4,0,0,0,1.48,1,4.49,4.49,0,0,0,1.83.39,4.62,4.62,0,0,0,1.83-.35,5,5,0,0,0,1.48-1,4.3,4.3,0,0,0,1-1.58A5.28,5.28,0,0,0,116.35,23.11Z"
        transform="translate(-5.61 -5.01)"/><path class="cls-1" d="M128.39,32.49H123.7V14.14h1.13l1.53,2.17a8.18,8.18,0,0,1,5.52-2.12H136v4.69h-4.14a3.31,3.31,0,0,0-1.38.3,4.5,4.5,0,0,0-1.13.74,3,3,0,0,0-.74,1.13,3.31,3.31,0,0,0-.3,1.38V32.49h0Z" transform="translate(-5.61 -5.01)"/><path
        class="cls-1"
        d="M153.94,17.79l-3.45,3.45a4,4,0,0,0-.69-1.28,6.22,6.22,0,0,0-1-1,5.68,5.68,0,0,0-1.23-.59,4.15,4.15,0,0,0-1.33-.2,4.67,4.67,0,0,0-1.83.39,5.2,5.2,0,0,0-1.48,1.09,6.27,6.27,0,0,0-1,1.68,6.08,6.08,0,0,0-.35,2.17,4.62,4.62,0,0,0,.35,1.83,6,6,0,0,0,1,1.48,3.9,3.9,0,0,0,1.48,1,4.46,4.46,0,0,0,1.83.35,4.15,4.15,0,0,0,1.33-.2,4.34,4.34,0,0,0,1.18-.54,5.52,5.52,0,0,0,1-.84,3.34,3.34,0,0,0,.69-1.13l3.45,3.45a9.73,9.73,0,0,1-1.48,1.68,9.13,9.13,0,0,1-1.83,1.23,9.48,9.48,0,0,1-2.07.79,8.51,8.51,0,0,1-2.22.25,9.11,9.11,0,0,1-3.65-.74,9.42,9.42,0,0,1-3-2,9.56,9.56,0,0,1-2-3,9.11,9.11,0,0,1-.74-3.65,10.4,10.4,0,0,1,.74-3.95,10.73,10.73,0,0,1,2-3.21,10,10,0,0,1,3-2.17,8.38,8.38,0,0,1,3.65-.79,8.68,8.68,0,0,1,2.27.3,11.16,11.16,0,0,1,2.12.84,10.2,10.2,0,0,1,1.87,1.38A9.22,9.22,0,0,1,153.94,17.79Z"
        transform="translate(-5.61 -5.01)"/><path
        class="cls-1"
        d="M186.64,32.93h-10.7c0-1.58-.1-3.21-0.1-4.78l10.8,0.15a1.16,1.16,0,0,0,.84-0.35,1.08,1.08,0,0,0,.35-0.84,0.59,0.59,0,0,0-.35-0.64,2.13,2.13,0,0,0-.84-0.15h-4.88a5.82,5.82,0,0,1-2.27-.44,6,6,0,0,1-1.87-1.28,5.39,5.39,0,0,1-1.23-1.87,6,6,0,0,1,0-4.54,6.86,6.86,0,0,1,1.23-1.87,5.39,5.39,0,0,1,1.87-1.23,5.82,5.82,0,0,1,2.27-.44l9.27,0.3c0.1,1.43.15,2.91,0.25,4.34h-9.52a1.19,1.19,0,0,0-.84,2,1.08,1.08,0,0,0,.84.35h4.88a6.85,6.85,0,0,1,2.27.39,5.62,5.62,0,0,1,1.87,1.13A4.82,4.82,0,0,1,192,24.89a5.57,5.57,0,0,1,.44,2.22,5.82,5.82,0,0,1-.44,2.27,6.86,6.86,0,0,1-1.23,1.87,5.39,5.39,0,0,1-1.87,1.23A7.13,7.13,0,0,1,186.64,32.93Z"
        transform="translate(-5.61 -5.01)"/><path
        class="cls-1"
        d="M24.41,32.44H23.27l-1.83-2.52A16,16,0,0,1,20,31.05a9.94,9.94,0,0,1-1.58.89,11.35,11.35,0,0,1-1.68.59,7.34,7.34,0,0,1-1.78.25,10,10,0,0,1-3.65-.64,9.17,9.17,0,0,1-3-1.87,9,9,0,0,1-2-3.06,10.81,10.81,0,0,1-.74-4.09,10.22,10.22,0,0,1,.74-3.95,9.45,9.45,0,0,1,2-3.06,8.65,8.65,0,0,1,3-2A9.08,9.08,0,0,1,15,13.45a7.34,7.34,0,0,1,1.78.25,6.93,6.93,0,0,1,1.68.64,10.23,10.23,0,0,1,1.58.94A10.59,10.59,0,0,1,21.4,16.4l1.83-2.17h1.13v18.2h0Zm-4.69-9.32a4.86,4.86,0,0,0-.35-1.87,5.7,5.7,0,0,0-1-1.58,6.56,6.56,0,0,0-1.48-1.13,3.84,3.84,0,0,0-1.83-.44,4.62,4.62,0,0,0-1.83.35,4.7,4.7,0,0,0-1.48.94,5.06,5.06,0,0,0-1,1.58,5.8,5.8,0,0,0-.35,2.12,5.63,5.63,0,0,0,.35,2.12,5.06,5.06,0,0,0,1,1.58,3.32,3.32,0,0,0,1.48.94,5.46,5.46,0,0,0,1.83.35,4,4,0,0,0,1.83-.44,5.23,5.23,0,0,0,2.47-2.71A5.17,5.17,0,0,0,19.72,23.11Z"
        transform="translate(-5.61 -5.01)"/><circle class="cls-1" cx="8.39" cy="17.12" r="2.42"/><path
        class="cls-1"
        d="M174.08,23a9.27,9.27,0,0,0-9.15-9.46,9.41,9.41,0,0,0-9.23,9.5,9.78,9.78,0,0,0,.12,1.54h0a9.09,9.09,0,0,0,.68,2.68,9.48,9.48,0,0,0,2,3,8.57,8.57,0,0,0,3,2,9,9,0,0,0,3.64.73,10.52,10.52,0,0,0,2.22-.25,9.51,9.51,0,0,0,2.07-.79,9.19,9.19,0,0,0,1.83-1.23,8.07,8.07,0,0,0,1.51-1.76l-3.43-3.44a8.76,8.76,0,0,1-.69,1.13,3.91,3.91,0,0,1-1,.84,5,5,0,0,1-.79.43l-0.12,0-0.32.09a4.77,4.77,0,0,1-1.28.15,5.66,5.66,0,0,1-1.82-.35,5.93,5.93,0,0,1-1.47-1,6,6,0,0,1-1-1.48,3.68,3.68,0,0,1-.24-0.77h13.34A9.81,9.81,0,0,0,174.08,23Zm-13.44-1.94c0-1.47,1.92-2.67,4.27-2.67s4.26,1.18,4.25,2.66Z"
        transform="translate(-5.61 -5.01)"/></svg>