<svg xmlns="http://www.w3.org/2000/svg" viewBox="0 0 158.87 30.52"><defs><style>.cls-1{fill:#3b3b3b;}</style></defs><title>the notso white logo</title><g id="Layer_1" data-name="Layer 1"><path class="cls-1" d="M46.23,34.78H42V27.47l-1,.51-1,.48a4.77,4.77,0,0,1-1,.32,4.68,4.68,0,0,1-1.09.13,8.88,8.88,0,0,1-3.24-.61,8.25,8.25,0,0,1-4.44-4.51,9.07,9.07,0,0,1-.66-3.51,9.07,9.07,0,0,1,.66-3.51A8.39,8.39,0,0,1,32,14.06a8.09,8.09,0,0,1,2.66-1.78,8.88,8.88,0,0,1,3.24-.61,6.52,6.52,0,0,1,1.58.22,8.57,8.57,0,0,1,1.49.52,6.57,6.57,0,0,1,1.4.83,14.2,14.2,0,0,1,1.27,1l1.56-1.9h1V34.78h0ZM42,20.24a4.31,4.31,0,0,0-.35-1.66,5.06,5.06,0,0,0-.89-1.4,5.82,5.82,0,0,0-1.31-1,3.41,3.41,0,0,0-1.62-.39,4.1,4.1,0,0,0-1.62.31,5.33,5.33,0,0,0-1.31.89,4.49,4.49,0,0,0-.89,1.4,4.77,4.77,0,0,0-.31,1.84A5.15,5.15,0,0,0,34,22.11a4.49,4.49,0,0,0,.89,1.4,3.46,3.46,0,0,0,1.31.89,4,4,0,0,0,1.62.31,3.55,3.55,0,0,0,1.62-.39,4.78,4.78,0,0,0,1.31-1,4.22,4.22,0,0,0,.89-1.4A4,4,0,0,0,42,20.24Z" transform="translate(-11.13 -4.26)"/><path class="cls-1" d="M61.39,26.63c-.35.31-.7.57-1.09.89a7.81,7.81,0,0,1-2.45,1.18,4.62,4.62,0,0,1-1.36.18,7.65,7.65,0,0,1-2.85-.52,6.91,6.91,0,0,1-2.32-1.54,7.19,7.19,0,0,1-1.58-2.39,7.94,7.94,0,0,1-.57-3.15V12.23h4.16v9a3.92,3.92,0,0,0,.27,1.49,3.83,3.83,0,0,0,.66,1.09,2.25,2.25,0,0,0,1,.66,3.8,3.8,0,0,0,1.22.22,2.43,2.43,0,0,0,1.18-.28,3.49,3.49,0,0,0,1-.79,2.82,2.82,0,0,0,.66-1.09,3.14,3.14,0,0,0,.27-1.27V12.23h4.2V28.51h-1Z" transform="translate(-11.13 -4.26)"/><path class="cls-1" d="M82.71,28.55h-1l-1.62-2.24a14.2,14.2,0,0,1-1.27,1,8.82,8.82,0,0,1-1.4.79,10.07,10.07,0,0,1-1.49.52,6.52,6.52,0,0,1-1.58.22,8.88,8.88,0,0,1-3.24-.57,8.14,8.14,0,0,1-2.66-1.66,8,8,0,0,1-1.78-2.72A9.6,9.6,0,0,1,66,20.28a9.07,9.07,0,0,1,.66-3.51,8.39,8.39,0,0,1,1.78-2.72,7.68,7.68,0,0,1,2.66-1.78,8.06,8.06,0,0,1,3.24-.61,6.52,6.52,0,0,1,1.58.22,6.15,6.15,0,0,1,1.49.57,9.08,9.08,0,0,1,1.4.83,9.4,9.4,0,0,1,1.22,1l1.6-1.9h1V28.55h.07ZM78.5,20.23a4.31,4.31,0,0,0-.31-1.66,5.06,5.06,0,0,0-.89-1.4,5.82,5.82,0,0,0-1.31-1,3.41,3.41,0,0,0-1.62-.39,4.1,4.1,0,0,0-1.62.31,4.44,4.44,0,0,0-1.31.83,4.49,4.49,0,0,0-.89,1.4,5.15,5.15,0,0,0-.31,1.88,5,5,0,0,0,.31,1.88,4.49,4.49,0,0,0,.89,1.4,3,3,0,0,0,1.31.83,4.85,4.85,0,0,0,1.62.31A3.55,3.55,0,0,0,76,24.24a4.64,4.64,0,0,0,2.19-2.41,3.62,3.62,0,0,0,.33-1.61Z" transform="translate(-11.13 -4.26)"/><path class="cls-1" d="M90.69,28.65H86.81V16.48H85V12.31h1.82v-.78a7.38,7.38,0,0,1,.52-2.85,7.82,7.82,0,0,1,1.46-2.32,6.38,6.38,0,0,1,2.14-1.54,6,6,0,0,1,2.63-.57h2.87V8.42H93.57a3.06,3.06,0,0,0-1.13.22,3.68,3.68,0,0,0-.93.66,3.39,3.39,0,0,0-.6,1,3.14,3.14,0,0,0-.25,1.22v.79h4.69V16.5H90.69Z" transform="translate(-11.13 -4.26)"/><path class="cls-1" d="M111.49,20.25a9.42,9.42,0,0,1-.61,3.42,8.48,8.48,0,0,1-1.64,2.72,7.38,7.38,0,0,1-8.45,1.78,8.52,8.52,0,0,1-2.46-1.78,9,9,0,0,1-1.64-2.72,9.42,9.42,0,0,1-.61-3.42,9.84,9.84,0,0,1,.61-3.46,8.08,8.08,0,0,1,1.64-2.72,7.51,7.51,0,0,1,5.45-2.43,7.65,7.65,0,0,1,3,.61A7.09,7.09,0,0,1,109.24,14a8.48,8.48,0,0,1,1.64,2.72A10.15,10.15,0,0,1,111.49,20.25Zm-3.89,0a5.45,5.45,0,0,0-.29-1.84,5.13,5.13,0,0,0-.82-1.4,4.1,4.1,0,0,0-1.21-.89,3.42,3.42,0,0,0-1.5-.31,3.54,3.54,0,0,0-1.5.31,4.1,4.1,0,0,0-1.21.89A4.68,4.68,0,0,0,100,20.25a5,5,0,0,0,.29,1.78,5.13,5.13,0,0,0,.82,1.4,3.28,3.28,0,0,0,1.21.89,3.45,3.45,0,0,0,1.5.35,3.54,3.54,0,0,0,1.5-.31,4.1,4.1,0,0,0,1.21-.89,3.87,3.87,0,0,0,.82-1.4A5,5,0,0,0,107.6,20.25Z" transform="translate(-11.13 -4.26)"/><path class="cls-1" d="M117.47,28.7h-3.85V12.41h.93l1.25,1.93a6.43,6.43,0,0,1,4.53-1.88h3.38v4.13h-3.4a2.54,2.54,0,0,0-1.13.27,3.68,3.68,0,0,0-.93.66,2.69,2.69,0,0,0-.61,1,3.14,3.14,0,0,0-.25,1.22v9h.07Z" transform="translate(-11.13 -4.26)"/><path class="cls-1" d="M138.43,15.55l-2.83,3.06a3.65,3.65,0,0,0-.57-1.14,5.33,5.33,0,0,0-.82-.89,4.51,4.51,0,0,0-1-.52,3.17,3.17,0,0,0-1.09-.18,3.58,3.58,0,0,0-1.5.35,4.3,4.3,0,0,0-1.21,1,5.68,5.68,0,0,0-.82,1.49,5.8,5.8,0,0,0-.29,1.93,4.38,4.38,0,0,0,.34,1.59,5.37,5.37,0,0,0,.82,1.31,3.2,3.2,0,0,0,1.21.89,3.42,3.42,0,0,0,1.5.31,3.17,3.17,0,0,0,1.09-.18,3.44,3.44,0,0,0,1-.48,4.64,4.64,0,0,0,.82-.75,3,3,0,0,0,.57-1l2.83,3.06a8.46,8.46,0,0,1-1.21,1.49A8.27,8.27,0,0,1,134,28.68a6.47,6.47,0,0,1-1.82.22,7,7,0,0,1-3-.66,7.71,7.71,0,0,1-2.46-1.78,8.57,8.57,0,0,1-1.64-2.66,8.66,8.66,0,0,1-.61-3.24,9.9,9.9,0,0,1,.61-3.51,9.68,9.68,0,0,1,1.64-2.85,8.26,8.26,0,0,1,2.46-1.93,6.44,6.44,0,0,1,3-.7,6.61,6.61,0,0,1,1.86.27,8.76,8.76,0,0,1,1.74.75,8.44,8.44,0,0,1,1.53,1.22A8.21,8.21,0,0,1,138.43,15.55Z" transform="translate(-11.13 -4.26)"/><path class="cls-1" d="M165.24,28.76h-8.78c0-1.4-.08-2.85-.08-4.24l8.86.13a.92.92,0,0,0,.69-.31,1,1,0,0,0,.29-.75.53.53,0,0,0-.29-.57,1.63,1.63,0,0,0-.69-.13h-4a4.46,4.46,0,0,1-1.86-.39,4.93,4.93,0,0,1-1.53-1.14,4.83,4.83,0,0,1-1-1.66,5.73,5.73,0,0,1,0-4,6.16,6.16,0,0,1,1-1.66,4.41,4.41,0,0,1,1.53-1.09,4.46,4.46,0,0,1,1.86-.39l7.6.27c.08,1.27.12,2.58.21,3.85h-7.81a1,1,0,0,0-.95,1.08,1.1,1.1,0,0,0,.26.69.85.85,0,0,0,.69.31h4a5.23,5.23,0,0,1,1.86.35,4.56,4.56,0,0,1,1.53,1,4.29,4.29,0,0,1,1,1.54,5.3,5.3,0,0,1,.36,2,5.54,5.54,0,0,1-.36,2,6.16,6.16,0,0,1-1,1.66,4.41,4.41,0,0,1-1.53,1.09A5.46,5.46,0,0,1,165.24,28.76Z" transform="translate(-11.13 -4.26)"/><path class="cls-1" d="M27.85,28.51h-1l-1.62-2.24a14.2,14.2,0,0,1-1.28,1,8.82,8.82,0,0,1-1.4.79A10.07,10.07,0,0,1,21,28.6a6.52,6.52,0,0,1-1.58.22,8.88,8.88,0,0,1-3.24-.57,8.14,8.14,0,0,1-2.66-1.66,8,8,0,0,1-1.78-2.72,9.6,9.6,0,0,1-.66-3.63,9.07,9.07,0,0,1,.66-3.51A8.39,8.39,0,0,1,13.56,14a7.68,7.68,0,0,1,2.66-1.78,8.06,8.06,0,0,1,3.28-.59,6.52,6.52,0,0,1,1.58.22,6.15,6.15,0,0,1,1.49.57,9.08,9.08,0,0,1,1.4.83,9.4,9.4,0,0,1,1.22,1l1.62-1.93h1V28.51h0Zm-4.16-8.27a4.31,4.31,0,0,0-.31-1.66,5.06,5.06,0,0,0-.89-1.4,5.82,5.82,0,0,0-1.31-1,3.41,3.41,0,0,0-1.62-.39,4.1,4.1,0,0,0-1.62.31,4.17,4.17,0,0,0-1.31.83,4.49,4.49,0,0,0-.89,1.4,5.15,5.15,0,0,0-.31,1.88,5,5,0,0,0,.31,1.88,4.49,4.49,0,0,0,.89,1.4,3,3,0,0,0,1.31.83,4.85,4.85,0,0,0,1.62.31,3.55,3.55,0,0,0,1.62-.39,4.64,4.64,0,0,0,2.19-2.41A4.59,4.59,0,0,0,23.69,20.24Z" transform="translate(-11.13 -4.26)"/><circle class="cls-1" cx="7.48" cy="15.11" r="2.15"/><path class="cls-1" d="M150.34,1.78" transform="translate(-11.13 -4.26)"/><path class="cls-1" d="M158.75,0" transform="translate(-11.13 -4.26)"/><path class="cls-1" d="M165.22,15.48" transform="translate(-11.13 -4.26)"/></g><g id="Layer_2" data-name="Layer 2"><path class="cls-1" d="M154.67,20.08c0-4.65-3.38-8.42-7.55-8.42s-7.55,3.77-7.55,8.42a9.37,9.37,0,0,0,.11,1.36h0a8.8,8.8,0,0,0,2.21,5,7.09,7.09,0,0,0,2.46,1.78,7,7,0,0,0,3,.66,8,8,0,0,0,1.82-.22,7.8,7.8,0,0,0,3.2-1.79,7,7,0,0,0,1.24-1.56l-2.83-3.06a7.85,7.85,0,0,1-.57,1,3.26,3.26,0,0,1-.82.75,4,4,0,0,1-.65.38l-.1,0-.27.08a3.64,3.64,0,0,1-1,.13,4.36,4.36,0,0,1-1.5-.31,4.92,4.92,0,0,1-1.21-.89,5.37,5.37,0,0,1-.82-1.31,3.47,3.47,0,0,1-.2-.68l11,0A9.37,9.37,0,0,0,154.67,20.08Zm-11.05-1.75c0-1.31,1.57-2.37,3.5-2.37s3.5,1.06,3.5,2.37Z" transform="translate(-11.13 -4.26)"/><path class="cls-1" d="M146.84,18.9v0Z" transform="translate(-11.13 -4.26)"/></g></svg>