<svg id="angularrock" xmlns="http://www.w3.org/2000/svg" viewBox="0 0 120.67 141.67"><defs><style>.cls-1{fill:#5b5855;}.cls-2{fill:#969390;}.cls-3{fill:#3a3734;}.cls-4{fill:#4e4a47;stroke:#4d4946;stroke-miterlimit:10;stroke-width:3px;}.cls-5{fill:#555150;}.cls-6{fill:#191516;}</style></defs><title>rock</title><polygon class="cls-1" points="44.63 11.05 100.83 0 79.89 35.91 26.45 39.22 44.63 11.05"/><polygon class="cls-2" points="3.31 71.5 26.45 39.22 79.89 35.91 84.3 53.7 38.02 87.83 3.31 71.5"/><polygon class="cls-3" points="100.83 0 106.34 32.7 113.5 39.22 98.08 58 84.3 53.7 79.89 35.91 100.83 0"/><polygon class="cls-4" points="54 98.13 38.02 87.83 84.3 53.7 98.08 58 54 98.13"/><path class="cls-1" d="M1022.21,147.06l2.75,34,44.63,22,3.31-29.39-16-10.29Z" transform="translate(-1018.9 -75.56)"/><polygon class="cls-3" points="98.08 58 115.71 102.28 73.28 131.47 50.69 127.51 54 98.13 98.08 58"/><polygon class="cls-5" points="113.5 39.22 115.71 58 120.67 61.87 115.71 102.28 98.08 58 113.5 39.22"/><polygon class="cls-6" points="50.69 127.21 43.8 136.41 76.59 141.67 115.71 111.84 115.71 101.98 73.28 131.18 50.69 127.21"/><polygon class="cls-3" points="43.8 136.71 0 109.93 3.31 71.5 6.06 105.51 50.69 127.51 43.8 136.71"/></svg>