<svg id="Layer_1" data-name="Layer 1" xmlns="http://www.w3.org/2000/svg" viewBox="0 0 143.21 149.01"><defs><style>.cls-1{fill:#e8eab8;}.cls-2{fill:#efe99d;}.cls-3{fill:#f7ef67;}</style></defs><title>sunnnyyyyyyy</title><path class="cls-1" d="M118.27,91c37.18-14,78.22,6,91.67,44.69s-5.78,81.39-43,95.38-78.22-6-91.67-44.69S81.09,105,118.27,91Z" transform="translate(-71.02 -86.52)"/><path class="cls-2" d="M187.74,152.79c4,25.92-13,50.27-37.95,54.39s-48.32-13.56-52.27-39.49,13-50.27,37.95-54.39S183.78,126.87,187.74,152.79Z" transform="translate(-71.02 -86.52)"/><path class="cls-3" d="M164.72,157.37c1.94,12.7-6.39,24.63-18.59,26.64s-23.67-6.64-25.61-19.34S126.91,140,139.12,138,162.79,144.67,164.72,157.37Z" transform="translate(-71.02 -86.52)"/></svg>