<svg xmlns="http://www.w3.org/2000/svg" viewBox="0 0 89.41 238.03"><defs><style>.cls-1{fill:#6d6e71;}.cls-2{fill:#414042;}.cls-3{fill:#939598;}.cls-4{fill:#fdcc9a;}.cls-5{fill:#c49a6c;}.cls-6{fill:#814e9f;}.cls-7{fill:#7f4e20;}</style></defs><title>2boaters-1.100</title><g id="anotherbootah_" data-name="anotherbootah?"><path class="cls-1" d="M165.54,34C160,19.23,153,10.47,145.51,10.47s-14.44,8.76-20,23.55C117.28,55.72,112,90.4,112,129.49V236.31c0,6.7,4.73,12.19,10.5,12.19h46.08c5.78,0,10.5-5.48,10.5-12.19V129.49C179.05,90.4,173.74,55.72,165.54,34Z" transform="translate(-98.65 -10.47)"/><path class="cls-2" d="M162.19,43.2c-4.72-13.24-10.57-21.08-16.9-21.08S133.1,30,128.38,43.2C121.46,62.61,117,93.65,117,128.63v95.6c0,6,4,10.91,8.86,10.91h38.88c4.87,0,8.86-4.91,8.86-10.91v-95.6C173.59,93.65,169.11,62.61,162.19,43.2Z" transform="translate(-98.65 -10.47)"/><rect class="cls-3" x="18.58" y="67.53" width="56.16" height="17.5"/><rect class="cls-3" x="16.37" y="200.03" width="60.58" height="24.64"/><rect class="cls-3" x="16.33" y="111.23" width="60.61" height="17.5"/><rect class="cls-3" x="16.33" y="155.94" width="60.61" height="17.5"/></g><g id="damn_those_legs" data-name="damn those legs"><path class="cls-4" d="M153.57,61.19c2.49.28,4.34,2.78,4.21,5.62l-9.26-1.29A4.84,4.84,0,0,1,153.57,61.19Z" transform="translate(-98.65 -10.47)"/><path d="M148.46,66c0-.17,0-.33.06-.49l9.26,1.29c0,.08,0,.16,0,.24l-1.31,15.37c-.25,2.94-2.55,5.11-5.11,4.82s-4.45-2.93-4.2-5.86Z" transform="translate(-98.65 -10.47)"/><path class="cls-4" d="M137.31,61.19c-2.49.28-4.34,2.78-4.21,5.62l9.26-1.29A4.84,4.84,0,0,0,137.31,61.19Z" transform="translate(-98.65 -10.47)"/><path d="M142.42,66c0-.17,0-.33-.06-.49l-9.26,1.29c0,.08,0,.16,0,.24l1.31,15.37c.25,2.94,2.55,5.11,5.11,4.82s4.45-2.93,4.2-5.86Z" transform="translate(-98.65 -10.47)"/><path class="cls-4" d="M154.43,147.73c2.49.28,4.34,2.78,4.21,5.62l-9.26-1.29A4.84,4.84,0,0,1,154.43,147.73Z" transform="translate(-98.65 -10.47)"/><path d="M149.32,152.55c0-.17,0-.33.06-.49l9.26,1.29c0,.08,0,.16,0,.24L157.32,169c-.25,2.94-2.55,5.11-5.11,4.82s-4.45-2.93-4.2-5.86Z" transform="translate(-98.65 -10.47)"/><path class="cls-4" d="M138.17,147.73c-2.49.28-4.34,2.78-4.21,5.62l9.26-1.29A4.84,4.84,0,0,0,138.17,147.73Z" transform="translate(-98.65 -10.47)"/><path d="M143.28,152.55c0-.17,0-.33-.06-.49L134,153.35c0,.08,0,.16,0,.24L135.27,169c.25,2.94,2.55,5.11,5.11,4.82s4.45-2.93,4.2-5.86Z" transform="translate(-98.65 -10.47)"/></g><g id="oooarss"><rect class="cls-5" x="112.8" y="72.73" width="61.04" height="1.63" rx="0.81" ry="0.81" transform="translate(-98.79 -10.21) rotate(-0.1)"/><rect class="cls-5" x="170.9" y="68.86" width="16.3" height="9.23" rx="4.61" ry="4.61" transform="translate(-98.79 -10.15) rotate(-0.1)"/><rect class="cls-5" x="98.65" y="68.99" width="16.3" height="9.23" rx="4.61" ry="4.61" transform="translate(-98.79 -10.28) rotate(-0.1)"/><rect class="cls-5" x="113.66" y="159.27" width="61.04" height="1.63" rx="0.81" ry="0.81" transform="translate(-98.94 -10.21) rotate(-0.1)"/><rect class="cls-5" x="171.76" y="155.4" width="16.3" height="9.23" rx="4.61" ry="4.61" transform="translate(-98.94 -10.15) rotate(-0.1)"/><rect class="cls-5" x="99.51" y="155.53" width="16.3" height="9.23" rx="4.61" ry="4.61" transform="translate(-98.94 -10.28) rotate(-0.1)"/></g><g id="peeps-2" data-name="peeps"><path class="cls-4" d="M162.08,85.64a45.16,45.16,0,0,1,.42-5.76c.47-3.59,1.42-10.9,3-10.92,1.33,0,2.79,6.32,3,10.92.13,3.4-.37,7.76-.39,9.3A5,5,0,0,1,168,90a2,2,0,0,1-.45,1.18,1.47,1.47,0,0,1-1.18.27c-.79.31-1.9.71-3.26,1.09-2.9.81-4.52,1.26-5.17.54s.55-2-.07-4.52c-.24-1-.55-1.27-.38-1.74C157.82,85.76,160.07,85.59,162.08,85.64Z" transform="translate(-98.65 -10.47)"/><path class="cls-4" d="M127.85,85.64a45.16,45.16,0,0,0-.42-5.76C127,76.3,126,69,124.46,69c-1.33,0-2.79,6.32-3,10.92-.13,3.4.37,7.76.39,9.3A5,5,0,0,0,122,90a2,2,0,0,0,.45,1.18,1.47,1.47,0,0,0,1.18.27c.79.31,1.9.71,3.26,1.09,2.9.81,4.52,1.26,5.17.54s-.55-2,.07-4.52c.24-1,.55-1.27.38-1.74C132.11,85.76,129.86,85.59,127.85,85.64Z" transform="translate(-98.65 -10.47)"/><path class="cls-6" d="M158.35,86.4c-4.85-8-21.39-8.34-26.65-.26A11.61,11.61,0,0,0,130,90.53v1.36c0,3.42,2.54,6.22,5.64,6.22h18.44c3.1,0,5.64-2.8,5.64-6.22V90.53A11,11,0,0,0,158.35,86.4Z" transform="translate(-98.65 -10.47)"/><path class="cls-4" d="M145,79.43c4.64,0,8.41,4.7,8.41,10.5,0,.18,0,.35,0,.53a12.16,12.16,0,0,0,.15-1.89c0-5.65-3.84-10.24-8.58-10.24s-8.58,4.58-8.58,10.24a12.2,12.2,0,0,0,.17,2c0-.09,0-.17.07-.26s0-.26,0-.39C136.6,84.13,140.36,79.43,145,79.43Z" transform="translate(-98.65 -10.47)"/><path class="cls-7" d="M153.18,86.2a8.31,8.31,0,0,0-16.34,0,9.71,9.71,0,0,0-.29,2.32c0,5,3.79,9.09,8.46,9.09s8.46-4.07,8.46-9.09A9.71,9.71,0,0,0,153.18,86.2Z" transform="translate(-98.65 -10.47)"/><path class="cls-4" d="M162.94,172.18a45.16,45.16,0,0,1,.42-5.76c.47-3.59,1.42-10.9,3-10.92,1.33,0,2.79,6.32,3,10.92.13,3.4-.37,7.76-.39,9.3a5,5,0,0,1-.09.82,2,2,0,0,1-.45,1.18,1.47,1.47,0,0,1-1.18.27c-.79.31-1.9.71-3.26,1.09-2.9.81-4.52,1.26-5.17.54s.55-2-.07-4.52c-.24-1-.55-1.27-.38-1.74C158.68,172.3,160.93,172.13,162.94,172.18Z" transform="translate(-98.65 -10.47)"/><path class="cls-4" d="M128.71,172.18a45.16,45.16,0,0,0-.42-5.76c-.47-3.59-1.42-10.9-3-10.92-1.33,0-2.79,6.32-3,10.92-.13,3.4.37,7.76.39,9.3a5,5,0,0,0,.09.82,2,2,0,0,0,.45,1.18,1.47,1.47,0,0,0,1.18.27c.79.31,1.9.71,3.26,1.09,2.9.81,4.52,1.26,5.17.54s-.55-2,.07-4.52c.24-1,.55-1.27.38-1.74C133,172.3,130.72,172.13,128.71,172.18Z" transform="translate(-98.65 -10.47)"/><path class="cls-6" d="M159.21,172.94c-4.85-8-21.39-8.34-26.65-.26a11.61,11.61,0,0,0-1.66,4.39v1.36c0,3.42,2.54,6.22,5.64,6.22H155c3.1,0,5.64-2.8,5.64-6.22v-1.36A11,11,0,0,0,159.21,172.94Z" transform="translate(-98.65 -10.47)"/><path class="cls-4" d="M145.87,166c4.64,0,8.41,4.7,8.41,10.5,0,.18,0,.35,0,.53a12.16,12.16,0,0,0,.15-1.89c0-5.65-3.84-10.24-8.58-10.24s-8.58,4.58-8.58,10.24a12.2,12.2,0,0,0,.17,2c0-.09,0-.17.07-.26s0-.26,0-.39C137.46,170.68,141.22,166,145.87,166Z" transform="translate(-98.65 -10.47)"/><path class="cls-7" d="M154,172.74a8.31,8.31,0,0,0-16.34,0,9.71,9.71,0,0,0-.29,2.32c0,5,3.79,9.09,8.46,9.09s8.46-4.07,8.46-9.09A9.71,9.71,0,0,0,154,172.74Z" transform="translate(-98.65 -10.47)"/></g></svg>