<svg id="Layer_1" data-name="Layer 1" xmlns="http://www.w3.org/2000/svg" viewBox="0 0 185.32 454.75"><defs><style>.cls-1{fill:#6d6e71;}.cls-2{fill:#414042;}.cls-3{fill:#4b9cb2;}.cls-4{fill:#939598;}.cls-5{fill:#fdcc9a;}.cls-6{fill:#050606;}.cls-7{fill:#c49a6c;}.cls-8{fill:#814e9f;}.cls-9{fill:#7f4e20;}.cls-10{fill:#e6e7e8;}</style></defs><title>2boaters-1.10</title><path class="cls-1" d="M333,121.06a2.51,2.51,0,0,0-.33,1.45A8.1,8.1,0,0,0,333,121.06Z" transform="translate(-207.01 -72.56)"/><path class="cls-1" d="M340.94,130.84a3.79,3.79,0,0,0,.42-1.58A2.29,2.29,0,0,0,340.94,130.84Z" transform="translate(-207.01 -72.56)"/><path class="cls-1" d="M363.84,148.89c-4.58-2.06-10.16-5.56-14.57-5.56,2.08-4.16-2.08-10.41-2.08-14.57-1.68,1.68-4.72-.71-5.82.5a3.79,3.79,0,0,1-.42,1.58,2.29,2.29,0,0,1,.42-1.58c.12-3.18-4.3-5.23-2.5-8.83-1.73,1.73-4.89-.84-5.91.63a8.1,8.1,0,0,1-.33,1.45,2.51,2.51,0,0,1,.33-1.45c.73-5.14-4.67-7.22-6.58-11-2.08-2.08-8.32-2.08-8.32,4.16-2.08-8.32-4.16-16.65-10.41-22.89-2.08,0-4.16,0-6.24,2.08-2.08,0-2.08-4.16-2.08-6.24-4.16-2.08-8.32,2.08-10.41,6.24a35.47,35.47,0,0,0,0-20.81c-2.08,14.57-14.57,22.89-29.14,25v-8c-15.3,45.44-25,113.71-25,190V493.93a42.46,42.46,0,0,0,4.22,3.2c2.08,0,4.16-6.24,6.24-8.32,8.32-2.08,2.08,6.24,4.16,8.32,2.08,0,4.16-4.16,6.24-2.08,0,4.16,2.08,10.41,2.08,14.57a35.16,35.16,0,0,0,20.81-6.24c-2.08,2.08,2.08,4.16,0,6.24,12.49-2.08,18.73,0,25,10.41,2.08-4.16,8.32-4.16,12.49-8.32,1.19,4.78-.35,10.25-1.49,15.61h38c12,0,21.86-11.41,21.86-25.37V279.62C374.35,231.63,370.5,186.83,363.84,148.89Z" transform="translate(-207.01 -72.56)"/><path class="cls-2" d="M340.94,130.84a3.79,3.79,0,0,0,.42-1.58A2.29,2.29,0,0,0,340.94,130.84Z" transform="translate(-207.01 -72.56)"/><path class="cls-2" d="M333,121.06a2.51,2.51,0,0,0-.33,1.45A8.1,8.1,0,0,0,333,121.06Z" transform="translate(-207.01 -72.56)"/><path class="cls-2" d="M350.92,143.47a10.08,10.08,0,0,0-1.65-.15c2.08-4.16-2.08-10.41-2.08-14.57-1.68,1.68-4.72-.71-5.82.5a3.79,3.79,0,0,1-.42,1.58,2.29,2.29,0,0,1,.42-1.58c.12-3.18-4.3-5.23-2.5-8.83-1.73,1.73-4.89-.84-5.91.63a8.1,8.1,0,0,1-.33,1.45,2.51,2.51,0,0,1,.33-1.45c.73-5.14-4.67-7.22-6.58-11-2.08-2.08-8.32-2.08-8.32,4.16-2.08-8.32-4.16-16.65-10.41-22.89-2.08,0-4.16,0-6.24,2.08-2.08,0-2.08-4.16-2.08-6.24-4.16-2.08-8.32,2.08-10.41,6.24a35.47,35.47,0,0,0,0-20.81c-1.52,10.63-8.58,17.91-17.94,21.9-.7,1.81-1.4,3.65-2.08,5.57-14.4,40.41-23.72,105-23.72,177.8v199a26.47,26.47,0,0,0,2.69,11.72c1.76.17,2,1.45,1.76,3a20.85,20.85,0,0,0,3.16,3.59c.95-.66,1.89-1,2.84-.06a19.08,19.08,0,0,0,.17,2.26,15.47,15.47,0,0,0,7.83,2.19h80.92c10.14,0,18.44-10.22,18.44-22.7v-199C363,227.31,358.48,180.75,350.92,143.47Z" transform="translate(-207.01 -72.56)"/><path class="cls-2" d="M247.86,488.51a23.39,23.39,0,0,0,1.76,3C249.82,490,249.61,488.69,247.86,488.51Z" transform="translate(-207.01 -72.56)"/><path class="cls-2" d="M252.78,495.11a18.16,18.16,0,0,0,3,2.2,19.08,19.08,0,0,1-.17-2.26C254.67,494.11,253.72,494.45,252.78,495.11Z" transform="translate(-207.01 -72.56)"/><path class="cls-3" d="M298.33,132.2c-7.89,9.85-16.15,20.65-16.57,33.27-.4,12,6.54,23.59,5.18,35.55-1.27,11.19-9.42,20.17-14.39,30.28-7.72,15.72-7.59,34.11-5.47,51.49s6.09,34.67,5.46,52.17c-.18,5.12-.75,10.33.51,15.29.89,3.51,2.66,6.76,3.45,10.3,1.23,5.55-.06,11.3-.91,16.92-1.84,12.17-1.58,24.55-1.32,36.85l.89,41.73a13.64,13.64,0,0,0,.69,4.86c2.19,5.43,9.65,5.72,15.47,5.11L331,461.8a6,6,0,0,0,3.21-1,5,5,0,0,0,1.43-3.86c.12-8.36-7.19-15.37-7.37-23.73-.12-5.56,3-10.94,2.25-16.46-.88-6.64-7.08-11.61-8.14-18.22-1.39-8.67,6.27-16,8.53-24.49,3.44-12.91-6-26.69-2.46-39.57,1-3.76,3.14-7.2,3.85-11,1.13-6.14-1.45-12.31-2-18.54-.83-10.15,3.83-20.72.37-30.3-1.88-5.21-6-9.48-7.32-14.87-1.63-6.75,1.48-13.62,2.78-20.44,1.34-7,.74-14.29,1.58-21.41,1.89-16.15,11.13-31.48,9.12-47.62-1.56-12.47-9.58-23-17.32-32.92-3.25-4.15-7.18-8.67-12.44-8.87-4.81-.18-8.87,3.35-12.37,6.67" transform="translate(-207.01 -72.56)"/><rect class="cls-4" x="38.66" y="99.9" width="116.87" height="36.42"/><rect class="cls-4" x="34.06" y="375.66" width="126.08" height="51.27"/><rect class="cls-4" x="33.97" y="190.86" width="126.14" height="36.42"/><rect class="cls-4" x="33.97" y="283.9" width="126.14" height="36.42"/><path class="cls-5" d="M320.22,140.86c5.18.58,9,5.79,8.77,11.69l-19.27-2.69C310.65,144.28,315.19,140.3,320.22,140.86Z" transform="translate(-207.01 -72.56)"/><path class="cls-6" d="M309.58,150.89c0-.35.08-.69.13-1L329,152.55c0,.17,0,.34,0,.51l-2.72,32c-.52,6.12-5.31,10.63-10.64,10s-9.27-6.09-8.75-12.2Z" transform="translate(-207.01 -72.56)"/><path class="cls-5" d="M286.37,140.86c-5.18.58-9,5.79-8.77,11.69l19.27-2.69C295.94,144.28,291.4,140.3,286.37,140.86Z" transform="translate(-207.01 -72.56)"/><path class="cls-6" d="M297,150.89c0-.35-.08-.69-.13-1l-19.27,2.69c0,.17,0,.34,0,.51l2.72,32c.52,6.12,5.31,10.63,10.64,10s9.27-6.09,8.75-12.2Z" transform="translate(-207.01 -72.56)"/><path class="cls-5" d="M321.24,227.76c5.18.58,9,5.79,8.77,11.69l-19.27-2.69C311.67,231.18,316.21,227.2,321.24,227.76Z" transform="translate(-207.01 -72.56)"/><path class="cls-6" d="M310.6,237.79c0-.35.08-.69.13-1L330,239.45c0,.17,0,.34,0,.51l-2.72,32c-.52,6.12-5.31,10.63-10.64,10s-9.27-6.09-8.75-12.2Z" transform="translate(-207.01 -72.56)"/><path class="cls-5" d="M287.39,227.76c-5.18.58-9,5.79-8.77,11.69l19.27-2.69C297,231.18,292.42,227.2,287.39,227.76Z" transform="translate(-207.01 -72.56)"/><path class="cls-6" d="M298,237.79c0-.35-.08-.69-.13-1l-19.27,2.69c0,.17,0,.34,0,.51l2.72,32c.52,6.12,5.31,10.63,10.64,10s9.27-6.09,8.75-12.2Z" transform="translate(-207.01 -72.56)"/><rect class="cls-7" x="236.46" y="161.48" width="127.05" height="3.39" rx="0.81" ry="0.81" transform="translate(-207.31 -72.02) rotate(-0.1)"/><rect class="cls-7" x="357.39" y="153.44" width="33.92" height="19.21" rx="4.61" ry="4.61" transform="translate(-207.31 -71.88) rotate(-0.1)"/><rect class="cls-7" x="207.02" y="153.71" width="33.92" height="19.21" rx="4.61" ry="4.61" transform="translate(-207.31 -72.16) rotate(-0.1)"/><rect class="cls-7" x="237.48" y="248.38" width="127.05" height="3.39" rx="0.81" ry="0.81" transform="translate(-207.46 -72.02) rotate(-0.1)"/><rect class="cls-7" x="358.41" y="240.34" width="33.92" height="19.21" rx="4.61" ry="4.61" transform="translate(-207.46 -71.88) rotate(-0.1)"/><rect class="cls-7" x="208.04" y="240.61" width="33.92" height="19.21" rx="4.61" ry="4.61" transform="translate(-207.47 -72.15) rotate(-0.1)"/><path class="cls-5" d="M339,188.36a94,94,0,0,1,.87-12c1-7.47,3-22.69,6.18-22.73,2.76,0,5.81,13.16,6.18,22.73.27,7.08-.78,16.15-.81,19.35a10.5,10.5,0,0,1-.19,1.7,4.14,4.14,0,0,1-.94,2.45,3.05,3.05,0,0,1-2.45.57c-1.63.64-4,1.47-6.79,2.26-6,1.69-9.41,2.63-10.76,1.13s1.14-4.18-.16-9.41c-.5-2-1.14-2.65-.79-3.62C330.17,188.62,334.84,188.26,339,188.36Z" transform="translate(-207.01 -72.56)"/><path class="cls-5" d="M267.79,188.36a94,94,0,0,0-.87-12c-1-7.47-3-22.69-6.18-22.73-2.76,0-5.81,13.16-6.18,22.73-.27,7.08.78,16.15.81,19.35a10.5,10.5,0,0,0,.19,1.7,4.14,4.14,0,0,0,.94,2.45,3.05,3.05,0,0,0,2.45.57c1.63.64,4,1.47,6.79,2.26,6,1.69,9.41,2.63,10.76,1.13s-1.14-4.18.16-9.41c.5-2,1.14-2.65.79-3.62C276.65,188.62,272,188.26,267.79,188.36Z" transform="translate(-207.01 -72.56)"/><path class="cls-8" d="M331.27,189.95c-10.09-16.75-44.52-17.35-55.47-.54a24.17,24.17,0,0,0-3.45,9.14v2.83c0,7.12,5.28,12.94,11.74,12.94h38.38c6.46,0,11.74-5.82,11.74-12.94v-2.83A22.86,22.86,0,0,0,331.27,189.95Z" transform="translate(-207.01 -72.56)"/><path class="cls-5" d="M303.5,175.45c9.67,0,17.5,9.78,17.5,21.85,0,.37,0,.73,0,1.1a25.31,25.31,0,0,0,.32-3.94c0-11.77-8-21.31-17.87-21.31s-17.87,9.54-17.87,21.31a25.39,25.39,0,0,0,.35,4.18c0-.18.09-.35.14-.53s0-.54,0-.81C286,185.23,293.83,175.45,303.5,175.45Z" transform="translate(-207.01 -72.56)"/><path class="cls-9" d="M320.5,189.53c-2-8.1-8.84-14.08-17-14.08s-15,6-17,14.08a20.2,20.2,0,0,0-.6,4.83c0,10.44,7.88,18.91,17.6,18.91s17.6-8.47,17.6-18.91A20.2,20.2,0,0,0,320.5,189.53Z" transform="translate(-207.01 -72.56)"/><path class="cls-5" d="M340,275.27a94,94,0,0,1,.87-12c1-7.47,3-22.69,6.18-22.73,2.76,0,5.81,13.16,6.18,22.73.27,7.08-.78,16.15-.81,19.35a10.5,10.5,0,0,1-.19,1.7,4.14,4.14,0,0,1-.94,2.45,3.05,3.05,0,0,1-2.45.57c-1.63.64-4,1.47-6.79,2.26-6,1.69-9.41,2.63-10.76,1.13s1.14-4.18-.16-9.41c-.5-2-1.14-2.65-.79-3.62C331.19,275.52,335.86,275.16,340,275.27Z" transform="translate(-207.01 -72.56)"/><path class="cls-5" d="M268.81,275.27a94,94,0,0,0-.87-12c-1-7.47-3-22.69-6.18-22.73-2.76,0-5.81,13.16-6.18,22.73-.27,7.08.78,16.15.81,19.35a10.5,10.5,0,0,0,.19,1.7,4.14,4.14,0,0,0,.94,2.45,3.05,3.05,0,0,0,2.45.57c1.63.64,4,1.47,6.79,2.26,6,1.69,9.41,2.63,10.76,1.13s-1.14-4.18.16-9.41c.5-2,1.14-2.65.79-3.62C277.66,275.52,273,275.16,268.81,275.27Z" transform="translate(-207.01 -72.56)"/><path class="cls-8" d="M332.29,276.85c-10.09-16.75-44.52-17.35-55.47-.54a24.17,24.17,0,0,0-3.45,9.14v2.83c0,7.12,5.28,12.94,11.74,12.94h38.38c6.46,0,11.74-5.82,11.74-12.94v-2.83A22.86,22.86,0,0,0,332.29,276.85Z" transform="translate(-207.01 -72.56)"/><path class="cls-5" d="M304.52,262.35c9.67,0,17.5,9.78,17.5,21.85,0,.37,0,.73,0,1.1a25.31,25.31,0,0,0,.32-3.94c0-11.77-8-21.31-17.87-21.31s-17.87,9.54-17.87,21.31a25.39,25.39,0,0,0,.35,4.18c0-.18.09-.35.14-.53s0-.54,0-.81C287,272.13,294.85,262.35,304.52,262.35Z" transform="translate(-207.01 -72.56)"/><path class="cls-9" d="M321.52,276.43c-2-8.1-8.84-14.08-17-14.08s-15,6-17,14.08a20.2,20.2,0,0,0-.6,4.83c0,10.44,7.88,18.91,17.6,18.91s17.6-8.47,17.6-18.91A20.2,20.2,0,0,0,321.52,276.43Z" transform="translate(-207.01 -72.56)"/><path class="cls-10" d="M293.77,217.86c-.22-.15-.52.45-1.61,1.27a6.92,6.92,0,0,0-1.21.94,2.84,2.84,0,0,0-.74,1.13,2.46,2.46,0,0,0,.46,2.37c.77.7,2,.15,2.47-.61a5.58,5.58,0,0,0,.48-1.86,14.8,14.8,0,0,0,.18-1.55C293.89,218.5,293.93,218,293.77,217.86Z" transform="translate(-207.01 -72.56)"/><path class="cls-10" d="M302.2,218.53c-.25,0-.2.73-.67,2.17a9.35,9.35,0,0,0-.51,1.61,3.4,3.4,0,0,0,0,1.44c.18.73.78,1.57,1.55,1.58,1,0,1.66-1.28,1.68-2.24a5.58,5.58,0,0,0-.53-1.84,13.42,13.42,0,0,0-.62-1.37C302.61,219,302.38,218.5,302.2,218.53Z" transform="translate(-207.01 -72.56)"/><path class="cls-10" d="M311.82,215.49c-.21.17.09.76.18,2.3a9.86,9.86,0,0,0,.13,1.72,3.15,3.15,0,0,0,.49,1.31,1.62,1.62,0,0,0,2,.62c.88-.49,1-2,.71-2.89a4.62,4.62,0,0,0-1.15-1.38,10.72,10.72,0,0,0-1.05-.92C312.35,215.67,312,215.37,311.82,215.49Z" transform="translate(-207.01 -72.56)"/><path class="cls-10" d="M295.22,306.3c-.22-.15-.52.45-1.61,1.27a6.92,6.92,0,0,0-1.21.94,2.84,2.84,0,0,0-.74,1.13,2.46,2.46,0,0,0,.46,2.37c.77.7,2,.15,2.47-.61a5.58,5.58,0,0,0,.48-1.86,14.8,14.8,0,0,0,.18-1.55C295.34,306.94,295.38,306.41,295.22,306.3Z" transform="translate(-207.01 -72.56)"/><path class="cls-10" d="M303.65,307c-.25,0-.2.73-.67,2.17a9.35,9.35,0,0,0-.51,1.61,3.4,3.4,0,0,0,0,1.44c.18.73.78,1.57,1.55,1.58,1,0,1.66-1.28,1.68-2.24a5.58,5.58,0,0,0-.53-1.84,13.42,13.42,0,0,0-.62-1.37C304.06,307.4,303.83,306.94,303.65,307Z" transform="translate(-207.01 -72.56)"/><path class="cls-10" d="M313.28,303.93c-.21.17.09.76.18,2.3a9.86,9.86,0,0,0,.13,1.72,3.15,3.15,0,0,0,.49,1.31,1.62,1.62,0,0,0,2,.62c.88-.49,1-2,.71-2.89a4.62,4.62,0,0,0-1.15-1.38,10.72,10.72,0,0,0-1.05-.92C313.8,304.11,313.43,303.81,313.28,303.93Z" transform="translate(-207.01 -72.56)"/></svg>