<svg xmlns="http://www.w3.org/2000/svg" viewBox="0 0 186.09 454.75"><defs><style>.cls-1{fill:#6d6e71;}.cls-2{fill:#414042;}.cls-3{fill:#4b9cb2;}.cls-4{fill:#939598;}.cls-5{fill:#fdcc9a;}.cls-6{fill:#050606;}.cls-7{fill:#c49a6c;}.cls-8{fill:#814e9f;}.cls-9{fill:#7f4e20;}.cls-10{fill:#e6e7e8;}</style></defs><title>4boaters-1.10</title><g id="Layer_1" data-name="Layer 1"><path class="cls-1" d="M326,90.06a2.51,2.51,0,0,0-.33,1.45A8.1,8.1,0,0,0,326,90.06Z" transform="translate(-200.01 -41.56)"/><path class="cls-1" d="M333.94,99.84a3.79,3.79,0,0,0,.42-1.58A2.29,2.29,0,0,0,333.94,99.84Z" transform="translate(-200.01 -41.56)"/><path class="cls-1" d="M356.84,117.89c-4.58-2.06-10.16-5.56-14.57-5.56,2.08-4.16-2.08-10.41-2.08-14.57-1.68,1.68-4.72-.71-5.82.5a3.79,3.79,0,0,1-.42,1.58,2.29,2.29,0,0,1,.42-1.58c.12-3.18-4.3-5.23-2.5-8.83-1.73,1.73-4.89-.84-5.91.63a8.1,8.1,0,0,1-.33,1.45,2.51,2.51,0,0,1,.33-1.45c.73-5.14-4.67-7.22-6.58-11-2.08-2.08-8.32-2.08-8.32,4.16-2.08-8.32-4.16-16.65-10.41-22.89-2.08,0-4.16,0-6.24,2.08-2.08,0-2.08-4.16-2.08-6.24-4.16-2.08-8.32,2.08-10.41,6.24a35.47,35.47,0,0,0,0-20.81c-2.08,14.57-14.57,22.89-29.14,25v-8c-15.3,45.44-25,113.71-25,190V462.93a42.46,42.46,0,0,0,4.22,3.2c2.08,0,4.16-6.24,6.24-8.32,8.32-2.08,2.08,6.24,4.16,8.32,2.08,0,4.16-4.16,6.24-2.08,0,4.16,2.08,10.41,2.08,14.57a35.16,35.16,0,0,0,20.81-6.24c-2.08,2.08,2.08,4.16,0,6.24,12.49-2.08,18.73,0,25,10.41,2.08-4.16,8.32-4.16,12.49-8.32,1.19,4.78-.35,10.25-1.49,15.61h38c12,0,21.86-11.41,21.86-25.37V248.62C367.35,200.63,363.5,155.83,356.84,117.89Z" transform="translate(-200.01 -41.56)"/><path class="cls-2" d="M333.94,99.84a3.79,3.79,0,0,0,.42-1.58A2.29,2.29,0,0,0,333.94,99.84Z" transform="translate(-200.01 -41.56)"/><path class="cls-2" d="M326,90.06a2.51,2.51,0,0,0-.33,1.45A8.1,8.1,0,0,0,326,90.06Z" transform="translate(-200.01 -41.56)"/><path class="cls-2" d="M343.92,112.47a10.08,10.08,0,0,0-1.65-.15c2.08-4.16-2.08-10.41-2.08-14.57-1.68,1.68-4.72-.71-5.82.5a3.79,3.79,0,0,1-.42,1.58,2.29,2.29,0,0,1,.42-1.58c.12-3.18-4.3-5.23-2.5-8.83-1.73,1.73-4.89-.84-5.91.63a8.1,8.1,0,0,1-.33,1.45,2.51,2.51,0,0,1,.33-1.45c.73-5.14-4.67-7.22-6.58-11-2.08-2.08-8.32-2.08-8.32,4.16-2.08-8.32-4.16-16.65-10.41-22.89-2.08,0-4.16,0-6.24,2.08-2.08,0-2.08-4.16-2.08-6.24-4.16-2.08-8.32,2.08-10.41,6.24a35.47,35.47,0,0,0,0-20.81c-1.52,10.63-8.58,17.91-17.94,21.9-.7,1.81-1.4,3.65-2.08,5.57-14.4,40.41-23.72,105-23.72,177.8v199a26.47,26.47,0,0,0,2.69,11.72c1.76.17,2,1.45,1.76,3a20.85,20.85,0,0,0,3.16,3.59c.95-.66,1.89-1,2.84-.06a19.08,19.08,0,0,0,.17,2.26,15.47,15.47,0,0,0,7.83,2.19h80.92c10.14,0,18.44-10.22,18.44-22.7v-199C356,196.31,351.48,149.75,343.92,112.47Z" transform="translate(-200.01 -41.56)"/><path class="cls-2" d="M240.86,457.51a23.39,23.39,0,0,0,1.76,3C242.82,459,242.61,457.69,240.86,457.51Z" transform="translate(-200.01 -41.56)"/><path class="cls-2" d="M245.78,464.11a18.16,18.16,0,0,0,3,2.2,19.08,19.08,0,0,1-.17-2.26C247.67,463.11,246.72,463.45,245.78,464.11Z" transform="translate(-200.01 -41.56)"/><path class="cls-3" d="M291.33,101.2c-7.89,9.85-16.15,20.65-16.57,33.27-.4,12,6.54,23.59,5.18,35.55-1.27,11.19-9.42,20.17-14.39,30.28-7.72,15.72-7.59,34.11-5.47,51.49s6.09,34.67,5.46,52.17c-.18,5.12-.75,10.33.51,15.29.89,3.51,2.66,6.76,3.45,10.3,1.23,5.55-.06,11.3-.91,16.92-1.84,12.17-1.58,24.55-1.32,36.85l.89,41.73a13.64,13.64,0,0,0,.69,4.86c2.19,5.43,9.65,5.72,15.47,5.11L324,430.8a6,6,0,0,0,3.21-1,5,5,0,0,0,1.43-3.86c.12-8.36-7.19-15.37-7.37-23.73-.12-5.56,3-10.94,2.25-16.46-.88-6.64-7.08-11.61-8.14-18.22-1.39-8.67,6.27-16,8.53-24.49,3.44-12.91-6-26.69-2.46-39.57,1-3.76,3.14-7.2,3.85-11,1.13-6.14-1.45-12.31-2-18.54-.83-10.15,3.83-20.72.37-30.3-1.88-5.21-6-9.48-7.32-14.87-1.63-6.75,1.48-13.62,2.78-20.44,1.34-7,.74-14.29,1.58-21.41,1.89-16.15,11.13-31.48,9.12-47.62-1.56-12.47-9.58-23-17.32-32.92-3.25-4.15-7.18-8.67-12.44-8.87-4.81-.18-8.87,3.35-12.37,6.67" transform="translate(-200.01 -41.56)"/><rect class="cls-4" x="38.66" y="99.9" width="116.87" height="36.42"/><rect class="cls-4" x="34.06" y="375.66" width="126.08" height="51.27"/><rect class="cls-4" x="33.97" y="190.86" width="126.14" height="36.42"/><rect class="cls-4" x="33.97" y="283.9" width="126.14" height="36.42"/><path class="cls-5" d="M313.22,109.86c5.18.58,9,5.79,8.77,11.69l-19.27-2.69C303.65,113.28,308.19,109.3,313.22,109.86Z" transform="translate(-200.01 -41.56)"/><path class="cls-6" d="M302.58,119.89c0-.35.08-.69.13-1L322,121.55c0,.17,0,.34,0,.51l-2.72,32c-.52,6.12-5.31,10.63-10.64,10s-9.27-6.09-8.75-12.2Z" transform="translate(-200.01 -41.56)"/><path class="cls-5" d="M279.37,109.86c-5.18.58-9,5.79-8.77,11.69l19.27-2.69C288.94,113.28,284.4,109.3,279.37,109.86Z" transform="translate(-200.01 -41.56)"/><path class="cls-6" d="M290,119.89c0-.35-.08-.69-.13-1l-19.27,2.69c0,.17,0,.34,0,.51l2.72,32c.52,6.12,5.31,10.63,10.64,10s9.27-6.09,8.75-12.2Z" transform="translate(-200.01 -41.56)"/><path class="cls-5" d="M314.24,196.76c5.18.58,9,5.79,8.77,11.69l-19.27-2.69C304.67,200.18,309.21,196.2,314.24,196.76Z" transform="translate(-200.01 -41.56)"/><path class="cls-6" d="M303.6,206.79c0-.35.08-.69.13-1L323,208.45c0,.17,0,.34,0,.51l-2.72,32c-.52,6.12-5.31,10.63-10.64,10s-9.27-6.09-8.75-12.2Z" transform="translate(-200.01 -41.56)"/><path class="cls-5" d="M280.39,196.76c-5.18.58-9,5.79-8.77,11.69l19.27-2.69C290,200.18,285.42,196.2,280.39,196.76Z" transform="translate(-200.01 -41.56)"/><path class="cls-6" d="M291,206.79c0-.35-.08-.69-.13-1l-19.27,2.69c0,.17,0,.34,0,.51l2.72,32c.52,6.12,5.31,10.63,10.64,10s9.27-6.09,8.75-12.2Z" transform="translate(-200.01 -41.56)"/><path class="cls-5" d="M315,290c5.18.58,9,5.79,8.77,11.69L304.51,299C305.44,293.4,310,289.41,315,290Z" transform="translate(-200.01 -41.56)"/><path class="cls-6" d="M304.37,300c0-.35.08-.69.13-1l19.27,2.69c0,.17,0,.34,0,.51l-2.72,32c-.52,6.12-5.31,10.63-10.64,10s-9.27-6.09-8.75-12.2Z" transform="translate(-200.01 -41.56)"/><path class="cls-5" d="M281.16,290c-5.18.58-9,5.79-8.77,11.69L291.67,299C290.73,293.4,286.19,289.41,281.16,290Z" transform="translate(-200.01 -41.56)"/><path class="cls-6" d="M291.8,300c0-.35-.08-.69-.13-1l-19.27,2.69c0,.17,0,.34,0,.51l2.72,32c.52,6.12,5.31,10.63,10.64,10s9.27-6.09,8.75-12.2Z" transform="translate(-200.01 -41.56)"/><path class="cls-5" d="M313.92,383.19c5.18.58,9,5.79,8.77,11.69l-19.27-2.69C304.35,386.61,308.89,382.63,313.92,383.19Z" transform="translate(-200.01 -41.56)"/><path class="cls-6" d="M303.28,393.22c0-.35.08-.69.13-1l19.27,2.69c0,.17,0,.34,0,.51l-2.72,32c-.52,6.12-5.31,10.63-10.64,10s-9.27-6.09-8.75-12.2Z" transform="translate(-200.01 -41.56)"/><path class="cls-5" d="M280.07,383.19c-5.18.58-9,5.79-8.77,11.69l19.27-2.69C289.64,386.61,285.1,382.63,280.07,383.19Z" transform="translate(-200.01 -41.56)"/><path class="cls-6" d="M290.71,393.22c0-.35-.08-.69-.13-1l-19.27,2.69c0,.17,0,.34,0,.51l2.72,32c.52,6.12,5.31,10.63,10.64,10s9.27-6.09,8.75-12.2Z" transform="translate(-200.01 -41.56)"/><rect class="cls-7" x="229.46" y="130.48" width="127.05" height="3.39" rx="0.81" ry="0.81" transform="translate(-200.25 -41.03) rotate(-0.1)"/><rect class="cls-7" x="350.39" y="122.44" width="33.92" height="19.21" rx="4.61" ry="4.61" transform="translate(-200.25 -40.9) rotate(-0.1)"/><rect class="cls-7" x="200.02" y="122.71" width="33.92" height="19.21" rx="4.61" ry="4.61" transform="translate(-200.25 -41.17) rotate(-0.1)"/><rect class="cls-7" x="230.48" y="217.38" width="127.05" height="3.39" rx="0.81" ry="0.81" transform="translate(-200.41 -41.03) rotate(-0.1)"/><rect class="cls-7" x="351.41" y="209.34" width="33.92" height="19.21" rx="4.61" ry="4.61" transform="translate(-200.41 -40.89) rotate(-0.1)"/><rect class="cls-7" x="201.04" y="209.61" width="33.92" height="19.21" rx="4.61" ry="4.61" transform="translate(-200.41 -41.17) rotate(-0.1)"/><rect class="cls-7" x="231.25" y="310.6" width="127.05" height="3.39" rx="0.81" ry="0.81" transform="translate(-200.58 -41.03) rotate(-0.1)"/><rect class="cls-7" x="352.18" y="302.55" width="33.92" height="19.21" rx="4.61" ry="4.61" transform="translate(-200.58 -40.89) rotate(-0.1)"/><rect class="cls-7" x="201.81" y="302.83" width="33.92" height="19.21" rx="4.61" ry="4.61" transform="translate(-200.58 -41.17) rotate(-0.1)"/><rect class="cls-7" x="230.15" y="403.81" width="127.05" height="3.39" rx="0.81" ry="0.81" transform="translate(-200.75 -41.03) rotate(-0.1)"/><rect class="cls-7" x="351.08" y="395.77" width="33.92" height="19.21" rx="4.61" ry="4.61" transform="translate(-200.75 -40.9) rotate(-0.1)"/><rect class="cls-7" x="200.72" y="396.04" width="33.92" height="19.21" rx="4.61" ry="4.61" transform="translate(-200.75 -41.17) rotate(-0.1)"/><path class="cls-5" d="M332,157.36a94,94,0,0,1,.87-12c1-7.47,3-22.69,6.18-22.73,2.76,0,5.81,13.16,6.18,22.73.27,7.08-.78,16.15-.81,19.35a10.5,10.5,0,0,1-.19,1.7,4.14,4.14,0,0,1-.94,2.45,3.05,3.05,0,0,1-2.45.57c-1.63.64-4,1.47-6.79,2.26-6,1.69-9.41,2.63-10.76,1.13s1.14-4.18-.16-9.41c-.5-2-1.14-2.65-.79-3.62C323.17,157.62,327.84,157.26,332,157.36Z" transform="translate(-200.01 -41.56)"/><path class="cls-5" d="M260.79,157.36a94,94,0,0,0-.87-12c-1-7.47-3-22.69-6.18-22.73-2.76,0-5.81,13.16-6.18,22.73-.27,7.08.78,16.15.81,19.35a10.5,10.5,0,0,0,.19,1.7,4.14,4.14,0,0,0,.94,2.45,3.05,3.05,0,0,0,2.45.57c1.63.64,4,1.47,6.79,2.26,6,1.69,9.41,2.63,10.76,1.13s-1.14-4.18.16-9.41c.5-2,1.14-2.65.79-3.62C269.65,157.62,265,157.26,260.79,157.36Z" transform="translate(-200.01 -41.56)"/><path class="cls-8" d="M324.27,158.95c-10.09-16.75-44.52-17.35-55.47-.54a24.17,24.17,0,0,0-3.45,9.14v2.83c0,7.12,5.28,12.94,11.74,12.94h38.38c6.46,0,11.74-5.82,11.74-12.94v-2.83A22.86,22.86,0,0,0,324.27,158.95Z" transform="translate(-200.01 -41.56)"/><path class="cls-5" d="M296.5,144.45c9.67,0,17.5,9.78,17.5,21.85,0,.37,0,.73,0,1.1a25.31,25.31,0,0,0,.32-3.94c0-11.77-8-21.31-17.87-21.31s-17.87,9.54-17.87,21.31a25.39,25.39,0,0,0,.35,4.18c0-.18.09-.35.14-.53s0-.54,0-.81C279,154.23,286.83,144.45,296.5,144.45Z" transform="translate(-200.01 -41.56)"/><path class="cls-9" d="M313.5,158.53c-2-8.1-8.84-14.08-17-14.08s-15,6-17,14.08a20.2,20.2,0,0,0-.6,4.83c0,10.44,7.88,18.91,17.6,18.91s17.6-8.47,17.6-18.91A20.2,20.2,0,0,0,313.5,158.53Z" transform="translate(-200.01 -41.56)"/><path class="cls-5" d="M333,244.27a94,94,0,0,1,.87-12c1-7.47,3-22.69,6.18-22.73,2.76,0,5.81,13.16,6.18,22.73.27,7.08-.78,16.15-.81,19.35a10.5,10.5,0,0,1-.19,1.7,4.14,4.14,0,0,1-.94,2.45,3.05,3.05,0,0,1-2.45.57c-1.63.64-4,1.47-6.79,2.26-6,1.69-9.41,2.63-10.76,1.13s1.14-4.18-.16-9.41c-.5-2-1.14-2.65-.79-3.62C324.19,244.52,328.86,244.16,333,244.27Z" transform="translate(-200.01 -41.56)"/><path class="cls-5" d="M261.81,244.27a94,94,0,0,0-.87-12c-1-7.47-3-22.69-6.18-22.73-2.76,0-5.81,13.16-6.18,22.73-.27,7.08.78,16.15.81,19.35a10.5,10.5,0,0,0,.19,1.7,4.14,4.14,0,0,0,.94,2.45,3.05,3.05,0,0,0,2.45.57c1.63.64,4,1.47,6.79,2.26,6,1.69,9.41,2.63,10.76,1.13s-1.14-4.18.16-9.41c.5-2,1.14-2.65.79-3.62C270.66,244.52,266,244.16,261.81,244.27Z" transform="translate(-200.01 -41.56)"/><path class="cls-8" d="M325.29,245.85c-10.09-16.75-44.52-17.35-55.47-.54a24.17,24.17,0,0,0-3.45,9.14v2.83c0,7.12,5.28,12.94,11.74,12.94h38.38c6.46,0,11.74-5.82,11.74-12.94v-2.83A22.86,22.86,0,0,0,325.29,245.85Z" transform="translate(-200.01 -41.56)"/><path class="cls-5" d="M297.52,231.35c9.67,0,17.5,9.78,17.5,21.85,0,.37,0,.73,0,1.1a25.31,25.31,0,0,0,.32-3.94c0-11.77-8-21.31-17.87-21.31s-17.87,9.54-17.87,21.31a25.39,25.39,0,0,0,.35,4.18c0-.18.09-.35.14-.53s0-.54,0-.81C280,241.13,287.85,231.35,297.52,231.35Z" transform="translate(-200.01 -41.56)"/><path class="cls-9" d="M314.52,245.43c-2-8.1-8.84-14.08-17-14.08s-15,6-17,14.08a20.2,20.2,0,0,0-.6,4.83c0,10.44,7.88,18.91,17.6,18.91s17.6-8.47,17.6-18.91A20.2,20.2,0,0,0,314.52,245.43Z" transform="translate(-200.01 -41.56)"/><path class="cls-5" d="M333.82,337.48a94,94,0,0,1,.87-12c1-7.47,3-22.69,6.18-22.73,2.76,0,5.81,13.16,6.18,22.73.27,7.08-.78,16.15-.81,19.35a10.5,10.5,0,0,1-.19,1.7,4.14,4.14,0,0,1-.94,2.45,3.05,3.05,0,0,1-2.45.57c-1.63.64-4,1.47-6.79,2.26-6,1.69-9.41,2.63-10.76,1.13s1.14-4.18-.16-9.41c-.5-2-1.14-2.65-.79-3.62C325,337.73,329.63,337.38,333.82,337.48Z" transform="translate(-200.01 -41.56)"/><path class="cls-5" d="M262.58,337.48a94,94,0,0,0-.87-12c-1-7.47-3-22.69-6.18-22.73-2.76,0-5.81,13.16-6.18,22.73-.27,7.08.78,16.15.81,19.35a10.5,10.5,0,0,0,.19,1.7,4.14,4.14,0,0,0,.94,2.45,3.05,3.05,0,0,0,2.45.57c1.63.64,4,1.47,6.79,2.26,6,1.69,9.41,2.63,10.76,1.13s-1.14-4.18.16-9.41c.5-2,1.14-2.65.79-3.62C271.43,337.73,266.76,337.38,262.58,337.48Z" transform="translate(-200.01 -41.56)"/><path class="cls-8" d="M326.06,339.06c-10.09-16.75-44.52-17.35-55.47-.54a24.17,24.17,0,0,0-3.45,9.14v2.83c0,7.12,5.28,12.94,11.74,12.94h38.38c6.46,0,11.74-5.82,11.74-12.94v-2.83A22.86,22.86,0,0,0,326.06,339.06Z" transform="translate(-200.01 -41.56)"/><path class="cls-5" d="M298.29,324.56c9.67,0,17.5,9.78,17.5,21.85,0,.37,0,.73,0,1.1a25.31,25.31,0,0,0,.32-3.94c0-11.77-8-21.31-17.87-21.31s-17.87,9.54-17.87,21.31a25.39,25.39,0,0,0,.35,4.18c0-.18.09-.35.14-.53s0-.54,0-.81C280.78,334.34,288.62,324.56,298.29,324.56Z" transform="translate(-200.01 -41.56)"/><path class="cls-9" d="M315.29,338.65c-2-8.1-8.84-14.08-17-14.08s-15,6-17,14.08a20.2,20.2,0,0,0-.6,4.83c0,10.44,7.88,18.91,17.6,18.91s17.6-8.47,17.6-18.91A20.2,20.2,0,0,0,315.29,338.65Z" transform="translate(-200.01 -41.56)"/><path class="cls-5" d="M332.72,430.69a94,94,0,0,1,.87-12c1-7.47,3-22.69,6.18-22.73,2.76,0,5.81,13.16,6.18,22.73.27,7.08-.78,16.15-.81,19.35a10.5,10.5,0,0,1-.19,1.7,4.14,4.14,0,0,1-.94,2.45,3.05,3.05,0,0,1-2.45.57c-1.63.64-4,1.47-6.79,2.26-6,1.69-9.41,2.63-10.76,1.13s1.14-4.18-.16-9.41c-.5-2-1.14-2.65-.79-3.62C323.87,430.95,328.54,430.59,332.72,430.69Z" transform="translate(-200.01 -41.56)"/><path class="cls-5" d="M261.48,430.69a94,94,0,0,0-.87-12c-1-7.47-3-22.69-6.18-22.73-2.76,0-5.81,13.16-6.18,22.73-.27,7.08.78,16.15.81,19.35a10.5,10.5,0,0,0,.19,1.7,4.14,4.14,0,0,0,.94,2.45,3.05,3.05,0,0,0,2.45.57c1.63.64,4,1.47,6.79,2.26,6,1.69,9.41,2.63,10.76,1.13s-1.14-4.18.16-9.41c.5-2,1.14-2.65.79-3.62C270.34,430.95,265.67,430.59,261.48,430.69Z" transform="translate(-200.01 -41.56)"/><path class="cls-8" d="M325,432.28c-10.09-16.75-44.52-17.35-55.47-.54a24.17,24.17,0,0,0-3.45,9.14v2.83c0,7.12,5.28,12.94,11.74,12.94h38.38c6.46,0,11.74-5.82,11.74-12.94v-2.83A22.86,22.86,0,0,0,325,432.28Z" transform="translate(-200.01 -41.56)"/><path class="cls-5" d="M297.19,417.78c9.67,0,17.5,9.78,17.5,21.85,0,.37,0,.73,0,1.1a25.31,25.31,0,0,0,.32-3.94c0-11.77-8-21.31-17.87-21.31s-17.87,9.54-17.87,21.31a25.39,25.39,0,0,0,.35,4.18c0-.18.09-.35.14-.53s0-.54,0-.81C279.69,427.56,287.53,417.78,297.19,417.78Z" transform="translate(-200.01 -41.56)"/><path class="cls-9" d="M314.19,431.86c-2-8.1-8.84-14.08-17-14.08s-15,6-17,14.08a20.2,20.2,0,0,0-.6,4.83c0,10.44,7.88,18.91,17.6,18.91s17.6-8.47,17.6-18.91A20.2,20.2,0,0,0,314.19,431.86Z" transform="translate(-200.01 -41.56)"/></g><g id="sweat"><path class="cls-10" d="M286.77,186.86c-.22-.15-.52.45-1.61,1.27a6.92,6.92,0,0,0-1.21.94,2.84,2.84,0,0,0-.74,1.13,2.46,2.46,0,0,0,.46,2.37c.77.7,2,.15,2.47-.61a5.58,5.58,0,0,0,.48-1.86,14.8,14.8,0,0,0,.18-1.55C286.89,187.5,286.93,187,286.77,186.86Z" transform="translate(-200.01 -41.56)"/><path class="cls-10" d="M295.2,187.53c-.25,0-.2.73-.67,2.17a9.35,9.35,0,0,0-.51,1.61,3.4,3.4,0,0,0,0,1.44c.18.73.78,1.57,1.55,1.58,1,0,1.66-1.28,1.68-2.24a5.58,5.58,0,0,0-.53-1.84,13.42,13.42,0,0,0-.62-1.37C295.61,188,295.38,187.5,295.2,187.53Z" transform="translate(-200.01 -41.56)"/><path class="cls-10" d="M304.82,184.49c-.21.17.09.76.18,2.3a9.86,9.86,0,0,0,.13,1.72,3.15,3.15,0,0,0,.49,1.31,1.62,1.62,0,0,0,2,.62c.88-.49,1-2,.71-2.89a4.62,4.62,0,0,0-1.15-1.38,10.72,10.72,0,0,0-1.05-.92C305.35,184.67,305,184.37,304.82,184.49Z" transform="translate(-200.01 -41.56)"/><path class="cls-10" d="M288.22,275.3c-.22-.15-.52.45-1.61,1.27a6.92,6.92,0,0,0-1.21.94,2.84,2.84,0,0,0-.74,1.13,2.46,2.46,0,0,0,.46,2.37c.77.7,2,.15,2.47-.61a5.58,5.58,0,0,0,.48-1.86,14.8,14.8,0,0,0,.18-1.55C288.34,275.94,288.38,275.41,288.22,275.3Z" transform="translate(-200.01 -41.56)"/><path class="cls-10" d="M296.65,276c-.25,0-.2.73-.67,2.17a9.35,9.35,0,0,0-.51,1.61,3.4,3.4,0,0,0,0,1.44c.18.73.78,1.57,1.55,1.58,1,0,1.66-1.28,1.68-2.24a5.58,5.58,0,0,0-.53-1.84,13.42,13.42,0,0,0-.62-1.37C297.06,276.4,296.83,275.94,296.65,276Z" transform="translate(-200.01 -41.56)"/><path class="cls-10" d="M306.28,272.93c-.21.17.09.76.18,2.3a9.86,9.86,0,0,0,.13,1.72,3.15,3.15,0,0,0,.49,1.31,1.62,1.62,0,0,0,2,.62c.88-.49,1-2,.71-2.89a4.62,4.62,0,0,0-1.15-1.38,10.72,10.72,0,0,0-1.05-.92C306.8,273.11,306.43,272.81,306.28,272.93Z" transform="translate(-200.01 -41.56)"/><path class="cls-10" d="M289.87,369.19c-.22-.15-.52.45-1.61,1.27a6.92,6.92,0,0,0-1.21.94,2.84,2.84,0,0,0-.74,1.13,2.46,2.46,0,0,0,.46,2.37c.77.7,2,.15,2.47-.61a5.58,5.58,0,0,0,.48-1.86,14.8,14.8,0,0,0,.18-1.55C290,369.83,290,369.3,289.87,369.19Z" transform="translate(-200.01 -41.56)"/><path class="cls-10" d="M298.3,369.86c-.25,0-.2.73-.67,2.17a9.35,9.35,0,0,0-.51,1.61,3.4,3.4,0,0,0,0,1.44c.18.73.78,1.57,1.55,1.58,1,0,1.66-1.28,1.68-2.24a5.58,5.58,0,0,0-.53-1.84,13.42,13.42,0,0,0-.62-1.37C298.71,370.29,298.48,369.83,298.3,369.86Z" transform="translate(-200.01 -41.56)"/><path class="cls-10" d="M307.92,366.82c-.21.17.09.76.18,2.3a9.86,9.86,0,0,0,.13,1.72,3.15,3.15,0,0,0,.49,1.31,1.62,1.62,0,0,0,2,.62c.88-.49,1-2,.71-2.89a4.62,4.62,0,0,0-1.15-1.38,10.72,10.72,0,0,0-1.05-.92C308.45,367,308.07,366.71,307.92,366.82Z" transform="translate(-200.01 -41.56)"/><path class="cls-10" d="M285.93,461.05c-.22-.15-.52.45-1.61,1.27a6.92,6.92,0,0,0-1.21.94,2.84,2.84,0,0,0-.74,1.13,2.46,2.46,0,0,0,.46,2.37c.77.7,2,.15,2.47-.61a5.58,5.58,0,0,0,.48-1.86,14.8,14.8,0,0,0,.18-1.55C286,461.69,286.09,461.16,285.93,461.05Z" transform="translate(-200.01 -41.56)"/><path class="cls-10" d="M294.36,461.72c-.25,0-.2.73-.67,2.17a9.35,9.35,0,0,0-.51,1.61,3.4,3.4,0,0,0,0,1.44c.18.73.78,1.57,1.55,1.58,1,0,1.66-1.28,1.68-2.24a5.58,5.58,0,0,0-.53-1.84,13.42,13.42,0,0,0-.62-1.37C294.77,462.15,294.54,461.69,294.36,461.72Z" transform="translate(-200.01 -41.56)"/><path class="cls-10" d="M304,458.68c-.21.17.09.76.18,2.3a9.86,9.86,0,0,0,.13,1.72,3.15,3.15,0,0,0,.49,1.31,1.62,1.62,0,0,0,2,.62c.88-.49,1-2,.71-2.89a4.62,4.62,0,0,0-1.15-1.38,10.72,10.72,0,0,0-1.05-.92C304.51,458.85,304.14,458.56,304,458.68Z" transform="translate(-200.01 -41.56)"/></g></svg>