<svg id="refleckt" xmlns="http://www.w3.org/2000/svg" viewBox="0 0 402.22 200.43"><defs><style>.cls-1{fill:#8dbfd3;}.cls-2{fill:#2b669b;}.cls-3{fill:#fdcc9a;}.cls-4{fill:#fcee22;}.cls-5{fill:#7f4e20;}.cls-6{fill:#161b0e;}.cls-7{fill:none;stroke:#161b0e;stroke-miterlimit:10;}.cls-8{fill:#ef3f3f;}.cls-9{fill:#f7b760;}.cls-10{fill:#06538e;}.cls-11{fill:#c39dc9;}.cls-12{fill:#231f20;}</style></defs><title>Raftmen_2-1</title><path class="cls-1" d="M312.45,281.77H564.94" transform="translate(-249.46 -121.45)"/><path class="cls-2" d="M312.45,291.77H564.94c12.87,0,12.89-20,0-20H312.45c-12.87,0-12.89,20,0,20h0Z" transform="translate(-249.46 -121.45)"/><ellipse class="cls-3" cx="179.42" cy="27.34" rx="27.7" ry="25.6"/><rect class="cls-3" x="171.4" y="46.62" width="15.2" height="11.62" rx="4.7" ry="4.7"/><rect class="cls-4" x="154.55" y="55.03" width="47.3" height="42.87" rx="17.43" ry="17.43"/><path class="cls-5" d="M400.72,148.35c0-14.49,13.6-26.23,30.38-26.23a32.45,32.45,0,0,1,23.14,9.24l-52.57,23.51A22.89,22.89,0,0,1,400.72,148.35Z" transform="translate(-249.46 -121.45)"/><circle class="cls-6" cx="193.85" cy="27.34" r="2.9"/><path class="cls-7" d="M450,162.61s-6.41,6.67-11.62,0" transform="translate(-249.46 -121.45)"/><rect class="cls-3" x="428.25" y="192.82" width="11.31" height="23.78" rx="4.85" ry="4.85" transform="translate(-289.89 11.26) rotate(-16.63)"/><rect class="cls-3" x="437.44" y="195.62" width="11.31" height="23.78" rx="4.85" ry="4.85" transform="translate(172.05 -402.74) rotate(62.38)"/><path class="cls-8" d="M425.85,180.92a8.81,8.81,0,0,0-4.89,4.56c-1.55,3.43-.68,7.41.23,11.59a39.73,39.73,0,0,0,2,6.48L440,198.33,437,188.39a11.13,11.13,0,0,0-3.61-6.24A7.45,7.45,0,0,0,425.85,180.92Z" transform="translate(-249.46 -121.45)"/><ellipse class="cls-3" cx="307.37" cy="26.68" rx="27.7" ry="25.6"/><rect class="cls-3" x="299.36" y="45.95" width="15.2" height="11.62" rx="4.7" ry="4.7"/><rect class="cls-4" x="282.51" y="54.37" width="47.3" height="42.87" rx="17.43" ry="17.43"/><path class="cls-5" d="M528.67,147.68c0-14.49,13.6-26.23,30.38-26.23a32.45,32.45,0,0,1,23.14,9.24l-52.57,23.51A22.89,22.89,0,0,1,528.67,147.68Z" transform="translate(-249.46 -121.45)"/><circle class="cls-6" cx="321.81" cy="26.68" r="2.9"/><path class="cls-7" d="M578,161.95s-6.41,6.67-11.62,0" transform="translate(-249.46 -121.45)"/><rect class="cls-3" x="556.2" y="192.16" width="11.31" height="23.78" rx="4.85" ry="4.85" transform="translate(-284.35 47.84) rotate(-16.63)"/><rect class="cls-3" x="565.39" y="194.96" width="11.31" height="23.78" rx="4.85" ry="4.85" transform="translate(240.08 -516.47) rotate(62.38)"/><path class="cls-8" d="M553.8,180.25a8.81,8.81,0,0,0-4.89,4.56c-1.55,3.43-.68,7.41.23,11.59a39.73,39.73,0,0,0,2,6.48L568,197.67l-3.08-9.95a11.13,11.13,0,0,0-3.61-6.24A7.45,7.45,0,0,0,553.8,180.25Z" transform="translate(-249.46 -121.45)"/><rect class="cls-9" x="83.23" y="91.16" width="318.99" height="59.95" rx="29.98" ry="29.98"/><rect class="cls-10" x="379.01" y="293.44" width="35.25" height="19.96" rx="4.67" ry="4.67" transform="translate(615.16 7.68) rotate(122.16)"/><rect class="cls-10" x="371.75" y="236.23" width="132.05" height="3.52" rx="0.82" ry="0.82" transform="translate(622.8 -127.42) rotate(122.16)"/><rect class="cls-10" x="507.68" y="291.02" width="35.25" height="19.96" rx="4.67" ry="4.67" transform="translate(810.26 -104.96) rotate(122.16)"/><rect class="cls-10" x="500.42" y="233.81" width="132.05" height="3.52" rx="0.82" ry="0.82" transform="translate(817.9 -240.06) rotate(122.16)"/><path class="cls-11" d="M254.22,186.58c16.87,4.21,25.53,1.29,30.35-2.66,4.05-3.32,5.3-7.3,10.55-10,6.31-3.25,13.27-2,18.42-.28l-12-20.8a31.36,31.36,0,0,0-11.44,3.57,38.13,38.13,0,0,0-9.33,7.47c-4.19,4-12.62,7.66-31.33,5.12Z" transform="translate(-249.46 -121.45)"/><rect class="cls-12" x="278.35" y="183.95" width="88.94" height="4.29" rx="0.82" ry="0.82" transform="translate(59.08 -307.7) rotate(57.84)"/><circle class="cls-3" cx="335.07" cy="78.34" r="6.85"/><circle class="cls-3" cx="207.12" cy="79" r="6.85"/></svg>