<svg id="refleckt" xmlns="http://www.w3.org/2000/svg" viewBox="0 0 406.49 200"><defs><style>.cls-1{fill:#8dbfd3;}.cls-2{fill:#2b669b;}.cls-3{fill:#895fa8;}.cls-4{fill:#231f20;}.cls-5{fill:#fdcc9a;}.cls-6{fill:#fcee22;}.cls-7{fill:#7f4e20;}.cls-8{fill:#161b0e;}.cls-9{fill:none;stroke:#161b0e;stroke-miterlimit:10;}.cls-10{fill:#ef3f3f;}.cls-11{fill:#f7b760;}.cls-12{fill:#c3996b;}.cls-13{fill:#c2986b;}</style></defs><title>Raftmen_4-1</title><path class="cls-1" d="M312.45,281.77H564.94" transform="translate(-245.19 -121.88)"/><path class="cls-2" d="M312.45,291.77H564.94c12.87,0,12.89-20,0-20H312.45c-12.87,0-12.89,20,0,20h0Z" transform="translate(-245.19 -121.88)"/><path class="cls-3" d="M253.87,180.75c19.55,8.29,28.61,6.48,33.2,2.68,3.86-3.19,4.47-7.72,9.79-9.94,6.38-2.67,14.35.16,20.4,3.22l-17.32-27.22a25.85,25.85,0,0,0-12,2.07c-5,2.3-7.5,5.66-8.92,7.14-3.88,4-12.53,6.73-33.81.08Z" transform="translate(-245.19 -121.88)"/><rect class="cls-4" x="276.33" y="183.12" width="88.94" height="4.29" rx="0.82" ry="0.82" transform="translate(61.72 -306.81) rotate(57.84)"/><ellipse class="cls-5" cx="210.44" cy="26.68" rx="27.7" ry="25.6"/><rect class="cls-5" x="202.43" y="45.95" width="15.2" height="11.62" rx="4.7" ry="4.7"/><rect class="cls-6" x="185.58" y="54.37" width="47.3" height="42.87" rx="17.43" ry="17.43"/><path class="cls-7" d="M427.47,148.11c0-14.49,13.6-26.23,30.38-26.23A32.45,32.45,0,0,1,481,131.13l-52.57,23.51A22.89,22.89,0,0,1,427.47,148.11Z" transform="translate(-245.19 -121.88)"/><circle class="cls-8" cx="224.88" cy="26.68" r="2.9"/><path class="cls-9" d="M476.78,162.38s-6.41,6.67-11.62,0" transform="translate(-245.19 -121.88)"/><rect class="cls-5" x="455" y="192.59" width="11.31" height="23.78" rx="4.85" ry="4.85" transform="translate(-284.44 18.47) rotate(-16.63)"/><rect class="cls-5" x="464.19" y="195.39" width="11.31" height="23.78" rx="4.85" ry="4.85" transform="translate(190.46 -427) rotate(62.38)"/><path class="cls-10" d="M452.6,180.68a8.81,8.81,0,0,0-4.89,4.56c-1.55,3.43-.68,7.41.23,11.59a39.73,39.73,0,0,0,2,6.48l16.84-5.21-3.08-9.95a11.13,11.13,0,0,0-3.61-6.24A7.45,7.45,0,0,0,452.6,180.68Z" transform="translate(-245.19 -121.88)"/><ellipse class="cls-5" cx="283.01" cy="27.28" rx="27.7" ry="25.6"/><rect class="cls-5" x="275" y="46.56" width="15.2" height="11.62" rx="4.7" ry="4.7"/><rect class="cls-6" x="258.15" y="54.97" width="47.3" height="42.87" rx="17.43" ry="17.43"/><path class="cls-7" d="M500,148.72c0-14.49,13.6-26.23,30.38-26.23a32.45,32.45,0,0,1,23.14,9.24L501,155.24A22.89,22.89,0,0,1,500,148.72Z" transform="translate(-245.19 -121.88)"/><circle class="cls-8" cx="297.45" cy="27.28" r="2.9"/><path class="cls-9" d="M549.35,163s-6.41,6.67-11.62,0" transform="translate(-245.19 -121.88)"/><rect class="cls-5" x="527.57" y="193.19" width="11.31" height="23.78" rx="4.85" ry="4.85" transform="translate(-281.57 39.26) rotate(-16.63)"/><rect class="cls-5" x="536.76" y="196" width="11.31" height="23.78" rx="4.85" ry="4.85" transform="translate(229.92 -490.97) rotate(62.38)"/><path class="cls-10" d="M525.17,181.29a8.81,8.81,0,0,0-4.89,4.56c-1.55,3.43-.68,7.41.23,11.59a39.73,39.73,0,0,0,2,6.48l16.84-5.21-3.08-9.95a11.13,11.13,0,0,0-3.61-6.24A7.45,7.45,0,0,0,525.17,181.29Z" transform="translate(-245.19 -121.88)"/><ellipse class="cls-5" cx="136.3" cy="27.53" rx="27.7" ry="25.6"/><rect class="cls-5" x="128.28" y="46.81" width="15.2" height="11.62" rx="4.7" ry="4.7"/><rect class="cls-6" x="111.43" y="55.22" width="47.3" height="42.87" rx="17.43" ry="17.43"/><path class="cls-7" d="M353.32,149c0-14.49,13.6-26.23,30.38-26.23A32.45,32.45,0,0,1,406.85,132l-52.57,23.51A22.89,22.89,0,0,1,353.32,149Z" transform="translate(-245.19 -121.88)"/><circle class="cls-8" cx="150.73" cy="27.53" r="2.9"/><path class="cls-9" d="M402.64,163.23s-6.41,6.67-11.62,0" transform="translate(-245.19 -121.88)"/><rect class="cls-5" x="380.85" y="193.44" width="11.31" height="23.78" rx="4.85" ry="4.85" transform="translate(-287.78 -2.71) rotate(-16.63)"/><rect class="cls-5" x="390.05" y="196.25" width="11.31" height="23.78" rx="4.85" ry="4.85" transform="translate(151.45 -360.85) rotate(62.38)"/><path class="cls-10" d="M378.46,181.54a8.81,8.81,0,0,0-4.89,4.56c-1.55,3.43-.68,7.41.23,11.59a39.73,39.73,0,0,0,2,6.48L392.64,199,389.56,189a11.13,11.13,0,0,0-3.61-6.24A7.45,7.45,0,0,0,378.46,181.54Z" transform="translate(-245.19 -121.88)"/><ellipse class="cls-5" cx="356.16" cy="27.28" rx="27.7" ry="25.6"/><rect class="cls-5" x="348.14" y="46.56" width="15.2" height="11.62" rx="4.7" ry="4.7"/><rect class="cls-6" x="331.29" y="54.97" width="47.3" height="42.87" rx="17.43" ry="17.43"/><path class="cls-7" d="M573.18,148.72c0-14.49,13.6-26.23,30.38-26.23a32.45,32.45,0,0,1,23.14,9.24l-52.57,23.51A22.89,22.89,0,0,1,573.18,148.72Z" transform="translate(-245.19 -121.88)"/><circle class="cls-8" cx="370.59" cy="27.28" r="2.9"/><path class="cls-9" d="M622.49,163s-6.41,6.67-11.62,0" transform="translate(-245.19 -121.88)"/><rect class="cls-5" x="600.71" y="193.19" width="11.31" height="23.78" rx="4.85" ry="4.85" transform="translate(-278.52 60.19) rotate(-16.63)"/><rect class="cls-5" x="609.91" y="196" width="11.31" height="23.78" rx="4.85" ry="4.85" transform="translate(269.15 -555.78) rotate(62.38)"/><path class="cls-10" d="M598.32,181.29a8.81,8.81,0,0,0-4.89,4.56c-1.55,3.43-.68,7.41.23,11.59a39.73,39.73,0,0,0,2,6.48l16.84-5.21-3.08-9.95a11.13,11.13,0,0,0-3.61-6.24A7.45,7.45,0,0,0,598.32,181.29Z" transform="translate(-245.19 -121.88)"/><rect class="cls-11" x="87.51" y="90.73" width="318.99" height="59.95" rx="29.98" ry="29.98"/><rect class="cls-12" x="331.01" y="293.44" width="35.25" height="19.96" rx="4.67" ry="4.67" transform="translate(545.89 47.88) rotate(122.16)"/><rect class="cls-12" x="405.81" y="291.02" width="35.25" height="19.96" rx="4.67" ry="4.67" transform="translate(658.45 -19.15) rotate(122.16)"/><rect class="cls-12" x="478.68" y="291.02" width="35.25" height="19.96" rx="4.67" ry="4.67" transform="translate(770.1 -80.84) rotate(122.16)"/><rect class="cls-13" x="552.37" y="291.02" width="35.25" height="19.96" rx="4.67" ry="4.67" transform="translate(883.02 -143.23) rotate(122.16)"/><rect class="cls-12" x="323.75" y="236.23" width="132.05" height="3.52" rx="0.82" ry="0.82" transform="translate(553.52 -87.21) rotate(122.16)"/><rect class="cls-12" x="398.55" y="233.81" width="132.05" height="3.52" rx="0.82" ry="0.82" transform="translate(666.08 -154.25) rotate(122.16)"/><rect class="cls-12" x="471.42" y="233.81" width="132.05" height="3.52" rx="0.82" ry="0.82" transform="translate(777.74 -215.94) rotate(122.16)"/><rect class="cls-12" x="545.11" y="233.81" width="132.05" height="3.52" rx="0.82" ry="0.82" transform="matrix(-0.53, 0.85, -0.85, -0.53, 890.65, -278.32)"/><circle class="cls-5" cx="310.72" cy="78.94" r="6.85"/><circle class="cls-5" cx="383.86" cy="78.94" r="6.85"/><circle class="cls-5" cx="238.15" cy="78.94" r="6.85"/><circle class="cls-5" cx="164.48" cy="78.94" r="6.85"/></svg>