<svg xmlns="http://www.w3.org/2000/svg" viewBox="0 0 151.57 339.75"><defs><style>.cls-1{fill:#f8b75f;}.cls-2{fill:#fbb040;}.cls-3{fill:#f6e763;}.cls-4{fill:#f49e40;}.cls-5{fill:#e6e7e8;}.cls-6{fill:#fdcc9a;}.cls-7{fill:#c49a6c;}.cls-8{fill:#814e9f;}.cls-9{fill:#7f4e20;}</style></defs><title>3-Raft-1</title><g id="Layer_1" data-name="Layer 1"><path class="cls-1" d="M227,158.21c.26-44.77,25.66-114.34,66.57-114.52,41.18-.18,67.26,70.05,67,115.13,0,.13,0,.27,0,.43H227C227,158.93,227,158.58,227,158.21Z" transform="translate(-215.52 -43.68)"/><rect class="cls-2" x="226.7" y="109.68" width="133.86" height="271.75" rx="50.45" ry="50.45" transform="translate(371.74 447.43) rotate(-180)"/><rect class="cls-1" x="227.04" y="111.68" width="133.52" height="271.75" rx="50.38" ry="50.38" transform="translate(372.08 451.43) rotate(-180)"/><path class="cls-3" d="M237.68,168.41c.22-41,21.48-104.63,55.74-104.8,34.48-.17,56.31,64.1,56.07,105.36,0,.12,0,.25,0,.39H237.68C237.68,169.07,237.68,168.75,237.68,168.41Z" transform="translate(-215.52 -43.68)"/><path class="cls-2" d="M246.87,167.33c0-2.93.53-5.79.62-8.71a4.53,4.53,0,0,0,.17-1c.86-2,2.33-3.31,4-3.31H335.2c2.07,0,3.84,2.07,4.51,4.94.08,1.3.17,2.59.18,3.89a6.14,6.14,0,0,0,.11,1.1V321.52c0,4.1-2.16,7.46-4.8,7.46H251.65c-2.64,0-4.8-3.36-4.8-7.46V167.71C246.86,167.59,246.87,167.46,246.87,167.33Z" transform="translate(-215.52 -43.68)"/><path class="cls-2" d="M247.32,166c.18-31.54,17.76-80.56,46.09-80.69,28.51-.13,46.57,49.36,46.37,81.12,0,.09,0,.19,0,.3H247.32C247.32,166.55,247.32,166.3,247.32,166Z" transform="translate(-215.52 -43.68)"/><rect class="cls-3" x="237" y="135.35" width="112.49" height="224.33" rx="37.62" ry="37.62" transform="translate(370.97 451.35) rotate(-180)"/><path class="cls-4" d="M247.92,153.28c.18-27.86,17.56-71.15,45.56-71.26,28.18-.11,46,43.59,45.83,71.64,0,.08,0,.17,0,.27H247.92C247.92,153.72,247.92,153.51,247.92,153.28Z" transform="translate(-215.52 -43.68)"/><path class="cls-4" d="M245.62,165.52c0-1,.54-2,.63-3a.75.75,0,0,0,.17-.33,6.71,6.71,0,0,1,4-1.16h84.67c2.1,0,3.9.72,4.57,1.73a9.23,9.23,0,0,1,.18,1.36.83.83,0,0,0,.11.38v54.86c0,1.43-2.19,2.6-4.86,2.6H250.46c-2.68,0-4.86-1.17-4.86-2.6V165.65A.81.81,0,0,0,245.62,165.52Z" transform="translate(-215.52 -43.68)"/><path class="cls-4" d="M246.3,233.59c0-1,.54-2,.63-3a.75.75,0,0,0,.17-.33,6.71,6.71,0,0,1,4-1.16h84.67c2.1,0,3.9.72,4.57,1.73a9.23,9.23,0,0,1,.18,1.36.83.83,0,0,0,.11.38v54.86c0,1.43-2.19,2.6-4.86,2.6H251.14c-2.68,0-4.86-1.17-4.86-2.6V233.72A.81.81,0,0,0,246.3,233.59Z" transform="translate(-215.52 -43.68)"/><path class="cls-4" d="M246.85,296.69c0,1.19.33,29.25,10,43.06,6.34,9.06,16.47,9.24,36.72,9.61,19.5.35,29.26.53,35.78-7.77,8.53-10.84,11.38-31.57,11.22-45.18v-.2H246.85C246.85,296.32,246.85,296.49,246.85,296.69Z" transform="translate(-215.52 -43.68)"/></g><g id="SHWET"><path class="cls-5" d="M284.84,139.09c-.23-.15-.54.46-1.68,1.32a7.21,7.21,0,0,0-1.26,1,3,3,0,0,0-.77,1.18,2.56,2.56,0,0,0,.48,2.47c.8.73,2.05.15,2.57-.63a5.81,5.81,0,0,0,.5-1.94,15.4,15.4,0,0,0,.19-1.61C285,139.75,285,139.2,284.84,139.09Z" transform="translate(-215.52 -43.68)"/><path class="cls-5" d="M293.62,140.78c-.26,0-.2.76-.7,2.26a9.73,9.73,0,0,0-.53,1.68,3.54,3.54,0,0,0,0,1.49c.19.76.81,1.63,1.61,1.64,1,0,1.73-1.34,1.75-2.33a5.8,5.8,0,0,0-.56-1.91,14,14,0,0,0-.64-1.43C294,141.23,293.8,140.75,293.62,140.78Z" transform="translate(-215.52 -43.68)"/><path class="cls-5" d="M303.64,137.62c-.22.17.09.79.19,2.4a10.26,10.26,0,0,0,.13,1.79,3.28,3.28,0,0,0,.51,1.37,1.69,1.69,0,0,0,2,.65c.91-.51,1.08-2.1.74-3a4.81,4.81,0,0,0-1.19-1.44,11.16,11.16,0,0,0-1.1-1C304.18,137.8,303.79,137.5,303.64,137.62Z" transform="translate(-215.52 -43.68)"/><path class="cls-5" d="M286.35,277.16c-.23-.15-.54.46-1.68,1.32a7.21,7.21,0,0,0-1.26,1,3,3,0,0,0-.77,1.18,2.56,2.56,0,0,0,.48,2.47c.8.73,2.05.15,2.57-.63a5.81,5.81,0,0,0,.5-1.94,15.4,15.4,0,0,0,.19-1.61C286.47,277.82,286.52,277.27,286.35,277.16Z" transform="translate(-215.52 -43.68)"/><path class="cls-5" d="M295.13,277.85c-.26,0-.2.76-.7,2.26a9.73,9.73,0,0,0-.53,1.68,3.54,3.54,0,0,0,0,1.49c.19.76.81,1.63,1.61,1.64,1,0,1.73-1.34,1.75-2.33a5.8,5.8,0,0,0-.56-1.91,14,14,0,0,0-.64-1.43C295.56,278.3,295.32,277.82,295.13,277.85Z" transform="translate(-215.52 -43.68)"/><path class="cls-5" d="M305.15,274.69c-.22.17.09.79.19,2.4a10.26,10.26,0,0,0,.13,1.79,3.28,3.28,0,0,0,.51,1.37,1.69,1.69,0,0,0,2,.65c.91-.51,1.08-2.1.74-3a4.81,4.81,0,0,0-1.19-1.44,11.16,11.16,0,0,0-1.1-1C305.69,274.87,305.31,274.57,305.15,274.69Z" transform="translate(-215.52 -43.68)"/><path class="cls-5" d="M288.06,209.91c-.23-.15-.54.46-1.68,1.32a7.21,7.21,0,0,0-1.26,1,3,3,0,0,0-.77,1.18,2.56,2.56,0,0,0,.48,2.47c.8.73,2.05.15,2.57-.63a5.81,5.81,0,0,0,.5-1.94,15.4,15.4,0,0,0,.19-1.61C288.18,210.57,288.23,210,288.06,209.91Z" transform="translate(-215.52 -43.68)"/><path class="cls-5" d="M296.84,210.6c-.26,0-.2.76-.7,2.26a9.73,9.73,0,0,0-.53,1.68,3.54,3.54,0,0,0,0,1.49c.19.76.81,1.63,1.61,1.64,1,0,1.73-1.34,1.75-2.33a5.8,5.8,0,0,0-.56-1.91,14,14,0,0,0-.64-1.43C297.27,211,297,210.57,296.84,210.6Z" transform="translate(-215.52 -43.68)"/><path class="cls-5" d="M306.86,207.44c-.22.17.09.79.19,2.4a10.26,10.26,0,0,0,.13,1.79,3.28,3.28,0,0,0,.51,1.37,1.69,1.69,0,0,0,2,.65c.91-.51,1.08-2.1.74-3a4.81,4.81,0,0,0-1.19-1.44,11.16,11.16,0,0,0-1.1-1C307.4,207.62,307,207.32,306.86,207.44Z" transform="translate(-215.52 -43.68)"/></g><g id="kap"><path class="cls-6" d="M307,78.87c4.22.47,7.36,4.71,7.14,9.53l-15.7-2.19C299.19,81.65,302.89,78.41,307,78.87Z" transform="translate(-215.52 -43.68)"/><path d="M298.32,87c0-.28.06-.56.11-.83l15.7,2.19c0,.14,0,.28,0,.41l-2.22,26.06c-.42,5-4.32,8.66-8.66,8.17s-7.55-5-7.12-9.94Z" transform="translate(-215.52 -43.68)"/><path class="cls-6" d="M279.42,78.87c-4.22.47-7.36,4.71-7.14,9.53L288,86.2C287.21,81.65,283.51,78.41,279.42,78.87Z" transform="translate(-215.52 -43.68)"/><path d="M288.08,87c0-.28-.06-.56-.11-.83l-15.7,2.19c0,.14,0,.28,0,.41l2.22,26.06c.42,5,4.32,8.66,8.66,8.17s7.55-5,7.12-9.94Z" transform="translate(-215.52 -43.68)"/><path class="cls-6" d="M307.81,149.65c4.22.47,7.36,4.71,7.14,9.53L299.26,157C300,152.44,303.72,149.19,307.81,149.65Z" transform="translate(-215.52 -43.68)"/><path d="M299.15,157.82c0-.28.06-.56.11-.83l15.7,2.19c0,.14,0,.28,0,.41l-2.22,26.06c-.42,5-4.32,8.66-8.66,8.17s-7.55-5-7.12-9.94Z" transform="translate(-215.52 -43.68)"/><path class="cls-6" d="M280.25,149.65c-4.22.47-7.36,4.71-7.14,9.53L288.8,157C288,152.44,284.34,149.19,280.25,149.65Z" transform="translate(-215.52 -43.68)"/><path d="M288.91,157.82c0-.28-.06-.56-.11-.83l-15.7,2.19c0,.14,0,.28,0,.41l2.22,26.06c.42,5,4.32,8.66,8.66,8.17s7.55-5,7.12-9.94Z" transform="translate(-215.52 -43.68)"/><path class="cls-6" d="M308.44,216.57c4.22.47,7.36,4.71,7.14,9.53l-15.7-2.19C300.65,219.36,304.35,216.11,308.44,216.57Z" transform="translate(-215.52 -43.68)"/><path d="M299.78,224.74c0-.28.06-.56.11-.83l15.7,2.19c0,.14,0,.28,0,.41l-2.22,26.06c-.42,5-4.32,8.66-8.66,8.17s-7.55-5-7.12-9.94Z" transform="translate(-215.52 -43.68)"/><path class="cls-6" d="M280.87,216.57c-4.22.47-7.36,4.71-7.14,9.53l15.7-2.19C288.67,219.36,285,216.11,280.87,216.57Z" transform="translate(-215.52 -43.68)"/><path d="M289.54,224.74c0-.28-.06-.56-.11-.83l-15.7,2.19c0,.14,0,.28,0,.41L276,252.57c.42,5,4.32,8.66,8.66,8.17s7.55-5,7.12-9.94Z" transform="translate(-215.52 -43.68)"/><rect class="cls-7" x="239.5" y="92.82" width="103.48" height="2.76" rx="0.81" ry="0.81" transform="translate(-215.69 -43.16) rotate(-0.1)"/><rect class="cls-7" x="338" y="86.27" width="27.63" height="15.64" rx="4.61" ry="4.61" transform="translate(-215.69 -43.05) rotate(-0.1)"/><rect class="cls-7" x="215.52" y="86.49" width="27.63" height="15.64" rx="4.61" ry="4.61" transform="translate(-215.69 -43.27) rotate(-0.1)"/><rect class="cls-7" x="240.33" y="163.6" width="103.48" height="2.76" rx="0.81" ry="0.81" transform="translate(-215.81 -43.15) rotate(-0.1)"/><rect class="cls-7" x="338.83" y="157.05" width="27.63" height="15.64" rx="4.61" ry="4.61" transform="translate(-215.81 -43.05) rotate(-0.1)"/><rect class="cls-7" x="216.35" y="157.27" width="27.63" height="15.64" rx="4.61" ry="4.61" transform="translate(-215.82 -43.27) rotate(-0.1)"/><rect class="cls-7" x="240.96" y="230.53" width="103.48" height="2.76" rx="0.81" ry="0.81" transform="translate(-215.94 -43.15) rotate(-0.1)"/><rect class="cls-7" x="339.45" y="223.97" width="27.63" height="15.64" rx="4.61" ry="4.61" transform="translate(-215.94 -43.04) rotate(-0.1)"/><rect class="cls-7" x="216.98" y="224.2" width="27.63" height="15.64" rx="4.61" ry="4.61" transform="translate(-215.94 -43.27) rotate(-0.1)"/><path class="cls-6" d="M323,114.72a76.54,76.54,0,0,1,.71-9.76c.79-6.08,2.41-18.48,5-18.51,2.25,0,4.73,10.72,5,18.51.22,5.77-.63,13.15-.66,15.76a8.55,8.55,0,0,1-.15,1.38,3.37,3.37,0,0,1-.77,2,2.49,2.49,0,0,1-2,.46c-1.33.52-3.22,1.2-5.53,1.84-4.92,1.38-7.66,2.14-8.76.92s.93-3.4-.13-7.66c-.41-1.65-.93-2.16-.64-2.94C315.83,114.92,319.63,114.64,323,114.72Z" transform="translate(-215.52 -43.68)"/><path class="cls-6" d="M265,114.72a76.54,76.54,0,0,0-.71-9.76c-.79-6.08-2.41-18.48-5-18.51-2.25,0-4.73,10.72-5,18.51-.22,5.77.63,13.15.66,15.76a8.55,8.55,0,0,0,.15,1.38,3.37,3.37,0,0,0,.77,2,2.49,2.49,0,0,0,2,.46c1.33.52,3.22,1.2,5.53,1.84,4.92,1.38,7.66,2.14,8.76.92s-.93-3.4.13-7.66c.41-1.65.93-2.16.64-2.94C272.23,114.92,268.43,114.64,265,114.72Z" transform="translate(-215.52 -43.68)"/><path class="cls-8" d="M316.72,116c-8.22-13.64-36.26-14.13-45.18-.44a19.69,19.69,0,0,0-2.81,7.44v2.31c0,5.8,4.3,10.54,9.56,10.54h31.26c5.26,0,9.56-4.74,9.56-10.54V123A18.62,18.62,0,0,0,316.72,116Z" transform="translate(-215.52 -43.68)"/><path class="cls-6" d="M294.1,104.2c7.87,0,14.26,8,14.26,17.79,0,.3,0,.6,0,.89a20.62,20.62,0,0,0,.26-3.21c0-9.58-6.52-17.35-14.55-17.35s-14.55,7.77-14.55,17.35a20.68,20.68,0,0,0,.28,3.4c0-.15.08-.29.11-.43s0-.44,0-.66C279.85,112.16,286.23,104.2,294.1,104.2Z" transform="translate(-215.52 -43.68)"/><path class="cls-9" d="M307.95,115.67c-1.62-6.6-7.2-11.47-13.85-11.47s-12.23,4.87-13.85,11.47a16.45,16.45,0,0,0-.49,3.93c0,8.51,6.42,15.4,14.34,15.4s14.34-6.9,14.34-15.4A16.45,16.45,0,0,0,307.95,115.67Z" transform="translate(-215.52 -43.68)"/><path class="cls-6" d="M323.87,185.5a76.54,76.54,0,0,1,.71-9.76c.79-6.08,2.41-18.48,5-18.51,2.25,0,4.73,10.72,5,18.51.22,5.77-.63,13.15-.66,15.76a8.55,8.55,0,0,1-.15,1.38,3.37,3.37,0,0,1-.77,2,2.49,2.49,0,0,1-2,.46c-1.33.52-3.22,1.2-5.53,1.84-4.92,1.38-7.66,2.14-8.76.92s.93-3.4-.13-7.66c-.41-1.65-.93-2.16-.64-2.94C316.66,185.7,320.46,185.42,323.87,185.5Z" transform="translate(-215.52 -43.68)"/><path class="cls-6" d="M265.85,185.5a76.54,76.54,0,0,0-.71-9.76c-.79-6.08-2.41-18.48-5-18.51-2.25,0-4.73,10.72-5,18.51-.22,5.77.63,13.15.66,15.76a8.55,8.55,0,0,0,.15,1.38,3.37,3.37,0,0,0,.77,2,2.49,2.49,0,0,0,2,.46c1.33.52,3.22,1.2,5.53,1.84,4.92,1.38,7.66,2.14,8.76.92s-.93-3.4.13-7.66c.41-1.65.93-2.16.64-2.94C273.06,185.7,269.26,185.42,265.85,185.5Z" transform="translate(-215.52 -43.68)"/><path class="cls-8" d="M317.55,186.79c-8.22-13.64-36.26-14.13-45.18-.44a19.69,19.69,0,0,0-2.81,7.44v2.31c0,5.8,4.3,10.54,9.56,10.54h31.26c5.26,0,9.56-4.74,9.56-10.54v-2.31A18.62,18.62,0,0,0,317.55,186.79Z" transform="translate(-215.52 -43.68)"/><path class="cls-6" d="M294.93,175c7.87,0,14.26,8,14.26,17.79,0,.3,0,.6,0,.89a20.62,20.62,0,0,0,.26-3.21c0-9.58-6.52-17.35-14.55-17.35s-14.55,7.77-14.55,17.35a20.68,20.68,0,0,0,.28,3.4c0-.15.08-.29.11-.43s0-.44,0-.66C280.68,182.94,287.06,175,294.93,175Z" transform="translate(-215.52 -43.68)"/><path class="cls-9" d="M308.78,186.45c-1.62-6.6-7.2-11.47-13.85-11.47s-12.23,4.87-13.85,11.47a16.45,16.45,0,0,0-.49,3.93c0,8.51,6.42,15.4,14.34,15.4s14.34-6.9,14.34-15.4A16.45,16.45,0,0,0,308.78,186.45Z" transform="translate(-215.52 -43.68)"/><path class="cls-6" d="M324.5,252.42a76.54,76.54,0,0,1,.71-9.76c.79-6.08,2.41-18.48,5-18.51,2.25,0,4.73,10.72,5,18.51.22,5.77-.63,13.15-.66,15.76a8.55,8.55,0,0,1-.15,1.38,3.37,3.37,0,0,1-.77,2,2.49,2.49,0,0,1-2,.46c-1.33.52-3.22,1.2-5.53,1.84-4.92,1.38-7.66,2.14-8.76.92s.93-3.4-.13-7.66c-.41-1.65-.93-2.16-.64-2.94C317.29,252.63,321.09,252.34,324.5,252.42Z" transform="translate(-215.52 -43.68)"/><path class="cls-6" d="M266.47,252.42a76.54,76.54,0,0,0-.71-9.76c-.79-6.08-2.41-18.48-5-18.51-2.25,0-4.73,10.72-5,18.51-.22,5.77.63,13.15.66,15.76a8.55,8.55,0,0,0,.15,1.38,3.37,3.37,0,0,0,.77,2,2.49,2.49,0,0,0,2,.46c1.33.52,3.22,1.2,5.53,1.84,4.92,1.38,7.66,2.14,8.76.92s-.93-3.4.13-7.66c.41-1.65.93-2.16.64-2.94C273.69,252.63,269.88,252.34,266.47,252.42Z" transform="translate(-215.52 -43.68)"/><path class="cls-8" d="M318.18,253.71c-8.22-13.64-36.26-14.13-45.18-.44a19.69,19.69,0,0,0-2.81,7.44V263c0,5.8,4.3,10.54,9.56,10.54H311c5.26,0,9.56-4.74,9.56-10.54v-2.31A18.62,18.62,0,0,0,318.18,253.71Z" transform="translate(-215.52 -43.68)"/><path class="cls-6" d="M295.56,241.9c7.87,0,14.26,8,14.26,17.79,0,.3,0,.6,0,.89a20.62,20.62,0,0,0,.26-3.21c0-9.58-6.52-17.35-14.55-17.35s-14.55,7.77-14.55,17.35a20.68,20.68,0,0,0,.28,3.4c0-.15.08-.29.11-.43s0-.44,0-.66C281.3,249.87,287.69,241.9,295.56,241.9Z" transform="translate(-215.52 -43.68)"/><path class="cls-9" d="M309.41,253.37c-1.62-6.6-7.2-11.47-13.85-11.47s-12.23,4.87-13.85,11.47a16.45,16.45,0,0,0-.49,3.93c0,8.51,6.42,15.4,14.34,15.4s14.34-6.9,14.34-15.4A16.45,16.45,0,0,0,309.41,253.37Z" transform="translate(-215.52 -43.68)"/></g></svg>