<?xml version="1.0" encoding="utf-8"?>
<!-- Generator: Adobe Illustrator 20.0.0, SVG Export Plug-In . SVG Version: 6.00 Build 0)  -->
<svg version="1.1" xmlns="http://www.w3.org/2000/svg" xmlns:xlink="http://www.w3.org/1999/xlink" x="0px" y="0px"
	 viewBox="0 0 300 300" style="enable-background:new 0 0 300 300;" xml:space="preserve">
<style type="text/css">
	.st0{display:none;}
	.st1{display:inline;fill:#603913;}
	.st2{display:inline;fill:#3C2415;}
	.st3{display:inline;fill:#8B5E3C;}
	.st4{fill:#6D6E71;}
	.st5{fill:#414042;}
	.st6{fill:#939598;}
	.st7{display:inline;fill:#A04499;}
	.st8{display:inline;fill:#3E1B58;}
	.st9{display:inline;fill:#D1A7CE;}
	.st10{display:inline;fill:#4F7EC0;}
	.st11{display:inline;fill:#FDCC9A;}
	.st12{display:inline;fill:#7F4E20;}
	.st13{display:inline;fill:#70CDDF;}
	.st14{fill:#FDCC9A;}
	.st15{fill:#C49A6C;}
	.st16{fill:#814E9F;}
	.st17{fill:#7F4E20;}
</style>
<g id="bootah" class="st0">
	<path class="st1" d="M168.1,35c-6.6-14.8-14.8-23.6-23.6-23.6c-8.9,0-17,8.8-23.6,23.6c-9.7,21.7-15.9,56.4-15.9,95.5v106.8
		c0,6.7,5.6,12.2,12.4,12.2h27.2h27.2c6.8,0,12.4-5.5,12.4-12.2V130.5C184,91.4,177.7,56.7,168.1,35z"/>
	<path class="st2" d="M164.1,44.2c-5.6-13.2-12.5-21.1-19.9-21.1c-7.5,0-14.4,7.8-19.9,21.1c-8.2,19.4-13.4,50.5-13.4,85.4v95.6
		c0,6,4.7,10.9,10.5,10.9h22.9h22.9c5.8,0,10.5-4.9,10.5-10.9v-95.6C177.6,94.7,172.3,63.6,164.1,44.2z"/>
	<path class="st3" d="M275,156.6h-56.4c-3.5,0-6.4-2.9-6.4-6.4l0,0c0-3.5,2.9-6.4,6.4-6.4H275c3.5,0,6.4,2.9,6.4,6.4l0,0
		C281.4,153.8,278.6,156.6,275,156.6z"/>
</g>
<g id="b" class="st0">
	<rect x="111.4" y="78.1" class="st3" width="65.4" height="17.5"/>
	<rect x="108.5" y="210.6" class="st3" width="71.5" height="24.6"/>
	<rect x="111" y="119.9" class="st3" width="66.6" height="17.5"/>
	<rect x="108.4" y="166.5" class="st3" width="71.5" height="17.5"/>
</g>
<g id="anotherbootah_x3F_">
	<path class="st4" d="M165.5,34c-5.6-14.8-12.5-23.6-20-23.6c-7.5,0-14.4,8.8-20,23.6c-8.2,21.7-13.5,56.4-13.5,95.5v106.8
		c0,6.7,4.7,12.2,10.5,12.2h23h23c5.8,0,10.5-5.5,10.5-12.2V129.5C179.1,90.4,173.7,55.7,165.5,34z"/>
	<path class="st5" d="M162.2,43.2c-4.7-13.2-10.6-21.1-16.9-21.1c-6.3,0-12.2,7.8-16.9,21.1c-6.9,19.4-11.4,50.5-11.4,85.4v95.6
		c0,6,4,10.9,8.9,10.9h19.4h19.4c4.9,0,8.9-4.9,8.9-10.9v-95.6C173.6,93.7,169.1,62.6,162.2,43.2z"/>
	<rect x="117.2" y="78" class="st6" width="56.2" height="17.5"/>
	<rect x="115" y="210.5" class="st6" width="60.6" height="24.6"/>
	<rect x="115" y="121.7" class="st6" width="60.6" height="17.5"/>
	<rect x="115" y="166.4" class="st6" width="60.6" height="17.5"/>
</g>
<g id="newbootah_x3F_" class="st0">
	<path class="st7" d="M168.1,33.5C161.5,18.7,153.3,10,144.4,10c-8.9,0-17,8.8-23.6,23.6c-9.7,21.7-15.9,56.4-15.9,95.5v106.8
		c0,6.7,5.6,12.2,12.4,12.2h27.2h27.2c6.8,0,12.4-5.5,12.4-12.2V129C184,89.9,177.7,55.2,168.1,33.5z"/>
	<path class="st8" d="M164.1,42.7c-5.6-13.2-12.5-21.1-19.9-21.1c-7.5,0-14.4,7.8-19.9,21.1c-8.2,19.4-13.4,50.5-13.4,85.4v95.6
		c0,6,4.7,10.9,10.5,10.9h22.9h22.9c5.8,0,10.5-4.9,10.5-10.9v-95.6C177.6,93.2,172.3,62.1,164.1,42.7z"/>
	<rect x="111.1" y="77.5" class="st9" width="66.2" height="17.5"/>
	<rect x="108.5" y="210" class="st9" width="71.5" height="24.6"/>
	<rect x="108.4" y="121.2" class="st9" width="71.5" height="17.5"/>
	<rect x="108.4" y="165.9" class="st9" width="71.5" height="17.5"/>
</g>
<g id="peeps">
</g>
<g id="scratchh" class="st0">
	<path class="st10" d="M106.6,110L106.6,110c-4.7-0.7-8-5-7.3-9.7l3.4-24.5c0.7-4.7,5-8,9.7-7.3h0c4.7,0.7,8,5,7.3,9.7l-3.4,24.5
		C115.7,107.4,111.3,110.7,106.6,110z"/>
	<path class="st11" d="M110.3,141.1c-1.4,9.6-1,17.1,1.5,18.2c0.5,0.2,2,0.6,3.9,0.3c0,0,1.1-0.1,2-0.5c2.4-1,4.3-7.9,3.4-18
		c-0.6-6.5-2.6-18.5-5.5-18.5C112.9,122.7,111.2,135.1,110.3,141.1z"/>
	<path class="st11" d="M77.7,76.1c9,0,16.3,7.4,16.3,16.5c0,0.3,0,0.6,0,0.8c0.2-1,0.3-2,0.3-3c0-8.9-7.4-16.1-16.6-16.1
		S61,81.6,61,90.4c0,1.1,0.1,2.1,0.3,3.2c0-0.1,0.1-0.3,0.1-0.4c0-0.2,0-0.4,0-0.6C61.4,83.5,68.7,76.1,77.7,76.1z"/>
	<path class="st11" d="M77.5,81.4c7.9,0,14.5,5.2,16.4,12.2c0-0.1,0-0.1,0-0.2c0-0.3,0-0.5,0-0.8c0-9.1-7.3-16.5-16.4-16.5
		c-9,0-16.4,7.4-16.4,16.5c0,0.2,0,0.4,0,0.6C63.3,86.4,69.8,81.4,77.5,81.4z"/>
	<path class="st12" d="M94.2,90.8c-1.9-7.7-8.6-13.3-16.5-13.3c-7.8,0-14.3,5.5-16.4,12.9c0.3,9.7,7.6,17.4,16.5,17.4
		c8.8,0,16-7.6,16.5-17.2C94.2,90.6,94.2,90.7,94.2,90.8z"/>
	<path class="st13" d="M49.3,151.8L49.3,151.8c3.6,1.9,8,0.5,9.9-3l4.4-8.4c1.9-3.6,0.5-8-3-9.9l0,0c-3.6-1.9-8-0.5-9.9,3l-4.4,8.4
		C44.3,145.5,45.7,149.9,49.3,151.8z"/>
	<path class="st13" d="M33.4,152.1L33.4,152.1c-4,0-7.4-3.3-7.4-7.4v-7.2c0-4,3.3-7.4,7.4-7.4h0c4,0,7.4,3.3,7.4,7.4v7.2
		C40.8,148.8,37.5,152.1,33.4,152.1z"/>
</g>
<g id="why_do_we_have_legs.">
	<path class="st14" d="M152.6,64.5c2.5,0.3,4.3,2.8,4.2,5.6l-9.3-1.3C148,66.1,150.2,64.2,152.6,64.5z"/>
	<path d="M147.5,69.3c0-0.2,0-0.3,0.1-0.5l9.3,1.3c0,0.1,0,0.2,0,0.2l-1.3,15.4c-0.3,2.9-2.6,5.1-5.1,4.8c-2.6-0.3-4.5-2.9-4.2-5.9
		L147.5,69.3z"/>
	<path class="st14" d="M136.3,64.5c-2.5,0.3-4.3,2.8-4.2,5.6l9.3-1.3C140.9,66.1,138.8,64.2,136.3,64.5z"/>
	<path d="M141.5,69.3c0-0.2,0-0.3-0.1-0.5l-9.3,1.3c0,0.1,0,0.2,0,0.2l1.3,15.4c0.3,2.9,2.6,5.1,5.1,4.8c2.6-0.3,4.5-2.9,4.2-5.9
		L141.5,69.3z"/>
	<path class="st14" d="M153.1,106.2c2.5,0.3,4.3,2.8,4.2,5.6l-9.3-1.3C148.5,107.9,150.7,106,153.1,106.2z"/>
	<path d="M148,111.1c0-0.2,0-0.3,0.1-0.5l9.3,1.3c0,0.1,0,0.2,0,0.2l-1.3,15.4c-0.3,2.9-2.6,5.1-5.1,4.8c-2.6-0.3-4.5-2.9-4.2-5.9
		L148,111.1z"/>
	<path class="st14" d="M136.8,106.2c-2.5,0.3-4.3,2.8-4.2,5.6l9.3-1.3C141.4,107.9,139.2,106,136.8,106.2z"/>
	<path d="M141.9,111.1c0-0.2,0-0.3-0.1-0.5l-9.3,1.3c0,0.1,0,0.2,0,0.2l1.3,15.4c0.3,2.9,2.6,5.1,5.1,4.8c2.6-0.3,4.5-2.9,4.2-5.9
		L141.9,111.1z"/>
	<path class="st14" d="M153.5,151c2.5,0.3,4.3,2.8,4.2,5.6l-9.3-1.3C148.9,152.7,151.1,150.8,153.5,151z"/>
	<path d="M148.4,155.9c0-0.2,0-0.3,0.1-0.5l9.3,1.3c0,0.1,0,0.2,0,0.2l-1.3,15.4c-0.3,2.9-2.6,5.1-5.1,4.8c-2.6-0.3-4.5-2.9-4.2-5.9
		L148.4,155.9z"/>
	<path class="st14" d="M137.2,151c-2.5,0.3-4.3,2.8-4.2,5.6l9.3-1.3C141.8,152.7,139.6,150.8,137.2,151z"/>
	<path d="M142.3,155.9c0-0.2,0-0.3-0.1-0.5l-9.3,1.3c0,0.1,0,0.2,0,0.2l1.3,15.4c0.3,2.9,2.6,5.1,5.1,4.8c2.6-0.3,4.5-2.9,4.2-5.9
		L142.3,155.9z"/>
	<path class="st14" d="M152.9,195.8c2.5,0.3,4.3,2.8,4.2,5.6l-9.3-1.3C148.3,197.5,150.5,195.6,152.9,195.8z"/>
	<path d="M147.8,200.6c0-0.2,0-0.3,0.1-0.5l9.3,1.3c0,0.1,0,0.2,0,0.2l-1.3,15.4c-0.3,2.9-2.6,5.1-5.1,4.8c-2.6-0.3-4.5-2.9-4.2-5.9
		L147.8,200.6z"/>
	<path class="st14" d="M136.7,195.8c-2.5,0.3-4.3,2.8-4.2,5.6l9.3-1.3C141.3,197.5,139.1,195.6,136.7,195.8z"/>
	<path d="M141.8,200.6c0-0.2,0-0.3-0.1-0.5l-9.3,1.3c0,0.1,0,0.2,0,0.2l1.3,15.4c0.3,2.9,2.6,5.1,5.1,4.8c2.6-0.3,4.5-2.9,4.2-5.9
		L141.8,200.6z"/>
</g>
<g id="oooarss">
	<g>
		<path class="st15" d="M173,74.3l-59.4,0.1c-0.4,0-0.8-0.4-0.8-0.8l0,0c0-0.4,0.4-0.8,0.8-0.8l59.4-0.1c0.4,0,0.8,0.4,0.8,0.8v0
			C173.8,73.9,173.5,74.3,173,74.3z"/>
		<path class="st15" d="M182.6,78.1l-7.1,0c-2.5,0-4.6-2.1-4.6-4.6v0c0-2.5,2.1-4.6,4.6-4.6l7.1,0c2.5,0,4.6,2.1,4.6,4.6v0
			C187.2,76,185.1,78.1,182.6,78.1z"/>
		<path class="st15" d="M110.3,78.2l-7.1,0c-2.5,0-4.6-2.1-4.6-4.6v0c0-2.5,2.1-4.6,4.6-4.6l7.1,0c2.5,0,4.6,2.1,4.6,4.6v0
			C115,76.1,112.9,78.2,110.3,78.2z"/>
	</g>
	<g>
		<path class="st15" d="M173.5,116.1l-59.4,0.1c-0.4,0-0.8-0.4-0.8-0.8l0,0c0-0.4,0.4-0.8,0.8-0.8l59.4-0.1c0.4,0,0.8,0.4,0.8,0.8
			l0,0C174.3,115.7,174,116.1,173.5,116.1z"/>
		<path class="st15" d="M183.1,119.8l-7.1,0c-2.5,0-4.6-2.1-4.6-4.6v0c0-2.5,2.1-4.6,4.6-4.6l7.1,0c2.5,0,4.6,2.1,4.6,4.6v0
			C187.7,117.8,185.6,119.8,183.1,119.8z"/>
		<path class="st15" d="M110.8,120l-7.1,0c-2.5,0-4.6-2.1-4.6-4.6v0c0-2.5,2.1-4.6,4.6-4.6l7.1,0c2.5,0,4.6,2.1,4.6,4.6v0
			C115.4,117.9,113.4,120,110.8,120z"/>
	</g>
	<g>
		<path class="st15" d="M173.9,160.8l-59.4,0.1c-0.4,0-0.8-0.4-0.8-0.8v0c0-0.4,0.4-0.8,0.8-0.8l59.4-0.1c0.4,0,0.8,0.4,0.8,0.8l0,0
			C174.7,160.5,174.3,160.8,173.9,160.8z"/>
		<path class="st15" d="M183.5,164.6l-7.1,0c-2.5,0-4.6-2.1-4.6-4.6l0,0c0-2.5,2.1-4.6,4.6-4.6l7.1,0c2.5,0,4.6,2.1,4.6,4.6l0,0
			C188.1,162.5,186,164.6,183.5,164.6z"/>
		<path class="st15" d="M111.2,164.8l-7.1,0c-2.5,0-4.6-2.1-4.6-4.6v0c0-2.5,2.1-4.6,4.6-4.6l7.1,0c2.5,0,4.6,2.1,4.6,4.6v0
			C115.8,162.7,113.7,164.8,111.2,164.8z"/>
	</g>
	<g>
		<path class="st15" d="M173.4,205.6l-59.4,0.1c-0.4,0-0.8-0.4-0.8-0.8l0,0c0-0.4,0.4-0.8,0.8-0.8l59.4-0.1c0.4,0,0.8,0.4,0.8,0.8
			l0,0C174.2,205.3,173.8,205.6,173.4,205.6z"/>
		<path class="st15" d="M182.9,209.4l-7.1,0c-2.5,0-4.6-2.1-4.6-4.6l0,0c0-2.5,2.1-4.6,4.6-4.6l7.1,0c2.5,0,4.6,2.1,4.6,4.6v0
			C187.5,207.3,185.5,209.4,182.9,209.4z"/>
		<path class="st15" d="M110.7,209.5l-7.1,0c-2.5,0-4.6-2.1-4.6-4.6v0c0-2.5,2.1-4.6,4.6-4.6l7.1,0c2.5,0,4.6,2.1,4.6,4.6v0
			C115.3,207.5,113.2,209.5,110.7,209.5z"/>
	</g>
</g>
<g id="peeps_1_">
	<g>
		<g>
			<path class="st14" d="M162.1,85.6c0-1.7,0.1-3.6,0.4-5.8c0.5-3.6,1.4-10.9,3-10.9c1.3,0,2.8,6.3,3,10.9c0.1,3.4-0.4,7.8-0.4,9.3
				c0,0,0,0.4-0.1,0.8c-0.1,0.6-0.2,0.9-0.5,1.2c-0.4,0.4-1,0.3-1.2,0.3c-0.8,0.3-1.9,0.7-3.3,1.1c-2.9,0.8-4.5,1.3-5.2,0.5
				c-0.7-0.8,0.5-2-0.1-4.5c-0.2-1-0.5-1.3-0.4-1.7C157.8,85.8,160.1,85.6,162.1,85.6z"/>
			<path class="st14" d="M127.8,85.6c0-1.7-0.1-3.6-0.4-5.8c-0.5-3.6-1.4-10.9-3-10.9c-1.3,0-2.8,6.3-3,10.9
				c-0.1,3.4,0.4,7.8,0.4,9.3c0,0,0,0.4,0.1,0.8c0.1,0.6,0.2,0.9,0.5,1.2c0.4,0.4,1,0.3,1.2,0.3c0.8,0.3,1.9,0.7,3.3,1.1
				c2.9,0.8,4.5,1.3,5.2,0.5c0.7-0.8-0.5-2,0.1-4.5c0.2-1,0.5-1.3,0.4-1.7C132.1,85.8,129.9,85.6,127.8,85.6z"/>
			<path class="st16" d="M158.4,86.4c-4.8-8-21.4-8.3-26.7-0.3c-1,1.6-1.5,3.2-1.7,4.4v1.4c0,3.4,2.5,6.2,5.6,6.2h18.4
				c3.1,0,5.6-2.8,5.6-6.2v-1.4C159.6,89.5,159.3,87.9,158.4,86.4z"/>
			<g>
				<path class="st14" d="M145,79.4c4.6,0,8.4,4.7,8.4,10.5c0,0.2,0,0.4,0,0.5c0.1-0.6,0.2-1.2,0.2-1.9c0-5.7-3.8-10.2-8.6-10.2
					s-8.6,4.6-8.6,10.2c0,0.7,0.1,1.4,0.2,2c0-0.1,0-0.2,0.1-0.3c0-0.1,0-0.3,0-0.4C136.6,84.1,140.4,79.4,145,79.4z"/>
				<path class="st17" d="M153.2,86.2c-1-3.9-4.2-6.8-8.2-6.8c-3.9,0-7.2,2.9-8.2,6.8c-0.2,0.7-0.3,1.5-0.3,2.3c0,5,3.8,9.1,8.5,9.1
					c4.7,0,8.5-4.1,8.5-9.1C153.5,87.7,153.4,86.9,153.2,86.2z"/>
			</g>
		</g>
	</g>
	<g>
		<g>
			<path class="st14" d="M162.6,127.4c0-1.7,0.1-3.6,0.4-5.8c0.5-3.6,1.4-10.9,3-10.9c1.3,0,2.8,6.3,3,10.9c0.1,3.4-0.4,7.8-0.4,9.3
				c0,0,0,0.4-0.1,0.8c-0.1,0.6-0.2,0.9-0.5,1.2c-0.4,0.4-1,0.3-1.2,0.3c-0.8,0.3-1.9,0.7-3.3,1.1c-2.9,0.8-4.5,1.3-5.2,0.5
				c-0.7-0.8,0.5-2-0.1-4.5c-0.2-1-0.5-1.3-0.4-1.7C158.3,127.5,160.6,127.3,162.6,127.4z"/>
			<path class="st14" d="M128.3,127.4c0-1.7-0.1-3.6-0.4-5.8c-0.5-3.6-1.4-10.9-3-10.9c-1.3,0-2.8,6.3-3,10.9
				c-0.1,3.4,0.4,7.8,0.4,9.3c0,0,0,0.4,0.1,0.8c0.1,0.6,0.2,0.9,0.5,1.2c0.4,0.4,1,0.3,1.2,0.3c0.8,0.3,1.9,0.7,3.3,1.1
				c2.9,0.8,4.5,1.3,5.2,0.5c0.7-0.8-0.5-2,0.1-4.5c0.2-1,0.5-1.3,0.4-1.7C132.6,127.5,130.4,127.3,128.3,127.4z"/>
			<path class="st16" d="M158.8,128.2c-4.8-8-21.4-8.3-26.7-0.3c-1,1.6-1.5,3.2-1.7,4.4v1.4c0,3.4,2.5,6.2,5.6,6.2h18.4
				c3.1,0,5.6-2.8,5.6-6.2v-1.4C160.1,131.2,159.8,129.7,158.8,128.2z"/>
			<g>
				<path class="st14" d="M145.5,121.2c4.6,0,8.4,4.7,8.4,10.5c0,0.2,0,0.4,0,0.5c0.1-0.6,0.2-1.2,0.2-1.9c0-5.7-3.8-10.2-8.6-10.2
					s-8.6,4.6-8.6,10.2c0,0.7,0.1,1.4,0.2,2c0-0.1,0-0.2,0.1-0.3c0-0.1,0-0.3,0-0.4C137.1,125.9,140.9,121.2,145.5,121.2z"/>
				<path class="st17" d="M153.7,128c-1-3.9-4.2-6.8-8.2-6.8c-3.9,0-7.2,2.9-8.2,6.8c-0.2,0.7-0.3,1.5-0.3,2.3c0,5,3.8,9.1,8.5,9.1
					c4.7,0,8.5-4.1,8.5-9.1C154,129.5,153.8,128.7,153.7,128z"/>
			</g>
		</g>
	</g>
	<g>
		<g>
			<path class="st14" d="M162.9,172.2c0-1.7,0.1-3.6,0.4-5.8c0.5-3.6,1.4-10.9,3-10.9c1.3,0,2.8,6.3,3,10.9c0.1,3.4-0.4,7.8-0.4,9.3
				c0,0,0,0.4-0.1,0.8c-0.1,0.6-0.2,0.9-0.5,1.2c-0.4,0.4-1,0.3-1.2,0.3c-0.8,0.3-1.9,0.7-3.3,1.1c-2.9,0.8-4.5,1.3-5.2,0.5
				c-0.7-0.8,0.5-2-0.1-4.5c-0.2-1-0.5-1.3-0.4-1.7C158.7,172.3,160.9,172.1,162.9,172.2z"/>
			<path class="st14" d="M128.7,172.2c0-1.7-0.1-3.6-0.4-5.8c-0.5-3.6-1.4-10.9-3-10.9c-1.3,0-2.8,6.3-3,10.9
				c-0.1,3.4,0.4,7.8,0.4,9.3c0,0,0,0.4,0.1,0.8c0.1,0.6,0.2,0.9,0.5,1.2c0.4,0.4,1,0.3,1.2,0.3c0.8,0.3,1.9,0.7,3.3,1.1
				c2.9,0.8,4.5,1.3,5.2,0.5c0.7-0.8-0.5-2,0.1-4.5c0.2-1,0.5-1.3,0.4-1.7C133,172.3,130.7,172.1,128.7,172.2z"/>
			<path class="st16" d="M159.2,172.9c-4.8-8-21.4-8.3-26.7-0.3c-1,1.6-1.5,3.2-1.7,4.4v1.4c0,3.4,2.5,6.2,5.6,6.2H155
				c3.1,0,5.6-2.8,5.6-6.2v-1.4C160.5,176,160.1,174.5,159.2,172.9z"/>
			<g>
				<path class="st14" d="M145.9,166c4.6,0,8.4,4.7,8.4,10.5c0,0.2,0,0.4,0,0.5c0.1-0.6,0.2-1.2,0.2-1.9c0-5.7-3.8-10.2-8.6-10.2
					s-8.6,4.6-8.6,10.2c0,0.7,0.1,1.4,0.2,2c0-0.1,0-0.2,0.1-0.3c0-0.1,0-0.3,0-0.4C137.5,170.7,141.2,166,145.9,166z"/>
				<path class="st17" d="M154,172.7c-1-3.9-4.2-6.8-8.2-6.8c-3.9,0-7.2,2.9-8.2,6.8c-0.2,0.7-0.3,1.5-0.3,2.3c0,5,3.8,9.1,8.5,9.1
					s8.5-4.1,8.5-9.1C154.3,174.3,154.2,173.5,154,172.7z"/>
			</g>
		</g>
	</g>
	<g>
		<g>
			<path class="st14" d="M162.4,217c0-1.7,0.1-3.6,0.4-5.8c0.5-3.6,1.4-10.9,3-10.9c1.3,0,2.8,6.3,3,10.9c0.1,3.4-0.4,7.8-0.4,9.3
				c0,0,0,0.4-0.1,0.8c-0.1,0.6-0.2,0.9-0.5,1.2c-0.4,0.4-1,0.3-1.2,0.3c-0.8,0.3-1.9,0.7-3.3,1.1c-2.9,0.8-4.5,1.3-5.2,0.5
				c-0.7-0.8,0.5-2-0.1-4.5c-0.2-1-0.5-1.3-0.4-1.7C158.2,217.1,160.4,216.9,162.4,217z"/>
			<path class="st14" d="M128.2,217c0-1.7-0.1-3.6-0.4-5.8c-0.5-3.6-1.4-10.9-3-10.9c-1.3,0-2.8,6.3-3,10.9
				c-0.1,3.4,0.4,7.8,0.4,9.3c0,0,0,0.4,0.1,0.8c0.1,0.6,0.2,0.9,0.5,1.2c0.4,0.4,1,0.3,1.2,0.3c0.8,0.3,1.9,0.7,3.3,1.1
				c2.9,0.8,4.5,1.3,5.2,0.5c0.7-0.8-0.5-2,0.1-4.5c0.2-1,0.5-1.3,0.4-1.7C132.4,217.1,130.2,216.9,128.2,217z"/>
			<path class="st16" d="M158.7,217.7c-4.8-8-21.4-8.3-26.7-0.3c-1,1.6-1.5,3.2-1.7,4.4v1.4c0,3.4,2.5,6.2,5.6,6.2h18.4
				c3.1,0,5.6-2.8,5.6-6.2v-1.4C159.9,220.8,159.6,219.3,158.7,217.7z"/>
			<g>
				<path class="st14" d="M145.3,210.8c4.6,0,8.4,4.7,8.4,10.5c0,0.2,0,0.4,0,0.5c0.1-0.6,0.2-1.2,0.2-1.9c0-5.7-3.8-10.2-8.6-10.2
					c-4.7,0-8.6,4.6-8.6,10.2c0,0.7,0.1,1.4,0.2,2c0-0.1,0-0.2,0.1-0.3c0-0.1,0-0.3,0-0.4C136.9,215.5,140.7,210.8,145.3,210.8z"/>
				<path class="st17" d="M153.5,217.5c-1-3.9-4.2-6.8-8.2-6.8c-3.9,0-7.2,2.9-8.2,6.8c-0.2,0.7-0.3,1.5-0.3,2.3
					c0,5,3.8,9.1,8.5,9.1c4.7,0,8.5-4.1,8.5-9.1C153.8,219,153.7,218.3,153.5,217.5z"/>
			</g>
		</g>
	</g>
</g>
</svg>
