<svg id="Layer_1" data-name="Layer 1" xmlns="http://www.w3.org/2000/svg" viewBox="0 0 354.19 228.64"><defs><style>.cls-1,.cls-5{fill:#2d9b47;}.cls-2,.cls-4{fill:none;}.cls-2,.cls-5{stroke:#2d9b47;}.cls-2,.cls-4,.cls-5,.cls-6{stroke-miterlimit:10;}.cls-3,.cls-6{fill:#4ab85f;}.cls-4,.cls-6{stroke:#000;}.cls-7{fill:#ee2b28;}</style></defs><title>feature-free graphic</title><path class="cls-1" d="M368,139.29c-88.4-1.55-170.42,19.82-239.09,56.7a859.22,859.22,0,0,0-50.46-81.16c80.66-44.71,176-71.07,278.22-71.7A898.91,898.91,0,0,1,368,139.29Z" transform="translate(-16.46 -17.18)"/><path class="cls-2" d="M368,139.29c-88.4-1.55-170.42,19.82-239.09,56.7a859.22,859.22,0,0,0-50.46-81.16c80.66-44.71,176-71.07,278.22-71.7A898.91,898.91,0,0,1,368,139.29Z" transform="translate(-16.46 -17.18)"/><path class="cls-3" d="M358.05,129.7c-82.91-1.5-159.73,18.89-223.72,54q-18-32.22-39.27-63.1C168.55,79.3,256,55,349.8,54.85Q355.67,92.36,358.05,129.7Z" transform="translate(-16.46 -17.18)"/><path class="cls-4" d="M358.05,129.7c-82.91-1.5-159.73,18.89-223.72,54q-18-32.22-39.27-63.1C168.55,79.3,256,55,349.8,54.85Q355.67,92.36,358.05,129.7Z" transform="translate(-16.46 -17.18)"/><circle class="cls-5" cx="96.33" cy="120.33" r="9.82" transform="translate(-46.62 15.05) rotate(-16.46)"/><circle class="cls-5" cx="133.75" cy="179.33" r="9.82" transform="translate(-61.8 28.08) rotate(-16.46)"/><circle class="cls-5" cx="345.44" cy="56.84" r="9.82" transform="translate(-18.41 83.05) rotate(-16.46)"/><circle class="cls-5" cx="355.26" cy="126.72" r="9.82" transform="translate(-37.81 88.7) rotate(-16.46)"/><path d="M127.66,171.3c5.81-2.56,15.61-.74,15.26,7.36a0.63,0.63,0,0,0,1.07.44l0.38-.31c0.63-.51-0.26-1.39-0.88-0.88l-0.38.31,1.07,0.44c0.39-9.17-10.48-11.37-17.14-8.44-0.73.32-.1,1.4,0.63,1.08h0Z" transform="translate(-16.46 -17.18)"/><path d="M127.08,171.38a0.63,0.63,0,0,0,0-1.25,0.63,0.63,0,0,0,0,1.25h0Z" transform="translate(-16.46 -17.18)"/><path d="M127.17,171.46a0.63,0.63,0,0,0,0-1.25,0.63,0.63,0,0,0,0,1.25h0Z" transform="translate(-16.46 -17.18)"/><path d="M105.19,115.93l0.43-.18-0.76-1-0.28.27a0.63,0.63,0,0,0-.1.76c3.2,4.82.73,10.22-3.58,13.27-0.65.46,0,1.55,0.63,1.08a13.24,13.24,0,0,0,5.12-6.31,10,10,0,0,0,.54-4.24s-1-4.35-1.46-3.94a0.63,0.63,0,0,0-.76-1l-0.43.18c-0.74.31-.1,1.39,0.63,1.08h0Z" transform="translate(-16.46 -17.18)"/><path d="M333.93,55.41c0.51,2.71.66,5.72,2.45,7.95a12.85,12.85,0,0,0,4.6,3.35c3.45,1.57,7.88,1.79,10.74-1a0.63,0.63,0,0,0-.88-0.88c-2.9,2.85-7.53,2-10.67,0-3.87-2.35-4.26-5.73-5-9.78-0.15-.79-1.35-0.46-1.21.33h0Z" transform="translate(-16.46 -17.18)"/><path d="M356.85,115.39a11.8,11.8,0,0,0-9.16,3.62c-2.57,2.87-3.09,6.79-2.82,10.5,0.06,0.8,1.31.8,1.25,0-0.24-3.35.11-7,2.46-9.62a10.72,10.72,0,0,1,8.28-3.25c0.8,0.08.8-1.18,0-1.25h0Z" transform="translate(-16.46 -17.18)"/><ellipse class="cls-6" cx="230.63" cy="106.85" rx="21.3" ry="36.97" transform="translate(-39.44 72.57) rotate(-21)"/><path d="M237.76,88A16.05,16.05,0,0,0,220,87.12c-5.3,3.27-7,9.75-2.47,14.54,5.88,6.21,15.08,2.53,21.9,6.32,5.26,2.92,7.31,10.56,1.1,13.81-5.34,2.79-11.54.3-12.37-5.79-0.43-3.17-5.25-1.82-4.82,1.33,2.16,15.8,28.11,12.54,26-3.29-1-7.22-7.45-11.59-14.23-12.56-2.6-.37-5.24-0.32-7.84-0.72a13,13,0,0,1-3.45-.89c-2.7-1.21-4.56-4-2.94-7.07,2.59-4.86,11.11-2.79,14.34-.43,2.6,1.9,5.1-2.44,2.52-4.32h0Z" transform="translate(-16.46 -17.18)"/><path d="M220.06,82.49a489.64,489.64,0,0,1,19.52,47.73c1.05,3,5.89,1.72,4.82-1.33a502,502,0,0,0-20-48.92c-1.37-2.91-5.68-.37-4.32,2.52h0Z" transform="translate(-16.46 -17.18)"/><path class="cls-1" d="M255.77,233C188.15,194.32,106.3,170.61,17,169.86A830.46,830.46,0,0,1,33,73.69c102.55,3.7,197.08,32.93,276,79.7A785.17,785.17,0,0,0,255.77,233Z" transform="translate(-16.46 -17.18)"/><path class="cls-2" d="M255.77,233C188.15,194.32,106.3,170.61,17,169.86A830.46,830.46,0,0,1,33,73.69c102.55,3.7,197.08,32.93,276,79.7A785.17,785.17,0,0,0,255.77,233Z" transform="translate(-16.46 -17.18)"/><path class="cls-3" d="M253.87,221.68c-63-36.82-139.62-59.45-223.39-60.1q4-37.36,11.79-74.89c94.32,2.9,181.07,29.86,253,73.1A717.55,717.55,0,0,0,253.87,221.68Z" transform="translate(-16.46 -17.18)"/><path class="cls-4" d="M253.87,221.68c-63-36.82-139.62-59.45-223.39-60.1q4-37.36,11.79-74.89c94.32,2.9,181.07,29.86,253,73.1A717.55,717.55,0,0,0,253.87,221.68Z" transform="translate(-16.46 -17.18)"/><circle class="cls-5" cx="43.19" cy="87.36" r="9.82" transform="translate(-68.96 88.63) rotate(-74.61)"/><circle class="cls-5" cx="33.02" cy="156.38" r="9.82" transform="translate(-142.97 129.54) rotate(-74.61)"/><circle class="cls-5" cx="292.59" cy="157.55" r="9.82" transform="translate(46.59 380.67) rotate(-74.61)"/><circle class="cls-5" cx="251.81" cy="218.67" r="9.82" transform="translate(-42.3 386.25) rotate(-74.61)"/><ellipse class="cls-6" cx="174.06" cy="146.76" rx="36.97" ry="21.3" transform="translate(-26.53 263.5) rotate(-76.17)"/><path d="M190.8,135.78a16.17,16.17,0,0,0-13-11.13c-5.73-.76-11.24,2.08-11.55,8.32-0.38,7.66,6.75,11.09,11.4,15.76,4,4,7,13.31-.57,15.76-6.52,2.11-13.59-4.77-10.41-11.18,1.43-2.87-2.89-5.41-4.32-2.52-7.3,14.72,15.86,27,23.11,12.36,3.61-7.31-.49-14.86-6.19-19.61-2.93-2.44-10.63-7.48-7.57-12.18,1.75-2.7,6.35-1.94,8.68-.77a11.23,11.23,0,0,1,5.63,6.53c1,3,5.88,1.72,4.82-1.33h0Z" transform="translate(-16.46 -17.18)"/><path d="M179.38,120.26a496.5,496.5,0,0,1-11.37,51c-0.87,3.1,4,4.43,4.82,1.33a496.5,496.5,0,0,0,11.37-51c0.53-3.15-4.29-4.5-4.82-1.33h0Z" transform="translate(-16.46 -17.18)"/><path d="M32.21,146.8c4.06,0.1,7.93,1,9.3,5.36,1.09,3.42,1.22,6.09-.76,9.21a0.63,0.63,0,0,0,1.08.63c2.5-3.93,2.13-7.69.25-11.93-1.63-3.7-6.21-4.43-9.87-4.52a0.63,0.63,0,0,0,0,1.25h0Z" transform="translate(-16.46 -17.18)"/><path d="M52.61,87.53a7.49,7.49,0,0,1-3.86,7.89C46.18,96.8,43,96.72,40.2,96.7a0.63,0.63,0,0,0,0,1.25c3.62,0,7.71,0,10.67-2.43a8.78,8.78,0,0,0,2.95-8.33c-0.12-.79-1.33-0.46-1.21.33h0Z" transform="translate(-16.46 -17.18)"/><path d="M282.73,152.61c-3.24,6.56.27,12.57,6.33,15.58,0.72,0.36,1.35-.72.63-1.08-5.41-2.69-8.84-7.88-5.88-13.87,0.35-.72-0.72-1.35-1.08-0.63h0Z" transform="translate(-16.46 -17.18)"/><path d="M260.19,211.63c-1.27-2.93-7.22-3.63-9.93-3.37-4.14.38-6.62,3.12-8.21,6.77-0.32.73,0.76,1.37,1.08,0.63,1.32-3,3.21-5.47,6.68-6,2.08-.35,8.23.18,9.3,2.65,0.32,0.74,1.4.1,1.08-.63h0Z" transform="translate(-16.46 -17.18)"/><path class="cls-7" d="M355.92,23.33C278.47,72.85,196.6,115.69,122.85,170.86a737.25,737.25,0,0,0-59.93,49.62c-9.46,8.77,4.71,22.89,14.14,14.14,66.52-61.71,145.59-107.1,223-153.48C322.21,67.89,344.27,54.5,366,40.6c10.81-6.91.79-24.23-10.09-17.27h0Z" transform="translate(-16.46 -17.18)"/><path class="cls-7" d="M30.32,35.84a1980.78,1980.78,0,0,1,235,156.64Q297,217.11,327.69,243c4.13,3.48,10.09,4,14.14,0,3.57-3.57,4.15-10.65,0-14.14A2016.93,2016.93,0,0,0,110.18,60.15Q75.73,38.65,40.41,18.57c-11.2-6.38-21.29,10.9-10.09,17.27h0Z" transform="translate(-16.46 -17.18)"/></svg>