<svg id="Layer_1" data-name="Layer 1" xmlns="http://www.w3.org/2000/svg" viewBox="0 0 352.04 232.13"><defs><style>.cls-1,.cls-6,.cls-7{fill:#55ba5f;}.cls-2,.cls-4,.cls-8{fill:none;}.cls-2,.cls-6{stroke:#55ba5f;}.cls-2,.cls-4,.cls-5,.cls-6,.cls-7,.cls-8{stroke-miterlimit:10;}.cls-3{fill:#6bc073;}.cls-4,.cls-7{stroke:#000;}.cls-5{fill:#2d9b47;stroke:#2d9b47;}.cls-8{stroke:#ef5e5e;stroke-width:20px;}</style></defs><title>no mo mo</title><path class="cls-1" d="M368,139.29c-88.4-1.55-170.42,19.82-239.09,56.7a859.22,859.22,0,0,0-50.46-81.16c80.66-44.71,176-71.07,278.22-71.7A898.91,898.91,0,0,1,368,139.29Z" transform="translate(-16.46 -7.02)"/><path class="cls-2" d="M368,139.29c-88.4-1.55-170.42,19.82-239.09,56.7a859.22,859.22,0,0,0-50.46-81.16c80.66-44.71,176-71.07,278.22-71.7A898.91,898.91,0,0,1,368,139.29Z" transform="translate(-16.46 -7.02)"/><path class="cls-3" d="M358.05,129.7c-82.91-1.5-159.73,18.89-223.72,54q-18-32.22-39.27-63.1C168.55,79.3,256,55,349.8,54.85Q355.67,92.36,358.05,129.7Z" transform="translate(-16.46 -7.02)"/><path class="cls-4" d="M358.05,129.7c-82.91-1.5-159.73,18.89-223.72,54q-18-32.22-39.27-63.1C168.55,79.3,256,55,349.8,54.85Q355.67,92.36,358.05,129.7Z" transform="translate(-16.46 -7.02)"/><circle class="cls-5" cx="96.33" cy="120.33" r="9.82" transform="translate(-46.62 25.21) rotate(-16.46)"/><circle class="cls-5" cx="133.75" cy="179.33" r="9.82" transform="translate(-61.8 38.24) rotate(-16.46)"/><circle class="cls-6" cx="345.44" cy="56.84" r="9.82" transform="translate(-18.41 93.21) rotate(-16.46)"/><circle class="cls-6" cx="355.26" cy="126.72" r="9.82" transform="translate(-37.81 98.86) rotate(-16.46)"/><path d="M127.66,171.3c5.81-2.56,15.61-.74,15.26,7.36a0.63,0.63,0,0,0,1.07.44l0.38-.31c0.63-.51-0.26-1.39-0.88-0.88l-0.38.31,1.07,0.44c0.39-9.17-10.48-11.37-17.14-8.44-0.73.32-.1,1.4,0.63,1.08h0Z" transform="translate(-16.46 -7.02)"/><path d="M127.08,171.38a0.63,0.63,0,0,0,0-1.25,0.63,0.63,0,0,0,0,1.25h0Z" transform="translate(-16.46 -7.02)"/><path d="M127.17,171.46a0.63,0.63,0,0,0,0-1.25,0.63,0.63,0,0,0,0,1.25h0Z" transform="translate(-16.46 -7.02)"/><path d="M105.19,115.93l0.43-.18-0.76-1-0.28.27a0.63,0.63,0,0,0-.1.76c3.2,4.82.73,10.22-3.58,13.27-0.65.46,0,1.55,0.63,1.08a13.24,13.24,0,0,0,5.12-6.31,10,10,0,0,0,.54-4.24s-1-4.35-1.46-3.94a0.63,0.63,0,0,0-.76-1l-0.43.18c-0.74.31-.1,1.39,0.63,1.08h0Z" transform="translate(-16.46 -7.02)"/><path d="M333.93,55.41c0.51,2.71.66,5.72,2.45,7.95a12.85,12.85,0,0,0,4.6,3.35c3.45,1.57,7.88,1.79,10.74-1a0.63,0.63,0,0,0-.88-0.88c-2.9,2.85-7.53,2-10.67,0-3.87-2.35-4.26-5.73-5-9.78-0.15-.79-1.35-0.46-1.21.33h0Z" transform="translate(-16.46 -7.02)"/><path d="M356.85,115.39a11.8,11.8,0,0,0-9.16,3.62c-2.57,2.87-3.09,6.79-2.82,10.5,0.06,0.8,1.31.8,1.25,0-0.24-3.35.11-7,2.46-9.62a10.72,10.72,0,0,1,8.28-3.25c0.8,0.08.8-1.18,0-1.25h0Z" transform="translate(-16.46 -7.02)"/><ellipse class="cls-7" cx="230.63" cy="106.85" rx="21.3" ry="36.97" transform="translate(-39.44 82.73) rotate(-21)"/><path d="M237.76,88A16.05,16.05,0,0,0,220,87.12c-5.3,3.27-7,9.75-2.47,14.54,5.88,6.21,15.08,2.53,21.9,6.32,5.26,2.92,7.31,10.56,1.1,13.81-5.34,2.79-11.54.3-12.37-5.79-0.43-3.17-5.25-1.82-4.82,1.33,2.16,15.8,28.11,12.54,26-3.29-1-7.22-7.45-11.59-14.23-12.56-2.6-.37-5.24-0.32-7.84-0.72a13,13,0,0,1-3.45-.89c-2.7-1.21-4.56-4-2.94-7.07,2.59-4.86,11.11-2.79,14.34-.43,2.6,1.9,5.1-2.44,2.52-4.32h0Z" transform="translate(-16.46 -7.02)"/><path d="M220.06,82.49a489.64,489.64,0,0,1,19.52,47.73c1.05,3,5.89,1.72,4.82-1.33a502,502,0,0,0-20-48.92c-1.37-2.91-5.68-.37-4.32,2.52h0Z" transform="translate(-16.46 -7.02)"/><path class="cls-1" d="M255.77,233C188.15,194.32,106.3,170.61,17,169.86A830.46,830.46,0,0,1,33,73.69c102.55,3.7,197.08,32.93,276,79.7A785.17,785.17,0,0,0,255.77,233Z" transform="translate(-16.46 -7.02)"/><path class="cls-2" d="M255.77,233C188.15,194.32,106.3,170.61,17,169.86A830.46,830.46,0,0,1,33,73.69c102.55,3.7,197.08,32.93,276,79.7A785.17,785.17,0,0,0,255.77,233Z" transform="translate(-16.46 -7.02)"/><path class="cls-3" d="M253.87,221.68c-63-36.82-139.62-59.45-223.39-60.1q4-37.36,11.79-74.89c94.32,2.9,181.07,29.86,253,73.1A717.55,717.55,0,0,0,253.87,221.68Z" transform="translate(-16.46 -7.02)"/><path class="cls-4" d="M253.87,221.68c-63-36.82-139.62-59.45-223.39-60.1q4-37.36,11.79-74.89c94.32,2.9,181.07,29.86,253,73.1A717.55,717.55,0,0,0,253.87,221.68Z" transform="translate(-16.46 -7.02)"/><circle class="cls-6" cx="43.19" cy="87.36" r="9.82" transform="translate(-68.96 98.79) rotate(-74.61)"/><circle class="cls-6" cx="33.02" cy="156.38" r="9.82" transform="translate(-142.97 139.7) rotate(-74.61)"/><circle class="cls-6" cx="292.59" cy="157.55" r="9.82" transform="translate(46.59 390.83) rotate(-74.61)"/><circle class="cls-6" cx="251.81" cy="218.67" r="9.82" transform="translate(-42.3 396.41) rotate(-74.61)"/><path class="cls-7" d="M181.05,150c-7.06,19.18-21.88,31.44-33.1,27.4s-14.59-22.87-7.52-42,21.88-31.44,33.1-27.4S188.11,130.78,181.05,150Z" transform="translate(-16.46 -7.02)"/><path d="M178.72,133.27a16.28,16.28,0,0,0-12.78-12.44c-5.61-1-11,1.74-11.65,7.77-0.76,7.47,5.92,11.51,10,16.57,3.82,4.69,5,15-3.51,15.51-6.69.37-12-6.71-8.16-12.6,1.75-2.71-2.57-5.22-4.32-2.52-9,13.91,13.6,28.28,22.22,14.36,4.32-7,.73-14.86-4.46-20.15a53.34,53.34,0,0,1-4.7-4.94c-1.86-2.45-3.77-7.26.28-9,5.44-2.39,11.16,4.29,12.22,8.8,0.73,3.13,5.55,1.81,4.82-1.33h0Z" transform="translate(-16.46 -7.02)"/><path d="M168.91,117.12a489.65,489.65,0,0,1-17,49.42c-1.21,3,3.63,4.28,4.82,1.33a489.65,489.65,0,0,0,17-49.42c0.88-3.1-3.94-4.42-4.82-1.33h0Z" transform="translate(-16.46 -7.02)"/><path d="M32.21,146.8c4.06,0.1,7.93,1,9.3,5.36,1.09,3.42,1.22,6.09-.76,9.21a0.63,0.63,0,0,0,1.08.63c2.5-3.93,2.13-7.69.25-11.93-1.63-3.7-6.21-4.43-9.87-4.52a0.63,0.63,0,0,0,0,1.25h0Z" transform="translate(-16.46 -7.02)"/><path d="M52.61,87.53a7.49,7.49,0,0,1-3.86,7.89C46.18,96.8,43,96.72,40.2,96.7a0.63,0.63,0,0,0,0,1.25c3.62,0,7.71,0,10.67-2.43a8.78,8.78,0,0,0,2.95-8.33c-0.12-.79-1.33-0.46-1.21.33h0Z" transform="translate(-16.46 -7.02)"/><path d="M282.73,152.61c-3.24,6.56.27,12.57,6.33,15.58,0.72,0.36,1.35-.72.63-1.08-5.41-2.69-8.84-7.88-5.88-13.87,0.35-.72-0.72-1.35-1.08-0.63h0Z" transform="translate(-16.46 -7.02)"/><path d="M260.19,211.63c-1.27-2.93-7.22-3.63-9.93-3.37-4.14.38-6.62,3.12-8.21,6.77-0.32.73,0.76,1.37,1.08,0.63,1.32-3,3.21-5.47,6.68-6,2.08-.35,8.23.18,9.3,2.65,0.32,0.74,1.4.1,1.08-.63h0Z" transform="translate(-16.46 -7.02)"/><line class="cls-8" x1="36.36" y1="7.94" x2="319.09" y2="224.19"/><line class="cls-8" x1="331.7" y1="16.35" x2="36.36" y2="222.76"/></svg>