<svg xmlns="http://www.w3.org/2000/svg" viewBox="0 0 464.44 371.89"><defs><style>.cls-1{fill:#fff;stroke:#606061;stroke-miterlimit:10;stroke-width:3px;}.cls-2{fill:#a0b2dc;}.cls-3{fill:#484847;}.cls-4{fill:#efa0b9;}.cls-5{fill:#f7ce5f;}.cls-6{fill:#dba441;}</style></defs><title>icon2--create your own sets4</title><g id="Layer_6" data-name="Layer 6"><rect class="cls-1" x="222.08" y="57.05" width="240.86" height="313.33" rx="12" ry="12"/><path class="cls-2" d="M315.23,262.86h179.1c9.65,0,9.67-15,0-15H315.23c-9.65,0-9.67,15,0,15Z" transform="translate(-62.28 -142.41)"/><path class="cls-2" d="M315.23,291.83h179.1c9.65,0,9.67-15,0-15H315.23c-9.65,0-9.67,15,0,15Z" transform="translate(-62.28 -142.41)"/><path class="cls-2" d="M315.23,323.42h179.1c9.65,0,9.67-15,0-15H315.23c-9.65,0-9.67,15,0,15Z" transform="translate(-62.28 -142.41)"/><path class="cls-2" d="M315.23,355.07h179.1c9.65,0,9.67-15,0-15H315.23c-9.65,0-9.67,15,0,15Z" transform="translate(-62.28 -142.41)"/><path class="cls-2" d="M315.23,386.73h179.1c9.65,0,9.67-15,0-15H315.23c-9.65,0-9.67,15,0,15Z" transform="translate(-62.28 -142.41)"/><path class="cls-2" d="M315.23,418.39h179.1c9.65,0,9.67-15,0-15H315.23c-9.65,0-9.67,15,0,15Z" transform="translate(-62.28 -142.41)"/><path class="cls-2" d="M315.23,450h179.1c9.65,0,9.67-15,0-15H315.23c-9.65,0-9.67,15,0,15Z" transform="translate(-62.28 -142.41)"/><path class="cls-2" d="M315.23,480.5h179.1c9.65,0,9.67-15,0-15H315.23c-9.65,0-9.67,15,0,15Z" transform="translate(-62.28 -142.41)"/></g><g id="Layer_3" data-name="Layer 3"><path class="cls-3" d="M353.61,430.63l-12.87-3.8a3.1,3.1,0,0,1-1.38-5.09l8.4-8.9a3.1,3.1,0,0,1,5.17,1.1l4.47,12.7A3.1,3.1,0,0,1,353.61,430.63Z" transform="translate(-62.28 -142.41)"/><rect class="cls-4" x="66.56" y="154.46" width="66.26" height="51.06" rx="9.58" ry="9.58" transform="translate(-161.2 -16.15) rotate(-45.88)"/><polygon class="cls-5" points="275.63 222.7 229.35 270.43 25.42 71.93 71.7 24.21 275.63 222.7"/><polygon class="cls-6" points="274.7 222.21 228.66 269.69 282.38 285.53 291.54 273.96 274.7 222.21"/></g></svg>