<svg id="Layer_1" data-name="Layer 1" xmlns="http://www.w3.org/2000/svg" viewBox="0 0 564.44 474.03"><defs><style>.cls-1,.cls-2{fill:#fff;stroke:#606061;stroke-miterlimit:10;}.cls-1{stroke-width:4px;}.cls-3{fill:#5c5a5c;}.cls-4{fill:#f4ddab;}.cls-5{fill:#484847;}.cls-6{fill:#efa0b9;}.cls-7{fill:#f7ce5f;}.cls-8{fill:#dba441;}</style></defs><title>icon2--create your own sets2</title><rect class="cls-1" x="367.05" y="122" width="192.57" height="270.74" rx="3.62" ry="3.62" transform="translate(26.36 -107) rotate(8.72)"/><rect class="cls-2" x="370.49" y="122.63" width="192.57" height="270.74" rx="3.62" ry="3.62" transform="translate(26.5 -107.51) rotate(8.72)"/><path class="cls-3" d="M419.38,150.67c9.8,10.84,22.87,4,34.91,2.6,3.81-.43,8.1-.35,11.56,1.54,2.92,1.6,4.61,4.29,6.55,6.89,2.18,2.94,4.82,6.19,8.89,5.56,2.58-.4,4.53-2.62,7.19-2.83,3.7-.29,7.36,2.49,10.41,4.18a23.23,23.23,0,0,0,16,2.77c4-.67,8-2.51,12-2.68s6.13,2.82,9.71,3.59c6.65,1.44,14.5.6,21.29.81,1.61,0,1.61-2.45,0-2.5l-10.9-.33c-3.57-.11-8.79.59-12-1.17-1.92-1-2.75-2.52-5-3-2.88-.55-5.94.52-8.7,1.21-3.91,1-7.91,2.12-12,2s-7.57-2-11.12-4c-3.9-2.19-8.13-4.44-12.65-2.77-3.62,1.34-5.34,3.51-8.92.4-1.8-1.56-3-3.93-4.44-5.8a16.39,16.39,0,0,0-10.92-6.35c-13.39-2-29.08,10.28-40.09-1.91-1.08-1.2-2.84.58-1.77,1.77Z" transform="translate(-18.03 -39.7)"/><path class="cls-3" d="M406.25,203.1c9.8,10.84,22.87,4,34.91,2.6,3.81-.43,8.1-.35,11.56,1.54,2.92,1.6,4.61,4.29,6.55,6.89,2.18,2.94,4.82,6.19,8.89,5.56,2.58-.4,4.53-2.62,7.19-2.83,3.7-.29,7.36,2.49,10.41,4.18a23.23,23.23,0,0,0,16,2.77c4-.67,8-2.51,12-2.68s6.13,2.82,9.71,3.59c6.65,1.44,14.5.6,21.29.81,1.61,0,1.61-2.45,0-2.5l-10.9-.33c-3.57-.11-8.79.59-12-1.17-1.92-1-2.75-2.52-5-3-2.88-.55-5.94.52-8.7,1.21-3.91,1-7.91,2.12-12,2s-7.57-2-11.12-4c-3.9-2.19-8.13-4.44-12.65-2.77-3.62,1.34-5.34,3.51-8.92.4-1.8-1.56-3-3.93-4.44-5.8a16.39,16.39,0,0,0-10.92-6.35c-13.39-2-29.08,10.28-40.09-1.91-1.08-1.2-2.84.58-1.77,1.77Z" transform="translate(-18.03 -39.7)"/><path class="cls-3" d="M398.25,261c9.8,10.84,22.87,4,34.91,2.6,3.81-.43,8.1-.35,11.56,1.54,2.92,1.6,4.61,4.29,6.55,6.89,2.18,2.94,4.82,6.19,8.89,5.56,2.58-.4,4.53-2.62,7.19-2.83,3.7-.29,7.36,2.49,10.41,4.18a23.23,23.23,0,0,0,16,2.77c4-.67,8-2.51,12-2.68s6.13,2.82,9.71,3.59c6.65,1.44,14.5.6,21.29.81,1.61,0,1.61-2.45,0-2.5l-10.9-.33c-3.57-.11-8.79.59-12-1.17-1.92-1-2.75-2.52-5-3-2.88-.55-5.94.52-8.7,1.21-3.91,1-7.91,2.12-12,2s-7.57-2-11.12-4c-3.9-2.19-8.13-4.44-12.65-2.77-3.62,1.34-5.34,3.51-8.92.4-1.8-1.56-3-3.93-4.44-5.8a16.39,16.39,0,0,0-10.92-6.35c-13.39-2-29.08,10.28-40.09-1.91-1.08-1.2-2.84.58-1.77,1.77Z" transform="translate(-18.03 -39.7)"/><path class="cls-3" d="M386,313.4c9.8,10.84,22.87,4,34.91,2.6,3.81-.43,8.1-.35,11.56,1.54,2.92,1.6,4.61,4.29,6.55,6.89,2.18,2.94,4.82,6.19,8.89,5.56,2.58-.4,4.53-2.62,7.19-2.83,3.7-.29,7.36,2.49,10.41,4.18a23.23,23.23,0,0,0,16,2.77c4-.67,8-2.51,12-2.68s6.13,2.82,9.71,3.59c6.65,1.44,14.5.6,21.29.81,1.61,0,1.61-2.45,0-2.5l-10.9-.33c-3.57-.11-8.79.59-12-1.17-1.92-1-2.75-2.52-5-3-2.88-.55-5.94.52-8.7,1.21-3.91,1-7.91,2.12-12,2s-7.57-2-11.12-4c-3.9-2.19-8.13-4.44-12.65-2.77-3.62,1.34-5.34,3.51-8.92.4-1.8-1.56-3-3.93-4.44-5.8a16.39,16.39,0,0,0-10.92-6.35c-13.39-2-29.08,10.28-40.09-1.91-1.08-1.2-2.84.58-1.77,1.77Z" transform="translate(-18.03 -39.7)"/><polygon class="cls-4" points="8.32 183.13 8.41 184.24 7.5 184.86 6.5 184.39 6.41 183.28 7.32 182.66 8.32 183.13"/><rect class="cls-1" x="300.1" y="178.95" width="192.57" height="270.74" rx="3.62" ry="3.62" transform="translate(34.23 -96.18) rotate(8.72)"/><rect class="cls-2" x="303.54" y="179.58" width="192.57" height="270.74" rx="3.62" ry="3.62" transform="translate(34.36 -96.7) rotate(8.72)"/><path class="cls-3" d="M352.44,207.63c9.8,10.84,22.87,4,34.91,2.6,3.81-.43,8.1-.35,11.56,1.54,2.92,1.6,4.61,4.29,6.55,6.89,2.18,2.94,4.82,6.19,8.89,5.56,2.58-.4,4.53-2.62,7.19-2.83,3.7-.29,7.36,2.49,10.41,4.18a23.23,23.23,0,0,0,16,2.77c4-.67,8-2.51,12-2.68s6.13,2.82,9.71,3.59c6.65,1.44,14.5.6,21.29.81,1.61,0,1.61-2.45,0-2.5l-10.9-.33c-3.57-.11-8.79.59-12-1.17-1.92-1-2.75-2.52-5-3-2.88-.55-5.94.52-8.7,1.21-3.91,1-7.91,2.12-12,2s-7.57-2-11.12-4c-3.9-2.19-8.13-4.44-12.65-2.77-3.62,1.34-5.34,3.51-8.92.4-1.8-1.56-3-3.93-4.44-5.8a16.39,16.39,0,0,0-10.92-6.35c-13.39-2-29.08,10.28-40.09-1.91-1.08-1.2-2.84.58-1.77,1.77Z" transform="translate(-18.03 -39.7)"/><path class="cls-3" d="M351.21,238a12.86,12.86,0,0,0,19.52,2.69l-2.09-.55c2.69,6.89,6.87,12.84,15,9.7,3.93-1.53,6.85-3.09,11.28-2.33,2.78.47,5.44,1.45,8.24,1.85,5.22.75,9.57-1.24,14.58-2.31,4-.86,6.75.07,10.06,2.21a13,13,0,0,0,5.21,2.36c.84.13,2.25-.26,3,0,1.79.7,2.06,2.66,2.53,4.17a5.81,5.81,0,0,0,2,3.06c3.11,2.43,8.07,1.39,11.61,1.08l20.87-1.88c1.59-.14,1.6-2.64,0-2.5l-17.07,1.54c-2.72.25-5.47.63-8.2.72-3.85.13-5.53-.9-7.19-4.7-1.11-2.55-1.61-3.57-4.56-4s-4.76-.63-7.5-2.44a14.69,14.69,0,0,0-4.76-2.33c-3.52-.82-7.12.36-10.48,1.33-6.13,1.78-10.77.81-16.85-.43a16.65,16.65,0,0,0-10.38.75c-3.57,1.49-7.37,3.7-10.79.66-2-1.81-3.17-4.75-4.12-7.2A1.27,1.27,0,0,0,369,239a10.32,10.32,0,0,1-15.59-2.18c-.86-1.36-3-.1-2.16,1.26Z" transform="translate(-18.03 -39.7)"/><path class="cls-3" d="M339.31,260.06c9.8,10.84,22.87,4,34.91,2.6,3.81-.43,8.1-.35,11.56,1.54,2.92,1.6,4.61,4.29,6.55,6.89,2.18,2.94,4.82,6.19,8.89,5.56,2.58-.4,4.53-2.62,7.19-2.83,3.7-.29,7.36,2.49,10.41,4.18a23.23,23.23,0,0,0,16,2.77c4-.67,8-2.51,12-2.68s6.13,2.82,9.71,3.59c6.65,1.44,14.5.6,21.29.81,1.61,0,1.61-2.45,0-2.5l-10.9-.33c-3.57-.11-8.79.59-12-1.17-1.92-1-2.75-2.52-5-3-2.88-.55-5.94.52-8.7,1.21-3.91,1-7.91,2.12-12,2s-7.57-2-11.12-4c-3.9-2.19-8.13-4.44-12.65-2.77-3.62,1.34-5.34,3.51-8.92.4-1.8-1.56-3-3.93-4.44-5.8a16.39,16.39,0,0,0-10.92-6.35c-13.39-2-29.08,10.28-40.09-1.91-1.08-1.2-2.84.58-1.77,1.77Z" transform="translate(-18.03 -39.7)"/><path class="cls-3" d="M331.31,317.93c9.8,10.84,22.87,4,34.91,2.6,3.81-.43,8.1-.35,11.56,1.54,2.92,1.6,4.61,4.29,6.55,6.89,2.18,2.94,4.82,6.19,8.89,5.56,2.58-.4,4.53-2.62,7.19-2.83,3.7-.29,7.36,2.49,10.41,4.18a23.23,23.23,0,0,0,16,2.77c4-.67,8-2.51,12-2.68s6.13,2.82,9.71,3.59c6.65,1.44,14.5.6,21.29.81,1.61,0,1.61-2.45,0-2.5l-10.9-.33c-3.57-.11-8.79.59-12-1.17-1.92-1-2.75-2.52-5-3-2.88-.55-5.94.52-8.7,1.21-3.91,1-7.91,2.12-12,2s-7.57-2-11.12-4c-3.9-2.19-8.13-4.44-12.65-2.77-3.62,1.34-5.34,3.51-8.92.4-1.8-1.56-3-3.93-4.44-5.8a16.39,16.39,0,0,0-10.92-6.35c-13.39-2-29.08,10.28-40.09-1.91-1.08-1.2-2.84.58-1.77,1.77Z" transform="translate(-18.03 -39.7)"/><path class="cls-3" d="M330.08,348.34A12.86,12.86,0,0,0,349.6,351l-2.09-.55c2.69,6.89,6.87,12.84,15,9.7,3.93-1.53,6.85-3.09,11.28-2.33,2.78.47,5.44,1.45,8.24,1.85,5.22.75,9.57-1.24,14.58-2.31,4-.86,6.75.07,10.06,2.21a13,13,0,0,0,5.21,2.36c.84.13,2.25-.26,3,0,1.79.7,2.06,2.66,2.53,4.17a5.81,5.81,0,0,0,2,3.06c3.11,2.43,8.07,1.39,11.61,1.08l20.87-1.88c1.59-.14,1.6-2.64,0-2.5l-17.07,1.54c-2.72.25-5.47.63-8.2.72-3.85.13-5.53-.9-7.19-4.7-1.11-2.55-1.61-3.57-4.56-4s-4.76-.63-7.5-2.44a14.69,14.69,0,0,0-4.76-2.33c-3.52-.82-7.12.36-10.48,1.33-6.13,1.78-10.77.81-16.85-.43a16.65,16.65,0,0,0-10.38.75c-3.57,1.49-7.37,3.7-10.79.66-2-1.81-3.17-4.75-4.12-7.2a1.27,1.27,0,0,0-2.09-.55,10.32,10.32,0,0,1-15.59-2.18c-.86-1.36-3-.1-2.16,1.26Z" transform="translate(-18.03 -39.7)"/><rect class="cls-1" x="233.15" y="228.47" width="192.57" height="270.74" rx="3.62" ry="3.62" transform="translate(40.96 -85.46) rotate(8.72)"/><rect class="cls-2" x="236.6" y="229.1" width="192.57" height="270.74" rx="3.62" ry="3.62" transform="translate(41.1 -85.97) rotate(8.72)"/><path class="cls-3" d="M285.49,257.14c9.8,10.84,22.87,4,34.91,2.6,3.81-.43,8.1-.35,11.56,1.54,2.92,1.6,4.61,4.29,6.55,6.89,2.18,2.94,4.82,6.19,8.89,5.56,2.58-.4,4.53-2.62,7.19-2.83,3.7-.29,7.36,2.49,10.41,4.18a23.23,23.23,0,0,0,16,2.77c4-.67,8-2.51,12-2.68s6.13,2.82,9.71,3.59c6.65,1.44,14.5.6,21.29.81,1.61,0,1.61-2.45,0-2.5l-10.9-.33c-3.57-.11-8.79.59-12-1.17-1.92-1-2.75-2.52-5-3-2.88-.55-5.94.52-8.7,1.21-3.91,1-7.91,2.12-12,2s-7.57-2-11.12-4c-3.9-2.19-8.13-4.44-12.65-2.77-3.62,1.34-5.34,3.51-8.92.4-1.8-1.56-3-3.93-4.44-5.8a16.39,16.39,0,0,0-10.92-6.35c-13.39-2-29.08,10.28-40.09-1.91-1.08-1.2-2.84.58-1.77,1.77Z" transform="translate(-18.03 -39.7)"/><path class="cls-3" d="M284.26,287.56a12.86,12.86,0,0,0,19.52,2.69l-2.09-.55c2.69,6.89,6.87,12.84,15,9.7,3.93-1.53,6.85-3.09,11.28-2.33,2.78.47,5.44,1.45,8.24,1.85,5.22.75,9.57-1.24,14.58-2.31,4-.86,6.75.07,10.06,2.21a13,13,0,0,0,5.21,2.36c.84.13,2.25-.26,3,0,1.79.7,2.06,2.66,2.53,4.17a5.81,5.81,0,0,0,2,3.06c3.11,2.43,8.07,1.39,11.61,1.08L406,307.62c1.59-.14,1.6-2.64,0-2.5l-17.07,1.54c-2.72.25-5.47.63-8.2.72-3.85.13-5.53-.9-7.19-4.7-1.11-2.55-1.61-3.57-4.56-4s-4.76-.63-7.5-2.44a14.69,14.69,0,0,0-4.76-2.33c-3.52-.82-7.12.36-10.48,1.33-6.13,1.78-10.77.81-16.85-.43a16.65,16.65,0,0,0-10.38.75c-3.57,1.49-7.37,3.7-10.79.66-2-1.81-3.17-4.75-4.12-7.2a1.27,1.27,0,0,0-2.09-.55,10.32,10.32,0,0,1-15.59-2.18c-.86-1.36-3-.1-2.16,1.26Z" transform="translate(-18.03 -39.7)"/><path class="cls-3" d="M272.36,309.57c9.8,10.84,22.87,4,34.91,2.6,3.81-.43,8.1-.35,11.56,1.54,2.92,1.6,4.61,4.29,6.55,6.89,2.18,2.94,4.82,6.19,8.89,5.56,2.58-.4,4.53-2.62,7.19-2.83,3.7-.29,7.36,2.49,10.41,4.18a23.23,23.23,0,0,0,16,2.77c4-.67,8-2.51,12-2.68s6.13,2.82,9.71,3.59c6.65,1.44,14.5.6,21.29.81,1.61,0,1.61-2.45,0-2.5l-10.9-.33c-3.57-.11-8.79.59-12-1.17-1.92-1-2.75-2.52-5-3-2.88-.55-5.94.52-8.7,1.21-3.91,1-7.91,2.12-12,2s-7.57-2-11.12-4c-3.9-2.19-8.13-4.44-12.65-2.77-3.62,1.34-5.34,3.51-8.92.4-1.8-1.56-3-3.93-4.44-5.8a16.39,16.39,0,0,0-10.92-6.35c-13.39-2-29.08,10.28-40.09-1.91-1.08-1.2-2.84.58-1.77,1.77Z" transform="translate(-18.03 -39.7)"/><path class="cls-3" d="M271.13,340a12.86,12.86,0,0,0,19.52,2.69l-2.09-.55c2.69,6.89,6.87,12.84,15,9.7,3.93-1.53,6.85-3.09,11.28-2.33,2.78.47,5.44,1.45,8.24,1.85,5.22.75,9.57-1.24,14.58-2.31,4-.86,6.75.07,10.06,2.21a13,13,0,0,0,5.21,2.36c.84.13,2.25-.26,3,0,1.79.7,2.06,2.66,2.53,4.17a5.81,5.81,0,0,0,2,3.06c3.11,2.43,8.07,1.39,11.61,1.08l20.87-1.88c1.59-.14,1.6-2.64,0-2.5l-17.07,1.54c-2.72.25-5.47.63-8.2.72-3.85.13-5.53-.9-7.19-4.7-1.11-2.55-1.61-3.57-4.56-4s-4.76-.63-7.5-2.44a14.69,14.69,0,0,0-4.76-2.33c-3.52-.82-7.12.36-10.48,1.33-6.13,1.78-10.77.81-16.85-.43a16.65,16.65,0,0,0-10.38.75c-3.57,1.49-7.37,3.7-10.79.66-2-1.81-3.17-4.75-4.12-7.2a1.27,1.27,0,0,0-2.09-.55,10.32,10.32,0,0,1-15.59-2.18c-.86-1.36-3-.1-2.16,1.26Z" transform="translate(-18.03 -39.7)"/><path class="cls-3" d="M264.36,367.45c9.8,10.84,22.87,4,34.91,2.6,3.81-.43,8.1-.35,11.56,1.54,2.92,1.6,4.61,4.29,6.55,6.89,2.18,2.94,4.82,6.19,8.89,5.56,2.58-.4,4.53-2.62,7.19-2.83,3.7-.29,7.36,2.49,10.41,4.18a23.23,23.23,0,0,0,16,2.77c4-.67,8-2.51,12-2.68s6.13,2.82,9.71,3.59c6.65,1.44,14.5.6,21.29.81,1.61,0,1.61-2.45,0-2.5L392,387c-3.57-.11-8.79.59-12-1.17-1.92-1-2.75-2.52-5-3-2.88-.55-5.94.52-8.7,1.21-3.91,1-7.91,2.12-12,2s-7.57-2-11.12-4c-3.9-2.19-8.13-4.44-12.65-2.77-3.62,1.34-5.34,3.51-8.92.4-1.8-1.56-3-3.93-4.44-5.8a16.39,16.39,0,0,0-10.92-6.35c-13.39-2-29.08,10.28-40.09-1.91-1.08-1.2-2.84.58-1.77,1.77Z" transform="translate(-18.03 -39.7)"/><path class="cls-3" d="M263.13,397.86a12.86,12.86,0,0,0,19.52,2.69l-2.09-.55c2.69,6.89,6.87,12.84,15,9.7,3.93-1.53,6.85-3.09,11.28-2.33,2.78.47,5.44,1.45,8.24,1.85,5.22.75,9.57-1.24,14.58-2.31,4-.86,6.75.07,10.06,2.21a13,13,0,0,0,5.21,2.36c.84.13,2.25-.26,3,0,1.79.7,2.06,2.66,2.53,4.17a5.81,5.81,0,0,0,2,3.06c3.11,2.43,8.07,1.39,11.61,1.08l20.87-1.88c1.59-.14,1.6-2.64,0-2.5L367.8,417c-2.72.25-5.47.63-8.2.72-3.85.13-5.53-.9-7.19-4.7-1.11-2.55-1.61-3.57-4.56-4s-4.76-.63-7.5-2.44a14.69,14.69,0,0,0-4.76-2.33c-3.52-.82-7.12.36-10.48,1.33-6.13,1.78-10.77.81-16.85-.43a16.65,16.65,0,0,0-10.38.75c-3.57,1.49-7.37,3.7-10.79.66-2-1.81-3.17-4.75-4.12-7.2a1.27,1.27,0,0,0-2.09-.55,10.32,10.32,0,0,1-15.59-2.18c-.86-1.36-3-.1-2.16,1.26Z" transform="translate(-18.03 -39.7)"/><path class="cls-3" d="M252.1,419.87c9.8,10.84,22.87,4,34.91,2.6,3.81-.43,8.1-.35,11.56,1.54,2.92,1.6,4.61,4.29,6.55,6.89,2.18,2.94,4.82,6.19,8.89,5.56,2.58-.4,4.53-2.62,7.19-2.83,3.7-.29,7.36,2.49,10.41,4.18a23.23,23.23,0,0,0,16,2.77c4-.67,8-2.51,12-2.68s6.13,2.82,9.71,3.59c6.65,1.44,14.5.6,21.29.81,1.61,0,1.61-2.45,0-2.5l-10.9-.33c-3.57-.11-8.79.59-12-1.17-1.92-1-2.75-2.52-5-3-2.88-.55-5.94.52-8.7,1.21-3.91,1-7.91,2.12-12,2s-7.57-2-11.12-4c-3.9-2.19-8.13-4.44-12.65-2.77-3.62,1.34-5.34,3.51-8.92.4-1.8-1.56-3-3.93-4.44-5.8A16.39,16.39,0,0,0,294,420c-13.39-2-29.08,10.28-40.09-1.91-1.08-1.2-2.84.58-1.77,1.77Z" transform="translate(-18.03 -39.7)"/><path class="cls-5" d="M273.61,342.73l-11.71-4.84a3.1,3.1,0,0,1-.83-5.21l8.77-7.52a3.1,3.1,0,0,1,5,1.63l2.93,12.36A3.1,3.1,0,0,1,273.61,342.73Z" transform="translate(-18.03 -39.7)"/><rect class="cls-6" x="22.51" y="50.61" width="64.22" height="49.49" rx="9.58" ry="9.58" transform="translate(-53.63 12.79) rotate(-39.84)"/><polygon class="cls-7" points="247.3 238.36 197.83 279.64 21.52 67.53 70.99 26.25 247.3 238.36"/><polygon class="cls-8" points="246.45 237.79 197.24 278.85 247.4 299.6 257.41 289.39 246.45 237.79"/></svg>