<svg xmlns="http://www.w3.org/2000/svg" viewBox="0 0 271.19 214.06"><defs><style>.cls-1{fill:#6f8786;}.cls-2{fill:#849997;}.cls-3{fill:#abc6c6;}.cls-4{fill:#8ca9aa;}.cls-5{fill:#b5cecd;}.cls-6{fill:#abc7c9;}.cls-7{fill:#cfe4e5;}.cls-8{fill:#728d8e;}.cls-15,.cls-9{fill:#e0553d;stroke:#e0543e;stroke-miterlimit:10;}.cls-10{fill:#e5e166;}.cls-11{fill:#91a5d5;}.cls-12{fill:#e0543e;}.cls-13{fill:#92a6d5;}.cls-14{fill:#ecc19c;}.cls-15{stroke-width:2px;}.cls-16{fill:#cda349;}.cls-17{fill:#282828;}</style></defs><title>icon3--go on an adventure2</title><g id="Layer_2" data-name="Layer 2"><polygon class="cls-1" points="112.49 169.86 113.02 170.68 112.49 169.86 92.39 161.32 92.05 162.03 82.31 200.32 82.45 200.34 114.01 170.51 112.49 169.86"/><polygon class="cls-2" points="213.98 213.85 113.88 169.52 82.31 200.57 212.5 214.06 213.98 213.85"/><polygon class="cls-3" points="146.7 135.14 143.18 136.03 114.05 169.82 221.31 143 146.7 135.14"/><polygon class="cls-4" points="151 187.78 210.03 212.89 210.1 212.88 222.35 143.21 220.77 143.09 151 187.78"/><polygon class="cls-5" points="266.25 176.53 222.14 143.25 220.96 143.15 208.72 212.83 211.06 212.51 266.25 176.53"/><polygon class="cls-6" points="208.72 212.87 266.25 176.57 271.19 198.1 213.98 213.9 207.5 213.6 208.72 212.87"/><polygon class="cls-7" points="111.65 169.82 221.31 143 151 187.78 111.65 169.82"/><polygon class="cls-8" points="92.39 161.32 104.03 147.06 113.02 170.68 92.39 161.32"/><polygon class="cls-4" points="104.03 147.06 143.18 136.03 113.02 171.45 104.03 147.06"/></g><g id="Layer_1" data-name="Layer 1"><path class="cls-9" d="M220.52,269.2l-32.3,89S203,348.1,204.36,352.7s13.55-3.38,13.55-3.38,72.5-21.67,76.18-18.35c0,0,5.52-13.25,8.29-11.41s-52.48-53.34-52.48-53.34Z" transform="translate(-179.72 -195.44)"/><polygon class="cls-10" points="122.77 24.71 72.84 68.32 78.3 89.94 122.77 24.71"/><path class="cls-9" d="M206.78,391.91q0,2.42,0,4.84c6.72,1.77,14.87,3.36,16.25.75.81-1.52-1.2-3.48-2.25-6-1.38-3.31-.89-7.11.53-10.86l-14.16-1Q206.85,385.84,206.78,391.91Z" transform="translate(-179.72 -195.44)"/><path class="cls-11" d="M266.73,266.05l.32.08S266.93,266.07,266.73,266.05Z" transform="translate(-179.72 -195.44)"/><path class="cls-10" d="M260.52,266.79a6.06,6.06,0,0,1,2.07-.84c-11.37,0-40.56.84-40.56.84l-38.85,39.87,38.67-19.93a415.87,415.87,0,0,0-14.73,92.9l14.16,1c3.27-8.68,11.49-17.08,12.89-18.51,3-3.07,20.49-20.89,36.94-16.12l10.66-8.49C271.91,324,255.64,270,260.52,266.79Z" transform="translate(-179.72 -195.44)"/><path class="cls-9" d="M291,341.17c-1.27-.16-3.51.08-5.88-.63l-.12,0c-1-.29-2-1.34-3.23-3L271.1,346l.45.13.45.14a119.64,119.64,0,0,1,9.82,7.54c11.77-4.94,14.12-7.7,13.83-9.33C295.42,343.12,293.11,341.43,291,341.17Z" transform="translate(-179.72 -195.44)"/><path class="cls-12" d="M214.91,277.7c15.51,8.66,34.16,3,46.36-8.54,4.23-4-2.15-10.34-6.36-6.36-9.3,8.76-23.85,13.61-35.45,7.13-5.06-2.83-9.61,4.94-4.54,7.77Z" transform="translate(-179.72 -195.44)"/><path class="cls-13" d="M288.25,227.25" transform="translate(-179.72 -195.44)"/><ellipse class="cls-9" cx="297.91" cy="221.8" rx="7.04" ry="3.89" transform="translate(-185.99 239.47) rotate(-71.68)"/><ellipse class="cls-9" cx="186.5" cy="305.02" rx="7.04" ry="3.89" transform="translate(-315.07 -46.07) rotate(-32.75)"/><ellipse class="cls-14" cx="52.83" cy="40.72" rx="33.15" ry="40.72"/><path class="cls-15" d="M208,334.6s46.55-24.79,67.35-29.58" transform="translate(-179.72 -195.44)"/><ellipse class="cls-16" cx="63.93" cy="123.18" rx="4.17" ry="6"/><ellipse class="cls-17" cx="38.35" cy="28.91" rx="2.81" ry="2.55"/><path class="cls-17" d="M220.92,224.35v.19a2.37,2.37,0,0,1-.09.54,3.12,3.12,0,0,1-1.14,1.62,3.35,3.35,0,0,1-1.28.61,3.8,3.8,0,0,1-.41.07,2.57,2.57,0,0,1-.38,0,3.76,3.76,0,0,1-.88-.1,3.12,3.12,0,0,1-1.64-1,3,3,0,0,1-.74-2,3.69,3.69,0,0,1,.2-1,2.79,2.79,0,0,1,.54-.9,3.13,3.13,0,0,1,1.64-1,3.61,3.61,0,0,1,1.65,0,3.27,3.27,0,0,1,1.3.61,3.12,3.12,0,0,1,1.14,1.62,2.37,2.37,0,0,1,.09.54Zm-.1,0v-.18a2.25,2.25,0,0,0-.1-.51,2.52,2.52,0,0,0-1.17-1.4,3,3,0,0,0-2.54-.18,2.74,2.74,0,0,0-1.17.87,2.3,2.3,0,0,0,0,2.81,2.74,2.74,0,0,0,1.17.87,3,3,0,0,0,2.54-.18,2.52,2.52,0,0,0,1.17-1.4,2.25,2.25,0,0,0,.1-.51Z" transform="translate(-179.72 -195.44)"/><ellipse class="cls-17" cx="67.17" cy="28.91" rx="2.81" ry="2.55"/><path class="cls-17" d="M249.74,224.35v.19a2.37,2.37,0,0,1-.09.54,3.12,3.12,0,0,1-1.14,1.62,3.35,3.35,0,0,1-1.28.61,3.8,3.8,0,0,1-.41.07,2.57,2.57,0,0,1-.38,0,3.76,3.76,0,0,1-.88-.1,3.12,3.12,0,0,1-1.64-1,3,3,0,0,1-.74-2,3.69,3.69,0,0,1,.2-1,2.79,2.79,0,0,1,.54-.9,3.13,3.13,0,0,1,1.64-1,3.61,3.61,0,0,1,1.65,0,3.27,3.27,0,0,1,1.3.61,3.12,3.12,0,0,1,1.14,1.62,2.37,2.37,0,0,1,.09.54Zm-.1,0v-.18a2.25,2.25,0,0,0-.1-.51,2.52,2.52,0,0,0-1.17-1.4,3,3,0,0,0-2.54-.18,2.74,2.74,0,0,0-1.17.87,2.3,2.3,0,0,0,0,2.81,2.74,2.74,0,0,0,1.17.87,3,3,0,0,0,2.54-.18,2.52,2.52,0,0,0,1.17-1.4,2.25,2.25,0,0,0,.1-.51Z" transform="translate(-179.72 -195.44)"/><path class="cls-17" d="M225.18,233.7c4.27,4.42,10.27,4.54,14.45,0,.54-.59-.34-1.48-.88-.88-3.75,4.07-8.92,3.89-12.68,0-.56-.58-1.44.3-.88.88Z" transform="translate(-179.72 -195.44)"/></g></svg>