<?xml version="1.0" encoding="utf-8"?>
<!-- Generator: Adobe Illustrator 20.0.0, SVG Export Plug-In . SVG Version: 6.00 Build 0)  -->
<svg version="1.1" xmlns="http://www.w3.org/2000/svg" xmlns:xlink="http://www.w3.org/1999/xlink" x="0px" y="0px"
	 viewBox="0 0 600 600" style="enable-background:new 0 0 600 600;" xml:space="preserve">
<style type="text/css">
	.st0{display:none;}
	.st1{display:inline;fill:#BFE6F1;}
	.st2{display:inline;fill:#A7DFF9;}
	.st3{display:inline;fill:#2C3E50;}
	.st4{display:inline;fill:#4458A7;}
	.st5{display:inline;fill:#F0F9FA;}
	.st6{fill:#C8D1EB;}
	.st7{fill:#92A6D5;}
	.st8{fill:#A0B2DC;}
	.st9{fill:#4B4B4F;}
	.st10{fill:#EEBA44;}
	.st11{fill:#282828;}
	.st12{fill:#5A5A5A;}
</style>
<g id="Layer_1" class="st0">
	<ellipse class="st1" cx="319.9" cy="74.2" rx="210.1" ry="37.3"/>
	<ellipse class="st2" cx="330.5" cy="36.9" rx="223.6" ry="30.8"/>
	<ellipse class="st3" cx="325" cy="111.5" rx="210.9" ry="18.1"/>
	<ellipse class="st4" cx="376.4" cy="102.8" rx="0.4" ry="8.3"/>
	<ellipse class="st5" cx="315.5" cy="149.2" rx="223.6" ry="30.8"/>
</g>
<g id="Layer_2">
	<g>
		<circle class="st6" cx="239" cy="213.7" r="54.4"/>
		<path class="st6" d="M296.9,352c0-58.4-26.2-105.7-58.6-105.7s-58.6,47.3-58.6,105.7c0,13.3,1.4,26,3.8,37.7H293
			C295.5,378,296.9,365.3,296.9,352z"/>
	</g>
	<g>
		<circle class="st6" cx="368.9" cy="220" r="54.4"/>
		<path class="st6" d="M426.7,358.3c0-58.4-26.2-105.7-58.6-105.7s-58.6,47.3-58.6,105.7c0,13.3,1.4,26,3.8,37.7h109.4
			C425.4,384.3,426.7,371.6,426.7,358.3z"/>
	</g>
	<g>
		<circle class="st7" cx="479.8" cy="295.5" r="61.2"/>
		<path class="st7" d="M544.9,451.1c0-65.6-29.5-118.8-65.9-118.8c-36.4,0-65.9,53.2-65.9,118.8c0,15,1.5,29.3,4.3,42.4h123.1
			C543.3,480.3,544.9,466,544.9,451.1z"/>
	</g>
	<g>
		<circle class="st8" cx="128.2" cy="272.4" r="61.2"/>
		<path class="st8" d="M192.8,427.9c0-65.6-29.4-118.8-65.6-118.8s-65.6,53.2-65.6,118.8c0,15,1.5,29.3,4.3,42.4h122.6
			C191.3,457.2,192.8,442.9,192.8,427.9z"/>
	</g>
	
		<rect x="179.5" y="352.6" transform="matrix(0.9953 9.632760e-02 -9.632760e-02 0.9953 36.9677 -16.8326)" class="st9" width="26.7" height="43.8"/>
	
		<rect x="307.1" y="289.9" transform="matrix(0.9289 -0.3702 0.3702 0.9289 -92.6768 139.9117)" class="st9" width="22.2" height="43"/>
	
		<rect x="405" y="371" transform="matrix(0.9289 -0.3702 0.3702 0.9289 -116.7917 183.5272)" class="st9" width="29.5" height="50"/>
	
		<rect x="264.2" y="284.5" transform="matrix(0.9494 0.3141 -0.3141 0.9494 109.5526 -71.0518)" class="st9" width="22.2" height="39.8"/>
	
		<rect x="557.2" y="172.1" transform="matrix(0.7532 0.6578 -0.6578 0.7532 275.6329 -321.2596)" class="st10" width="17.5" height="69.1"/>
	
		<rect x="478.1" y="93.3" transform="matrix(0.8923 0.4513 -0.4513 0.8923 110.095 -205.9556)" class="st10" width="17.5" height="69.1"/>
	
		<rect x="361.7" y="62.3" transform="matrix(0.9909 0.1347 -0.1347 0.9909 16.4246 -49.0139)" class="st10" width="17.5" height="69.1"/>
	
		<rect x="26" y="172.1" transform="matrix(-0.7532 0.6578 -0.6578 -0.7532 196.8975 339.5506)" class="st10" width="17.5" height="69.1"/>
	
		<rect x="105.2" y="93.3" transform="matrix(-0.8923 0.4513 -0.4513 -0.8923 273.265 190.4585)" class="st10" width="17.5" height="69.1"/>
	
		<rect x="220.7" y="62.5" transform="matrix(-0.9929 0.1191 -0.1191 -0.9929 468.8966 166.0336)" class="st10" width="17.5" height="69.1"/>
	<g>
		<g>
			<ellipse class="st11" cx="129.1" cy="269.8" rx="4.5" ry="4.1"/>
			<path class="st11" d="M133.6,269.8c0,0,0,0.1,0,0.3c0,0.2,0,0.5-0.1,0.8c-0.1,0.4-0.3,0.8-0.6,1.2c-0.3,0.4-0.7,0.9-1.3,1.3
				c-0.5,0.4-1.2,0.7-2,0.8c-0.2,0-0.4,0.1-0.6,0.1c-0.2,0-0.4,0-0.6,0c-0.5,0-0.9-0.1-1.3-0.2c-0.9-0.2-1.7-0.7-2.3-1.5
				c-0.7-0.7-1-1.8-1-2.8c0-0.4,0.1-1.1,0.3-1.5c0.2-0.5,0.4-0.9,0.8-1.3c0.6-0.8,1.5-1.3,2.3-1.5c0.9-0.2,1.7-0.3,2.5-0.1
				c0.8,0.2,1.5,0.5,2,0.8c0.5,0.4,1,0.8,1.3,1.3c0.3,0.4,0.5,0.9,0.6,1.2c0.1,0.4,0.1,0.7,0.1,0.8
				C133.6,269.7,133.6,269.8,133.6,269.8z M133.5,269.8c0,0,0-0.1,0-0.3c0-0.2-0.1-0.5-0.2-0.8c-0.2-0.7-0.8-1.6-1.9-2.2
				c-1.1-0.6-2.6-0.9-4.1-0.3c-0.7,0.3-1.4,0.8-1.9,1.4c-0.5,0.6-0.8,1.4-0.8,2.3c0,0.8,0.3,1.6,0.8,2.3c0.5,0.6,1.2,1.1,1.9,1.4
				c1.4,0.6,3,0.3,4.1-0.3c1.1-0.6,1.7-1.6,1.9-2.2c0.1-0.3,0.1-0.6,0.2-0.8C133.5,269.9,133.5,269.8,133.5,269.8z"/>
		</g>
		<g>
			<ellipse class="st11" cx="174.8" cy="269.8" rx="4.5" ry="4.1"/>
			<path class="st11" d="M179.3,269.8c0,0,0,0.1,0,0.3c0,0.2,0,0.5-0.1,0.8c-0.1,0.4-0.3,0.8-0.6,1.2c-0.3,0.4-0.7,0.9-1.3,1.3
				c-0.5,0.4-1.2,0.7-2,0.8c-0.2,0-0.4,0.1-0.6,0.1c-0.2,0-0.4,0-0.6,0c-0.5,0-0.9-0.1-1.3-0.2c-0.9-0.2-1.7-0.7-2.3-1.5
				c-0.7-0.8-1-1.7-1-2.9c0-0.3,0.1-1,0.3-1.5c0.2-0.5,0.4-0.9,0.8-1.3c0.6-0.8,1.5-1.3,2.3-1.5c0.9-0.2,1.7-0.3,2.5-0.1
				c0.8,0.2,1.5,0.5,2,0.8c0.5,0.4,1,0.8,1.3,1.3c0.3,0.4,0.5,0.9,0.6,1.2c0.1,0.4,0.1,0.7,0.1,0.8
				C179.3,269.7,179.3,269.8,179.3,269.8z M179.2,269.8c0,0,0-0.1,0-0.3c0-0.2-0.1-0.5-0.2-0.8c-0.2-0.7-0.8-1.6-1.9-2.2
				c-1.1-0.6-2.6-0.9-4.1-0.3c-0.7,0.3-1.4,0.8-1.9,1.4c-0.5,0.6-0.8,1.4-0.8,2.3c0,0.8,0.3,1.6,0.8,2.3c0.5,0.6,1.2,1.1,1.9,1.4
				c1.4,0.6,3,0.3,4.1-0.3c1.1-0.6,1.7-1.6,1.9-2.2c0.1-0.3,0.1-0.6,0.2-0.8C179.2,269.9,179.2,269.8,179.2,269.8z"/>
		</g>
		<g>
			<path class="st11" d="M137.7,298c0,0,11.7,18.9,28.5,0"/>
			<path class="st11" d="M137.8,298c0,0,0.3,0.4,1,1.1c0.6,0.7,1.6,1.6,2.8,2.6c0.6,0.5,1.3,1,2,1.5c0.8,0.5,1.6,0.9,2.4,1.3
				c0.9,0.4,1.8,0.7,2.8,0.9c1,0.2,2,0.3,3,0.2c0.5,0,1-0.1,1.5-0.1c0.5-0.1,1-0.2,1.5-0.3c1-0.3,1.9-0.6,2.8-1
				c0.9-0.4,1.7-0.9,2.5-1.3c0.8-0.5,1.5-0.9,2.1-1.4c0.6-0.5,1.2-0.9,1.7-1.3c0.5-0.4,0.9-0.8,1.3-1.1c0.7-0.6,1.1-1,1.1-1l0.1,0.1
				c0,0-0.4,0.4-1,1.1c-0.3,0.3-0.7,0.8-1.2,1.2c-0.5,0.5-1,1-1.6,1.5c-0.6,0.5-1.3,1-2.1,1.6c-0.8,0.5-1.6,1-2.5,1.5
				c-0.9,0.5-1.9,0.8-2.9,1.1c-0.5,0.2-1,0.2-1.6,0.4c-0.5,0.1-1.1,0.2-1.6,0.2c-1.1,0.1-2.2-0.1-3.2-0.3c-1-0.2-2-0.6-2.9-1
				c-1.8-0.9-3.3-2-4.5-3.1c-1.2-1.1-2-2.1-2.6-2.9C138,298.5,137.7,298,137.8,298L137.8,298z"/>
		</g>
	</g>
	<g>
		<g>
			<ellipse class="st12" cx="243.5" cy="214.8" rx="4" ry="3.6"/>
			<path class="st12" d="M247.6,214.8c0,0,0,0.1,0,0.3c0,0.2,0,0.4-0.1,0.8c-0.1,0.3-0.3,0.7-0.5,1.1c-0.3,0.4-0.6,0.8-1.1,1.1
				c-0.5,0.3-1.1,0.6-1.8,0.8c-0.2,0-0.3,0.1-0.5,0.1c-0.2,0-0.3,0-0.5,0c-0.4,0-0.8-0.1-1.2-0.2c-0.8-0.2-1.6-0.7-2.1-1.4
				c-0.6-0.7-0.9-1.6-1-2.6c0-0.3,0.1-0.9,0.3-1.3c0.2-0.4,0.4-0.8,0.7-1.2c0.6-0.7,1.4-1.1,2.1-1.4c0.8-0.2,1.6-0.2,2.2-0.1
				c0.7,0.1,1.3,0.4,1.8,0.8c0.5,0.4,0.9,0.7,1.1,1.1c0.3,0.4,0.4,0.8,0.5,1.1c0.1,0.3,0.1,0.6,0.1,0.8
				C247.6,214.7,247.6,214.8,247.6,214.8z M247.5,214.8c0,0,0-0.1,0-0.3c0-0.2,0-0.4-0.1-0.7c-0.2-0.6-0.7-1.4-1.7-2
				c-0.9-0.6-2.3-0.8-3.6-0.3c-0.6,0.3-1.2,0.7-1.7,1.2c-0.4,0.6-0.7,1.3-0.7,2c0,0.7,0.2,1.4,0.7,2c0.4,0.6,1,1,1.7,1.2
				c1.3,0.5,2.7,0.3,3.6-0.3c1-0.5,1.5-1.4,1.7-2c0.1-0.3,0.1-0.6,0.1-0.7C247.5,214.9,247.5,214.8,247.5,214.8z"/>
		</g>
		<g>
			<ellipse class="st12" cx="284.3" cy="214.8" rx="4" ry="3.6"/>
			<path class="st12" d="M288.3,214.8c0,0,0,0.1,0,0.3c0,0.2,0,0.4-0.1,0.8c-0.1,0.3-0.3,0.7-0.5,1.1c-0.3,0.4-0.6,0.8-1.1,1.1
				c-0.5,0.3-1.1,0.6-1.8,0.8c-0.2,0-0.3,0.1-0.5,0.1c-0.2,0-0.3,0-0.5,0c-0.4,0-0.8-0.1-1.2-0.2c-0.8-0.2-1.6-0.7-2.1-1.4
				c-0.6-0.7-0.9-1.6-1-2.6c0-0.3,0.1-0.9,0.3-1.3c0.2-0.4,0.4-0.8,0.7-1.2c0.6-0.7,1.4-1.1,2.1-1.4c0.8-0.2,1.6-0.2,2.2-0.1
				c0.7,0.1,1.3,0.4,1.8,0.8c0.5,0.4,0.9,0.7,1.1,1.1c0.3,0.4,0.4,0.8,0.5,1.1c0.1,0.3,0.1,0.6,0.1,0.8
				C288.3,214.7,288.3,214.8,288.3,214.8z M288.2,214.8c0,0,0-0.1,0-0.3c0-0.2,0-0.4-0.1-0.7c-0.2-0.6-0.7-1.4-1.7-2
				c-0.9-0.6-2.3-0.8-3.6-0.3c-0.6,0.3-1.2,0.7-1.7,1.2c-0.4,0.6-0.7,1.3-0.7,2c0,0.7,0.2,1.4,0.7,2c0.4,0.6,1,1,1.7,1.2
				c1.3,0.5,2.7,0.3,3.6-0.3c1-0.5,1.5-1.4,1.7-2c0.1-0.3,0.1-0.6,0.1-0.7C288.2,214.9,288.2,214.8,288.2,214.8z"/>
		</g>
		<g>
			<path class="st12" d="M251.2,239.9c0,0,10.4,16.8,25.3,0"/>
			<path class="st12" d="M251.3,239.9c0,0,0.3,0.4,0.9,1c0.6,0.6,1.4,1.4,2.5,2.3c0.5,0.4,1.2,0.9,1.8,1.3c0.7,0.4,1.4,0.8,2.2,1.1
				c0.8,0.3,1.6,0.6,2.4,0.8c0.9,0.1,1.7,0.2,2.6,0.2c0.4,0,0.9-0.1,1.3-0.1c0.4-0.1,0.9-0.1,1.3-0.3c0.8-0.2,1.7-0.5,2.4-0.9
				c0.8-0.4,1.5-0.8,2.2-1.1c0.7-0.4,1.3-0.8,1.9-1.3c1.1-0.8,2.1-1.5,2.7-2.1c0.6-0.5,1-0.8,1-0.8l0.1,0.1c0,0-0.3,0.3-0.9,1
				c-0.3,0.3-0.6,0.7-1.1,1.1c-0.4,0.4-0.9,0.9-1.4,1.3c-0.5,0.5-1.2,0.9-1.8,1.4c-0.7,0.4-1.4,0.9-2.2,1.3c-0.8,0.4-1.7,0.7-2.6,1
				c-0.4,0.1-0.9,0.2-1.4,0.3c-0.5,0-0.9,0.1-1.4,0.1c-1,0.1-1.9-0.1-2.8-0.3c-0.9-0.2-1.8-0.5-2.6-0.9c-1.6-0.8-3-1.8-4-2.8
				c-1.1-1-1.8-1.9-2.3-2.5C251.4,240.4,251.2,240,251.3,239.9L251.3,239.9z"/>
		</g>
	</g>
	<g>
		<g>
			<ellipse class="st12" cx="332.4" cy="219.8" rx="4" ry="3.6"/>
			<path class="st12" d="M336.4,219.8c0,0,0,0.1,0,0.3c0,0.2,0,0.4-0.1,0.8c-0.1,0.3-0.3,0.7-0.5,1.1c-0.3,0.4-0.6,0.8-1.1,1.1
				c-0.5,0.3-1.1,0.6-1.8,0.8c-0.2,0-0.3,0.1-0.5,0.1c-0.2,0-0.3,0-0.5,0c-0.4,0-0.8-0.1-1.2-0.2c-0.8-0.2-1.6-0.7-2.1-1.4
				c-0.6-0.7-0.9-1.6-1-2.6c0-0.3,0.1-0.9,0.3-1.3c0.2-0.4,0.4-0.8,0.7-1.2c0.6-0.7,1.4-1.1,2.1-1.4c0.8-0.2,1.6-0.2,2.2-0.1
				c0.7,0.1,1.3,0.4,1.8,0.8c0.5,0.4,0.9,0.7,1.1,1.1c0.3,0.4,0.4,0.8,0.5,1.1c0.1,0.3,0.1,0.6,0.1,0.8
				C336.4,219.7,336.4,219.8,336.4,219.8z M336.3,219.8c0,0,0-0.1,0-0.3c0-0.2,0-0.4-0.1-0.7c-0.2-0.6-0.7-1.4-1.7-2
				c-0.9-0.6-2.3-0.8-3.6-0.3c-0.6,0.3-1.2,0.7-1.7,1.2c-0.4,0.6-0.7,1.3-0.7,2c0,0.7,0.2,1.4,0.7,2c0.4,0.6,1,1,1.7,1.2
				c1.3,0.5,2.7,0.3,3.6-0.3c1-0.5,1.5-1.4,1.7-2c0.1-0.3,0.1-0.6,0.1-0.7C336.3,219.9,336.3,219.8,336.3,219.8z"/>
		</g>
		<g>
			<ellipse class="st12" cx="373.1" cy="219.8" rx="4" ry="3.6"/>
			<path class="st12" d="M377.1,219.8c0,0,0,0.1,0,0.3c0,0.2,0,0.4-0.1,0.8c-0.1,0.3-0.3,0.7-0.5,1.1c-0.3,0.4-0.6,0.8-1.1,1.1
				c-0.5,0.3-1.1,0.6-1.8,0.8c-0.2,0-0.3,0.1-0.5,0.1c-0.2,0-0.3,0-0.5,0c-0.4,0-0.8-0.1-1.2-0.2c-0.8-0.2-1.6-0.7-2.1-1.4
				c-0.6-0.7-0.9-1.6-1-2.6c0-0.4,0.1-1,0.3-1.4c0.2-0.4,0.4-0.8,0.7-1.2c0.6-0.7,1.4-1.1,2.1-1.4c0.8-0.2,1.6-0.2,2.2-0.1
				c0.7,0.1,1.3,0.4,1.8,0.8c0.5,0.4,0.9,0.7,1.1,1.1c0.3,0.4,0.4,0.8,0.5,1.1c0.1,0.3,0.1,0.6,0.1,0.8
				C377.1,219.7,377.1,219.8,377.1,219.8z M377,219.8c0,0,0-0.1,0-0.3c0-0.2,0-0.4-0.1-0.7c-0.2-0.6-0.7-1.4-1.7-2
				c-0.9-0.6-2.3-0.8-3.6-0.3c-0.6,0.3-1.2,0.7-1.7,1.2c-0.4,0.6-0.7,1.3-0.7,2c0,0.7,0.2,1.4,0.7,2c0.4,0.6,1,1,1.7,1.2
				c1.3,0.5,2.7,0.3,3.6-0.3c1-0.5,1.5-1.4,1.7-2c0.1-0.3,0.1-0.6,0.1-0.7C377,219.9,377,219.8,377,219.8z"/>
		</g>
		<g>
			<path class="st12" d="M340,245c0,0,10.4,16.8,25.3,0"/>
			<path class="st12" d="M340.1,244.9c0,0,0.3,0.4,0.9,1c0.6,0.6,1.4,1.4,2.5,2.3c0.5,0.4,1.2,0.9,1.8,1.3c0.7,0.4,1.4,0.8,2.2,1.1
				c0.8,0.3,1.6,0.6,2.4,0.8c0.9,0.1,1.7,0.2,2.6,0.2c0.4,0,0.9-0.1,1.3-0.1c0.4-0.1,0.9-0.1,1.3-0.3c0.8-0.2,1.7-0.5,2.4-0.9
				c0.8-0.4,1.5-0.8,2.2-1.1c0.7-0.4,1.3-0.8,1.9-1.3c1.1-0.8,2.1-1.5,2.7-2.1c0.6-0.5,1-0.8,1-0.8l0.1,0.1c0,0-0.3,0.3-0.9,1
				c-0.3,0.3-0.6,0.7-1.1,1.1c-0.4,0.4-0.9,0.9-1.4,1.3c-0.5,0.5-1.2,0.9-1.8,1.4c-0.7,0.4-1.4,0.9-2.2,1.3c-0.8,0.4-1.7,0.7-2.6,1
				c-0.4,0.1-0.9,0.2-1.4,0.3c-0.5,0-0.9,0.1-1.4,0.1c-1,0.1-1.9-0.1-2.8-0.3c-0.9-0.2-1.8-0.5-2.6-0.9c-1.6-0.8-3-1.8-4-2.8
				c-1.1-1-1.8-1.9-2.3-2.5C340.3,245.4,340,245,340.1,244.9L340.1,244.9z"/>
		</g>
	</g>
	<g>
		<g>
			<ellipse class="st11" cx="432.6" cy="295.2" rx="4.5" ry="4.1"/>
			<path class="st11" d="M437.1,295.2c0,0,0,0.1,0,0.3c0,0.2,0,0.5-0.1,0.8c-0.1,0.4-0.3,0.8-0.6,1.2c-0.3,0.4-0.7,0.9-1.3,1.3
				c-0.5,0.4-1.2,0.7-2,0.8c-0.2,0-0.4,0.1-0.6,0.1c-0.2,0-0.4,0-0.6,0c-0.5,0-0.9-0.1-1.3-0.2c-0.9-0.2-1.7-0.7-2.3-1.5
				c-0.7-0.8-1-1.7-1-2.9c0-0.3,0.1-1,0.3-1.5c0.2-0.5,0.4-0.9,0.8-1.3c0.6-0.8,1.5-1.3,2.3-1.5c0.9-0.2,1.7-0.3,2.5-0.1
				c0.8,0.2,1.5,0.5,2,0.8c0.5,0.4,1,0.8,1.3,1.3c0.3,0.4,0.5,0.9,0.6,1.2c0.1,0.4,0.1,0.7,0.1,0.8
				C437.1,295.1,437.1,295.2,437.1,295.2z M437,295.2c0,0,0-0.1,0-0.3c0-0.2-0.1-0.5-0.2-0.8c-0.2-0.7-0.8-1.6-1.9-2.2
				c-1.1-0.6-2.6-0.9-4.1-0.3c-0.7,0.3-1.4,0.8-1.9,1.4c-0.5,0.6-0.8,1.4-0.8,2.3c0,0.8,0.3,1.6,0.8,2.3c0.5,0.6,1.2,1.1,1.9,1.4
				c1.4,0.6,3,0.3,4.1-0.3c1.1-0.6,1.7-1.6,1.9-2.2c0.1-0.3,0.1-0.6,0.2-0.8C437,295.3,437,295.2,437,295.2z"/>
		</g>
		<g>
			<ellipse class="st11" cx="478.3" cy="295.2" rx="4.5" ry="4.1"/>
			<path class="st11" d="M482.8,295.2c0,0,0,0.1,0,0.3c0,0.2,0,0.5-0.1,0.8c-0.1,0.4-0.3,0.8-0.6,1.2c-0.3,0.4-0.7,0.9-1.3,1.3
				c-0.5,0.4-1.2,0.7-2,0.8c-0.2,0-0.4,0.1-0.6,0.1c-0.2,0-0.4,0-0.6,0c-0.5,0-0.9-0.1-1.3-0.2c-0.9-0.2-1.7-0.7-2.3-1.5
				c-0.7-0.8-1-1.7-1-2.9c0-0.3,0.1-1,0.3-1.5c0.2-0.5,0.4-0.9,0.8-1.3c0.6-0.8,1.5-1.3,2.3-1.5c0.9-0.2,1.7-0.3,2.5-0.1
				c0.8,0.2,1.5,0.5,2,0.8c0.5,0.4,1,0.8,1.3,1.3c0.3,0.4,0.5,0.9,0.6,1.2c0.1,0.4,0.1,0.7,0.1,0.8
				C482.8,295.1,482.8,295.2,482.8,295.2z M482.7,295.2c0,0,0-0.1,0-0.3c0-0.2-0.1-0.5-0.2-0.8c-0.2-0.7-0.8-1.6-1.9-2.2
				c-1.1-0.6-2.6-0.9-4.1-0.3c-0.7,0.3-1.4,0.8-1.9,1.4c-0.5,0.6-0.8,1.4-0.8,2.3c0,0.8,0.3,1.6,0.8,2.3c0.5,0.6,1.2,1.1,1.9,1.4
				c1.4,0.6,3,0.3,4.1-0.3c1.1-0.6,1.7-1.6,1.9-2.2c0.1-0.3,0.1-0.6,0.2-0.8C482.7,295.3,482.7,295.2,482.7,295.2z"/>
		</g>
		<g>
			<path class="st11" d="M441.2,323.4c0,0,11.7,18.9,28.5,0"/>
			<path class="st11" d="M441.3,323.4c0,0,0.3,0.4,1,1.1c0.6,0.7,1.6,1.6,2.8,2.6c0.6,0.5,1.3,1,2,1.5c0.8,0.5,1.6,0.9,2.4,1.3
				c0.9,0.4,1.8,0.7,2.8,0.9c1,0.2,2,0.3,3,0.2c0.5,0,1-0.1,1.5-0.1c0.5-0.1,1-0.2,1.5-0.3c1-0.3,1.9-0.6,2.8-1
				c0.9-0.4,1.7-0.9,2.5-1.3c0.8-0.5,1.5-0.9,2.1-1.4c0.6-0.5,1.2-0.9,1.7-1.3c0.5-0.4,0.9-0.8,1.3-1.1c0.7-0.6,1.1-1,1.1-1l0.1,0.1
				c0,0-0.4,0.4-1,1.1c-0.3,0.3-0.7,0.8-1.2,1.2c-0.5,0.5-1,1-1.6,1.5c-0.6,0.5-1.3,1-2.1,1.6c-0.8,0.5-1.6,1-2.5,1.5
				c-0.9,0.5-1.9,0.8-2.9,1.1c-0.5,0.2-1,0.2-1.6,0.4c-0.5,0.1-1.1,0.2-1.6,0.2c-1.1,0.1-2.2-0.1-3.2-0.3c-1-0.2-2-0.6-2.9-1
				c-1.8-0.9-3.3-2-4.5-3.1c-1.2-1.1-2-2.1-2.6-2.9C441.5,323.9,441.2,323.4,441.3,323.4L441.3,323.4z"/>
		</g>
	</g>
</g>
</svg>
