<svg id="Layer_1" data-name="Layer 1" xmlns="http://www.w3.org/2000/svg" viewBox="0 0 560.19 385.5"><defs><style>.cls-1{fill:#fff;stroke:#606061;stroke-miterlimit:10;stroke-width:2px;}.cls-2{fill:#f4ddab;}.cls-3{fill:#dba441;}.cls-4{fill:#f7ce5f;}.cls-5{fill:#484847;}.cls-6{fill:#efa0b9;}</style></defs><title>icon2--create your own sets</title><rect class="cls-1" x="398.4" y="194.46" width="158.06" height="222.21" rx="3.62" ry="3.62" transform="translate(35.37 -173.21) rotate(8.72)"/><rect class="cls-1" x="402.2" y="195.04" width="158.06" height="222.21" rx="3.62" ry="3.62" transform="translate(35.5 -173.78) rotate(8.72)"/><rect class="cls-1" x="308.7" y="230.3" width="158.06" height="222.21" rx="3.62" ry="3.62" transform="translate(39.76 -159.19) rotate(8.72)"/><rect class="cls-1" x="312.51" y="230.88" width="158.06" height="222.21" rx="3.62" ry="3.62" transform="translate(39.9 -159.76) rotate(8.72)"/><rect class="cls-1" x="208.53" y="255.84" width="158.06" height="222.21" rx="3.62" ry="3.62" transform="translate(42.48 -143.71) rotate(8.72)"/><rect class="cls-1" x="212.34" y="256.43" width="158.06" height="222.21" rx="3.62" ry="3.62" transform="translate(42.61 -144.28) rotate(8.72)"/><polygon class="cls-2" points="1.91 164.27 2 165.37 1.09 166 0.09 165.53 0 164.42 0.91 163.79 1.91 164.27"/><polygon class="cls-3" points="242.61 249.28 190.49 227.72 230.87 194.02 242.61 249.28"/><polygon class="cls-4" points="231.57 194.49 190.97 228.37 46.26 54.28 86.86 20.4 231.57 194.49"/><polygon class="cls-5" points="242.96 249.46 224.94 242.01 238.44 230.43 242.96 249.46"/><polygon class="cls-6" points="91.65 26.81 51.02 60.65 28.96 33.85 69.59 0 91.65 26.81"/></svg>