<svg id="Layer_2" data-name="Layer 2" xmlns="http://www.w3.org/2000/svg" viewBox="0 0 589.86 430.8"><defs><style>.cls-1{fill:#c8d1eb;}.cls-2{fill:#92a6d5;}.cls-3{fill:#a0b2dc;}.cls-4{fill:#4b4b4f;}.cls-5{fill:#ecea6a;}.cls-6{fill:#282828;}.cls-7{fill:#5a5a5a;}</style></defs><title>icon1--learn better together2</title><circle class="cls-1" cx="233.6" cy="151.01" r="54.44"/><path class="cls-1" d="M296.89,352c0-58.35-26.22-105.66-58.57-105.66S179.75,293.66,179.75,352a182.56,182.56,0,0,0,3.85,37.73H293A182.56,182.56,0,0,0,296.89,352Z" transform="translate(-5.43 -62.72)"/><circle class="cls-1" cx="363.46" cy="157.3" r="54.44"/><path class="cls-1" d="M426.74,358.3c0-58.35-26.22-105.66-58.57-105.66S309.6,299.95,309.6,358.3A182.56,182.56,0,0,0,313.45,396H422.89A182.56,182.56,0,0,0,426.74,358.3Z" transform="translate(-5.43 -62.72)"/><circle class="cls-2" cx="474.36" cy="232.83" r="61.23"/><path class="cls-2" d="M544.86,451.08c0-65.63-29.49-118.84-65.88-118.84s-65.88,53.21-65.88,118.84a205.34,205.34,0,0,0,4.33,42.44H540.53A205.34,205.34,0,0,0,544.86,451.08Z" transform="translate(-5.43 -62.72)"/><circle class="cls-3" cx="122.8" cy="209.68" r="61.23"/><path class="cls-3" d="M192.82,427.94c0-65.63-29.39-118.84-65.64-118.84S61.55,362.31,61.55,427.94a206.07,206.07,0,0,0,4.31,42.44H188.51A206.07,206.07,0,0,0,192.82,427.94Z" transform="translate(-5.43 -62.72)"/><rect class="cls-4" x="179.48" y="352.56" width="26.68" height="43.81" transform="translate(31.54 -79.55) rotate(5.53)"/><rect class="cls-4" x="307.05" y="289.9" width="22.21" height="42.99" transform="translate(-98.11 77.2) rotate(-21.73)"/><rect class="cls-4" x="405" y="371.03" width="29.45" height="50" transform="translate(-122.22 120.81) rotate(-21.73)"/><rect class="cls-4" x="264.16" y="284.53" width="22.21" height="39.84" transform="translate(104.12 -133.77) rotate(18.31)"/><rect class="cls-5" x="557.22" y="172.15" width="17.49" height="69.13" transform="translate(270.2 -383.97) rotate(41.13)"/><rect class="cls-5" x="478.05" y="93.25" width="17.49" height="69.13" transform="translate(104.66 -268.67) rotate(26.83)"/><rect class="cls-5" x="362.49" y="63.58" width="17.49" height="69.13" transform="translate(11.17 -111.83) rotate(7.74)"/><rect class="cls-5" x="26.01" y="172.15" width="17.49" height="69.13" transform="translate(191.47 276.84) rotate(138.87)"/><rect class="cls-5" x="105.17" y="93.25" width="17.49" height="69.13" transform="translate(267.83 127.74) rotate(153.17)"/><rect class="cls-5" x="220.74" y="63.69" width="17.49" height="69.13" transform="translate(463.61 105.75) rotate(173.16)"/><ellipse class="cls-6" cx="123.67" cy="207.04" rx="4.46" ry="4.05"/><path class="cls-6" d="M133.61,269.76v.3a3.73,3.73,0,0,1-.15.85,4.92,4.92,0,0,1-.58,1.21,5,5,0,0,1-1.25,1.25,5.15,5.15,0,0,1-2,.84c-.2,0-.37.06-.61.08a4.6,4.6,0,0,1-.59,0,5.53,5.53,0,0,1-1.3-.21,4.77,4.77,0,0,1-2.35-1.51,4.47,4.47,0,0,1-1-2.82,5.08,5.08,0,0,1,.28-1.52,4.27,4.27,0,0,1,.76-1.3,4.78,4.78,0,0,1,2.35-1.51,5.5,5.5,0,0,1,2.47-.12,5.08,5.08,0,0,1,2,.84,5,5,0,0,1,1.25,1.25,4.9,4.9,0,0,1,.58,1.21,3.72,3.72,0,0,1,.15.85Zm-.1,0,0-.29a3.61,3.61,0,0,0-.16-.82,4,4,0,0,0-1.87-2.24,4.8,4.8,0,0,0-4.07-.3,4.4,4.4,0,0,0-1.88,1.4,3.68,3.68,0,0,0,0,4.52,4.4,4.4,0,0,0,1.88,1.4,4.8,4.8,0,0,0,4.07-.3,4,4,0,0,0,1.87-2.24,3.6,3.6,0,0,0,.16-.82Z" transform="translate(-5.43 -62.72)"/><ellipse class="cls-6" cx="169.4" cy="207.04" rx="4.46" ry="4.05"/><path class="cls-6" d="M179.34,269.76v.3a3.73,3.73,0,0,1-.15.85,4.92,4.92,0,0,1-.58,1.21,5,5,0,0,1-1.25,1.25,5.15,5.15,0,0,1-2,.84c-.2,0-.37.06-.61.08a4.6,4.6,0,0,1-.59,0,5.53,5.53,0,0,1-1.3-.21,4.77,4.77,0,0,1-2.35-1.51,4.44,4.44,0,0,1-1-2.87,5.16,5.16,0,0,1,.28-1.47,4.27,4.27,0,0,1,.76-1.3,4.78,4.78,0,0,1,2.35-1.51,5.5,5.5,0,0,1,2.47-.12,5.08,5.08,0,0,1,2,.84,5,5,0,0,1,1.25,1.25,4.9,4.9,0,0,1,.58,1.21,3.72,3.72,0,0,1,.15.85Zm-.1,0,0-.29a3.61,3.61,0,0,0-.16-.82,4,4,0,0,0-1.87-2.24,4.8,4.8,0,0,0-4.07-.3,4.4,4.4,0,0,0-1.88,1.4,3.68,3.68,0,0,0,0,4.52,4.4,4.4,0,0,0,1.88,1.4,4.8,4.8,0,0,0,4.07-.3,4,4,0,0,0,1.87-2.24,3.6,3.6,0,0,0,.16-.82Z" transform="translate(-5.43 -62.72)"/><path class="cls-6" d="M137.73,298s11.66,18.87,28.47,0" transform="translate(-5.43 -62.72)"/><path class="cls-6" d="M137.77,298s.34.41,1,1.09a28.24,28.24,0,0,0,2.81,2.58,18.93,18.93,0,0,0,2,1.46,24.92,24.92,0,0,0,2.44,1.28,14.4,14.4,0,0,0,2.77.88,12.35,12.35,0,0,0,3,.2c.5,0,1-.07,1.49-.11s1-.16,1.46-.3a15.1,15.1,0,0,0,2.75-1c.87-.41,1.69-.86,2.46-1.3a25.18,25.18,0,0,0,2.09-1.42c.64-.46,1.21-.92,1.71-1.32s.95-.76,1.29-1.08c.7-.62,1.12-1,1.12-1l.07.07-1,1.08c-.31.35-.71.76-1.19,1.2s-1,1-1.63,1.47a25.92,25.92,0,0,1-2.06,1.58,21.61,21.61,0,0,1-2.5,1.47A16,16,0,0,1,155,306c-.5.16-1,.23-1.56.36s-1.07.15-1.6.15a13.15,13.15,0,0,1-3.19-.28,15.31,15.31,0,0,1-2.94-1,18.36,18.36,0,0,1-4.52-3.09,22.65,22.65,0,0,1-2.62-2.86c-.57-.74-.85-1.2-.85-1.2Z" transform="translate(-5.43 -62.72)"/><ellipse class="cls-7" cx="238.11" cy="152.06" rx="3.97" ry="3.61"/><path class="cls-7" d="M247.56,214.78V215a3.33,3.33,0,0,1-.13.76,4.5,4.5,0,0,1-.51,1.09,4.6,4.6,0,0,1-2.89,1.9c-.18,0-.34.06-.55.07a4,4,0,0,1-.53,0,5,5,0,0,1-1.17-.18,4.28,4.28,0,0,1-2.14-1.36,4,4,0,0,1-1-2.62,4.72,4.72,0,0,1,.26-1.33,3.83,3.83,0,0,1,.7-1.18,4.29,4.29,0,0,1,2.14-1.36,4.94,4.94,0,0,1,2.23-.09,4.59,4.59,0,0,1,2.91,1.9,4.48,4.48,0,0,1,.51,1.09,3.32,3.32,0,0,1,.13.76Zm-.1,0,0-.26a3.21,3.21,0,0,0-.15-.73,3.59,3.59,0,0,0-1.66-2,4.26,4.26,0,0,0-3.62-.26,3.91,3.91,0,0,0-1.67,1.24,3.27,3.27,0,0,0,0,4A3.91,3.91,0,0,0,242,218a4.27,4.27,0,0,0,3.62-.26,3.59,3.59,0,0,0,1.66-2,3.2,3.2,0,0,0,.15-.73Z" transform="translate(-5.43 -62.72)"/><ellipse class="cls-7" cx="278.83" cy="152.06" rx="3.97" ry="3.61"/><path class="cls-7" d="M288.28,214.78V215a3.33,3.33,0,0,1-.13.76,4.5,4.5,0,0,1-.51,1.09,4.6,4.6,0,0,1-2.89,1.9c-.18,0-.34.06-.55.07a4,4,0,0,1-.53,0,5,5,0,0,1-1.17-.18,4.28,4.28,0,0,1-2.14-1.36,4,4,0,0,1-1-2.62,4.72,4.72,0,0,1,.26-1.33,3.83,3.83,0,0,1,.7-1.18,4.29,4.29,0,0,1,2.14-1.36,4.94,4.94,0,0,1,2.23-.09,4.59,4.59,0,0,1,2.91,1.9,4.48,4.48,0,0,1,.51,1.09,3.32,3.32,0,0,1,.13.76Zm-.1,0,0-.26a3.21,3.21,0,0,0-.15-.73,3.59,3.59,0,0,0-1.66-2,4.26,4.26,0,0,0-3.62-.26,3.91,3.91,0,0,0-1.67,1.24,3.27,3.27,0,0,0,0,4,3.91,3.91,0,0,0,1.67,1.24,4.27,4.27,0,0,0,3.62-.26,3.59,3.59,0,0,0,1.66-2,3.2,3.2,0,0,0,.15-.73Z" transform="translate(-5.43 -62.72)"/><path class="cls-7" d="M251.23,239.92s10.38,16.8,25.35,0" transform="translate(-5.43 -62.72)"/><path class="cls-7" d="M251.27,239.9s.31.36.89,1a25.94,25.94,0,0,0,2.52,2.27,16.77,16.77,0,0,0,1.82,1.28,23.53,23.53,0,0,0,2.17,1.12,12.73,12.73,0,0,0,2.45.77,10.92,10.92,0,0,0,2.61.17c.44,0,.88-.06,1.31-.09s.87-.14,1.29-.26a13.35,13.35,0,0,0,2.44-.89c.77-.36,1.5-.75,2.19-1.14a22.33,22.33,0,0,0,1.87-1.25c1.12-.83,2.08-1.55,2.69-2.11s1-.84,1-.84l.07.07-.89,1c-.28.31-.63.67-1.06,1.07s-.89.86-1.45,1.31a23.1,23.1,0,0,1-1.83,1.41,19.26,19.26,0,0,1-2.22,1.31,14.27,14.27,0,0,1-2.57,1c-.45.15-.92.21-1.39.32s-.95.14-1.43.14a11.71,11.71,0,0,1-2.84-.25,13.64,13.64,0,0,1-2.62-.9,16.36,16.36,0,0,1-4-2.76,20.18,20.18,0,0,1-2.34-2.55c-.51-.66-.76-1.07-.76-1.07Z" transform="translate(-5.43 -62.72)"/><ellipse class="cls-7" cx="326.93" cy="157.09" rx="3.97" ry="3.61"/><path class="cls-7" d="M336.38,219.8v.27a3.33,3.33,0,0,1-.13.76,4.5,4.5,0,0,1-.51,1.09,4.6,4.6,0,0,1-2.89,1.9c-.18,0-.34.06-.55.07a4,4,0,0,1-.53,0,5,5,0,0,1-1.17-.18,4.28,4.28,0,0,1-2.14-1.36,4,4,0,0,1-1-2.62,4.72,4.72,0,0,1,.26-1.33,3.83,3.83,0,0,1,.7-1.18,4.29,4.29,0,0,1,2.14-1.36,4.94,4.94,0,0,1,2.23-.09,4.58,4.58,0,0,1,2.91,1.9,4.48,4.48,0,0,1,.51,1.09,3.32,3.32,0,0,1,.13.76Zm-.1,0,0-.26a3.21,3.21,0,0,0-.15-.73,3.59,3.59,0,0,0-1.66-2,4.26,4.26,0,0,0-3.62-.26,3.91,3.91,0,0,0-1.67,1.24,3.27,3.27,0,0,0,0,4,3.91,3.91,0,0,0,1.67,1.24,4.27,4.27,0,0,0,3.62-.26,3.59,3.59,0,0,0,1.66-2,3.2,3.2,0,0,0,.15-.73Z" transform="translate(-5.43 -62.72)"/><ellipse class="cls-7" cx="367.65" cy="157.09" rx="3.97" ry="3.61"/><path class="cls-7" d="M377.1,219.8v.27a3.33,3.33,0,0,1-.13.76,4.5,4.5,0,0,1-.51,1.09,4.6,4.6,0,0,1-2.89,1.9c-.18,0-.34.06-.55.07a4,4,0,0,1-.53,0,5,5,0,0,1-1.17-.18,4.28,4.28,0,0,1-2.14-1.36,4.05,4.05,0,0,1-1-2.57,4.63,4.63,0,0,1,.26-1.38,3.83,3.83,0,0,1,.7-1.18,4.29,4.29,0,0,1,2.14-1.36,4.94,4.94,0,0,1,2.23-.09,4.58,4.58,0,0,1,2.91,1.9,4.48,4.48,0,0,1,.51,1.09,3.32,3.32,0,0,1,.13.76Zm-.1,0,0-.26a3.21,3.21,0,0,0-.15-.73,3.59,3.59,0,0,0-1.66-2,4.26,4.26,0,0,0-3.62-.26,3.91,3.91,0,0,0-1.67,1.24,3.27,3.27,0,0,0,0,4,3.91,3.91,0,0,0,1.67,1.24,4.27,4.27,0,0,0,3.62-.26,3.59,3.59,0,0,0,1.66-2,3.2,3.2,0,0,0,.15-.73Z" transform="translate(-5.43 -62.72)"/><path class="cls-7" d="M340,245s10.38,16.8,25.35,0" transform="translate(-5.43 -62.72)"/><path class="cls-7" d="M340.09,244.93s.31.36.89,1a25.94,25.94,0,0,0,2.52,2.27,16.78,16.78,0,0,0,1.82,1.28,23.54,23.54,0,0,0,2.17,1.12,12.73,12.73,0,0,0,2.45.77,10.92,10.92,0,0,0,2.61.17c.44,0,.88-.06,1.31-.09s.87-.14,1.29-.26a13.35,13.35,0,0,0,2.44-.89c.77-.36,1.5-.75,2.19-1.14a22.32,22.32,0,0,0,1.87-1.25c1.12-.83,2.08-1.55,2.69-2.11s1-.84,1-.84l.07.07-.89,1c-.28.31-.63.67-1.06,1.07s-.89.86-1.45,1.31a23.09,23.09,0,0,1-1.83,1.41A19.25,19.25,0,0,1,358,251a14.27,14.27,0,0,1-2.57,1c-.45.15-.92.21-1.39.32s-.95.14-1.43.14a11.71,11.71,0,0,1-2.84-.25,13.64,13.64,0,0,1-2.62-.9,16.36,16.36,0,0,1-4-2.76,20.18,20.18,0,0,1-2.34-2.55c-.51-.66-.76-1.07-.76-1.07Z" transform="translate(-5.43 -62.72)"/><ellipse class="cls-6" cx="425.77" cy="232.39" rx="4.46" ry="4.05"/><path class="cls-6" d="M435.71,295.11v.3a3.73,3.73,0,0,1-.15.85,4.92,4.92,0,0,1-.58,1.21,5,5,0,0,1-1.25,1.25,5.15,5.15,0,0,1-2,.84c-.2,0-.37.06-.61.07a4.6,4.6,0,0,1-.59,0,5.53,5.53,0,0,1-1.3-.21,4.77,4.77,0,0,1-2.35-1.51,4.44,4.44,0,0,1-1-2.87,5.16,5.16,0,0,1,.28-1.47,4.27,4.27,0,0,1,.76-1.3,4.78,4.78,0,0,1,2.35-1.51,5.5,5.5,0,0,1,2.47-.12,5.08,5.08,0,0,1,2,.84,5,5,0,0,1,1.25,1.25,4.9,4.9,0,0,1,.58,1.21,3.72,3.72,0,0,1,.15.85Zm-.1,0,0-.29a3.61,3.61,0,0,0-.16-.82,4,4,0,0,0-1.87-2.24,4.8,4.8,0,0,0-4.07-.3,4.4,4.4,0,0,0-1.88,1.4,3.68,3.68,0,0,0,0,4.52,4.4,4.4,0,0,0,1.88,1.4,4.8,4.8,0,0,0,4.07-.3,4,4,0,0,0,1.87-2.24,3.6,3.6,0,0,0,.16-.82Z" transform="translate(-5.43 -62.72)"/><ellipse class="cls-6" cx="471.5" cy="232.39" rx="4.46" ry="4.05"/><path class="cls-6" d="M481.44,295.11v.3a3.73,3.73,0,0,1-.15.85,4.92,4.92,0,0,1-.58,1.21,5,5,0,0,1-1.25,1.25,5.15,5.15,0,0,1-2,.84c-.2,0-.37.06-.61.07a4.6,4.6,0,0,1-.59,0,5.53,5.53,0,0,1-1.3-.21,4.77,4.77,0,0,1-2.35-1.51,4.44,4.44,0,0,1-1-2.87,5.16,5.16,0,0,1,.28-1.47,4.27,4.27,0,0,1,.76-1.3,4.78,4.78,0,0,1,2.35-1.51,5.5,5.5,0,0,1,2.47-.12,5.08,5.08,0,0,1,2,.84,5,5,0,0,1,1.25,1.25,4.9,4.9,0,0,1,.58,1.21,3.72,3.72,0,0,1,.15.85Zm-.1,0,0-.29a3.61,3.61,0,0,0-.16-.82,4,4,0,0,0-1.87-2.24,4.8,4.8,0,0,0-4.07-.3,4.4,4.4,0,0,0-1.88,1.4,3.68,3.68,0,0,0,0,4.52,4.4,4.4,0,0,0,1.88,1.4,4.8,4.8,0,0,0,4.07-.3,4,4,0,0,0,1.87-2.24,3.6,3.6,0,0,0,.16-.82Z" transform="translate(-5.43 -62.72)"/><path class="cls-6" d="M439.83,323.35s11.66,18.87,28.47,0" transform="translate(-5.43 -62.72)"/><path class="cls-6" d="M439.87,323.32s.34.41,1,1.09a28.24,28.24,0,0,0,2.81,2.58,18.93,18.93,0,0,0,2,1.46,24.93,24.93,0,0,0,2.44,1.28,14.4,14.4,0,0,0,2.77.88,12.35,12.35,0,0,0,3,.2c.5,0,1-.07,1.49-.11s1-.16,1.46-.3a15.1,15.1,0,0,0,2.75-1c.87-.41,1.69-.86,2.46-1.3a25.18,25.18,0,0,0,2.09-1.42c.64-.46,1.21-.92,1.71-1.32s.95-.76,1.29-1.08c.7-.62,1.12-1,1.12-1l.07.07-1,1.08c-.31.35-.71.76-1.19,1.2s-1,1-1.63,1.47a25.92,25.92,0,0,1-2.06,1.58,21.61,21.61,0,0,1-2.5,1.47,16,16,0,0,1-2.89,1.13c-.5.16-1,.23-1.56.36s-1.07.15-1.6.15a13.15,13.15,0,0,1-3.19-.28,15.31,15.31,0,0,1-2.94-1,18.36,18.36,0,0,1-4.52-3.09,22.65,22.65,0,0,1-2.62-2.86c-.57-.74-.85-1.2-.85-1.2Z" transform="translate(-5.43 -62.72)"/></svg>