<svg id="Layer_1" data-name="Layer 1" xmlns="http://www.w3.org/2000/svg" viewBox="0 0 142.47 380.86"><defs><style>.cls-1{fill:#6d6e71;}.cls-2{fill:#414042;}.cls-3{fill:#4b9cb2;}.cls-4{fill:#939598;}.cls-5{fill:#fdcc9a;}.cls-6{fill:#c49a6c;}.cls-7{fill:#e6e7e8;}.cls-8{fill:#814e9f;}.cls-9{fill:#7f4e20;}</style></defs><title>2boaters-1.25</title><path class="cls-1" d="M323.37,114.49c-8.94-23.67-20-37.69-32.05-37.69s-23.11,14-32.05,37.69c-13.12,34.72-21.61,90.21-21.61,152.74V438.17c0,10.73,7.56,19.5,16.8,19.5h73.73c9.24,0,16.8-8.78,16.8-19.5V267.24C345,204.7,336.49,149.21,323.37,114.49Z" transform="translate(-216.33 -76.81)"/><path class="cls-2" d="M318,129.17c-7.55-21.18-16.91-33.73-27-33.73s-19.5,12.54-27,33.73c-11.07,31.07-18.24,80.73-18.24,136.69v153c0,9.6,6.38,17.45,14.18,17.45h62.21c7.8,0,14.18-7.85,14.18-17.45v-153C336.24,209.9,329.07,160.24,318,129.17Z" transform="translate(-216.33 -76.81)"/><path class="cls-3" d="M286.92,129.73c-8.07,12.42-9.76,22.57-9.92,29.3-.32,13.45,5.29,17.94,4,31.07-1,9.78-7.25,17.63-11.06,26.46-5.93,13.74-5.84,29.81-4.2,45s4.68,30.3,4.2,45.59c-.14,4.47-.57,9,.39,13.36.68,3.07,2,5.91,2.65,9,.94,4.85,0,9.87-.7,14.79-1.41,10.64-1.21,21.45-1,32.21l.68,36.47a13.44,13.44,0,0,0,.53,4.24c1.69,4.74,7.42,5,11.9,4.46L314.83,418a4.2,4.2,0,0,0,2.47-.86,4.67,4.67,0,0,0,1.1-3.37c.09-7.3-5.53-13.44-5.67-20.74-.09-4.86,2.3-9.56,1.73-14.38-.68-5.81-5.44-10.14-6.26-15.93-1.07-7.58,4.82-14,6.56-21.41,2.64-11.28-4.62-23.33-1.9-34.58.8-3.29,2.42-6.29,3-9.64.87-5.37-1.11-10.76-1.5-16.2-.64-8.87,2.94-18.11.28-26.48-1.45-4.56-4.62-8.29-5.63-13-1.25-5.9,1.14-11.9,2.14-17.87,1-6.15.57-12.49,1.21-18.71,1.46-14.11,8.56-27.51,7-41.62-1.2-10.89-7.37-20.13-13.31-28.78-2.16-3.14-5-6.85-9.57-7.75a10.06,10.06,0,0,0-6.63.66,9.1,9.1,0,0,0-2.91,2.35" transform="translate(-216.33 -76.81)"/><rect class="cls-4" x="29.72" y="108.05" width="89.85" height="28"/><rect class="cls-4" x="26.19" y="320.06" width="96.93" height="39.42"/><rect class="cls-4" x="26.12" y="177.98" width="96.98" height="28"/><rect class="cls-4" x="26.12" y="249.51" width="96.98" height="28"/><path class="cls-5" d="M305.89,228.28c4,.45,6.94,4.45,6.74,9l-14.82-2.06C298.53,230.91,302,227.85,305.89,228.28Z" transform="translate(-216.33 -76.81)"/><path d="M297.71,236c0-.27.06-.53.1-.79l14.82,2.06c0,.13,0,.26,0,.39l-2.09,24.6c-.4,4.7-4.08,8.17-8.18,7.71s-7.12-4.68-6.72-9.38Z" transform="translate(-216.33 -76.81)"/><path class="cls-5" d="M279.86,228.28c-4,.45-6.94,4.45-6.74,9l14.82-2.06C287.22,230.91,283.73,227.85,279.86,228.28Z" transform="translate(-216.33 -76.81)"/><path d="M288,236c0-.27-.06-.53-.1-.79l-14.82,2.06c0,.13,0,.26,0,.39l2.09,24.6c.4,4.7,4.08,8.17,8.18,7.71s7.12-4.68,6.72-9.38Z" transform="translate(-216.33 -76.81)"/><path class="cls-5" d="M304,160.35c4,.45,6.94,4.45,6.74,9l-14.82-2.06C296.61,163,300.1,159.91,304,160.35Z" transform="translate(-216.33 -76.81)"/><path d="M295.78,168.06c0-.27.06-.53.1-.79l14.82,2.06c0,.13,0,.26,0,.39l-2.09,24.6c-.4,4.7-4.08,8.17-8.18,7.71s-7.12-4.68-6.72-9.38Z" transform="translate(-216.33 -76.81)"/><path class="cls-5" d="M277.94,160.35c-4,.45-6.94,4.45-6.74,9L286,167.27C285.3,163,281.81,159.91,277.94,160.35Z" transform="translate(-216.33 -76.81)"/><path d="M286.12,168.06c0-.27-.06-.53-.1-.79l-14.82,2.06c0,.13,0,.26,0,.39l2.09,24.6c.4,4.7,4.08,8.17,8.18,7.71s7.12-4.68,6.72-9.38Z" transform="translate(-216.33 -76.81)"/><rect class="cls-6" x="238.97" y="176.41" width="97.67" height="2.6" rx="0.81" ry="0.81" transform="translate(-216.65 -76.29) rotate(-0.1)"/><rect class="cls-6" x="331.94" y="170.23" width="26.08" height="14.77" rx="4.61" ry="4.61" transform="translate(-216.65 -76.18) rotate(-0.1)"/><rect class="cls-6" x="216.34" y="170.44" width="26.08" height="14.77" rx="4.61" ry="4.61" transform="translate(-216.66 -76.39) rotate(-0.1)"/><rect class="cls-6" x="239.75" y="243.22" width="97.67" height="2.6" rx="0.81" ry="0.81" transform="translate(-216.78 -76.28) rotate(-0.1)"/><rect class="cls-6" x="332.73" y="237.04" width="26.08" height="14.77" rx="4.61" ry="4.61" transform="translate(-216.78 -76.18) rotate(-0.1)"/><rect class="cls-6" x="217.12" y="237.25" width="26.08" height="14.77" rx="4.61" ry="4.61" transform="translate(-216.78 -76.39) rotate(-0.1)"/><path class="cls-7" d="M284.91,219.94c-.17-.11-.4.34-1.23,1a5.28,5.28,0,0,0-.92.71,2.16,2.16,0,0,0-.57.86,1.88,1.88,0,0,0,.35,1.81c.59.53,1.5.11,1.88-.46a4.25,4.25,0,0,0,.37-1.42,11.28,11.28,0,0,0,.14-1.18C285,220.43,285,220,284.91,219.94Z" transform="translate(-216.33 -76.81)"/><path class="cls-7" d="M291.33,220.45c-.19,0-.15.55-.51,1.65a7.13,7.13,0,0,0-.39,1.23,2.59,2.59,0,0,0,0,1.09c.14.55.59,1.2,1.18,1.2s1.26-1,1.28-1.71a4.25,4.25,0,0,0-.41-1.4,10.23,10.23,0,0,0-.47-1C291.65,220.78,291.47,220.43,291.33,220.45Z" transform="translate(-216.33 -76.81)"/><path class="cls-7" d="M298.67,218.14c-.16.13.07.58.14,1.76a7.51,7.51,0,0,0,.1,1.31,2.4,2.4,0,0,0,.37,1,1.23,1.23,0,0,0,1.5.47,2,2,0,0,0,.54-2.2,3.52,3.52,0,0,0-.87-1.05,8.17,8.17,0,0,0-.8-.7C299.07,218.27,298.79,218,298.67,218.14Z" transform="translate(-216.33 -76.81)"/><path class="cls-7" d="M286,287.37c-.17-.11-.4.34-1.23,1a5.28,5.28,0,0,0-.92.71,2.16,2.16,0,0,0-.57.86,1.88,1.88,0,0,0,.35,1.81c.59.53,1.5.11,1.88-.46a4.25,4.25,0,0,0,.37-1.42,11.28,11.28,0,0,0,.14-1.18C286.1,287.86,286.13,287.45,286,287.37Z" transform="translate(-216.33 -76.81)"/><path class="cls-7" d="M292.44,287.88c-.19,0-.15.55-.51,1.65a7.13,7.13,0,0,0-.39,1.23,2.59,2.59,0,0,0,0,1.09c.14.55.59,1.2,1.18,1.2s1.26-1,1.28-1.71a4.25,4.25,0,0,0-.41-1.4,10.23,10.23,0,0,0-.47-1C292.75,288.21,292.58,287.86,292.44,287.88Z" transform="translate(-216.33 -76.81)"/><path class="cls-7" d="M299.78,285.57c-.16.13.07.58.14,1.76a7.51,7.51,0,0,0,.1,1.31,2.4,2.4,0,0,0,.37,1,1.23,1.23,0,0,0,1.5.47,2,2,0,0,0,.54-2.2,3.52,3.52,0,0,0-.87-1.05,8.17,8.17,0,0,0-.8-.7C300.18,285.7,299.89,285.48,299.78,285.57Z" transform="translate(-216.33 -76.81)"/><path class="cls-5" d="M317.83,197.08a72.25,72.25,0,0,1,.67-9.21c.75-5.74,2.27-17.45,4.75-17.48,2.12,0,4.47,10.12,4.75,17.48.21,5.44-.6,12.42-.62,14.88a8.07,8.07,0,0,1-.15,1.31,3.19,3.19,0,0,1-.73,1.89,2.35,2.35,0,0,1-1.89.44c-1.26.49-3,1.13-5.22,1.74-4.64,1.3-7.23,2-8.27.87s.88-3.21-.12-7.23c-.39-1.56-.88-2-.61-2.78C311,197.27,314.61,197,317.83,197.08Z" transform="translate(-216.33 -76.81)"/><path class="cls-5" d="M263.06,197.08a72.25,72.25,0,0,0-.67-9.21c-.75-5.74-2.27-17.45-4.75-17.48-2.12,0-4.47,10.12-4.75,17.48-.21,5.44.6,12.42.62,14.88a8.07,8.07,0,0,0,.15,1.31,3.19,3.19,0,0,0,.73,1.89,2.35,2.35,0,0,0,1.89.44c1.26.49,3,1.13,5.22,1.74,4.64,1.3,7.23,2,8.27.87s-.88-3.21.12-7.23c.39-1.56.88-2,.61-2.78C269.87,197.27,266.28,197,263.06,197.08Z" transform="translate(-216.33 -76.81)"/><path class="cls-8" d="M311.86,198.3c-7.76-12.88-34.23-13.34-42.64-.42a18.58,18.58,0,0,0-2.65,7v2.18c0,5.47,4.06,9.95,9,9.95H305.1c5,0,9-4.48,9-9.95v-2.18A17.58,17.58,0,0,0,311.86,198.3Z" transform="translate(-216.33 -76.81)"/><path class="cls-5" d="M290.51,187.15c7.43,0,13.46,7.52,13.46,16.79,0,.28,0,.56,0,.84a19.46,19.46,0,0,0,.24-3c0-9-6.15-16.38-13.74-16.38s-13.74,7.33-13.74,16.38A19.52,19.52,0,0,0,277,205c0-.14.07-.27.11-.41s0-.41,0-.62C277.06,194.67,283.08,187.15,290.51,187.15Z" transform="translate(-216.33 -76.81)"/><path class="cls-9" d="M303.58,198c-1.53-6.23-6.79-10.83-13.07-10.83S279,191.75,277.44,198a15.53,15.53,0,0,0-.46,3.71c0,8,6.06,14.54,13.53,14.54S304,209.72,304,201.69A15.53,15.53,0,0,0,303.58,198Z" transform="translate(-216.33 -76.81)"/><path class="cls-5" d="M318.61,263.89a72.25,72.25,0,0,1,.67-9.21c.75-5.74,2.27-17.45,4.75-17.48,2.12,0,4.47,10.12,4.75,17.48.21,5.44-.6,12.42-.62,14.88a8.07,8.07,0,0,1-.15,1.31,3.19,3.19,0,0,1-.73,1.89,2.35,2.35,0,0,1-1.89.44c-1.26.49-3,1.13-5.22,1.74-4.64,1.3-7.23,2-8.27.87s.88-3.21-.12-7.23c-.39-1.56-.88-2-.61-2.78C311.8,264.08,315.39,263.81,318.61,263.89Z" transform="translate(-216.33 -76.81)"/><path class="cls-5" d="M263.84,263.89a72.25,72.25,0,0,0-.67-9.21c-.75-5.74-2.27-17.45-4.75-17.48-2.12,0-4.47,10.12-4.75,17.48-.21,5.44.6,12.42.62,14.88a8.07,8.07,0,0,0,.15,1.31,3.19,3.19,0,0,0,.73,1.89,2.35,2.35,0,0,0,1.89.44c1.26.49,3,1.13,5.22,1.74,4.64,1.3,7.23,2,8.27.87s-.88-3.21.12-7.23c.39-1.56.88-2,.61-2.78C270.65,264.08,267.06,263.81,263.84,263.89Z" transform="translate(-216.33 -76.81)"/><path class="cls-8" d="M312.65,265.11c-7.76-12.88-34.23-13.34-42.64-.42a18.58,18.58,0,0,0-2.65,7v2.18c0,5.47,4.06,9.95,9,9.95h29.51c5,0,9-4.48,9-9.95v-2.18A17.58,17.58,0,0,0,312.65,265.11Z" transform="translate(-216.33 -76.81)"/><path class="cls-5" d="M291.29,254c7.43,0,13.46,7.52,13.46,16.79,0,.28,0,.56,0,.84a19.46,19.46,0,0,0,.24-3c0-9-6.15-16.38-13.74-16.38s-13.74,7.33-13.74,16.38a19.52,19.52,0,0,0,.27,3.21c0-.14.07-.27.11-.41s0-.41,0-.62C277.84,261.48,283.86,254,291.29,254Z" transform="translate(-216.33 -76.81)"/><path class="cls-9" d="M304.36,264.79c-1.53-6.23-6.79-10.83-13.07-10.83s-11.54,4.6-13.07,10.83a15.53,15.53,0,0,0-.46,3.71c0,8,6.06,14.54,13.53,14.54s13.53-6.51,13.53-14.54A15.53,15.53,0,0,0,304.36,264.79Z" transform="translate(-216.33 -76.81)"/></svg>