<svg id="Layer_1" data-name="Layer 1" xmlns="http://www.w3.org/2000/svg" viewBox="0 0 143.98 383.29"><defs><style>.cls-1{fill:#6d6e71;}.cls-2{fill:#414042;}.cls-3{fill:#4b9cb2;}.cls-4{fill:#939598;}.cls-5{fill:#fdcc9a;}.cls-6{fill:#c49a6c;}.cls-7{fill:#e6e7e8;}.cls-8{fill:#814e9f;}.cls-9{fill:#7f4e20;}</style></defs><title>3boaters-1.25</title><path class="cls-1" d="M327.47,133.64c-9-23.82-20.17-37.93-32.26-37.93S272,109.82,263,133.64c-13.2,34.94-21.75,90.78-21.75,153.72v172c0,10.79,7.61,19.63,16.91,19.63h74.2c9.3,0,16.91-8.83,16.91-19.63v-172C349.22,224.42,340.67,168.58,327.47,133.64Z" transform="translate(-219.76 -95.71)"/><path class="cls-2" d="M322.07,148.4c-7.6-21.32-17-33.94-27.22-33.94s-19.63,12.62-27.22,33.94c-11.14,31.27-18.35,81.25-18.35,137.57V439.92c0,9.66,6.42,17.56,14.27,17.56h62.61c7.85,0,14.27-7.9,14.27-17.56V286C340.42,229.65,333.21,179.67,322.07,148.4Z" transform="translate(-219.76 -95.71)"/><path class="cls-3" d="M290.79,149c-8.12,12.5-9.82,22.71-10,29.49-.32,13.54,5.32,18.05,4,31.27-1,9.84-7.29,17.74-11.13,26.63-6,13.82-5.87,30-4.23,45.29s4.71,30.49,4.23,45.88c-.14,4.5-.58,9.08.39,13.45.69,3.09,2.06,5.95,2.67,9.06,1,4.88,0,9.94-.7,14.88-1.42,10.7-1.22,21.59-1,32.41l.69,36.7a13.53,13.53,0,0,0,.54,4.27c1.7,4.77,7.47,5,12,4.49l30.66-3.69a4.23,4.23,0,0,0,2.48-.86,4.7,4.7,0,0,0,1.11-3.39c.09-7.35-5.57-13.52-5.7-20.87-.09-4.89,2.31-9.62,1.74-14.48-.68-5.84-5.48-10.21-6.3-16-1.07-7.62,4.85-14.08,6.6-21.54,2.66-11.35-4.65-23.48-1.91-34.8.8-3.31,2.43-6.33,3-9.71.88-5.4-1.12-10.83-1.51-16.3-.64-8.93,3-18.23.28-26.65-1.46-4.58-4.65-8.34-5.66-13.08-1.26-5.94,1.15-12,2.15-18,1-6.19.57-12.57,1.22-18.83,1.47-14.2,8.61-27.69,7.05-41.88-1.2-11-7.41-20.25-13.4-29-2.17-3.16-5-6.89-9.63-7.8a10.12,10.12,0,0,0-6.68.67,9.15,9.15,0,0,0-2.93,2.36" transform="translate(-219.76 -95.71)"/><rect class="cls-4" x="29.91" y="108.74" width="90.43" height="28.18"/><rect class="cls-4" x="26.35" y="322.1" width="97.55" height="39.67"/><rect class="cls-4" x="26.28" y="179.11" width="97.59" height="28.18"/><rect class="cls-4" x="26.28" y="251.1" width="97.59" height="28.18"/><path class="cls-5" d="M309.24,320c4,.45,7,4.48,6.78,9l-14.91-2.08C301.84,322.61,305.35,319.53,309.24,320Z" transform="translate(-219.76 -95.71)"/><path d="M301,327.73c0-.27.06-.53.1-.79L316,329c0,.13,0,.26,0,.39l-2.11,24.76c-.4,4.73-4.11,8.22-8.23,7.76s-7.17-4.71-6.77-9.44Z" transform="translate(-219.76 -95.71)"/><path class="cls-5" d="M283.05,320c-4,.45-7,4.48-6.78,9l14.91-2.08C290.45,322.61,286.94,319.53,283.05,320Z" transform="translate(-219.76 -95.71)"/><path d="M291.28,327.73c0-.27-.06-.53-.1-.79L276.27,329c0,.13,0,.26,0,.39l2.11,24.76c.4,4.73,4.11,8.22,8.23,7.76s7.17-4.71,6.77-9.44Z" transform="translate(-219.76 -95.71)"/><path class="cls-5" d="M309.88,248.15c4,.45,7,4.48,6.78,9l-14.91-2.08C302.48,250.8,306,247.72,309.88,248.15Z" transform="translate(-219.76 -95.71)"/><path d="M301.65,255.91c0-.27.06-.53.1-.79l14.91,2.08c0,.13,0,.26,0,.39l-2.11,24.76c-.4,4.73-4.11,8.22-8.23,7.76s-7.17-4.71-6.77-9.44Z" transform="translate(-219.76 -95.71)"/><path class="cls-5" d="M283.69,248.15c-4,.45-7,4.48-6.78,9l14.91-2.08C291.1,250.8,287.58,247.72,283.69,248.15Z" transform="translate(-219.76 -95.71)"/><path d="M291.92,255.91c0-.27-.06-.53-.1-.79l-14.91,2.08c0,.13,0,.26,0,.39L279,282.35c.4,4.73,4.11,8.22,8.23,7.76s7.17-4.71,6.77-9.44Z" transform="translate(-219.76 -95.71)"/><path class="cls-5" d="M307.94,179.78c4,.45,7,4.48,6.78,9l-14.91-2.08C300.54,182.43,304.05,179.35,307.94,179.78Z" transform="translate(-219.76 -95.71)"/><path d="M299.71,187.55c0-.27.06-.53.1-.79l14.91,2.08c0,.13,0,.26,0,.39L312.6,214c-.4,4.73-4.11,8.22-8.23,7.76s-7.17-4.71-6.77-9.44Z" transform="translate(-219.76 -95.71)"/><path class="cls-5" d="M281.76,179.78c-4,.45-7,4.48-6.78,9l14.91-2.08C289.16,182.43,285.65,179.35,281.76,179.78Z" transform="translate(-219.76 -95.71)"/><path d="M290,187.55c0-.27-.06-.53-.1-.79L275,188.83c0,.13,0,.26,0,.39L277.1,214c.4,4.73,4.11,8.22,8.23,7.76s7.17-4.71,6.77-9.44Z" transform="translate(-219.76 -95.71)"/><rect class="cls-6" x="242.54" y="195.95" width="98.3" height="2.62" rx="0.81" ry="0.81" transform="translate(-220.11 -95.18) rotate(-0.1)"/><rect class="cls-6" x="336.1" y="189.73" width="26.24" height="14.86" rx="4.61" ry="4.61" transform="translate(-220.11 -95.08) rotate(-0.1)"/><rect class="cls-6" x="219.76" y="189.94" width="26.24" height="14.86" rx="4.61" ry="4.61" transform="translate(-220.11 -95.29) rotate(-0.1)"/><rect class="cls-6" x="243.33" y="263.19" width="98.3" height="2.62" rx="0.81" ry="0.81" transform="translate(-220.23 -95.18) rotate(-0.1)"/><rect class="cls-6" x="336.89" y="256.97" width="26.24" height="14.86" rx="4.61" ry="4.61" transform="translate(-220.23 -95.08) rotate(-0.1)"/><rect class="cls-6" x="220.55" y="257.18" width="26.24" height="14.86" rx="4.61" ry="4.61" transform="translate(-220.23 -95.29) rotate(-0.1)"/><rect class="cls-6" x="243.92" y="335.31" width="98.3" height="2.62" rx="0.81" ry="0.81" transform="translate(-220.36 -95.18) rotate(-0.1)"/><rect class="cls-6" x="337.49" y="329.09" width="26.24" height="14.86" rx="4.61" ry="4.61" transform="translate(-220.36 -95.08) rotate(-0.1)"/><rect class="cls-6" x="221.15" y="329.3" width="26.24" height="14.86" rx="4.61" ry="4.61" transform="translate(-220.37 -95.29) rotate(-0.1)"/><path class="cls-7" d="M288.77,239.76c-.17-.11-.4.34-1.24,1a5.31,5.31,0,0,0-.93.72,2.18,2.18,0,0,0-.57.87,1.89,1.89,0,0,0,.36,1.82c.59.54,1.51.11,1.89-.46a4.28,4.28,0,0,0,.37-1.43,11.35,11.35,0,0,0,.14-1.19C288.85,240.25,288.89,239.84,288.77,239.76Z" transform="translate(-219.76 -95.71)"/><path class="cls-7" d="M295.23,240.27c-.19,0-.15.56-.51,1.66a7.17,7.17,0,0,0-.39,1.24,2.61,2.61,0,0,0,0,1.1c.14.56.6,1.2,1.19,1.21s1.27-1,1.29-1.72a4.28,4.28,0,0,0-.41-1.41,10.29,10.29,0,0,0-.47-1.05C295.55,240.6,295.37,240.25,295.23,240.27Z" transform="translate(-219.76 -95.71)"/><path class="cls-7" d="M302.62,237.94c-.16.13.07.58.14,1.77a7.56,7.56,0,0,0,.1,1.32,2.42,2.42,0,0,0,.37,1,1.24,1.24,0,0,0,1.51.48,2,2,0,0,0,.54-2.22,3.54,3.54,0,0,0-.88-1.06,8.22,8.22,0,0,0-.81-.71C303,238.08,302.74,237.85,302.62,237.94Z" transform="translate(-219.76 -95.71)"/><path class="cls-7" d="M289.88,307.62c-.17-.11-.4.34-1.24,1a5.31,5.31,0,0,0-.93.72,2.18,2.18,0,0,0-.57.87,1.89,1.89,0,0,0,.36,1.82c.59.54,1.51.11,1.89-.46a4.28,4.28,0,0,0,.37-1.43,11.35,11.35,0,0,0,.14-1.19C290,308.11,290,307.7,289.88,307.62Z" transform="translate(-219.76 -95.71)"/><path class="cls-7" d="M296.35,308.13c-.19,0-.15.56-.51,1.66a7.17,7.17,0,0,0-.39,1.24,2.61,2.61,0,0,0,0,1.1c.14.56.6,1.2,1.19,1.21s1.27-1,1.29-1.72a4.28,4.28,0,0,0-.41-1.41,10.29,10.29,0,0,0-.47-1.05C296.66,308.46,296.49,308.11,296.35,308.13Z" transform="translate(-219.76 -95.71)"/><path class="cls-7" d="M303.73,305.8c-.16.13.07.58.14,1.77a7.56,7.56,0,0,0,.1,1.32,2.42,2.42,0,0,0,.37,1,1.24,1.24,0,0,0,1.51.48,2,2,0,0,0,.54-2.22,3.54,3.54,0,0,0-.88-1.06,8.22,8.22,0,0,0-.81-.71C304.14,305.94,303.85,305.71,303.73,305.8Z" transform="translate(-219.76 -95.71)"/><path class="cls-7" d="M291.14,379.66c-.17-.11-.4.34-1.24,1a5.31,5.31,0,0,0-.93.72,2.18,2.18,0,0,0-.57.87,1.89,1.89,0,0,0,.36,1.82c.59.54,1.51.11,1.89-.46a4.28,4.28,0,0,0,.37-1.43,11.35,11.35,0,0,0,.14-1.19C291.23,380.15,291.26,379.74,291.14,379.66Z" transform="translate(-219.76 -95.71)"/><path class="cls-7" d="M297.61,380.17c-.19,0-.15.56-.51,1.66a7.17,7.17,0,0,0-.39,1.24,2.61,2.61,0,0,0,0,1.1c.14.56.6,1.2,1.19,1.21s1.27-1,1.29-1.72a4.28,4.28,0,0,0-.41-1.41,10.29,10.29,0,0,0-.47-1.05C297.93,380.5,297.75,380.15,297.61,380.17Z" transform="translate(-219.76 -95.71)"/><path class="cls-7" d="M305,377.84c-.16.13.07.58.14,1.77a7.56,7.56,0,0,0,.1,1.32,2.42,2.42,0,0,0,.37,1,1.24,1.24,0,0,0,1.51.48,2,2,0,0,0,.54-2.22,3.54,3.54,0,0,0-.88-1.06,8.22,8.22,0,0,0-.81-.71C305.4,378,305.11,377.75,305,377.84Z" transform="translate(-219.76 -95.71)"/><path class="cls-5" d="M321.9,216.75a72.71,72.71,0,0,1,.67-9.27c.75-5.78,2.29-17.56,4.78-17.59,2.14,0,4.5,10.18,4.78,17.59.21,5.48-.6,12.49-.63,15a8.13,8.13,0,0,1-.15,1.31,3.21,3.21,0,0,1-.73,1.9,2.36,2.36,0,0,1-1.9.44c-1.26.49-3.06,1.14-5.26,1.75-4.67,1.31-7.28,2-8.32.88s.88-3.23-.12-7.28c-.39-1.57-.88-2-.61-2.8C315,216.95,318.66,216.67,321.9,216.75Z" transform="translate(-219.76 -95.71)"/><path class="cls-5" d="M266.78,216.75a72.71,72.71,0,0,0-.67-9.27c-.75-5.78-2.29-17.56-4.78-17.59-2.14,0-4.5,10.18-4.78,17.59-.21,5.48.6,12.49.63,15a8.13,8.13,0,0,0,.15,1.31,3.21,3.21,0,0,0,.73,1.9,2.36,2.36,0,0,0,1.9.44c1.26.49,3.06,1.14,5.26,1.75,4.67,1.31,7.28,2,8.32.88s-.88-3.23.12-7.28c.39-1.57.88-2,.61-2.8C273.63,216.95,270,216.67,266.78,216.75Z" transform="translate(-219.76 -95.71)"/><path class="cls-8" d="M315.89,218c-7.81-13-34.45-13.42-42.91-.42a18.7,18.7,0,0,0-2.67,7.07v2.19c0,5.51,4.09,10,9.08,10h29.69c5,0,9.08-4.51,9.08-10v-2.19A17.69,17.69,0,0,0,315.89,218Z" transform="translate(-219.76 -95.71)"/><path class="cls-5" d="M294.41,206.76c7.48,0,13.54,7.57,13.54,16.9,0,.29,0,.57,0,.85a19.59,19.59,0,0,0,.25-3c0-9.1-6.19-16.49-13.82-16.49s-13.82,7.38-13.82,16.49a19.64,19.64,0,0,0,.27,3.23c0-.14.07-.27.11-.41s0-.41,0-.63C280.87,214.33,286.93,206.76,294.41,206.76Z" transform="translate(-219.76 -95.71)"/><path class="cls-9" d="M307.56,217.66c-1.54-6.27-6.84-10.9-13.15-10.9s-11.61,4.63-13.15,10.9a15.63,15.63,0,0,0-.46,3.73c0,8.08,6.1,14.63,13.62,14.63S308,229.47,308,221.39A15.63,15.63,0,0,0,307.56,217.66Z" transform="translate(-219.76 -95.71)"/><path class="cls-5" d="M322.69,284a72.71,72.71,0,0,1,.67-9.27c.75-5.78,2.29-17.56,4.78-17.59,2.14,0,4.5,10.18,4.78,17.59.21,5.48-.6,12.49-.63,15a8.13,8.13,0,0,1-.15,1.31,3.21,3.21,0,0,1-.73,1.9,2.36,2.36,0,0,1-1.9.44c-1.26.49-3.06,1.14-5.26,1.75-4.67,1.31-7.28,2-8.32.88s.88-3.23-.12-7.28c-.39-1.57-.88-2-.61-2.8C315.83,284.18,319.45,283.91,322.69,284Z" transform="translate(-219.76 -95.71)"/><path class="cls-5" d="M267.56,284a72.71,72.71,0,0,0-.67-9.27c-.75-5.78-2.29-17.56-4.78-17.59-2.14,0-4.5,10.18-4.78,17.59-.21,5.48.6,12.49.63,15a8.13,8.13,0,0,0,.15,1.31,3.21,3.21,0,0,0,.73,1.9,2.36,2.36,0,0,0,1.9.44c1.26.49,3.06,1.14,5.26,1.75,4.67,1.31,7.28,2,8.32.88s-.88-3.23.12-7.28c.39-1.57.88-2,.61-2.8C274.42,284.18,270.8,283.91,267.56,284Z" transform="translate(-219.76 -95.71)"/><path class="cls-8" d="M316.68,285.21c-7.81-13-34.45-13.42-42.91-.42a18.7,18.7,0,0,0-2.67,7.07v2.19c0,5.51,4.09,10,9.08,10h29.69c5,0,9.08-4.51,9.08-10v-2.19A17.69,17.69,0,0,0,316.68,285.21Z" transform="translate(-219.76 -95.71)"/><path class="cls-5" d="M295.19,274c7.48,0,13.54,7.57,13.54,16.9,0,.29,0,.57,0,.85a19.59,19.59,0,0,0,.25-3c0-9.1-6.19-16.49-13.82-16.49S281.3,279.6,281.3,288.7a19.64,19.64,0,0,0,.27,3.23c0-.14.07-.27.11-.41s0-.41,0-.63C281.65,281.56,287.72,274,295.19,274Z" transform="translate(-219.76 -95.71)"/><path class="cls-9" d="M308.35,284.89c-1.54-6.27-6.84-10.9-13.15-10.9s-11.61,4.63-13.15,10.9a15.63,15.63,0,0,0-.46,3.73c0,8.08,6.1,14.63,13.62,14.63s13.62-6.55,13.62-14.63A15.63,15.63,0,0,0,308.35,284.89Z" transform="translate(-219.76 -95.71)"/><path class="cls-5" d="M323.28,356.11a72.71,72.71,0,0,1,.67-9.27c.75-5.78,2.29-17.56,4.78-17.59,2.14,0,4.5,10.18,4.78,17.59.21,5.48-.6,12.49-.63,15a8.13,8.13,0,0,1-.15,1.31A3.21,3.21,0,0,1,332,365a2.36,2.36,0,0,1-1.9.44c-1.26.49-3.06,1.14-5.26,1.75-4.67,1.31-7.28,2-8.32.88s.88-3.23-.12-7.28c-.39-1.57-.88-2-.61-2.8C316.43,356.3,320,356,323.28,356.11Z" transform="translate(-219.76 -95.71)"/><path class="cls-5" d="M268.16,356.11a72.71,72.71,0,0,0-.67-9.27c-.75-5.78-2.29-17.56-4.78-17.59-2.14,0-4.5,10.18-4.78,17.59-.21,5.48.6,12.49.63,15a8.13,8.13,0,0,0,.15,1.31,3.21,3.21,0,0,0,.73,1.9,2.36,2.36,0,0,0,1.9.44c1.26.49,3.06,1.14,5.26,1.75,4.67,1.31,7.28,2,8.32.88s-.88-3.23.12-7.28c.39-1.57.88-2,.61-2.8C275,356.3,271.4,356,268.16,356.11Z" transform="translate(-219.76 -95.71)"/><path class="cls-8" d="M317.28,357.33c-7.81-13-34.45-13.42-42.91-.42A18.7,18.7,0,0,0,271.7,364v2.19c0,5.51,4.09,10,9.08,10h29.69c5,0,9.08-4.51,9.08-10V364A17.69,17.69,0,0,0,317.28,357.33Z" transform="translate(-219.76 -95.71)"/><path class="cls-5" d="M295.79,346.12c7.48,0,13.54,7.57,13.54,16.9,0,.29,0,.57,0,.85a19.59,19.59,0,0,0,.25-3c0-9.1-6.19-16.49-13.82-16.49s-13.82,7.38-13.82,16.49a19.64,19.64,0,0,0,.27,3.23c0-.14.07-.27.11-.41s0-.41,0-.63C282.25,353.68,288.31,346.12,295.79,346.12Z" transform="translate(-219.76 -95.71)"/><path class="cls-9" d="M308.94,357c-1.54-6.27-6.84-10.9-13.15-10.9s-11.61,4.63-13.15,10.9a15.63,15.63,0,0,0-.46,3.73c0,8.08,6.1,14.63,13.62,14.63s13.62-6.55,13.62-14.63A15.63,15.63,0,0,0,308.94,357Z" transform="translate(-219.76 -95.71)"/></svg>