<svg id="Layer_1" data-name="Layer 1" xmlns="http://www.w3.org/2000/svg" viewBox="0 0 186.85 34.48"><defs><style>.cls-1{fill:#4aa9d5;}</style></defs><title>forrealREALthelogo</title><path class="cls-1" d="M103.77,131H99v-8.24l-1.09.59-1.13.54a5.37,5.37,0,0,1-1.18.35,5.27,5.27,0,0,1-1.23.15,10,10,0,0,1-3.65-.69,9.3,9.3,0,0,1-5-5.08,10.89,10.89,0,0,1,0-7.89,9.45,9.45,0,0,1,2-3.06,9.11,9.11,0,0,1,3-2A10,10,0,0,1,94.4,105a7.34,7.34,0,0,1,1.78.25,9.65,9.65,0,0,1,1.68.59,7.4,7.4,0,0,1,1.58.94,16,16,0,0,1,1.43,1.13l1.83-2.17h1.13V131ZM99,114.61a4.86,4.86,0,0,0-.35-1.87,5.7,5.7,0,0,0-1-1.58A6.56,6.56,0,0,0,96.23,110a3.84,3.84,0,0,0-1.83-.44,4.62,4.62,0,0,0-1.83.35,6,6,0,0,0-1.48,1,5.06,5.06,0,0,0-1,1.58,5.37,5.37,0,0,0-.35,2.07,5.8,5.8,0,0,0,.35,2.12,5.06,5.06,0,0,0,1,1.58,3.9,3.9,0,0,0,1.48,1,4.46,4.46,0,0,0,1.83.35,4,4,0,0,0,1.83-.44A5.39,5.39,0,0,0,97.71,118a4.75,4.75,0,0,0,1-1.58A4.46,4.46,0,0,0,99,114.61Z" transform="translate(-64.26 -96.51)"/><path class="cls-1" d="M120.84,121.81c-.39.35-.79.64-1.23,1s-.89.54-1.33.79a8.47,8.47,0,0,1-1.43.54,5.2,5.2,0,0,1-1.53.2,8.62,8.62,0,0,1-3.21-.59A7.79,7.79,0,0,1,109.5,122a8.1,8.1,0,0,1-1.78-2.71,8.94,8.94,0,0,1-.64-3.55V105.59h4.69v10.16a4.42,4.42,0,0,0,.3,1.68,4.31,4.31,0,0,0,.74,1.23,2.53,2.53,0,0,0,1.13.74,4.28,4.28,0,0,0,1.38.25,2.74,2.74,0,0,0,1.38-.35,3.93,3.93,0,0,0,1.13-.89,3.18,3.18,0,0,0,.74-1.23,3.54,3.54,0,0,0,.3-1.43V105.59h4.69v18.35h-1.13Z" transform="translate(-64.26 -96.51)"/><path class="cls-1" d="M144.86,124h-1.13l-1.83-2.52a16,16,0,0,1-1.43,1.13,9.94,9.94,0,0,1-1.58.89,11.35,11.35,0,0,1-1.68.59,7.34,7.34,0,0,1-1.78.25,10,10,0,0,1-3.65-.64,9.17,9.17,0,0,1-3-1.87,9,9,0,0,1-2-3.06,10.81,10.81,0,0,1-.74-4.09,10.22,10.22,0,0,1,.74-3.95,9.45,9.45,0,0,1,2-3.06,8.65,8.65,0,0,1,3-2,9.08,9.08,0,0,1,3.65-.69,7.34,7.34,0,0,1,1.78.25,6.93,6.93,0,0,1,1.68.64,10.23,10.23,0,0,1,1.58.94,10.59,10.59,0,0,1,1.38,1.13l1.83-2.17h1.13V124Zm-4.74-9.37a4.86,4.86,0,0,0-.35-1.87,5.7,5.7,0,0,0-1-1.58,6.56,6.56,0,0,0-1.48-1.13,3.84,3.84,0,0,0-1.83-.44,4.62,4.62,0,0,0-1.83.35,4.07,4.07,0,0,0-2.47,2.52,5.8,5.8,0,0,0-.35,2.12,5.63,5.63,0,0,0,.35,2.12,5.06,5.06,0,0,0,1,1.58,3.32,3.32,0,0,0,1.48.94,5.46,5.46,0,0,0,1.83.35,4,4,0,0,0,1.83-.44,5.23,5.23,0,0,0,2.47-2.71A4.08,4.08,0,0,0,140.13,114.61Z" transform="translate(-64.26 -96.51)"/><path class="cls-1" d="M154.38,124H149.7V110.27h-2.27v-4.69h2.27v-.89a7.76,7.76,0,0,1,.64-3.21,8.75,8.75,0,0,1,1.78-2.61,8.34,8.34,0,0,1,5.82-2.37h3.5v4.69h-3.5a4,4,0,0,0-1.38.25,4.5,4.5,0,0,0-1.13.74,3.77,3.77,0,0,0-.74,1.13,3.31,3.31,0,0,0-.3,1.38v.89h5.72v4.69h-5.72Z" transform="translate(-64.26 -96.51)"/><path class="cls-1" d="M179.74,114.61a9.9,9.9,0,0,1-.74,3.85,9.45,9.45,0,0,1-2,3.06,8.78,8.78,0,0,1-3,2,9.37,9.37,0,0,1-7.3,0,10.41,10.41,0,0,1-3-2,10,10,0,0,1-2-3.06,9.9,9.9,0,0,1-.74-3.85,10.33,10.33,0,0,1,.74-3.9,9,9,0,0,1,2-3.06,8.52,8.52,0,0,1,3-2,9.11,9.11,0,0,1,3.65-.74,10,10,0,0,1,3.65.69,8.66,8.66,0,0,1,3,2,9.45,9.45,0,0,1,2,3.06A10.66,10.66,0,0,1,179.74,114.61Zm-4.74,0a5.07,5.07,0,0,0-1.33-3.65,5,5,0,0,0-1.48-1,4.46,4.46,0,0,0-1.83-.35,4.62,4.62,0,0,0-1.83.35,5,5,0,0,0-1.48,1,5.7,5.7,0,0,0-1,1.58,5.37,5.37,0,0,0-.35,2.07,5.19,5.19,0,0,0,.35,2,5.7,5.7,0,0,0,1,1.58,4,4,0,0,0,1.48,1,4.49,4.49,0,0,0,1.83.39,4.62,4.62,0,0,0,1.83-.35,5,5,0,0,0,1.48-1,4.3,4.3,0,0,0,1-1.58A5.28,5.28,0,0,0,175,114.61Z" transform="translate(-64.26 -96.51)"/><path class="cls-1" d="M187,124h-4.69V105.64h1.13l1.53,2.17a8.18,8.18,0,0,1,5.52-2.12h4.14v4.69h-4.14a3.31,3.31,0,0,0-1.38.3,4.5,4.5,0,0,0-1.13.74,3,3,0,0,0-.74,1.13,3.31,3.31,0,0,0-.3,1.38V124Z" transform="translate(-64.26 -96.51)"/><path class="cls-1" d="M212.59,109.29l-3.45,3.45a4,4,0,0,0-.69-1.28,6.22,6.22,0,0,0-1-1,5.68,5.68,0,0,0-1.23-.59,4.15,4.15,0,0,0-1.33-.2,4.67,4.67,0,0,0-1.83.39,5.2,5.2,0,0,0-1.48,1.09,6.27,6.27,0,0,0-1,1.68,6.08,6.08,0,0,0-.35,2.17,4.62,4.62,0,0,0,.35,1.83,6,6,0,0,0,1,1.48,3.9,3.9,0,0,0,1.48,1,4.46,4.46,0,0,0,1.83.35,4.15,4.15,0,0,0,1.33-.2,4.34,4.34,0,0,0,1.18-.54,5.52,5.52,0,0,0,1-.84,3.34,3.34,0,0,0,.69-1.13l3.45,3.45a9.73,9.73,0,0,1-1.48,1.68,9.13,9.13,0,0,1-1.83,1.23,9.48,9.48,0,0,1-2.07.79,8.51,8.51,0,0,1-2.22.25,9.11,9.11,0,0,1-3.65-.74,9.42,9.42,0,0,1-3-2,9.56,9.56,0,0,1-2-3,9.11,9.11,0,0,1-.74-3.65,10.4,10.4,0,0,1,.74-3.95,10.73,10.73,0,0,1,2-3.21,10,10,0,0,1,3-2.17,8.38,8.38,0,0,1,3.65-.79,8.68,8.68,0,0,1,2.27.3,11.16,11.16,0,0,1,2.12.84,10.2,10.2,0,0,1,1.87,1.38A9.22,9.22,0,0,1,212.59,109.29Z" transform="translate(-64.26 -96.51)"/><path class="cls-1" d="M245.29,124.43h-10.7c0-1.58-.1-3.21-.1-4.78l10.8.15a1.16,1.16,0,0,0,.84-.35,1.08,1.08,0,0,0,.35-.84c0-.35-.1-.54-.35-.64a2.13,2.13,0,0,0-.84-.15h-4.88a5.82,5.82,0,0,1-2.27-.44,6,6,0,0,1-1.87-1.28,5.39,5.39,0,0,1-1.23-1.87,6,6,0,0,1,0-4.54,6.86,6.86,0,0,1,1.23-1.87,5.39,5.39,0,0,1,1.87-1.23,5.82,5.82,0,0,1,2.27-.44l9.27.3c.1,1.43.15,2.91.25,4.34h-9.52a1.18,1.18,0,1,0,0,2.37h4.88a6.85,6.85,0,0,1,2.27.39,5.62,5.62,0,0,1,1.87,1.13,4.82,4.82,0,0,1,1.23,1.73,5.57,5.57,0,0,1,.44,2.22,5.82,5.82,0,0,1-.44,2.27,6.86,6.86,0,0,1-1.23,1.87,5.39,5.39,0,0,1-1.87,1.23A7.13,7.13,0,0,1,245.29,124.43Z" transform="translate(-64.26 -96.51)"/><path class="cls-1" d="M223.69,116h8.39c.59-5-1-6.76-1-6.76a7.76,7.76,0,0,0-1.48-1.87,8.77,8.77,0,0,0-1.87-1.38,9.28,9.28,0,0,0-4.39-1.13,8.38,8.38,0,0,0-3.65.79,9.2,9.2,0,0,0-3,2.17,10.14,10.14,0,0,0-2,3.21,10.4,10.4,0,0,0-.74,3.95,9.11,9.11,0,0,0,.74,3.65,9.56,9.56,0,0,0,2,3,8.66,8.66,0,0,0,3,2,9.11,9.11,0,0,0,3.65.74,10.55,10.55,0,0,0,2.22-.25,9.48,9.48,0,0,0,2.07-.79,9.13,9.13,0,0,0,1.83-1.23,8,8,0,0,0,1.48-1.68l-3.45-3.45a8.69,8.69,0,0,1-.69,1.13,3.88,3.88,0,0,1-1,.84,2.14,2.14,0,0,1-.49.25c-.15,0-.44.2-.74.3a4.78,4.78,0,0,1-1.28.15,5.7,5.7,0,0,1-1.83-.35,4.53,4.53,0,0,1-2.47-2.47,3.7,3.7,0,0,1-.25-.79h5Zm-2.12-6a5.53,5.53,0,0,1,.64-.25,4.86,4.86,0,0,1,1.18-.15,4.15,4.15,0,0,1,1.33.2,2.48,2.48,0,0,1,.64.25,3.51,3.51,0,0,1,.54.35,4.88,4.88,0,0,1,1.23,1.73h-3.7c-1.23,0-2.47,0-3.7.1a2.69,2.69,0,0,1,.89-1.63A2.72,2.72,0,0,1,221.56,110Z" transform="translate(-64.26 -96.51)"/><path class="cls-1" d="M83.06,123.94H81.92l-1.83-2.52a16,16,0,0,1-1.43,1.13,9.94,9.94,0,0,1-1.58.89,11.35,11.35,0,0,1-1.68.59,7.34,7.34,0,0,1-1.78.25,10,10,0,0,1-3.65-.64,9.17,9.17,0,0,1-3-1.87,9,9,0,0,1-2-3.06,10.81,10.81,0,0,1-.74-4.09,10.22,10.22,0,0,1,.74-3.95,9.45,9.45,0,0,1,2-3.06,8.65,8.65,0,0,1,3-2,9.08,9.08,0,0,1,3.65-.69,7.34,7.34,0,0,1,1.78.25,6.93,6.93,0,0,1,1.68.64,10.23,10.23,0,0,1,1.58.94A10.59,10.59,0,0,1,80,107.9l1.83-2.17H83v18.2Zm-4.69-9.32a4.86,4.86,0,0,0-.35-1.87,5.7,5.7,0,0,0-1-1.58A6.56,6.56,0,0,0,75.56,110a3.84,3.84,0,0,0-1.83-.44,4.62,4.62,0,0,0-1.83.35,4.7,4.7,0,0,0-1.48.94,5.06,5.06,0,0,0-1,1.58,5.8,5.8,0,0,0-.35,2.12,5.63,5.63,0,0,0,.35,2.12,5.06,5.06,0,0,0,1,1.58,3.32,3.32,0,0,0,1.48.94,5.46,5.46,0,0,0,1.83.35,4,4,0,0,0,1.83-.44A5.23,5.23,0,0,0,78,116.39,5.17,5.17,0,0,0,78.37,114.61Z" transform="translate(-64.26 -96.51)"/><circle class="cls-1" cx="8.39" cy="17.12" r="2.42"/></svg>