<svg id="Layer_1" data-name="Layer 1" xmlns="http://www.w3.org/2000/svg" viewBox="0 0 281.26 51.9"><defs><style>.cls-1{fill:#05b4b4;}</style></defs><title>logorgb(11,181,181)</title><path class="cls-1" d="M133.15,144.1H126V131.7c-.52.3-1.11.59-1.63.89s-1.11.52-1.71.82a8.08,8.08,0,0,1-1.78.52,7.93,7.93,0,0,1-1.86.22,15.06,15.06,0,0,1-5.49-1,14,14,0,0,1-7.57-7.65,16.4,16.4,0,0,1,0-11.88,14.23,14.23,0,0,1,3-4.6,13.72,13.72,0,0,1,4.53-3,15.06,15.06,0,0,1,5.49-1,11,11,0,0,1,2.67.37,14.53,14.53,0,0,1,2.52.89,11.13,11.13,0,0,1,2.38,1.41,24.16,24.16,0,0,1,2.15,1.71l2.75-3.27h1.71v38ZM126,119.44a7.32,7.32,0,0,0-.52-2.82,8.58,8.58,0,0,0-1.49-2.38,9.88,9.88,0,0,0-2.23-1.71,5.78,5.78,0,0,0-2.75-.67,7,7,0,0,0-2.75.52,9,9,0,0,0-2.23,1.49,7.61,7.61,0,0,0-1.49,2.38,8.08,8.08,0,0,0-.52,3.12,8.74,8.74,0,0,0,.52,3.19,7.61,7.61,0,0,0,1.49,2.38,5.87,5.87,0,0,0,2.23,1.49,6.71,6.71,0,0,0,2.75.52,6,6,0,0,0,2.75-.67,8.11,8.11,0,0,0,2.23-1.71,7.14,7.14,0,0,0,1.49-2.38A6.71,6.71,0,0,0,126,119.44Z" transform="translate(-73.67 -92.19)"/><path class="cls-1" d="M158.84,130.29c-.59.52-1.19,1-1.86,1.49s-1.34.82-2,1.19a12.76,12.76,0,0,1-2.15.82,7.83,7.83,0,0,1-2.3.3,13,13,0,0,1-4.83-.89,11.73,11.73,0,0,1-3.94-2.6,12.19,12.19,0,0,1-2.67-4.08,13.46,13.46,0,0,1-1-5.35v-15.3h7.05v15.3a6.66,6.66,0,0,0,.45,2.52,6.49,6.49,0,0,0,1.11,1.86,3.81,3.81,0,0,0,1.71,1.11,6.44,6.44,0,0,0,2.08.37,4.12,4.12,0,0,0,2.08-.52,5.92,5.92,0,0,0,1.71-1.34,4.78,4.78,0,0,0,1.11-1.86,5.33,5.33,0,0,0,.45-2.15v-15.3h7.05v27.62h-1.71Z" transform="translate(-73.67 -92.19)"/><path class="cls-1" d="M195,133.55h-1.71l-2.75-3.79a24.15,24.15,0,0,1-2.15,1.71,15,15,0,0,1-2.38,1.34,17.08,17.08,0,0,1-2.52.89,11,11,0,0,1-2.67.37,15,15,0,0,1-5.49-1,13.81,13.81,0,0,1-4.46-2.82,13.47,13.47,0,0,1-3-4.6,16.27,16.27,0,0,1-1.11-6.16,15.39,15.39,0,0,1,1.11-5.94,14.23,14.23,0,0,1,3-4.6,13,13,0,0,1,4.46-3,13.66,13.66,0,0,1,5.49-1,11,11,0,0,1,2.67.37,10.42,10.42,0,0,1,2.52,1,15.4,15.4,0,0,1,2.38,1.41,15.94,15.94,0,0,1,2.08,1.71l2.75-3.27h1.71v27.4Zm-7.13-14.11a7.32,7.32,0,0,0-.52-2.82,8.58,8.58,0,0,0-1.49-2.38,9.88,9.88,0,0,0-2.23-1.71,5.78,5.78,0,0,0-2.75-.67,7,7,0,0,0-2.75.52,6.13,6.13,0,0,0-3.71,3.79,8.74,8.74,0,0,0-.52,3.19,8.48,8.48,0,0,0,.52,3.19,7.61,7.61,0,0,0,1.49,2.38,5,5,0,0,0,2.23,1.41,8.21,8.21,0,0,0,2.75.52,6,6,0,0,0,2.75-.67,7.87,7.87,0,0,0,3.71-4.08A6.14,6.14,0,0,0,187.87,119.44Z" transform="translate(-73.67 -92.19)"/><path class="cls-1" d="M209.33,133.55h-7.05V112.91h-3.42v-7.05h3.42v-1.34a11.68,11.68,0,0,1,1-4.83,13.18,13.18,0,0,1,2.67-3.94,12.55,12.55,0,0,1,8.76-3.56h5.27v7.05h-5.27a6.1,6.1,0,0,0-2.08.37,6.78,6.78,0,0,0-1.71,1.11,5.67,5.67,0,0,0-1.11,1.71,5,5,0,0,0-.45,2.08v1.34h8.61v7.05h-8.61Z" transform="translate(-73.67 -92.19)"/><path class="cls-1" d="M247.49,119.44a14.91,14.91,0,0,1-1.11,5.79,14.23,14.23,0,0,1-3,4.6,13.22,13.22,0,0,1-4.46,3,14.11,14.11,0,0,1-11,0,15.67,15.67,0,0,1-4.53-3,15.07,15.07,0,0,1-3-4.6,14.91,14.91,0,0,1-1.11-5.79,15.55,15.55,0,0,1,1.11-5.87,13.47,13.47,0,0,1,3-4.6,12.82,12.82,0,0,1,4.53-3,13.72,13.72,0,0,1,5.49-1.11,15.06,15.06,0,0,1,5.49,1,13,13,0,0,1,4.46,3,14.23,14.23,0,0,1,3,4.6A16,16,0,0,1,247.49,119.44Zm-7.13,0a7.63,7.63,0,0,0-2-5.49,7.56,7.56,0,0,0-2.23-1.56,6.71,6.71,0,0,0-2.75-.52,7,7,0,0,0-2.75.52,7.56,7.56,0,0,0-2.23,1.56,8.58,8.58,0,0,0-1.49,2.38,8.08,8.08,0,0,0-.52,3.12,7.81,7.81,0,0,0,.52,3,8.58,8.58,0,0,0,1.49,2.38,6,6,0,0,0,2.23,1.56,6.75,6.75,0,0,0,2.75.59,7,7,0,0,0,2.75-.52,7.56,7.56,0,0,0,2.23-1.56,6.47,6.47,0,0,0,1.49-2.38A7.94,7.94,0,0,0,240.37,119.44Z" transform="translate(-73.67 -92.19)"/><path class="cls-1" d="M258.48,133.55h-7.05V105.93h1.71l2.3,3.27a12.31,12.31,0,0,1,8.32-3.19H270v7.05h-6.24a5,5,0,0,0-2.08.45,6.78,6.78,0,0,0-1.71,1.11,4.55,4.55,0,0,0-1.11,1.71,5,5,0,0,0-.45,2.08v15.15Z" transform="translate(-73.67 -92.19)"/><path class="cls-1" d="M296.95,111.43l-5.2,5.2a6.06,6.06,0,0,0-1-1.93,9.36,9.36,0,0,0-1.49-1.49,8.54,8.54,0,0,0-1.86-.89,6.25,6.25,0,0,0-2-.3,7,7,0,0,0-2.75.59,7.83,7.83,0,0,0-2.23,1.63,9.43,9.43,0,0,0-1.49,2.52,9.15,9.15,0,0,0-.52,3.27,7,7,0,0,0,.52,2.75,9,9,0,0,0,1.49,2.23,5.87,5.87,0,0,0,2.23,1.49,6.71,6.71,0,0,0,2.75.52,6.25,6.25,0,0,0,2-.3,6.54,6.54,0,0,0,1.78-.82,8.31,8.31,0,0,0,1.49-1.26,5,5,0,0,0,1-1.71l5.2,5.2a14.65,14.65,0,0,1-2.23,2.52,13.74,13.74,0,0,1-2.75,1.86,14.27,14.27,0,0,1-3.12,1.19,12.82,12.82,0,0,1-3.34.37,13.72,13.72,0,0,1-5.49-1.11,14.19,14.19,0,0,1-4.46-3,14.39,14.39,0,0,1-3-4.46,13.72,13.72,0,0,1-1.11-5.49,15.66,15.66,0,0,1,1.11-5.94,16.15,16.15,0,0,1,3-4.83,15,15,0,0,1,4.46-3.27,12.62,12.62,0,0,1,5.49-1.19,13.06,13.06,0,0,1,3.42.45,16.8,16.8,0,0,1,3.19,1.26,15.36,15.36,0,0,1,2.82,2.08A13.89,13.89,0,0,1,296.95,111.43Z" transform="translate(-73.67 -92.19)"/><path class="cls-1" d="M346.17,134.22H330.06c-.07-2.38-.15-4.83-.15-7.2l16.26.22a1.74,1.74,0,0,0,1.26-.52,1.63,1.63,0,0,0,.52-1.26c0-.52-.15-.82-.52-1a3.2,3.2,0,0,0-1.26-.22h-7.35a8.75,8.75,0,0,1-3.42-.67,9.1,9.1,0,0,1-2.82-1.93,8.12,8.12,0,0,1-1.86-2.82,9.06,9.06,0,0,1,0-6.83,10.33,10.33,0,0,1,1.86-2.82,8.12,8.12,0,0,1,2.82-1.86,8.75,8.75,0,0,1,3.42-.67l14,.45c.15,2.15.22,4.38.37,6.53H338.82a1.78,1.78,0,1,0,0,3.56h7.35a10.31,10.31,0,0,1,3.42.59,8.46,8.46,0,0,1,2.82,1.71,7.25,7.25,0,0,1,1.86,2.6,8.39,8.39,0,0,1,.67,3.34,8.75,8.75,0,0,1-.67,3.42,10.33,10.33,0,0,1-1.86,2.82,8.12,8.12,0,0,1-2.82,1.86A10.74,10.74,0,0,1,346.17,134.22Z" transform="translate(-73.67 -92.19)"/><path class="cls-1" d="M313.65,121.52h12.62c.89-7.5-1.56-10.17-1.56-10.17a11.68,11.68,0,0,0-2.23-2.82,13.2,13.2,0,0,0-2.82-2.08,14,14,0,0,0-6.61-1.71,12.62,12.62,0,0,0-5.49,1.19,13.84,13.84,0,0,0-4.46,3.27,15.27,15.27,0,0,0-3,4.83A15.66,15.66,0,0,0,299,120a13.72,13.72,0,0,0,1.11,5.49,14.39,14.39,0,0,0,3,4.46,13,13,0,0,0,4.46,3,13.72,13.72,0,0,0,5.49,1.11,15.88,15.88,0,0,0,3.34-.37,14.27,14.27,0,0,0,3.12-1.19,13.74,13.74,0,0,0,2.75-1.86,12.08,12.08,0,0,0,2.23-2.52l-5.2-5.2a13.08,13.08,0,0,1-1,1.71,5.85,5.85,0,0,1-1.49,1.26,3.22,3.22,0,0,1-.74.37c-.22.07-.67.3-1.11.45a7.19,7.19,0,0,1-1.93.22,8.59,8.59,0,0,1-2.75-.52,6.83,6.83,0,0,1-3.71-3.71,5.56,5.56,0,0,1-.37-1.19h7.5Zm-3.19-9a8.33,8.33,0,0,1,1-.37,7.32,7.32,0,0,1,1.78-.22,6.25,6.25,0,0,1,2,.3,3.73,3.73,0,0,1,1,.37,5.29,5.29,0,0,1,.82.52,7.35,7.35,0,0,1,1.86,2.6h-5.57c-1.86.07-3.71.07-5.57.15a4,4,0,0,1,1.34-2.45A4.1,4.1,0,0,1,310.46,112.54Z" transform="translate(-73.67 -92.19)"/><path class="cls-1" d="M102,133.48h-1.71l-2.75-3.79a24.15,24.15,0,0,1-2.15,1.71A15,15,0,0,1,93,132.74a17.09,17.09,0,0,1-2.52.89,11,11,0,0,1-2.67.37,15,15,0,0,1-5.49-1,13.81,13.81,0,0,1-4.46-2.82,13.47,13.47,0,0,1-3-4.6,16.27,16.27,0,0,1-1.11-6.16,15.39,15.39,0,0,1,1.11-5.94,14.23,14.23,0,0,1,3-4.6,13,13,0,0,1,4.46-3,13.66,13.66,0,0,1,5.49-1,11,11,0,0,1,2.67.37,10.42,10.42,0,0,1,2.52,1,15.4,15.4,0,0,1,2.38,1.41,15.94,15.94,0,0,1,2.08,1.71l2.75-3.27h1.71v27.4Zm-7.05-14a7.32,7.32,0,0,0-.52-2.82,8.58,8.58,0,0,0-1.49-2.38,9.88,9.88,0,0,0-2.23-1.71,5.78,5.78,0,0,0-2.75-.67,7,7,0,0,0-2.75.52A7.08,7.08,0,0,0,83,113.8a7.61,7.61,0,0,0-1.49,2.38,8.74,8.74,0,0,0-.52,3.19,8.48,8.48,0,0,0,.52,3.19A7.61,7.61,0,0,0,83,124.94a5,5,0,0,0,2.23,1.41,8.21,8.21,0,0,0,2.75.52,6,6,0,0,0,2.75-.67,7.87,7.87,0,0,0,3.71-4.08A7.78,7.78,0,0,0,94.91,119.44Z" transform="translate(-73.67 -92.19)"/><circle class="cls-1" cx="12.62" cy="25.76" r="3.64"/></svg>