<?xml version="1.0" encoding="UTF-8" standalone="no"?>
<svg width="282px" height="52px" viewBox="0 0 282 52" version="1.1" xmlns="http://www.w3.org/2000/svg" xmlns:xlink="http://www.w3.org/1999/xlink">
    <!-- Generator: Sketch 39.1 (31720) - http://www.bohemiancoding.com/sketch -->
    <title>new-blue</title>
    <desc>Created with Sketch.</desc>
    <defs></defs>
    <g id="GameHost-UX" stroke="none" stroke-width="1" fill="none" fill-rule="evenodd">
        <g id="new-blue" fill="#98D9D9">
            <g id="Layer_1">
                <path d="M59.48,51.91 L52.33,51.91 L52.33,39.51 C51.81,39.81 51.22,40.1 50.7,40.4 C50.18,40.7 49.59,40.92 48.99,41.22 C48.4185893,41.461071 47.8213234,41.6355532 47.21,41.74 C46.6008675,41.886551 45.9765138,41.9603993 45.35,41.96 C43.4736832,41.9715817 41.611725,41.6324272 39.86,40.96 C36.4181693,39.5204892 33.6932501,36.766773 32.29,33.31 C30.8053036,29.4891618 30.8053036,25.2508382 32.29,21.43 C32.9818255,19.716416 34.0007984,18.1539909 35.29,16.83 C36.5849151,15.5380185 38.1251111,14.5180211 39.82,13.83 C41.571725,13.1575728 43.4336832,12.8184183 45.31,12.83 C46.2118029,12.8434088 47.1085338,12.9676749 47.98,13.2 C48.8455576,13.4186208 49.689125,13.7165474 50.5,14.09 C51.348882,14.4591977 52.1483891,14.9328553 52.88,15.5 C53.6285187,16.0287615 54.3463455,16.5996841 55.03,17.21 L57.78,13.94 L59.49,13.94 L59.49,51.94 L59.48,51.91 Z M52.33,27.25 C52.3442806,26.2849101 52.167557,25.3265241 51.81,24.43 C51.4473992,23.5602272 50.9439927,22.7561282 50.32,22.05 C49.66194,21.3766588 48.9110127,20.8008356 48.09,20.34 C47.2430277,19.8922056 46.2980279,19.6619693 45.34,19.67 C44.3976751,19.6564474 43.4623163,19.8333153 42.59,20.19 C41.7764207,20.5725017 41.0247432,21.0747436 40.36,21.68 C39.720004,22.3740422 39.214738,23.1811114 38.87,24.06 C38.4928097,25.0555853 38.3160909,26.1158981 38.35,27.18 C38.3235025,28.2664145 38.4998507,29.3482426 38.87,30.37 C39.214738,31.2488886 39.720004,32.0559578 40.36,32.75 C40.9783907,33.4121 41.741644,33.9220764 42.59,34.24 C43.4599264,34.6047018 44.3969729,34.7818888 45.34,34.76 C46.296981,34.7591707 47.2398819,34.5294458 48.09,34.09 C48.9271764,33.6541085 49.6818365,33.075423 50.32,32.38 C50.9693048,31.6931115 51.4757635,30.8841372 51.81,30 C52.1747018,29.1300736 52.3518888,28.1930271 52.33,27.25 L52.33,27.25 Z" id="Shape"></path>
                <path d="M85.17,38.1 C84.58,38.62 83.98,39.1 83.31,39.59 C82.64,40.08 81.97,40.41 81.31,40.78 C80.6194919,41.1175272 79.8999,41.3919761 79.16,41.6 C78.4124785,41.8136301 77.6373088,41.9147392 76.86,41.9 C75.2080757,41.9129141 73.5688276,41.610858 72.03,41.01 C70.5540465,40.4192835 69.2135737,39.5347075 68.09,38.41 C66.9343072,37.2436952 66.0261421,35.8559373 65.42,34.33 C64.7258303,32.633369 64.3855414,30.8128232 64.42,28.98 L64.42,13.68 L71.47,13.68 L71.47,28.98 C71.4556372,29.8411958 71.6084596,30.6970012 71.92,31.5 C72.1831949,32.1778021 72.5584196,32.806557 73.03,33.36 C73.4885891,33.8784614 74.0797536,34.2621998 74.74,34.47 C75.4082383,34.7069924 76.1110261,34.8320075 76.82,34.84 C77.5470744,34.853268 78.2647075,34.6738598 78.9,34.32 C79.5477791,33.9826406 80.1275394,33.5283256 80.61,32.98 C81.1174512,32.4531042 81.4972,31.8167683 81.72,31.12 C82.0176504,30.4423508 82.1709043,29.7101374 82.17,28.97 L82.17,13.67 L89.22,13.67 L89.22,41.29 L87.51,41.29 L85.17,38.1 Z" id="Shape"></path>
                <path d="M121.33,41.36 L119.62,41.36 L116.87,37.57 C116.186359,38.1803324 115.468532,38.7512558 114.72,39.28 C113.969068,39.7981152 113.172433,40.2466408 112.34,40.62 C111.524535,40.9820305 110.681956,41.2796079 109.82,41.51 C108.948534,41.7423251 108.051803,41.8665912 107.15,41.88 C105.27356,41.8929978 103.411341,41.5537958 101.66,40.88 C100.005898,40.2354021 98.4915935,39.277927 97.2,38.06 C95.8947188,36.7489529 94.8734974,35.1830801 94.2,33.46 C93.4347972,31.4978617 93.0578225,29.4058221 93.09,27.3 C93.0638253,25.2661022 93.4410965,23.2471913 94.2,21.36 C94.8918255,19.646416 95.9107984,18.0839909 97.2,16.76 C98.4614415,15.4602184 99.9805751,14.4383797 101.66,13.76 C103.401692,13.0524433 105.270685,12.7120074 107.15,12.76 C108.051803,12.7734088 108.948534,12.8976749 109.82,13.13 C110.699965,13.3521655 111.547134,13.6883437 112.34,14.13 C113.174026,14.5276505 113.970572,14.9995538 114.72,15.54 C115.460322,16.050314 116.156138,16.6223545 116.8,17.25 L119.55,13.98 L121.26,13.98 L121.26,41.38 L121.33,41.36 Z M114.2,27.25 C114.214281,26.2849101 114.037557,25.3265241 113.68,24.43 C113.317399,23.5602272 112.813993,22.7561282 112.19,22.05 C111.53194,21.3766588 110.781013,20.8008356 109.96,20.34 C109.113028,19.8922056 108.168028,19.6619693 107.21,19.67 C106.267675,19.6564474 105.332316,19.8333153 104.46,20.19 C102.71254,20.8252926 101.347873,22.2193862 100.75,23.98 C100.379851,25.0017574 100.203503,26.0835855 100.23,27.17 C100.197214,28.2568375 100.373754,29.3398385 100.75,30.36 C101.094738,31.2388886 101.600004,32.0459578 102.24,32.74 C102.843687,33.4011792 103.613833,33.8881329 104.47,34.15 C105.350149,34.47945 106.280328,34.6553384 107.22,34.67 C108.176981,34.6691707 109.119882,34.4394458 109.97,34 C111.658268,33.1319622 112.975884,31.6829406 113.68,29.92 C114.050778,29.0800722 114.228472,28.1676844 114.2,27.25 L114.2,27.25 Z" id="Shape"></path>
                <path d="M135.66,41.36 L128.61,41.36 L128.61,20.72 L125.19,20.72 L125.19,13.67 L128.61,13.67 L128.61,12.33 C128.595707,10.6671711 128.936642,9.02045813 129.61,7.5 C130.25353,6.03552204 131.158279,4.70042477 132.28,3.56 C134.62418,1.27661535 137.767536,-0.000821596046 141.04,1.42108548e-14 L146.31,1.42108548e-14 L146.31,7.05 L141.04,7.05 C140.330424,7.05141745 139.626536,7.17662825 138.96,7.42 C138.337312,7.70169883 137.760797,8.07592843 137.25,8.53 C136.779724,9.02825447 136.403646,9.60761758 136.14,10.24 C135.842479,10.8930086 135.689003,11.602408 135.69,12.32 L135.69,13.66 L144.3,13.66 L144.3,20.71 L135.69,20.71 L135.66,41.36 Z" id="Shape"></path>
                <path d="M173.82,27.25 C173.839054,29.2346418 173.461678,31.203115 172.71,33.04 C172.018174,34.753584 170.999202,36.3160091 169.71,37.64 C168.444458,38.9348679 166.926419,39.9559705 165.25,40.64 C161.734318,42.1280993 157.765682,42.1280993 154.25,40.64 C152.576831,39.9114101 151.043791,38.8961519 149.72,37.64 C148.446694,36.3033574 147.429812,34.7441388 146.72,33.04 C145.968322,31.203115 145.590946,29.2346418 145.61,27.25 C145.597132,25.2399823 145.974087,23.2465344 146.72,21.38 C147.393497,19.6569199 148.414719,18.0910471 149.72,16.78 C150.998315,15.4678298 152.543002,14.4448586 154.25,13.78 C155.984202,13.0364203 157.853141,12.6585473 159.74,12.67 C161.616317,12.6584183 163.478275,12.9975728 165.23,13.67 C166.909425,14.3483797 168.428558,15.3702184 169.69,16.67 C170.979202,17.9939909 171.998174,19.556416 172.69,21.27 C173.445785,23.1726805 173.82939,25.2027295 173.82,27.25 L173.82,27.25 Z M166.69,27.25 C166.778194,25.227118 166.05871,23.252134 164.69,21.76 C164.047153,21.1093852 163.29158,20.5808226 162.46,20.2 C161.590074,19.8352982 160.653027,19.6581112 159.71,19.68 C158.767675,19.6664474 157.832316,19.8433153 156.96,20.2 C156.12842,20.5808226 155.372847,21.1093852 154.73,21.76 C154.106007,22.4661282 153.602601,23.2702272 153.24,24.14 C152.86281,25.1355853 152.686091,26.1958981 152.72,27.26 C152.694842,28.2844304 152.871532,29.3037981 153.24,30.26 C153.602601,31.1297728 154.106007,31.9338718 154.73,32.64 C155.344033,33.3239423 156.106991,33.8576705 156.96,34.2 C157.82507,34.5875811 158.762074,34.7886112 159.71,34.79 C160.652325,34.8035526 161.587684,34.6266847 162.46,34.27 C163.29158,33.8891774 164.047153,33.3606148 164.69,32.71 C165.354904,32.0353067 165.863548,31.2228422 166.18,30.33 C166.55556,29.3478917 166.732313,28.3009701 166.7,27.25 L166.69,27.25 Z" id="Shape"></path>
                <path d="M184.81,41.36 L177.76,41.36 L177.76,13.74 L179.47,13.74 L181.77,17.01 C184.04768,14.9450201 187.015622,13.8070714 190.09,13.82 L196.33,13.82 L196.33,20.87 L190.09,20.87 C189.372408,20.8690028 188.663009,21.0224786 188.01,21.32 C187.387312,21.6016988 186.810797,21.9759284 186.3,22.43 C185.805422,22.9087044 185.425896,23.4933791 185.19,24.14 C184.892479,24.7930086 184.739003,25.502408 184.74,26.22 L184.74,41.37 L184.81,41.36 Z" id="Shape"></path>
                <path d="M223.28,19.24 L218.08,24.44 C217.865714,23.7416539 217.526932,23.0878043 217.08,22.51 C216.641001,21.9588321 216.141168,21.4589989 215.59,21.02 C215.008222,20.6492986 214.383671,20.3504542 213.73,20.13 C213.08404,19.9220879 212.408532,19.8207617 211.73,19.83 C210.782857,19.8385876 209.847309,20.0393052 208.98,20.42 C208.145946,20.8268904 207.390866,21.37881 206.75,22.05 C206.125178,22.8073131 205.622454,23.6575567 205.26,24.57 C204.88925,25.6193073 204.713032,26.7274471 204.74,27.84 C204.726447,28.7823249 204.903315,29.7176837 205.26,30.59 C205.642502,31.4035793 206.144744,32.1552568 206.75,32.82 C207.368391,33.4821 208.131644,33.9920764 208.98,34.31 C209.849926,34.6747018 210.786973,34.8518888 211.73,34.83 C212.408532,34.8392383 213.08404,34.7379121 213.73,34.53 C214.361152,34.3476228 214.961221,34.0711865 215.51,33.71 C216.054426,33.3499728 216.55454,32.9270579 217,32.45 C217.444041,31.9523963 217.784046,31.3709876 218,30.74 L223.2,35.94 C222.555926,36.8628646 221.807657,37.7084411 220.97,38.46 C220.131883,39.1888738 219.208477,39.8134318 218.22,40.32 C217.230155,40.8374011 216.182987,41.2368016 215.1,41.51 C214.007724,41.7793469 212.884745,41.9037487 211.76,41.88 C209.873141,41.8914527 208.004202,41.5135797 206.27,40.77 C204.605783,40.0632742 203.091963,39.0450094 201.81,37.77 C200.538754,36.4849511 199.521003,34.9718938 198.81,33.31 C198.06642,31.5757982 197.688547,29.7068587 197.7,27.82 C197.680851,25.7867135 198.057869,23.7691583 198.81,21.88 C199.516488,20.1052517 200.532227,18.4699127 201.81,17.05 C203.081145,15.692994 204.593511,14.5841518 206.27,13.78 C207.987354,12.9759081 209.863837,12.569166 211.76,12.59 C212.914882,12.5881265 214.064911,12.7394461 215.18,13.04 C216.283534,13.3500729 217.352436,13.7722725 218.37,14.3 C219.386267,14.8834901 220.332422,15.5813635 221.19,16.38 C222.005871,17.2402292 222.708248,18.2013764 223.28,19.24 L223.28,19.24 Z" id="Shape"></path>
                <path d="M272.5,42.03 L256.39,42.03 C256.32,39.65 256.24,37.2 256.24,34.83 L272.5,35.05 C272.97324,35.055236 273.428196,34.8674764 273.76,34.53 C274.109055,34.2061156 274.29903,33.7457923 274.28,33.27 C274.28,32.75 274.13,32.45 273.76,32.27 C273.359085,32.1126201 272.930526,32.0377923 272.5,32.05 L265.15,32.05 C263.976607,32.0582461 262.813542,31.8303942 261.73,31.38 C260.676559,30.9205154 259.719691,30.2656378 258.91,29.45 C258.09916,28.6507902 257.465448,27.6900009 257.05,26.63 C256.158993,24.4405106 256.158993,21.9894894 257.05,19.8 C257.511057,18.764304 258.139458,17.8115671 258.91,16.98 C259.70921,16.1691596 260.669999,15.5354475 261.73,15.12 C262.813542,14.6696058 263.976607,14.4417539 265.15,14.45 L279.15,14.9 C279.3,17.05 279.37,19.28 279.52,21.43 L265.15,21.43 C264.514067,21.4299999 263.926441,21.769266 263.608475,22.32 C263.290508,22.8707339 263.290508,23.5492661 263.608475,24.1 C263.926441,24.650734 264.514067,24.9900001 265.15,24.99 L272.5,24.99 C273.665149,24.9920038 274.821528,25.1914962 275.92,25.58 C276.963075,25.9594871 277.921279,26.5405254 278.74,27.29 C279.545731,28.0074773 280.181177,28.8957349 280.6,29.89 C281.049381,30.9458032 281.277414,32.0825642 281.27,33.23 C281.278246,34.4033929 281.050394,35.5664577 280.6,36.65 C280.138943,37.685696 279.510542,38.6384329 278.74,39.47 C277.94079,40.2808404 276.980001,40.9145525 275.92,41.33 C274.825803,41.7482831 273.670546,41.9847392 272.5,42.03 L272.5,42.03 Z" id="Shape"></path>
                <path d="M239.98,29.33 L252.6,29.33 C253.49,21.83 251.04,19.16 251.04,19.16 C250.446657,18.1105463 249.694415,17.1592799 248.81,16.34 C247.966613,15.5244256 247.018259,14.8249304 245.99,14.26 C243.961551,13.153234 241.69069,12.5657648 239.38,12.55 C237.483837,12.529166 235.607354,12.9359081 233.89,13.74 C232.198479,14.5188462 230.681532,15.6310469 229.43,17.01 C228.13643,18.4179823 227.118792,20.0563795 226.43,21.84 C225.677446,23.7392028 225.30376,25.7673008 225.33,27.81 C225.318547,29.6968587 225.69642,31.5657982 226.44,33.3 C227.151003,34.9618938 228.168754,36.4749511 229.44,37.76 C230.701442,39.0597816 232.220575,40.0816203 233.9,40.76 C235.634202,41.5035797 237.503141,41.8814527 239.39,41.87 C240.513286,41.8651438 241.632886,41.7411163 242.73,41.5 C243.812987,41.2268016 244.860155,40.8274011 245.85,40.31 C246.838477,39.8034318 247.761883,39.1788738 248.6,38.45 C249.457261,37.7181525 250.207875,36.8699249 250.83,35.93 L245.63,30.73 C245.34037,31.3244581 245.006079,31.896097 244.63,32.44 C244.207378,32.9404565 243.703706,33.3663805 243.14,33.7 C242.91027,33.8546412 242.661551,33.9790008 242.4,34.07 C242.18,34.14 241.73,34.37 241.29,34.52 C240.65958,34.6802994 240.010323,34.754308 239.36,34.74 C238.42107,34.7181672 237.492076,34.5425028 236.61,34.22 C234.928714,33.5265962 233.593404,32.1912862 232.9,30.51 C232.732462,30.128452 232.60835,29.7292787 232.53,29.32 L240.03,29.32 L239.98,29.33 Z M236.79,20.33 C237.11509,20.1854377 237.449107,20.0618512 237.79,19.96 C238.372072,19.8139799 238.969892,19.7400921 239.57,19.74 C240.248532,19.7307617 240.92404,19.8320879 241.57,20.04 C241.919332,20.1148079 242.256106,20.239414 242.57,20.41 C242.858697,20.5578286 243.133186,20.731895 243.39,20.93 C244.193248,21.6497056 244.828266,22.5373654 245.25,23.53 L239.68,23.53 C237.82,23.6 235.97,23.6 234.11,23.68 C234.247837,22.728874 234.723512,21.8591703 235.45,21.23 C235.834409,20.8513492 236.289779,20.5523003 236.79,20.35 L236.79,20.33 Z" id="Shape"></path>
                <path d="M28.33,41.29 L26.62,41.29 L23.87,37.5 C23.1863594,38.1103324 22.4685317,38.6812558 21.72,39.21 C20.965883,39.7286463 20.1658795,40.1771838 19.33,40.55 C18.5145199,40.9119924 17.6719442,41.2095687 16.81,41.44 C15.9385338,41.6723251 15.0418029,41.7965912 14.14,41.81 C12.26356,41.8229978 10.401341,41.4837958 8.65,40.81 C6.995898,40.1654021 5.48159348,39.207927 4.19,37.99 C2.88471876,36.6789529 1.86349736,35.1130801 1.19,33.39 C0.424797161,31.4278617 0.0478224873,29.3358221 0.08,27.23 C0.0538252876,25.1961022 0.431096506,23.1771913 1.19,21.29 C1.88182554,19.576416 2.90079838,18.0139909 4.19,16.69 C5.45144152,15.3902184 6.97057514,14.3683797 8.65,13.69 C10.3916922,12.9824433 12.260685,12.6420074 14.14,12.69 C15.0418029,12.7034088 15.9385338,12.8276749 16.81,13.06 C17.6899652,13.2821655 18.5371343,13.6183437 19.33,14.06 C20.1640257,14.4576505 20.9605718,14.9295538 21.71,15.47 C22.4503223,15.980314 23.1461376,16.5523545 23.79,17.18 L26.54,13.91 L28.25,13.91 L28.25,41.31 L28.33,41.29 Z M21.28,27.29 C21.2942806,26.3249101 21.117557,25.3665241 20.76,24.47 C20.3973992,23.6002272 19.8939927,22.7961282 19.27,22.09 C18.61194,21.4166588 17.8610127,20.8408356 17.04,20.38 C16.1930277,19.9322056 15.2480279,19.7019693 14.29,19.71 C13.3476751,19.6964474 12.4123163,19.8733153 11.54,20.23 C10.7243065,20.5493235 9.97495356,21.0172452 9.33,21.61 C8.69000402,22.3040422 8.18473798,23.1111114 7.84,23.99 C7.46985068,25.0117574 7.29350252,26.0935855 7.32,27.18 C7.28721448,28.2668375 7.46375384,29.3498385 7.84,30.37 C8.18473798,31.2488886 8.69000402,32.0559578 9.33,32.75 C9.93368671,33.4111792 10.7038334,33.8981329 11.56,34.16 C12.4401486,34.48945 13.3703278,34.6653384 14.31,34.68 C15.266981,34.6791707 16.2098819,34.4494458 17.06,34.01 C18.7482683,33.1419622 20.0658836,31.6929406 20.77,29.93 C21.0828759,29.0712104 21.2419752,28.1640061 21.24,27.25 L21.28,27.29 Z" id="Shape"></path>
                <circle id="Oval" cx="12.62" cy="25.76" r="3.64"></circle>
            </g>
        </g>
    </g>
</svg>