<?xml version="1.0" encoding="UTF-8" standalone="no"?>
<svg width="523px" height="100px" viewBox="0 0 523 100" version="1.1" xmlns="http://www.w3.org/2000/svg" xmlns:xlink="http://www.w3.org/1999/xlink">
    <!-- Generator: Sketch 39.1 (31720) - http://www.bohemiancoding.com/sketch -->
    <title>logo-black</title>
    <desc>Created with Sketch.</desc>
    <defs></defs>
    <g id="GameHost-UX" stroke="none" stroke-width="1" fill="none" fill-rule="evenodd">
        <g id="logo-black" fill="#98D9D9">
            <path d="M110.530067,100.000195 L97.3862441,100.000195 L97.3862441,76.1089922 L94.3573293,77.8196487 L91.2172616,79.3853343 C90.1651471,79.8536088 89.0649193,80.1941101 87.938253,80.4001305 C86.8192916,80.6848374 85.6720469,80.8308171 84.5203033,80.8350432 C81.0493271,80.8349737 77.6090857,80.1564026 74.3776069,78.8344449 C68.0552541,76.044952 63.0562853,70.7455804 60.4835024,64.1054025 C59.0783709,60.4674588 58.3794179,56.5746452 58.4271749,52.6527023 C58.3794179,48.7307593 59.0783709,44.8379457 60.4835024,41.200002 C61.7649384,37.8933529 63.6528023,34.8795672 66.0411442,32.3277835 C68.4219529,29.8346469 71.2562758,27.8630945 74.3776069,26.5289479 C77.6090857,25.2069903 81.0493271,24.5284191 84.5203033,24.5283497 C86.1913049,24.5576177 87.852525,24.8010608 89.4666045,25.2532041 C91.0699459,25.6720865 92.6327366,26.2447424 94.1350236,26.9638606 C95.7014259,27.6783859 97.1763179,28.5939341 98.5255606,29.6893133 C99.9087193,30.7017604 101.235442,31.7956487 102.499275,32.9656554 L107.417788,26.7609014 L110.557855,26.7609014 L110.557855,100.000195 L110.557855,100.000195 L110.530067,100.000195 Z M96.3025039,47.0858201 C95.6242324,45.4095997 94.6853282,43.8617506 93.523683,42.50474 C92.30908,41.2141409 90.9242473,40.1109155 89.4110281,39.2283979 C87.8436215,38.3695777 86.0960487,37.9311609 84.3257858,37.952654 C82.582245,37.927076 80.8519849,38.2723617 79.2405435,38.9674503 C77.7386913,39.7144087 76.3524494,40.691708 75.1278886,41.8668681 C73.936898,43.2005091 72.9945372,44.7540566 72.3490677,46.4479482 C71.6495816,48.362296 71.3190709,50.4018636 71.3764804,52.449743 C71.3309306,54.5439862 71.6607856,56.6286748 72.3490677,58.5965087 C72.9945372,60.2904003 73.936898,61.8439478 75.1278886,63.1775888 C76.2653452,64.4630094 77.6731487,65.4555096 79.2405435,66.0770066 C80.8482492,66.7850461 82.5811366,67.1308561 84.3257858,67.0918029 C86.093989,67.0946388 87.8373275,66.6572844 89.4110281,65.816059 C90.9536994,64.9811608 92.3453468,63.8725064 93.523683,62.5397169 C94.7317129,61.2198815 95.6762852,59.6626881 96.3025039,57.9586368 C97.0387462,56.2453116 97.4085613,54.3852466 97.3862441,52.5077314 C97.3723158,50.6434187 97.0039549,48.8005229 96.3025039,47.0858201 Z" id="Shape"></path>
            <path d="M157.845856,72.9306597 C156.760547,73.9343854 155.64741,74.7660438 154.422959,75.7984473 C153.198508,76.8308508 151.946228,77.3470525 150.721777,78.0639994 C149.443291,78.702746 148.111381,79.2210578 146.742312,79.6126047 C145.358638,80.0209315 143.923593,80.2142451 142.484562,80.1861622 C139.429533,80.2135261 136.397553,79.6392359 133.551635,78.4941676 C130.829663,77.3640693 128.358678,75.6762191 126.288415,73.5328951 C124.14587,71.3128351 122.460967,68.6693162 121.334954,65.7611909 C120.076189,62.5276038 119.470181,59.0635514 119.553934,55.5805451 L119.553934,26.4151458 L132.605468,26.4151458 L132.605468,55.5518672 C132.577404,57.1984684 132.860973,58.8349266 133.440321,60.3697503 C133.930595,61.6559026 134.626682,62.8482282 135.499625,63.897129 C136.341833,64.8851268 137.428778,65.6186586 138.644238,66.0192917 C139.877385,66.4742522 141.174908,66.7164858 142.484562,66.7362386 C143.78103,66.7313649 145.054883,66.3859079 146.185743,65.732513 C147.37739,65.088344 148.443447,64.2230771 149.330356,63.1801821 C150.268699,62.1815001 150.973077,60.9749719 151.38966,59.6528034 C151.941648,58.3605259 152.225988,56.9638002 152.224513,55.5518672 L152.224513,26.4151458 L165.387361,26.4151458 L165.387361,79.0390472 L162.242748,79.0390472 L157.845856,72.9306597 Z" id="Shape"></path>
            <path d="M224.711088,79.1228639 L221.581081,79.1228639 L216.512133,71.9649703 C215.25235,73.1249849 213.929878,74.2095311 212.551151,75.2133316 C211.17049,76.2027567 209.705572,77.0591342 208.174682,77.7717755 C206.668718,78.4627205 205.112778,79.0298141 203.521221,79.4678226 C201.912313,79.9161045 200.256416,80.1574685 198.590768,80.1864866 C195.13969,80.232273 191.710762,79.6083017 188.480571,78.3467067 C185.400917,77.1311421 182.578564,75.3053526 180.170819,72.9710999 C177.763816,70.4631336 175.878316,67.469235 174.630985,64.1746524 C173.221345,60.430038 172.525234,56.4371296 172.581246,52.4173091 C172.533642,48.5288605 173.230355,44.6692925 174.630985,41.0624177 C175.908315,37.7840082 177.79013,34.795961 180.170819,32.2659702 C182.520855,29.7650402 185.352273,27.8060523 188.480571,26.516658 C191.682919,25.1394907 195.125004,24.4641905 198.590768,24.5331454 C200.256416,24.5621635 201.912313,24.8035275 203.521221,25.2518094 C205.142768,25.6527746 206.707081,26.2712373 208.174682,27.0915892 C209.708694,27.8541711 211.173431,28.7585478 212.551151,29.7937659 C213.911064,30.7630707 215.18976,31.8497109 216.373637,33.0421273 L221.359488,26.7753771 L224.489494,26.7753771 L224.489494,79.0941173 L224.489494,79.0941173 L224.711088,79.1228639 Z M211.58168,52.1873366 C211.602919,50.3466823 211.27345,48.5198172 210.612209,46.8117298 C209.936111,45.1498247 209.000215,43.6151947 207.842292,42.2697732 C206.631581,40.9901962 205.251185,39.8963926 203.742814,39.0214119 C202.18043,38.1699262 200.438457,37.7352537 198.673866,37.7565632 C196.935912,37.7312036 195.211196,38.0735405 193.604917,38.7626928 C192.095735,39.4058029 190.70791,40.3205896 189.50544,41.4648695 C188.318266,42.7871209 187.378924,44.3274008 186.735523,46.0068261 C186.049446,47.9578543 185.720648,50.0247391 185.766052,52.1010969 C185.709225,54.1782746 186.038375,56.247374 186.735523,58.1953678 C187.378924,59.8747931 188.318266,61.4150729 189.50544,62.7373243 C190.639324,63.9801764 192.074392,64.8837052 193.660316,65.3532614 C195.281942,65.9875595 196.99655,66.32789 198.729264,66.359391 C200.491802,66.3622027 202.229555,65.9285834 203.798213,65.0945423 C206.90992,63.4397251 209.339942,60.6727733 210.639908,57.3042244 C211.333068,55.686911 211.664506,53.9277489 211.609379,52.1585901 L211.58168,52.1873366 Z" id="Shape"></path>
            <path d="M251.088959,79.2454374 L238.030677,79.2454374 L238.030677,39.6947862 L231.901843,39.6947862 L231.901843,26.2037478 L238.030677,26.2037478 L238.030677,23.6381443 C238.030229,20.4568077 238.679646,17.3119626 239.935585,14.4135026 C241.12287,11.6149978 242.788042,9.06550226 244.849695,6.88965425 C249.131884,2.49778973 254.887291,0.0256535514 260.889573,0 L270.55215,0 L270.55215,13.5486925 L260.889573,13.5486925 C259.588898,13.5527633 258.299139,13.7967376 257.079757,14.2693676 C255.943017,14.8124938 254.891294,15.5316597 253.960125,16.402566 C253.067298,17.3440013 252.346861,18.4479741 251.834358,19.6600176 C251.287431,20.9084076 251.004928,22.2653299 251.006137,23.6381443 L251.006137,26.2037478 L266.797548,26.2037478 L266.797548,39.7236132 L251.088959,39.7236132 L251.088959,79.2454374 L251.088959,79.2454374 Z" id="Shape"></path>
            <path d="M321.785059,52.3730189 C321.819513,56.1773335 321.122965,59.9504152 319.736382,63.4703543 C318.459713,66.7576236 316.578872,69.7537459 314.199416,72.2905741 C311.843788,74.7897126 309.015683,76.7527133 305.893967,78.0554236 C299.434332,80.8999727 292.143675,80.8999727 285.68404,78.0554236 C282.614573,76.6514051 279.803942,74.7005332 277.378591,72.2905741 C274.989884,69.7760174 273.066046,66.8252317 271.703201,63.5856512 C270.316618,60.0657122 269.62007,56.2926305 269.654524,52.4883159 C269.632979,48.6385059 270.328715,44.8208795 271.703201,41.2468592 C272.949886,37.943373 274.83441,34.9413835 277.240167,32.4266394 C279.581949,29.910141 282.413834,27.9445166 285.545616,26.6617899 C288.736923,25.2338915 292.177121,24.5077215 295.650579,24.5287955 C299.108643,24.5288646 302.536086,25.2034587 305.755542,26.5176686 C308.881834,27.8113149 311.711641,29.7754963 314.060992,32.2825182 C316.440448,34.8193463 318.321289,37.8154686 319.597958,41.102738 C321.001622,44.682749 321.743645,48.5064427 321.785059,52.3730189 L321.785059,52.3730189 Z M308.66245,52.3730189 C308.71028,50.3002661 308.381524,48.2367673 307.693481,46.2911026 C307.017732,44.6247062 306.082321,43.0859289 304.924998,41.7368715 C303.736452,40.5278 302.348526,39.5514154 300.827643,38.8544467 C299.225918,38.1505569 297.499477,37.8067737 295.761319,37.845598 C294.024264,37.8201699 292.300441,38.1634319 290.694995,38.8544467 C289.174112,39.5514154 287.786185,40.5278 286.59764,41.7368715 C285.440316,43.0859289 284.504905,44.6247062 283.829157,46.2911026 C283.132273,48.1942308 282.802992,50.2218448 282.860188,52.2577219 C282.815484,54.2270176 283.144774,56.186117 283.829157,58.0225714 C284.504905,59.6889678 285.440316,61.2277452 286.59764,62.5768026 C287.737291,63.8468779 289.137994,64.8322505 290.694995,65.4592273 C292.289209,66.2002094 294.01546,66.5832403 295.761319,66.583373 C297.498373,66.6088011 299.222196,66.2655391 300.827643,65.5745243 C302.348526,64.8775556 303.736452,63.9011711 304.924998,62.6920996 C306.157513,61.4038351 307.102685,59.849001 307.693481,58.1378684 C308.371639,56.2996146 308.700712,54.3418062 308.66245,52.3730189 L308.66245,52.3730189 Z" id="Shape"></path>
            <path d="M342.89962,79.2454374 L329.875877,79.2454374 L329.875877,26.4151458 L333.013794,26.4151458 L337.262477,32.6626517 C341.459173,28.7176425 346.926206,26.5407725 352.591062,26.5590975 L364.031962,26.5590975 L364.031962,40.0617715 L352.535524,40.0617715 C351.213086,40.0605107 349.905957,40.3551188 348.703378,40.925482 C347.559975,41.4679176 346.502088,42.186169 345.565461,43.0559679 C344.650859,43.9643521 343.948075,45.0769877 343.510542,46.3092774 C342.960409,47.55608 342.67625,48.9112769 342.677467,50.2823456 L342.677467,79.2454374 L342.677467,79.2454374 L342.89962,79.2454374 Z" id="Shape"></path>
            <path d="M414.367246,37.4392087 L404.722327,47.4474919 C404.303366,46.0978517 403.64957,44.8393206 402.793344,43.7342738 C401.970781,42.6601476 401.032844,41.6868745 399.997715,40.8333221 C398.921934,40.1215248 397.767401,39.5468607 396.559092,39.1217606 C395.358343,38.7198629 394.102458,38.5238932 392.840906,38.5415703 C391.079482,38.5566997 389.339225,38.9415467 387.724906,39.6729415 C386.175726,40.4636499 384.774666,41.5343862 383.587375,42.8349787 C382.415647,44.297829 381.472305,45.9423498 380.791747,47.7085775 C380.099735,49.7278208 379.768161,51.8610286 379.813277,54.0036426 C379.788614,55.823813 380.12154,57.630119 380.791747,59.3123841 C381.511967,60.8802435 382.454282,62.3274116 383.587375,63.6057925 C384.731712,64.8918932 386.14803,65.8849183 387.724906,66.5067442 C389.342336,67.2151582 391.085704,67.5611512 392.840906,67.5220773 C394.102458,67.5397544 395.358343,67.3437846 396.559092,66.9418869 C397.728149,66.5942201 398.840191,66.0661471 399.857934,65.375373 C400.879452,64.6807615 401.817895,63.8627716 402.653562,62.9385737 C403.500919,61.9904007 404.156798,60.8758134 404.582546,59.6604983 L414.227464,69.6687815 C413.033603,71.4531073 411.645238,73.0884641 410.089934,74.5423802 C408.529779,75.9418696 406.811921,77.139995 404.973934,78.1105508 C403.137905,79.1065556 401.19566,79.8757247 399.186983,80.4023026 C397.157918,80.9259972 395.071176,81.1698438 392.980687,81.1275405 C389.473171,81.14875 385.999242,80.4179125 382.776643,78.9808363 C379.647085,77.6252639 376.799301,75.6552162 374.389757,73.178933 C372.010918,70.672239 370.113425,67.7187697 368.7985,64.476078 C367.413599,61.1320707 366.709296,57.5272643 366.729735,53.8876045 C366.694821,49.9647769 367.397527,46.072537 368.7985,42.4288455 C370.116207,39.0057838 372.009362,35.8527966 374.389757,33.1167907 C376.78339,30.495001 379.627764,28.3600586 382.776643,26.8217257 C385.968563,25.2710694 389.456514,24.487702 392.980687,24.5299739 C395.123801,24.5280042 397.257722,24.820645 399.326764,25.4002594 C401.377342,26.0004043 403.363285,26.8169322 405.253497,27.8370587 C407.137399,28.9604595 408.89139,30.3036137 410.481322,31.840372 C412.004149,33.5247295 413.310322,35.4066631 414.367246,37.4392087 L414.367246,37.4392087 Z" id="Shape"></path>
            <path d="M505.897351,81.1322335 L475.770224,81.1322335 C475.770224,76.5659919 475.488662,71.855249 475.488662,67.3179077 L505.897351,67.7514116 C506.787042,67.7589693 507.641231,67.3936517 508.262472,66.7399024 C508.923278,66.1191742 509.283834,65.230972 509.247938,64.3122803 C509.374604,63.5362002 508.967411,62.7719414 508.262472,62.4626634 C507.510656,62.155896 506.706142,62.0084363 505.897351,62.0291595 L492.157129,62.0291595 C489.965228,62.0483256 487.791857,61.6159228 485.765673,60.7575479 C483.797613,59.878944 482.010678,58.6234782 480.500464,57.0583142 C478.990357,55.525444 477.810518,53.6843033 477.037252,51.653965 C475.36296,47.4492111 475.36296,42.7379993 477.037252,38.5332455 C477.895622,36.549336 479.065595,34.7235898 480.500464,33.1288962 C481.993869,31.5788822 483.787608,30.3678645 485.765673,29.5741639 C487.791857,28.715789 489.965228,28.2833862 492.157129,28.3025523 L518.257921,29.1695602 C518.539483,33.3022978 518.680264,37.5795368 518.961825,41.7122744 L492.157129,41.7122744 C490.840503,41.7479402 489.666361,42.5720471 489.156343,43.8184653 C488.646325,45.0648835 488.895047,46.5023862 489.792008,47.4923271 C490.396755,48.1705957 491.26209,48.54068 492.157129,48.5038363 L505.897351,48.5038363 C508.074544,48.5065666 510.235572,48.887656 512.288807,49.6309466 C514.235118,50.3554917 516.023988,51.4650327 517.554016,52.8966763 C519.045845,54.2813916 520.219158,55.989156 520.989071,57.8964219 C521.82543,59.9254867 522.24709,62.1091751 522.227944,64.3122803 C522.246617,66.5621055 521.825346,68.7929109 520.989071,70.8726401 C520.130702,72.8565496 518.960729,74.6822957 517.52586,76.2769893 C516.032455,77.8270033 514.238716,79.038021 512.260651,79.8317217 C510.222283,80.6165055 508.073121,81.0557447 505.897351,81.1322335 L505.897351,81.1322335 Z" id="Shape"></path>
            <path d="M49.8230776,79.2077189 L44.6722069,71.9533472 C43.3829601,73.1158807 42.0296981,74.201975 40.6190628,75.2062996 C39.216088,76.197123 37.7274949,77.0547109 36.171863,77.7683594 C34.6415602,78.4602809 33.0604734,79.0281761 31.4431949,79.4668036 C29.8082847,79.915719 28.1256254,80.1574242 26.4330584,80.1864833 C22.9262053,80.2323344 19.4418601,79.6074812 16.1594639,78.3441032 C13.0300379,77.1268206 10.1620718,75.2984507 7.71541363,72.9608988 C5.26950936,70.4493879 3.35353665,67.451258 2.08604678,64.152019 C0.653625563,60.4021123 -0.0537359607,56.4035605 0.00318105155,52.3780587 C-0.0451923025,48.4841144 0.66278118,44.6190915 2.08604678,41.007119 C3.38402056,37.724076 5.29624859,34.7318058 7.71541363,32.1982392 C10.1034299,29.6937746 12.9806076,27.732018 16.1594639,26.4408014 C19.4546269,25.0755295 22.9920588,24.4284236 26.5456457,24.5408469 C28.2382128,24.569906 29.920872,24.8116112 31.5557822,25.2605266 C33.2035353,25.6620585 34.7931305,26.2813954 36.2844504,27.1029067 C37.8432545,27.8665663 39.3316634,28.7722212 40.7316502,29.8089025 C42.0929868,30.7730147 43.3734065,31.8514676 44.5596196,33.0330677 L49.7104903,26.7862477 L52.8910825,26.7862477 L52.8910825,79.1789317 L49.8230776,79.2077189 Z M39.8309515,52.3780587 C39.8525332,50.534803 39.51774,48.7053558 38.8458123,46.9948543 C38.1587872,45.3306004 37.2077659,43.7938014 36.0311288,42.4464785 C34.8008505,41.165093 33.3981457,40.0697435 31.8653974,39.1935261 C30.2777624,38.340837 28.507636,37.9055501 26.7145267,37.9268898 C24.9484844,37.9014944 23.1958941,38.2443151 21.5636561,38.9344414 C20.0214166,39.5612218 18.608256,40.4791894 17.3979246,41.6404372 C16.1915635,42.9645574 15.2370409,44.5070141 14.5832412,46.1888131 C13.8860764,48.1425987 13.5519643,50.2124047 13.598102,52.2916971 C13.5403563,54.3718106 13.8748263,56.4438342 14.5832412,58.3945812 C15.2370409,60.0763801 16.1915635,61.6188369 17.3979246,62.9429571 C18.5243353,64.2104282 19.9630843,65.1450176 21.5636561,65.6489528 C23.2114901,66.2841474 24.9538088,66.6249589 26.7145267,66.6565044 C28.5055497,66.6593202 30.2713872,66.225088 31.8653974,65.3898681 C35.0273948,63.7327122 37.4966895,60.9618497 38.8176654,57.5885399 C39.4615537,55.918893 39.8048419,54.1438965 39.8309515,52.3492715 L39.8309515,52.3780587 Z" id="Shape"></path>
            <path d="M23.8193753,56.6038838 C27.5425105,56.6038838 30.5607079,53.4360811 30.5607079,49.5283984 C30.5607079,45.6207156 27.5425105,42.4529129 23.8193753,42.4529129 C20.0962401,42.4529129 17.0780427,45.6207156 17.0780427,49.5283984 C17.0780427,53.4360811 20.0962401,56.6038838 23.8193753,56.6038838 Z" id="Oval"></path>
            <path d="M470.090118,51.5996328 C470.231843,44.5295167 467.618315,37.6939404 462.829954,32.6109648 C458.041593,27.5279892 451.474789,24.6183943 444.587914,24.5283497 C430.201367,24.8102528 418.722497,36.9408476 418.862739,51.7140991 C418.860888,53.1898396 418.972721,54.6634189 419.197194,56.1210522 L419.197194,56.1210522 C419.444363,58.761737 420.083503,61.3480634 421.09244,63.7902952 C422.398517,66.991737 424.29082,69.9060955 426.666692,72.3752687 C429.026997,74.8702413 431.877193,76.821184 435.028071,78.0985843 C438.231637,79.5112619 441.686848,80.2227329 445.17321,80.1875945 C447.254569,80.1752865 449.328734,79.9354631 451.36063,79.4721801 C453.362967,78.951983 455.299222,78.1932652 457.129981,77.2114704 C458.96155,76.2526131 460.67402,75.0708294 462.230422,73.6916313 C463.862118,72.2295775 465.279603,70.5332283 466.438983,68.6551135 L456.87914,58.8110105 C456.318469,59.9371691 455.675594,61.018147 454.956023,62.0446839 C454.164803,63.0007129 453.222621,63.8133097 452.168897,64.4484765 C451.472449,64.9257315 450.735525,65.3375684 449.967067,65.6789893 L449.632612,65.6789893 L448.740732,65.9365385 C447.575946,66.2446635 446.375821,66.389064 445.17321,66.3657872 C443.44024,66.3203612 441.726413,65.9819656 440.10064,65.364207 C438.602648,64.6271362 437.221436,63.6624103 436.003565,62.5025491 C434.873918,61.241484 433.934468,59.8139181 433.216439,58.2672955 C432.915513,57.5601848 432.691196,56.8212558 432.547529,56.063819 L469.727792,56.063819 C469.964194,54.5880424 470.085355,53.0952288 470.090118,51.5996328 L470.090118,51.5996328 Z M432.631142,46.0480166 C432.631142,41.8413796 437.982425,38.4073902 444.532171,38.4073902 C451.081918,38.4073902 456.405329,41.7841464 456.377457,46.0194 L432.631142,46.0480166 Z" id="Shape"></path>
        </g>
    </g>
</svg>