<svg xmlns="http://www.w3.org/2000/svg" viewBox="0 0 89.41 238.03"><defs><style>.cls-1{fill:#6d6e71;}.cls-2{fill:#414042;}.cls-3{fill:#939598;}.cls-4{fill:#fdcc9a;}.cls-5{fill:#4f7ec0;}.cls-6{fill:#c49a6c;}.cls-7{fill:#e6e7e8;}.cls-8{fill:#814e9f;}.cls-9{fill:#7f4e20;}</style></defs><title>3boaters-1.50</title><g id="anotherbootah_" data-name="anotherbootah?"><path class="cls-1" d="M165.54,34C160,19.23,153,10.47,145.51,10.47s-14.44,8.76-20,23.55C117.28,55.72,112,90.4,112,129.49V236.31c0,6.7,4.73,12.19,10.5,12.19h46.08c5.78,0,10.5-5.48,10.5-12.19V129.49C179.05,90.4,173.74,55.72,165.54,34Z" transform="translate(-98.65 -10.47)"/><path class="cls-2" d="M162.19,43.2c-4.72-13.24-10.57-21.08-16.9-21.08S133.1,30,128.38,43.2C121.46,62.61,117,93.65,117,128.63v95.6c0,6,4,10.91,8.86,10.91h38.88c4.87,0,8.86-4.91,8.86-10.91v-95.6C173.59,93.65,169.11,62.61,162.19,43.2Z" transform="translate(-98.65 -10.47)"/><rect class="cls-3" x="18.58" y="67.53" width="56.16" height="17.5"/><rect class="cls-3" x="16.37" y="200.03" width="60.58" height="24.64"/><rect class="cls-3" x="16.33" y="111.23" width="60.61" height="17.5"/><rect class="cls-3" x="16.33" y="155.94" width="60.61" height="17.5"/></g><g id="godamnlegs"><path class="cls-4" d="M154.22,149.74c2.49.28,4.34,2.78,4.21,5.62l-9.26-1.29A4.84,4.84,0,0,1,154.22,149.74Z" transform="translate(-98.65 -10.47)"/><path class="cls-5" d="M149.11,154.56c0-.17,0-.33.06-.49l9.26,1.29c0,.08,0,.16,0,.24L157.11,171c-.25,2.94-2.55,5.11-5.11,4.82s-4.45-2.93-4.2-5.86Z" transform="translate(-98.65 -10.47)"/><path class="cls-4" d="M138,149.74c-2.49.28-4.34,2.78-4.21,5.62l9.26-1.29A4.84,4.84,0,0,0,138,149.74Z" transform="translate(-98.65 -10.47)"/><path class="cls-5" d="M143.07,154.56c0-.17,0-.33-.06-.49l-9.26,1.29c0,.08,0,.16,0,.24L135.06,171c.25,2.94,2.55,5.11,5.11,4.82s4.45-2.93,4.2-5.86Z" transform="translate(-98.65 -10.47)"/><path class="cls-4" d="M154.62,105.14c2.49.28,4.34,2.78,4.21,5.62l-9.26-1.29A4.84,4.84,0,0,1,154.62,105.14Z" transform="translate(-98.65 -10.47)"/><path class="cls-5" d="M149.51,110c0-.17,0-.33.06-.49l9.26,1.29c0,.08,0,.16,0,.24l-1.31,15.37c-.25,2.94-2.55,5.11-5.11,4.82s-4.45-2.93-4.2-5.86Z" transform="translate(-98.65 -10.47)"/><path class="cls-4" d="M138.35,105.14c-2.49.28-4.34,2.78-4.21,5.62l9.26-1.29A4.84,4.84,0,0,0,138.35,105.14Z" transform="translate(-98.65 -10.47)"/><path class="cls-5" d="M143.47,110c0-.17,0-.33-.06-.49l-9.26,1.29c0,.08,0,.16,0,.24l1.31,15.37c.25,2.94,2.55,5.11,5.11,4.82s4.45-2.93,4.2-5.86Z" transform="translate(-98.65 -10.47)"/><path class="cls-4" d="M153.41,62.68c2.49.28,4.34,2.78,4.21,5.62L148.37,67A4.84,4.84,0,0,1,153.41,62.68Z" transform="translate(-98.65 -10.47)"/><path class="cls-5" d="M148.3,67.5c0-.17,0-.33.06-.49l9.26,1.29c0,.08,0,.16,0,.24l-1.31,15.37c-.25,2.94-2.55,5.11-5.11,4.82s-4.45-2.93-4.2-5.86Z" transform="translate(-98.65 -10.47)"/><path class="cls-4" d="M137.15,62.68c-2.49.28-4.34,2.78-4.21,5.62L142.2,67A4.84,4.84,0,0,0,137.15,62.68Z" transform="translate(-98.65 -10.47)"/><path class="cls-5" d="M142.26,67.5c0-.17,0-.33-.06-.49l-9.26,1.29c0,.08,0,.16,0,.24l1.31,15.37c.25,2.94,2.55,5.11,5.11,4.82s4.45-2.93,4.2-5.86Z" transform="translate(-98.65 -10.47)"/></g><g id="oooarss"><rect class="cls-6" x="112.8" y="72.73" width="61.04" height="1.63" rx="0.81" ry="0.81" transform="translate(-98.79 -10.21) rotate(-0.1)"/><rect class="cls-6" x="170.9" y="68.86" width="16.3" height="9.23" rx="4.61" ry="4.61" transform="translate(-98.79 -10.15) rotate(-0.1)"/><rect class="cls-6" x="98.65" y="68.99" width="16.3" height="9.23" rx="4.61" ry="4.61" transform="translate(-98.79 -10.28) rotate(-0.1)"/><rect class="cls-6" x="113.29" y="114.48" width="61.04" height="1.63" rx="0.81" ry="0.81" transform="translate(-98.86 -10.21) rotate(-0.1)"/><rect class="cls-6" x="171.39" y="110.61" width="16.3" height="9.23" rx="4.61" ry="4.61" transform="translate(-98.86 -10.15) rotate(-0.1)"/><rect class="cls-6" x="99.14" y="110.74" width="16.3" height="9.23" rx="4.61" ry="4.61" transform="translate(-98.86 -10.28) rotate(-0.1)"/><rect class="cls-6" x="113.66" y="159.27" width="61.04" height="1.63" rx="0.81" ry="0.81" transform="translate(-98.94 -10.21) rotate(-0.1)"/><rect class="cls-6" x="171.76" y="155.4" width="16.3" height="9.23" rx="4.61" ry="4.61" transform="translate(-98.94 -10.15) rotate(-0.1)"/><rect class="cls-6" x="99.51" y="155.53" width="16.3" height="9.23" rx="4.61" ry="4.61" transform="translate(-98.94 -10.28) rotate(-0.1)"/></g><g id="sweat"><path class="cls-7" d="M141.5,99.93c-.11-.07-.25.21-.77.6a3.3,3.3,0,0,0-.57.45,1.35,1.35,0,0,0-.35.54,1.17,1.17,0,0,0,.22,1.13c.37.33.94.07,1.17-.29a2.66,2.66,0,0,0,.23-.89,7.05,7.05,0,0,0,.09-.74C141.56,100.23,141.58,100,141.5,99.93Z" transform="translate(-98.65 -10.47)"/><path class="cls-7" d="M145.52,100.25c-.12,0-.09.35-.32,1a4.46,4.46,0,0,0-.24.77,1.62,1.62,0,0,0,0,.68c.08.35.37.75.74.75s.79-.61.8-1.07a2.66,2.66,0,0,0-.25-.88,6.39,6.39,0,0,0-.29-.65C145.72,100.45,145.61,100.23,145.52,100.25Z" transform="translate(-98.65 -10.47)"/><path class="cls-7" d="M150.11,98.8c-.1.08,0,.36.08,1.1a4.7,4.7,0,0,0,.06.82,1.5,1.5,0,0,0,.23.63.77.77,0,0,0,.94.3,1.23,1.23,0,0,0,.34-1.38,2.2,2.2,0,0,0-.55-.66,5.11,5.11,0,0,0-.5-.44C150.36,98.88,150.18,98.74,150.11,98.8Z" transform="translate(-98.65 -10.47)"/><path class="cls-7" d="M142.2,142.07c-.11-.07-.25.21-.77.6a3.3,3.3,0,0,0-.57.45,1.35,1.35,0,0,0-.35.54,1.17,1.17,0,0,0,.22,1.13c.37.33.94.07,1.17-.29a2.66,2.66,0,0,0,.23-.89,7.05,7.05,0,0,0,.09-.74C142.25,142.37,142.27,142.12,142.2,142.07Z" transform="translate(-98.65 -10.47)"/><path class="cls-7" d="M146.21,142.39c-.12,0-.09.35-.32,1a4.46,4.46,0,0,0-.24.77,1.62,1.62,0,0,0,0,.68c.08.35.37.75.74.75s.79-.61.8-1.07a2.66,2.66,0,0,0-.25-.88,6.39,6.39,0,0,0-.29-.65C146.41,142.59,146.3,142.38,146.21,142.39Z" transform="translate(-98.65 -10.47)"/><path class="cls-7" d="M150.8,140.94c-.1.08,0,.36.08,1.1a4.7,4.7,0,0,0,.06.82,1.5,1.5,0,0,0,.23.63.77.77,0,0,0,.94.3,1.23,1.23,0,0,0,.34-1.38,2.2,2.2,0,0,0-.55-.66,5.11,5.11,0,0,0-.5-.44C151,141,150.87,140.89,150.8,140.94Z" transform="translate(-98.65 -10.47)"/><path class="cls-7" d="M143,186.81c-.11-.07-.25.21-.77.6a3.3,3.3,0,0,0-.57.45,1.35,1.35,0,0,0-.35.54,1.17,1.17,0,0,0,.22,1.13c.37.33.94.07,1.17-.29a2.66,2.66,0,0,0,.23-.89,7.05,7.05,0,0,0,.09-.74C143,187.11,143.06,186.86,143,186.81Z" transform="translate(-98.65 -10.47)"/><path class="cls-7" d="M147,187.13c-.12,0-.09.35-.32,1a4.46,4.46,0,0,0-.24.77,1.62,1.62,0,0,0,0,.68c.08.35.37.75.74.75s.79-.61.8-1.07a2.66,2.66,0,0,0-.25-.88,6.39,6.39,0,0,0-.29-.65C147.19,187.33,147.08,187.11,147,187.13Z" transform="translate(-98.65 -10.47)"/><path class="cls-7" d="M151.58,185.68c-.1.08,0,.36.08,1.1a4.7,4.7,0,0,0,.06.82,1.5,1.5,0,0,0,.23.63.77.77,0,0,0,.94.3,1.23,1.23,0,0,0,.34-1.38,2.2,2.2,0,0,0-.55-.66,5.11,5.11,0,0,0-.5-.44C151.83,185.76,151.66,185.62,151.58,185.68Z" transform="translate(-98.65 -10.47)"/></g><g id="peeps-2" data-name="peeps"><path class="cls-4" d="M162.08,85.64a45.16,45.16,0,0,1,.42-5.76c.47-3.59,1.42-10.9,3-10.92,1.33,0,2.79,6.32,3,10.92.13,3.4-.37,7.76-.39,9.3A5,5,0,0,1,168,90a2,2,0,0,1-.45,1.18,1.47,1.47,0,0,1-1.18.27c-.79.31-1.9.71-3.26,1.09-2.9.81-4.52,1.26-5.17.54s.55-2-.07-4.52c-.24-1-.55-1.27-.38-1.74C157.82,85.76,160.07,85.59,162.08,85.64Z" transform="translate(-98.65 -10.47)"/><path class="cls-4" d="M127.85,85.64a45.16,45.16,0,0,0-.42-5.76C127,76.3,126,69,124.46,69c-1.33,0-2.79,6.32-3,10.92-.13,3.4.37,7.76.39,9.3A5,5,0,0,0,122,90a2,2,0,0,0,.45,1.18,1.47,1.47,0,0,0,1.18.27c.79.31,1.9.71,3.26,1.09,2.9.81,4.52,1.26,5.17.54s-.55-2,.07-4.52c.24-1,.55-1.27.38-1.74C132.11,85.76,129.86,85.59,127.85,85.64Z" transform="translate(-98.65 -10.47)"/><path class="cls-8" d="M158.35,86.4c-4.85-8-21.39-8.34-26.65-.26A11.61,11.61,0,0,0,130,90.53v1.36c0,3.42,2.54,6.22,5.64,6.22h18.44c3.1,0,5.64-2.8,5.64-6.22V90.53A11,11,0,0,0,158.35,86.4Z" transform="translate(-98.65 -10.47)"/><path class="cls-4" d="M145,79.43c4.64,0,8.41,4.7,8.41,10.5,0,.18,0,.35,0,.53a12.16,12.16,0,0,0,.15-1.89c0-5.65-3.84-10.24-8.58-10.24s-8.58,4.58-8.58,10.24a12.2,12.2,0,0,0,.17,2c0-.09,0-.17.07-.26s0-.26,0-.39C136.6,84.13,140.36,79.43,145,79.43Z" transform="translate(-98.65 -10.47)"/><path class="cls-9" d="M153.18,86.2a8.31,8.31,0,0,0-16.34,0,9.71,9.71,0,0,0-.29,2.32c0,5,3.79,9.09,8.46,9.09s8.46-4.07,8.46-9.09A9.71,9.71,0,0,0,153.18,86.2Z" transform="translate(-98.65 -10.47)"/><path class="cls-4" d="M162.57,127.4a45.16,45.16,0,0,1,.42-5.76c.47-3.59,1.42-10.9,3-10.92,1.33,0,2.79,6.32,3,10.92.13,3.4-.37,7.76-.39,9.3a5,5,0,0,1-.09.82,2,2,0,0,1-.45,1.18,1.47,1.47,0,0,1-1.18.27c-.79.31-1.9.71-3.26,1.09-2.9.81-4.52,1.26-5.17.54s.55-2-.07-4.52c-.24-1-.55-1.27-.38-1.74C158.31,127.52,160.56,127.35,162.57,127.4Z" transform="translate(-98.65 -10.47)"/><path class="cls-4" d="M128.34,127.4a45.16,45.16,0,0,0-.42-5.76c-.47-3.59-1.42-10.9-3-10.92-1.33,0-2.79,6.32-3,10.92-.13,3.4.37,7.76.39,9.3a5,5,0,0,0,.09.82,2,2,0,0,0,.45,1.18,1.47,1.47,0,0,0,1.18.27c.79.31,1.9.71,3.26,1.09,2.9.81,4.52,1.26,5.17.54s-.55-2,.07-4.52c.24-1,.55-1.27.38-1.74C132.59,127.52,130.35,127.35,128.34,127.4Z" transform="translate(-98.65 -10.47)"/><path class="cls-8" d="M158.84,128.16c-4.85-8-21.39-8.34-26.65-.26a11.61,11.61,0,0,0-1.66,4.39v1.36c0,3.42,2.54,6.22,5.64,6.22h18.44c3.1,0,5.64-2.8,5.64-6.22v-1.36A11,11,0,0,0,158.84,128.16Z" transform="translate(-98.65 -10.47)"/><path class="cls-4" d="M145.5,121.19c4.64,0,8.41,4.7,8.41,10.5,0,.18,0,.35,0,.53a12.16,12.16,0,0,0,.15-1.89c0-5.65-3.84-10.24-8.58-10.24s-8.58,4.58-8.58,10.24a12.2,12.2,0,0,0,.17,2c0-.09,0-.17.07-.26s0-.26,0-.39C137.09,125.89,140.85,121.19,145.5,121.19Z" transform="translate(-98.65 -10.47)"/><path class="cls-9" d="M153.67,128a8.31,8.31,0,0,0-16.34,0,9.71,9.71,0,0,0-.29,2.32c0,5,3.79,9.09,8.46,9.09s8.46-4.07,8.46-9.09A9.71,9.71,0,0,0,153.67,128Z" transform="translate(-98.65 -10.47)"/><path class="cls-4" d="M162.94,172.18a45.16,45.16,0,0,1,.42-5.76c.47-3.59,1.42-10.9,3-10.92,1.33,0,2.79,6.32,3,10.92.13,3.4-.37,7.76-.39,9.3a5,5,0,0,1-.09.82,2,2,0,0,1-.45,1.18,1.47,1.47,0,0,1-1.18.27c-.79.31-1.9.71-3.26,1.09-2.9.81-4.52,1.26-5.17.54s.55-2-.07-4.52c-.24-1-.55-1.27-.38-1.74C158.68,172.3,160.93,172.13,162.94,172.18Z" transform="translate(-98.65 -10.47)"/><path class="cls-4" d="M128.71,172.18a45.16,45.16,0,0,0-.42-5.76c-.47-3.59-1.42-10.9-3-10.92-1.33,0-2.79,6.32-3,10.92-.13,3.4.37,7.76.39,9.3a5,5,0,0,0,.09.82,2,2,0,0,0,.45,1.18,1.47,1.47,0,0,0,1.18.27c.79.31,1.9.71,3.26,1.09,2.9.81,4.52,1.26,5.17.54s-.55-2,.07-4.52c.24-1,.55-1.27.38-1.74C133,172.3,130.72,172.13,128.71,172.18Z" transform="translate(-98.65 -10.47)"/><path class="cls-8" d="M159.21,172.94c-4.85-8-21.39-8.34-26.65-.26a11.61,11.61,0,0,0-1.66,4.39v1.36c0,3.42,2.54,6.22,5.64,6.22H155c3.1,0,5.64-2.8,5.64-6.22v-1.36A11,11,0,0,0,159.21,172.94Z" transform="translate(-98.65 -10.47)"/><path class="cls-4" d="M145.87,166c4.64,0,8.41,4.7,8.41,10.5,0,.18,0,.35,0,.53a12.16,12.16,0,0,0,.15-1.89c0-5.65-3.84-10.24-8.58-10.24s-8.58,4.58-8.58,10.24a12.2,12.2,0,0,0,.17,2c0-.09,0-.17.07-.26s0-.26,0-.39C137.46,170.68,141.22,166,145.87,166Z" transform="translate(-98.65 -10.47)"/><path class="cls-9" d="M154,172.74a8.31,8.31,0,0,0-16.34,0,9.71,9.71,0,0,0-.29,2.32c0,5,3.79,9.09,8.46,9.09s8.46-4.07,8.46-9.09A9.71,9.71,0,0,0,154,172.74Z" transform="translate(-98.65 -10.47)"/></g></svg>